<?xml version="1.0" encoding="utf-8"?>
<!-- Generator: Adobe Illustrator 18.0.0, SVG Export Plug-In . SVG Version: 6.00 Build 0)  -->
<!DOCTYPE svg PUBLIC "-//W3C//DTD SVG 1.1//EN" "http://www.w3.org/Graphics/SVG/1.1/DTD/svg11.dtd">
<svg version="1.1" id="Layer_1" xmlns="http://www.w3.org/2000/svg" xmlns:xlink="http://www.w3.org/1999/xlink" x="0px" y="0px"
	 viewBox="0 0 100 100" enable-background="new 0 0 100 100" xml:space="preserve">
<path fill-rule="evenodd" clip-rule="evenodd" fill="#231F20" d="M29,12.4l-20.6-3l0,0c-0.2,0-0.3,0-0.5,0c-1,0-2,0.5-2.7,1.2
	c-0.8,0.8-1.3,1.8-1.4,2.9c0,0.2,0,0.5,0,0.7v68.4c0,0.3,0,0.6,0.1,0.9c0.2,1.1,0.7,2.1,1.5,2.8c0.7,0.7,1.6,1.2,2.6,1.2
	c0.2,0,0.4,0,0.6,0L29,83.8c0.3-0.1,0.6-0.1,0.9-0.2c0.3-0.1,0.6-0.2,0.8-0.3l0.2-0.1l0.2,0.1c0.3,0.1,0.5,0.2,0.8,0.3
	c0.3,0.1,0.6,0.1,0.9,0.2l20.6,3.7c0.3,0,0.5,0.1,0.8,0c0.3,0,0.5-0.1,0.8-0.1l0.2,0l0.2,0c0.2,0.1,0.5,0.1,0.8,0.1
	c0.3,0,0.5,0,0.8,0l4.4-0.8l-0.2-0.2c-3-3.3-6.1-6.8-8.9-10.1V78v0v0l0,0.1v0c0,0.3-0.2,0.7-0.4,0.9c-0.3,0.3-0.6,0.4-1,0.4h0h-0.1
	l0,0l-15.4-1.6c-0.4,0-0.7-0.2-1-0.4c-0.3-0.2-0.4-0.6-0.4-1l0,0V54.7l7.9-13.9c0.3,0.1,0.6,0.1,0.9,0.1c0.5,0,0.9-0.1,1.3-0.3
	c0.8-1.8,1.7-3.5,2.8-5.1l-0.4-0.1c-0.4-2.1-1.9-3.6-3.7-3.6c-2.1,0-3.8,2.1-3.8,4.6c0,0.6,0.1,1.1,0.2,1.6l-5.3,9.3V19.8l0,0
	c0-0.4,0.2-0.7,0.4-1c0.2-0.2,0.6-0.4,1-0.4L50.8,17h0h0h0c0.4,0,0.7,0.1,1,0.4l0,0c0.2,0.2,0.4,0.6,0.4,0.9v0l0,0v0v0v11.2
	c1.8-1.5,3.8-2.8,6-3.9v-7.2v0l0,0l0,0v0c0-0.4,0.2-0.7,0.4-0.9c0.3-0.3,0.6-0.4,1-0.4h0h0h0l15.4,1.4c0.4,0,0.7,0.2,1,0.4l0,0
	c0.3,0.3,0.4,0.6,0.4,1v3.2c2.1,0.4,4.1,0.9,6,1.7v-7.5c0-1.3-0.5-2.3-1.3-3.1l0,0c-0.9-0.9-2.2-1.5-3.6-1.7L57,9.4
	c-0.3,0-0.5,0-0.8,0l0,0c-0.3,0-0.5,0.1-0.8,0.2l-0.2,0.1l-0.2-0.1c-0.2-0.1-0.5-0.1-0.8-0.2h0c-0.3,0-0.5,0-0.8,0l-20.6,3
	c-0.3,0-0.6,0.1-0.9,0.2c-0.3,0.1-0.6,0.2-0.8,0.3L30.9,13l-0.2-0.1c-0.3-0.1-0.5-0.2-0.8-0.3C29.6,12.5,29.3,12.5,29,12.4L29,12.4z
	 M71.4,90.6C65.2,83.4,56.3,74.3,51,66.8c-3-4.2-4.5-9.2-4.5-14.3c0-13.8,11.2-24.9,24.9-24.9c13.8,0,24.9,11.2,24.9,24.9
	c0,5.2-1.6,10.1-4.5,14.3C86.5,74.3,77.6,83.4,71.4,90.6L71.4,90.6z M71.4,34.1c10.1,0,18.4,8.2,18.4,18.4
	c0,10.1-8.2,18.4-18.4,18.4c-10.1,0-18.4-8.2-18.4-18.4C53.1,42.3,61.3,34.1,71.4,34.1L71.4,34.1z M18.8,59.5
	c-2.1,0-3.8,2.1-3.8,4.6c0,2.5,1.7,4.6,3.8,4.6c2.1,0,3.8-2.1,3.8-4.6c0-0.1,0-0.2,0-0.3l5.4-3.6v16.2v0v0c0,0.4-0.2,0.7-0.4,1
	c-0.3,0.2-0.6,0.4-1,0.4l-15.4,1.6l0,0H11h0c-0.4,0-0.7-0.2-0.9-0.4l0,0c-0.2-0.2-0.4-0.6-0.4-0.9l0,0V78l0,0V18.5l0,0v-0.1v0
	c0-0.4,0.2-0.7,0.4-0.9c0.2-0.3,0.6-0.4,1-0.4l0,0h0.1h0l15.4,1.4c0.4,0,0.7,0.2,1,0.4c0.3,0.2,0.4,0.6,0.4,1v0v0v35.8l-7,4.7
	C20.4,59.8,19.6,59.5,18.8,59.5z"/>
</svg>
