<?xml version="1.0" encoding="utf-8"?>
<!-- Generator: Adobe Illustrator 18.0.0, SVG Export Plug-In . SVG Version: 6.00 Build 0)  -->
<!DOCTYPE svg PUBLIC "-//W3C//DTD SVG 1.1//EN" "http://www.w3.org/Graphics/SVG/1.1/DTD/svg11.dtd">
<svg version="1.1" id="Layer_1" xmlns="http://www.w3.org/2000/svg" xmlns:xlink="http://www.w3.org/1999/xlink" x="0px" y="0px"
	 viewBox="0 0 100 100" enable-background="new 0 0 100 100" xml:space="preserve">
<g>
	<g>
		<path fill="#231F20" d="M18,65.6c-8.6,0-15.6-7-15.6-15.6s7-15.6,15.6-15.6c8.6,0,15.6,7,15.6,15.6S26.6,65.6,18,65.6L18,65.6z
			 M18,42.4c-4.2,0-7.6,3.4-7.6,7.6s3.4,7.6,7.6,7.6c4.2,0,7.6-3.4,7.6-7.6S22.1,42.4,18,42.4L18,42.4z"/>
	</g>
	<g>
		<g>
			<path fill="#231F20" d="M82,31.2c-8.6,0-15.6-7-15.6-15.6S73.4,0,82,0s15.6,7,15.6,15.6S90.7,31.2,82,31.2L82,31.2z M82,8.1
				c-4.2,0-7.6,3.4-7.6,7.6s3.4,7.6,7.6,7.6c4.2,0,7.6-3.4,7.6-7.6S86.2,8.1,82,8.1L82,8.1z"/>
		</g>
		<g>
			<path fill="#231F20" d="M82,100c-8.6,0-15.6-7-15.6-15.6s7-15.6,15.6-15.6s15.6,7,15.6,15.6S90.7,100,82,100L82,100z M82,76.8
				c-4.2,0-7.6,3.4-7.6,7.6s3.4,7.6,7.6,7.6c4.2,0,7.6-3.4,7.6-7.6S86.2,76.8,82,76.8L82,76.8z"/>
		</g>
	</g>
	<g>
		<g>
			<path fill="#231F20" d="M70.1,82.3c-0.7,0-1.4-0.2-2-0.5L27,58c-1.9-1.1-2.6-3.6-1.5-5.5c1.1-1.9,3.6-2.6,5.5-1.5l41.1,23.7
				c1.9,1.1,2.6,3.6,1.5,5.5C72.9,81.6,71.5,82.3,70.1,82.3L70.1,82.3z"/>
		</g>
		<g>
			<path fill="#231F20" d="M29,49.5c-1.4,0-2.7-0.7-3.5-2c-1.1-1.9-0.5-4.4,1.5-5.5l41.1-23.7c1.9-1.1,4.4-0.5,5.5,1.5
				c1.1,1.9,0.4,4.4-1.5,5.5L31,48.9C30.4,49.3,29.7,49.5,29,49.5L29,49.5z"/>
		</g>
	</g>
</g>
</svg>
