<?xml version="1.0" encoding="utf-8"?>
<!-- Generator: Adobe Illustrator 18.0.0, SVG Export Plug-In . SVG Version: 6.00 Build 0)  -->
<!DOCTYPE svg PUBLIC "-//W3C//DTD SVG 1.1//EN" "http://www.w3.org/Graphics/SVG/1.1/DTD/svg11.dtd">
<svg version="1.1" id="Layer_1" xmlns="http://www.w3.org/2000/svg" xmlns:xlink="http://www.w3.org/1999/xlink" x="0px" y="0px"
	 viewBox="0 0 100 100" enable-background="new 0 0 100 100" xml:space="preserve">
<path fill="#231F20" d="M34.6,38.8c-1,0-2.1-0.4-2.8-1.1L8,14v15.2c0,2.1-1,3.7-3,3.7s-3-1.6-3-3.7v-24c0-0.2-0.3-1.8,0.4-2.6
	C3.3,1.8,4.6,2,4.7,2h24.2c2.1,0,3.7,1,3.7,3S31,8,28.8,8H13.6l23.7,24.1c0.7,0.7,1.1,1.8,1.1,2.8c0,1.1-0.4,2.1-1.1,2.8
	C36.5,38.4,35.6,38.8,34.6,38.8z"/>
<path fill="#231F20" d="M5,98c-0.1,0-1.7,0.1-2.5-0.7C1.7,96.5,2,94.9,2,94.8V70.7C2,68.6,3,67,5,67s3,1.6,3,3.7v15.2l24-23.6
	c0.7-0.7,1.7-1,2.7-1c1,0,2.1,0.4,2.8,1.1c1.5,1.5,1.5,4.1,0,5.5L13.8,92H29c2.1,0,3.7,1,3.7,3s-1.6,3-3.7,3H5z"/>
<path fill="#231F20" d="M64.7,38.5c-1.1,0-2.2-0.4-2.9-1.1c-0.7-0.7-1.1-1.6-1.1-2.7c0-1,0.4-2.1,1.1-2.8L85.5,8H70.3
	c-2.1,0-3.7-1-3.7-3s1.6-3,3.7-3h24c0.2,0,2.3-0.2,3.1,0.6c0.8,0.8,1.1,2.4,1.1,2.4l0,24.1c0,2.1-1.3,3.7-3.2,3.7S92,31.2,92,29.1
	V13.8L67.7,37.5C67,38.1,65.8,38.5,64.7,38.5z"/>
<path fill="#231F20" d="M70.5,98c-2.1,0-3.7-1-3.7-3s1.6-3,3.7-3h15.2L62.2,67.6c-0.7-0.7-1.1-1.8-1-3c0-1.1,0.4-2.2,1.1-2.9
	c0.7-0.7,1.7-1.1,2.7-1.1c1,0,2.2,0.4,2.9,1.1L92,85.4V70.2c0-2.1,1-3.7,3-3.7s3,1.6,3,3.7v24c0,0.3,0,2.4-0.8,3.1
	c-0.8,0.8-2.5,0.9-2.6,0.9l0.1-0.2H70.5z"/>
</svg>
