<?xml version="1.0" encoding="utf-8"?>
<!-- Generator: Adobe Illustrator 18.0.0, SVG Export Plug-In . SVG Version: 6.00 Build 0)  -->
<!DOCTYPE svg PUBLIC "-//W3C//DTD SVG 1.1//EN" "http://www.w3.org/Graphics/SVG/1.1/DTD/svg11.dtd">
<svg version="1.1" id="Layer_1" xmlns="http://www.w3.org/2000/svg" xmlns:xlink="http://www.w3.org/1999/xlink" x="0px" y="0px"
	 viewBox="0 0 100 100" enable-background="new 0 0 100 100" xml:space="preserve">
<path fill="#231F20" d="M11.8,97c-2.7,0-4.9-2.3-4.9-5s2.2-5,4.9-5h76.5c2.7,0,4.9,2.3,4.9,5s-2.2,5-4.9,5H11.8z"/>
<path fill="#231F20" d="M53.4,78.5l25.2-25.2c2-2,2.1-5,0.2-7c-2-2-5-1.8-7,0.2L55,63.3l0-50.9c0-2.8-2.3-5-5-5c-2.8,0-5,2.2-5,5
	l0,50.9L28.2,46.5c-2-2-5-2.1-7-0.2c-2,2-1.8,5,0.2,7l25.4,25.4c0,0,1.7,1.8,3.3,1.8C51.5,80.5,53.4,78.5,53.4,78.5L53.4,78.5z"/>
</svg>
