<?xml version="1.0" encoding="utf-8"?>
<!-- Generator: Adobe Illustrator 18.0.0, SVG Export Plug-In . SVG Version: 6.00 Build 0)  -->
<!DOCTYPE svg PUBLIC "-//W3C//DTD SVG 1.1//EN" "http://www.w3.org/Graphics/SVG/1.1/DTD/svg11.dtd">
<svg version="1.1" id="Layer_1" xmlns="http://www.w3.org/2000/svg" xmlns:xlink="http://www.w3.org/1999/xlink" x="0px" y="0px"
	 viewBox="0 0 100 100" enable-background="new 0 0 100 100" xml:space="preserve">
<path fill="#231F20" d="M21.4,96.5c-1.3,0-2.4-0.9-2.8-2.1L4.7,47.3c-0.2-0.8-0.1-1.5,0.2-2.2c0.4-0.7,1-1.2,1.7-1.4l23.6-7
	c0.3-0.1,0.5-0.1,0.8-0.1c0.5,0,1,0.1,1.4,0.4c0.5,0.3,0.9,0.7,1.2,1.3l0.6,1.2l1-1c4.2-4.2,9.9-10.6,12.3-14.8l0.1-0.1l0-0.1
	c1.6-5.5,1-12,0.9-13.2c-0.2-1.5,0.3-2.9,1.2-3.9c2.4-2.7,7.5-2.8,7.7-2.8c1.7,0,3.5,0.8,4.9,2.4c3.1,3.3,4.5,9.5,3.9,16.8
	c-0.1,0.9-0.2,1.8-0.3,2.7l0,0.3c-0.1,0.6-0.2,1.2-0.3,1.9c-0.1,0.8-0.1,1.6-0.1,2.4l0,0.7l0.7,0.3c2.1,0.8,7.2,1.6,15.4,1.6l1.6,0
	c6.6,0,12.1,5.4,12.1,12c0,2.6-0.8,5-2.3,7.1L92.8,52l0.1,0.4c0.2,0.8,0.2,1.7,0.2,2.5c-0.1,2.7-1.3,5.2-3.3,7.1l-0.3,0.2l0,0.4
	l0,0.2c-0.2,3.4-2.1,6.6-5.1,8.4l-0.3,0.2l-0.1,0.4c-0.1,0.3-0.2,0.5-0.3,0.8c-1.3,3.4-4.9,5.3-10.3,5.3c-0.9,0-1.9-0.1-3-0.2
	c-2.4-0.3-5.9-0.6-10.1-1L54,76.1c-2-0.2-3.8-0.3-5.6-0.3c-0.8,0-1.6,0-2.2,0.1L44.9,76l2.9,9.8c0.2,0.8,0.1,1.5-0.2,2.2
	c-0.4,0.7-1,1.2-1.7,1.4l-23.6,7C21.9,96.5,21.7,96.5,21.4,96.5z M11.2,48.4l0.3,1.1l11.9,40.4l18-5.3l-2.7-9.2l-0.1-0.1
	c-0.2-0.3-0.3-0.6-0.4-0.9l-8.5-28.7c-0.1-0.3-0.1-0.6-0.1-1l0-0.2l-0.4-1.5L11.2,48.4z M48.4,70c1.8,0,3.9,0.1,6.1,0.3l6.3,0.5
	c4.2,0.4,7.8,0.7,10.1,1c0.9,0.1,1.6,0.2,2.3,0.2c2.8,0,4.2-0.7,4.6-1.2l0.1-0.1l0.1-0.1c0.2-0.5,0.3-1,0.3-1.4
	c0.1-1.1,0.9-2,1.9-2.4c1.8-0.7,3.1-2.3,3.2-4.2c0-0.4,0-0.7-0.1-1.1c-0.2-1.2,0.3-2.4,1.4-3c1.4-0.8,2.2-2.2,2.3-3.7
	c0-0.7-0.1-1.4-0.4-2.2c-0.5-1.2-0.2-2.5,0.7-3.3c1.3-1.2,2-2.8,2-4.5c0-3.4-2.7-6.1-6.1-6.1c0,0-0.7,0-1.7,0
	c-11.2,0-18.1-1.3-20.6-3.9c-0.9-1-1.4-2.2-1.4-3.4c0-1.3,0.1-2.7,0.2-4.1c0.1-0.7,0.2-1.4,0.3-2l0.1-0.4c0.1-0.8,0.2-1.6,0.3-2.4
	c0.6-7.2-1.2-11.5-2.6-12.6l-0.3-0.2l-0.4,0c-0.6,0-1.4,0.2-2,0.3l-0.8,0.2l0.1,0.8c0.2,2.5,0.4,9.1-1.3,14.8
	c-0.1,0.2-0.1,0.4-0.2,0.5c-3,5.4-10.9,14.3-16.5,19.3L36,45.8l7.2,24.5l0.8-0.1C45.4,70.1,46.9,70,48.4,70z"/>
</svg>
