<?xml version="1.0" encoding="utf-8"?>
<!-- Generator: Adobe Illustrator 18.0.0, SVG Export Plug-In . SVG Version: 6.00 Build 0)  -->
<!DOCTYPE svg PUBLIC "-//W3C//DTD SVG 1.1//EN" "http://www.w3.org/Graphics/SVG/1.1/DTD/svg11.dtd">
<svg version="1.1" xmlns="http://www.w3.org/2000/svg" xmlns:xlink="http://www.w3.org/1999/xlink" x="0px" y="0px"
	 viewBox="0 0 612 792" enable-background="new 0 0 612 792" xml:space="preserve">
<g id="left-3">
	<path fill="none" stroke="#231F20" stroke-miterlimit="10" d="M194.2,288.5c0-21.4,6.2-41.5,16.8-58.5V32.4
		C113,70.4,43.8,165.3,43.8,277c0,111,69.2,224.6,167.2,370.4V347.3C200.4,330.2,194.2,310.1,194.2,288.5z"/>
</g>
<g id="center-3">
	<path fill="none" stroke="#231F20" stroke-miterlimit="10" d="M306,176.7c40,0,75.2,21.2,95,52.9v-197
		c-29.4-11.5-61.5-17.8-95-17.8s-65.6,6.3-95,17.6V230C230.9,198.1,266.4,176.7,306,176.7z"/>
	<path fill="none" stroke="#231F20" stroke-miterlimit="10" d="M306,400.2c-40,0-75.2-21.2-95-52.9v300.1
		c29.4,43.8,61.5,90.5,95,140.9c33.4-51,65.5-98.2,95-142.4V347.2C381.2,379,346,400.2,306,400.2z"/>
</g>
<g id="right-3">
	<path fill="none" stroke="#231F20" stroke-miterlimit="10" d="M401,32.6v197c10.6,17.1,16.8,37.2,16.8,58.8s-6.2,41.7-16.8,58.8
		v298.7C498.3,500.5,568.2,387.7,568.2,277C568.2,166,499,70.7,401,32.6z"/>
</g>
<g id="outer">
	<g id="outer_1_">
		<path fill="none" stroke="#000000" stroke-width="1.683530e-02" stroke-miterlimit="10" d="M306,14.8
			c145.2,0,262.2,117.9,262.2,262.2S449.4,569.2,306,788.3C160.8,570.1,43.8,421.4,43.8,277C43.8,131.8,160.8,14.8,306,14.8z"/>
	</g>
</g>
<g id="inner_1_">
	<g id="inner">
		<path fill="none" stroke="#000000" stroke-width="1.683530e-02" stroke-miterlimit="10" d="M306,175.8
			c-60.7,0-111.8,51.1-111.8,112.7S244.4,401.1,306,401.1S417.8,350,417.8,288.4S367.6,175.8,306,175.8z"/>
	</g>
</g>
<g id="left-2">
	<g id="left">
		<path fill="none" stroke="#000000" stroke-width="1.683530e-02" stroke-miterlimit="10" d="M306,788.3
			C160.8,568.3,43.8,420.5,43.8,276.1C43.8,130.9,161.7,14.8,306,14.8v161c-60.7,0-111.8,50.2-111.8,111.8S244.4,401.1,306,401.1
			V788.3z"/>
	</g>
</g>
<g id="right-2">
	<g id="right">
		<path fill="none" stroke="#000000" stroke-width="1.683530e-02" stroke-miterlimit="10" d="M306,401.1
			c60.7,0,111.8-50.2,111.8-111.8S367.6,175.8,306,175.8v-161c145.2,0,262.2,117.9,262.2,262.2S449.4,569.2,306,788.3V401.1z"/>
	</g>
</g>
</svg>
