<?xml version="1.0" encoding="utf-8"?>
<!-- Generator: Adobe Illustrator 18.0.0, SVG Export Plug-In . SVG Version: 6.00 Build 0)  -->
<!DOCTYPE svg PUBLIC "-//W3C//DTD SVG 1.1//EN" "http://www.w3.org/Graphics/SVG/1.1/DTD/svg11.dtd">
<svg version="1.1" xmlns="http://www.w3.org/2000/svg" xmlns:xlink="http://www.w3.org/1999/xlink" x="0px" y="0px"
	 viewBox="0 0 100 100" enable-background="new 0 0 100 100" xml:space="preserve">
<g id="hex">
	<path fill="none" stroke="#000000" stroke-width="2.5" stroke-miterlimit="10" d="M86.9,77.3L56,94.4c-3.3,1.9-8.7,1.9-12.1,0
		L13.1,77.3c-3.3-1.9-6-6.4-6-10.2V32.9c0-3.8,2.7-8.3,6-10.2L44,5.6c3.3-1.9,8.7-1.9,12.1,0l30.9,17.2c3.3,1.9,6,6.4,6,10.2v34.1
		C93,70.8,90.3,75.4,86.9,77.3"/>
</g>
<g id="yes">
	<polygon points="70.3,31.9 44.3,57.8 30.1,43.6 22.5,51.2 36.7,65.4 36.7,65.4 44.3,73 77.9,39.5 	"/>
</g>
<g id="no">
	<polygon points="72,35.8 64.4,28.2 50.2,42.4 35.9,28.2 28.3,35.8 42.6,50 28.3,64.2 35.9,71.8 50.2,57.6 64.4,71.8 72,64.2 
		57.8,50 	"/>
</g>
<g id="down">
	<path d="M61.6,47c1.7-1.7,4.5-1.7,6.2,0c1.7,1.7,1.7,4.5,0,6.2L53.5,67.6l0,0L53.1,68c-0.8,0.8-2,1.3-3.1,1.3
		c-1.2,0-2.3-0.5-3.1-1.3l-0.3-0.3l0,0L32.2,53.3c-1.7-1.7-1.7-4.5,0-6.2c1.7-1.7,4.5-1.7,6.2,0l7.2,7.2V35.1c0-1.2,0.5-2.3,1.3-3.1
		c0.8-0.8,1.9-1.3,3.1-1.3c1.2,0,2.3,0.5,3.1,1.3c0.8,0.8,1.3,1.9,1.3,3.1v19.1L61.6,47z"/>
</g>
<g id="left">
	<path d="M53,61.6c1.7,1.7,1.7,4.5,0,6.2c-1.7,1.7-4.5,1.7-6.2,0L32.4,53.5l0,0L32,53.1c-0.8-0.8-1.3-2-1.3-3.1
		c0-1.2,0.5-2.3,1.3-3.1l0.3-0.3l0,0l14.4-14.4c1.7-1.7,4.5-1.7,6.2,0c1.7,1.7,1.7,4.5,0,6.2l-7.2,7.2h19.1c1.2,0,2.3,0.5,3.1,1.3
		c0.8,0.8,1.3,1.9,1.3,3.1c0,1.2-0.5,2.3-1.3,3.1c-0.8,0.8-1.9,1.3-3.1,1.3H45.8L53,61.6z"/>
</g>
<g id="up">
	<path d="M38.4,53c-1.7,1.7-4.5,1.7-6.2,0c-1.7-1.7-1.7-4.5,0-6.2l14.4-14.4l0,0l0.3-0.3c0.8-0.8,2-1.3,3.1-1.3
		c1.2,0,2.3,0.5,3.1,1.3l0.3,0.3l0,0l14.4,14.4c1.7,1.7,1.7,4.5,0,6.2c-1.7,1.7-4.5,1.7-6.2,0l-7.2-7.2v19.1c0,1.2-0.5,2.3-1.3,3.1
		c-0.8,0.8-1.9,1.3-3.1,1.3c-1.2,0-2.3-0.5-3.1-1.3c-0.8-0.8-1.3-1.9-1.3-3.1V45.8L38.4,53z"/>
</g>
<g id="right">
	<path d="M47,38.4c-1.7-1.7-1.7-4.5,0-6.2c1.7-1.7,4.5-1.7,6.2,0l14.4,14.4l0,0l0.3,0.3c0.8,0.8,1.3,2,1.3,3.1
		c0,1.2-0.5,2.3-1.3,3.1l-0.3,0.3l0,0L53.3,67.8c-1.7,1.7-4.5,1.7-6.2,0c-1.7-1.7-1.7-4.5,0-6.2l7.2-7.2H35.1
		c-1.2,0-2.3-0.5-3.1-1.3c-0.8-0.8-1.3-1.9-1.3-3.1c0-1.2,0.5-2.3,1.3-3.1c0.8-0.8,1.9-1.3,3.1-1.3h19.1L47,38.4z"/>
</g>
</svg>
