<?xml version="1.0" standalone="no"?>
<!DOCTYPE svg PUBLIC "-//W3C//DTD SVG 1.1//EN" "http://www.w3.org/Graphics/SVG/1.1/DTD/svg11.dtd" >
<svg xmlns="http://www.w3.org/2000/svg" xmlns:xlink="http://www.w3.org/1999/xlink" version="1.1">
<metadata>
Created by FontForge 20150318 at Fri Jun  5 15:33:19 2015
 By uniteet7
Copyright (c) 2010 Berton Hasebe, under exclusive license to Schwartzco Inc. d/b/a Commercial Type.
</metadata>
<defs>
<font id="Platform-Hairline" horiz-adv-x="599" >
  <font-face 
    font-family="Platform Hairline"
    font-weight="250"
    font-stretch="normal"
    units-per-em="1000"
    panose-1="2 11 2 4 3 2 2 2 2 4"
    ascent="825"
    descent="-175"
    x-height="535"
    cap-height="692"
    bbox="-66 -209 1077 1010"
    underline-thickness="50"
    underline-position="-50"
    stemh="10"
    stemv="10"
    unicode-range="U+0020-FB02"
  />
<missing-glyph horiz-adv-x="166" 
 />
    <glyph glyph-name="f_f" unicode="ff" horiz-adv-x="360" 
d="M247 0h-10v525h-164v-525h-10v525h-53v10h53v91c0 60 13 105 86 105h27v-10h-27c-65 0 -76 -41 -76 -95v-91h164v91c0 60 13 105 86 105h27v-10h-27c-65 0 -76 -41 -76 -95v-91h100v-10h-100v-525z" />
    <glyph glyph-name=".notdef" horiz-adv-x="166" 
 />
    <glyph glyph-name="Eth" unicode="&#xd0;" horiz-adv-x="507" 
d="M71 692h62c217 0 344 -139 344 -346c0 -205 -128 -346 -345 -346h-61v350h-61v10h61v332zM133 682h-52v-322h150v-10h-150v-340h51c211 0 335 137 335 336c0 201 -123 336 -334 336z" />
    <glyph glyph-name="eth" unicode="&#xf0;" 
d="M150 596l136 45l-99 90h15l95 -87l97 33l3 -9l-92 -31l170 -153c61 -55 96 -127 96 -217c0 -162 -121 -276 -273 -276c-153 0 -270 109 -270 276c0 166 120 277 272 277c45 0 90 -10 126 -29l-132 119l-141 -47zM38 267c0 -161 113 -266 260 -266c146 0 263 110 263 266
c0 157 -114 267 -261 267c-146 0 -262 -107 -262 -267z" />
    <glyph glyph-name="Lslash" unicode="&#x141;" horiz-adv-x="337" 
d="M10 237l55 36v419h10v-412l151 100v-11l-151 -100v-259h220v-10h-230v262l-55 -36v11z" />
    <glyph glyph-name="lslash" unicode="&#x142;" horiz-adv-x="134" 
d="M126 535v-11l-54 -42v-482h-10v474l-52 -41v11l52 41v246h10v-238z" />
    <glyph glyph-name="Scaron" unicode="&#x160;" horiz-adv-x="422" 
d="M32 156h10c0 -83 58 -156 163 -156c104 0 175 67 175 164c0 110 -53 156 -167 197c-111 40 -167 82 -167 178c0 88 57 157 165 157c95 0 154 -56 163 -150h-10c-9 88 -64 140 -153 140c-102 0 -155 -65 -155 -147c0 -90 52 -130 161 -169c123 -44 173 -98 173 -206
c0 -102 -75 -174 -185 -174c-112 0 -173 77 -173 166zM217 733h-12l-104 114h13l97 -105l97 105h13z" />
    <glyph glyph-name="scaron" unicode="&#x161;" horiz-adv-x="335" 
d="M301 412h-10c-1 80 -48 119 -122 119c-78 0 -123 -51 -123 -110c0 -78 55 -113 130 -138c92 -30 138 -72 138 -152c0 -90 -66 -137 -149 -137c-107 0 -145 72 -145 148h10c0 -71 35 -138 135 -138c77 0 139 43 139 126c0 69 -32 110 -132 144c-89 30 -136 69 -136 147
c0 65 49 120 133 120c81 0 132 -45 132 -129zM178 584h-12l-103 130h13l96 -121l96 121h13z" />
    <glyph glyph-name="Yacute" unicode="&#xdd;" horiz-adv-x="431" 
d="M419 692h12l-209 -315v-377h-10v377l-212 315h12l205 -305zM217 733h-12l64 112h12z" />
    <glyph glyph-name="yacute" unicode="&#xfd;" horiz-adv-x="494" 
d="M0 535h12l241 -529l233 529h12l-313 -710h-12l74 168zM252 585h-11l66 121h11z" />
    <glyph glyph-name="Thorn" unicode="&#xde;" horiz-adv-x="380" 
d="M61 692h10v-179h115c95 0 166 -49 166 -157c0 -110 -73 -161 -166 -161h-115v-195h-10v692zM186 503h-115v-298h115c87 0 156 47 156 151c0 102 -67 147 -156 147z" />
    <glyph glyph-name="thorn" unicode="&#xfe;" horiz-adv-x="621" 
d="M68 -175h-10v906h10v-386c30 121 135 199 258 199c149 0 267 -114 267 -277c0 -162 -121 -276 -269 -276c-124 0 -226 77 -256 198v-364zM68 267c0 -161 113 -266 256 -266c142 0 259 110 259 266c0 157 -114 267 -257 267c-139 0 -258 -103 -258 -267z" />
    <glyph glyph-name="Zcaron" unicode="&#x17d;" horiz-adv-x="574" 
d="M38 682v10h506v-10l-501 -672h501v-10h-514v10l501 672h-493zM292 733h-12l-104 114h13l97 -105l97 105h13z" />
    <glyph glyph-name="zcaron" unicode="&#x17e;" horiz-adv-x="443" 
d="M419 10v-10h-395v10l382 515h-373v10h386v-10l-382 -515h382zM228 584h-12l-103 130h13l96 -121l96 121h13z" />
    <glyph glyph-name="onehalf" unicode="&#xbd;" horiz-adv-x="585" 
d="M361 263h-10c0 48 24 100 92 100c63 0 93 -40 93 -98c0 -45 -25 -80 -53 -113l-118 -142h178v-10h-191v10l123 148c28 33 51 64 51 107c0 52 -26 88 -83 88c-60 0 -82 -46 -82 -90zM500 692h12l-498 -692h-12zM85 659v11l41 22h10v-357h-10v345z" />
    <glyph glyph-name="onequarter" unicode="&#xbc;" horiz-adv-x="566" 
d="M476 0h-10v133h-179v10l179 214h10v-214h44v-10h-44v-133zM466 341l-166 -198h166v198zM504 692h12l-498 -692h-12zM89 659v11l41 22h10v-357h-10v345z" />
    <glyph glyph-name="onesuperior" unicode="&#xb9;" horiz-adv-x="129" 
d="M20 659v11l41 22h10v-357h-10v345z" />
    <glyph glyph-name="threequarters" unicode="&#xbe;" horiz-adv-x="638" 
d="M548 0h-10v133h-179v10l179 214h10v-214h44v-10h-44v-133zM538 341l-166 -198h166v198zM576 692h12l-498 -692h-12zM51 437h10c0 -51 30 -97 93 -97c54 0 93 39 93 97c0 66 -48 91 -107 92h-17v10l108 143h-163v10h175v-10l-107 -143h4c64 -1 117 -30 117 -102
c0 -64 -43 -107 -103 -107c-69 0 -103 50 -103 107z" />
    <glyph glyph-name="threesuperior" unicode="&#xb3;" horiz-adv-x="279" 
d="M33 437h10c0 -51 30 -97 93 -97c54 0 93 39 93 97c0 66 -48 91 -107 92h-17v10l108 143h-163v10h175v-10l-107 -143h4c64 -1 117 -30 117 -102c0 -64 -43 -107 -103 -107c-69 0 -103 50 -103 107z" />
    <glyph glyph-name="twosuperior" unicode="&#xb2;" horiz-adv-x="264" 
d="M50 598h-10c0 48 24 100 92 100c63 0 93 -40 93 -98c0 -45 -25 -80 -53 -113l-118 -142h178v-10h-191v10l123 148c28 33 51 64 51 107c0 52 -26 88 -83 88c-60 0 -82 -46 -82 -90z" />
    <glyph glyph-name="brokenbar" unicode="&#xa6;" horiz-adv-x="126" 
d="M58 254h10v-429h-10v429zM58 731h10v-418h-10v418z" />
    <glyph glyph-name="minus" unicode="&#x2212;" horiz-adv-x="411" 
d="M20 332v10h371v-10h-371z" />
    <glyph glyph-name="multiply" unicode="&#xd7;" horiz-adv-x="342" 
d="M310 483l7 -7l-139 -140l136 -135l-7 -7l-136 135l-139 -139l-7 7l139 139l-139 139l7 7l139 -139z" />
    <glyph glyph-name="space" unicode=" " horiz-adv-x="166" 
 />
    <glyph glyph-name="exclam" unicode="!" horiz-adv-x="142" 
d="M66 692h10v-563h-10v563zM71 -5c-11 0 -19 8 -19 19s8 19 19 19s19 -8 19 -19s-8 -19 -19 -19z" />
    <glyph glyph-name="quotedbl" unicode="&#x22;" horiz-adv-x="140" 
d="M30 692h10v-148h-10v148zM100 692h10v-148h-10v148z" />
    <glyph glyph-name="numbersign" unicode="#" horiz-adv-x="487" 
d="M79 489v10h102l47 193h10l-47 -193h173l47 193h10l-47 -193h99v-10h-101l-62 -256h99v-10h-101l-54 -223h-10l54 223h-175l-54 -223h-10l54 223h-99v10h102l62 256h-99zM188 489l-62 -256h174l62 256h-174z" />
    <glyph glyph-name="dollar" unicode="$" horiz-adv-x="422" 
d="M32 156h10c0 -83 58 -156 163 -156h5v362c-109 39 -164 82 -164 177c0 87 56 156 164 157v57h10v-57c89 -4 145 -59 154 -150h-10c-9 85 -61 136 -144 140v-317c121 -44 170 -98 170 -205c0 -97 -69 -167 -170 -173v-69h-10v68h-5c-112 0 -173 77 -173 166zM380 164
c0 107 -51 155 -160 195v-359c96 6 160 71 160 164zM56 539c0 -88 50 -129 154 -167v314c-102 -1 -154 -66 -154 -147z" />
    <glyph glyph-name="percent" unicode="%" horiz-adv-x="686" 
d="M607 692h12l-542 -692h-12zM22 546c0 86 62 154 152 154c95 0 157 -67 157 -154c0 -85 -62 -153 -155 -153c-91 0 -154 67 -154 153zM32 546c0 -80 59 -143 144 -143c87 0 145 64 145 143c0 81 -58 144 -147 144c-84 0 -142 -64 -142 -144zM355 149c0 86 62 154 152 154
c95 0 157 -67 157 -154c0 -85 -62 -153 -155 -153c-91 0 -154 67 -154 153zM365 149c0 -80 59 -143 144 -143c87 0 145 64 145 143c0 81 -58 144 -147 144c-84 0 -142 -64 -142 -144z" />
    <glyph glyph-name="ampersand" unicode="&#x26;" horiz-adv-x="615" 
d="M92 538c0 99 71 165 164 165c91 0 161 -68 161 -165s-72 -164 -163 -164c-16 0 -34 3 -42 5l280 -267c41 62 59 141 59 221c0 13 0 25 -1 38h10c1 -13 1 -25 1 -38c0 -83 -20 -165 -62 -228l110 -105h-14l-102 97c-46 -64 -117 -107 -216 -107c-143 0 -237 85 -237 195
c0 99 61 170 139 205c-52 25 -87 77 -87 148zM277 0c96 0 164 41 209 104l-294 281c-79 -32 -142 -101 -142 -200c0 -104 90 -185 227 -185zM102 538c0 -94 66 -154 152 -154c85 0 153 63 153 154s-66 155 -151 155c-87 0 -154 -62 -154 -155z" />
    <glyph glyph-name="quotesingle" unicode="'" horiz-adv-x="70" 
d="M30 692h10v-148h-10v148z" />
    <glyph glyph-name="parenleft" unicode="(" horiz-adv-x="190" 
d="M170 731v-10h-21c-71 0 -81 -37 -81 -96v-694c0 -59 10 -96 81 -96h21v-10h-21c-78 0 -91 42 -91 101v704c0 58 13 101 91 101h21z" />
    <glyph glyph-name="parenright" unicode=")" horiz-adv-x="190" 
d="M20 721v10h21c78 0 91 -43 91 -101v-704c0 -59 -13 -101 -91 -101h-21v10h21c71 0 81 37 81 96v694c0 59 -10 96 -81 96h-21z" />
    <glyph glyph-name="asterisk" unicode="*" horiz-adv-x="363" 
d="M41 436l-5 9l136 81l-137 81l5 9l137 -82v158h10v-158l136 81l5 -9l-136 -80l136 -81l-5 -8l-136 80v-157h-10v157z" />
    <glyph glyph-name="plus" unicode="+" horiz-adv-x="411" 
d="M20 332v10h181v182h10v-182h180v-10h-180v-183h-10v183h-181z" />
    <glyph glyph-name="comma" unicode="," horiz-adv-x="108" 
d="M34 -106h-10l35 103h-5c-11 0 -19 8 -19 19s8 19 19 19s19 -8 19 -19c0 -5 -1 -9 -3 -15z" />
    <glyph glyph-name="hyphen" unicode="-" horiz-adv-x="229" 
d="M40 282v10h149v-10h-149z" />
    <glyph glyph-name="period" unicode="." horiz-adv-x="108" 
d="M54 -3c-11 0 -19 8 -19 19s8 19 19 19s19 -8 19 -19s-8 -19 -19 -19z" />
    <glyph glyph-name="slash" unicode="/" horiz-adv-x="419" 
d="M16 -175h-12l399 906h12z" />
    <glyph glyph-name="zero" unicode="0" horiz-adv-x="475" 
d="M54 184v325c0 117 58 197 183 197c117 0 184 -83 184 -197v-325c0 -114 -67 -197 -184 -197c-125 0 -183 80 -183 197zM64 509v-325c0 -111 54 -187 173 -187c111 0 174 79 174 187v325c0 108 -63 187 -174 187c-119 0 -173 -76 -173 -187z" />
    <glyph glyph-name="one" unicode="1" horiz-adv-x="153" 
d="M12 648v10l74 34h9v-692h-10v681z" />
    <glyph glyph-name="two" unicode="2" horiz-adv-x="427" 
d="M47 515h-10c0 91 46 191 172 191c117 0 174 -77 174 -187c0 -87 -48 -153 -106 -223l-234 -286h360v-10h-373v10l239 292c59 70 104 131 104 217c0 104 -53 177 -164 177c-118 0 -162 -94 -162 -181z" />
    <glyph glyph-name="three" unicode="3" horiz-adv-x="432" 
d="M20 190h10c0 -100 59 -190 185 -190c105 0 183 75 183 189c0 130 -95 186 -212 186h-26v10l218 297h-333v10h346v-10l-218 -297h13c122 0 222 -59 222 -196c0 -120 -82 -199 -193 -199c-132 0 -195 94 -195 200z" />
    <glyph glyph-name="four" unicode="4" horiz-adv-x="454" 
d="M347 0h-10v265h-327v10l328 417h9v-417h97v-10h-97v-265zM337 676l-314 -401h314v401z" />
    <glyph glyph-name="five" unicode="5" horiz-adv-x="441" 
d="M377 692v-10h-319v-343c26 59 86 99 170 99c118 0 177 -83 177 -197v-57c0 -114 -66 -197 -183 -197c-125 0 -182 80 -182 197h10c0 -111 53 -187 172 -187c111 0 173 79 173 187v57c0 108 -55 187 -167 187c-92 0 -150 -48 -170 -119l-10 1v382h329z" />
    <glyph glyph-name="six" unicode="6" horiz-adv-x="461" 
d="M396 618l-8 -5c-27 51 -79 84 -151 84c-119 0 -173 -76 -173 -187v-193c21 74 79 121 175 121c116 0 182 -83 182 -197v-57c0 -114 -67 -197 -184 -197c-125 0 -183 80 -183 197v326c0 117 58 197 183 197c74 0 130 -35 159 -89zM64 184c0 -111 54 -187 173 -187
c111 0 174 79 174 187v57c0 108 -62 187 -172 187c-117 0 -173 -72 -175 -179v-65z" />
    <glyph glyph-name="seven" unicode="7" horiz-adv-x="402" 
d="M109 0h-12l269 682h-352v10h363v-10z" />
    <glyph glyph-name="eight" unicode="8" horiz-adv-x="448" 
d="M224 -13c-115 0 -197 81 -197 192c0 94 59 167 149 186c-77 19 -129 82 -129 169c0 100 73 172 177 172s177 -72 177 -172c0 -87 -52 -150 -130 -169c90 -19 150 -92 150 -186c0 -111 -82 -192 -197 -192zM224 -3c109 0 187 77 187 182c0 101 -74 177 -180 181h-15
c-106 -4 -179 -80 -179 -181c0 -105 78 -182 187 -182zM224 370h7c93 3 160 69 160 164c0 94 -69 162 -167 162s-167 -68 -167 -162c0 -97 70 -164 167 -164z" />
    <glyph glyph-name="nine" unicode="9" horiz-adv-x="461" 
d="M65 76l8 5c27 -51 79 -84 151 -84c119 0 173 76 173 187v193c-22 -75 -79 -121 -175 -121c-116 0 -182 83 -182 197v57c0 114 67 197 184 197c125 0 183 -80 183 -197v-326c0 -117 -58 -197 -183 -197c-74 0 -130 35 -159 89zM397 510c0 111 -54 187 -173 187
c-111 0 -174 -79 -174 -187v-57c0 -108 62 -187 172 -187c117 0 172 72 175 178v66z" />
    <glyph glyph-name="colon" unicode=":" horiz-adv-x="108" 
d="M54 -3c-11 0 -19 8 -19 19s8 19 19 19s19 -8 19 -19s-8 -19 -19 -19zM54 344c-11 0 -19 8 -19 19s8 19 19 19s19 -8 19 -19s-8 -19 -19 -19z" />
    <glyph glyph-name="semicolon" unicode=";" horiz-adv-x="108" 
d="M34 -106h-10l35 103h-5c-11 0 -19 8 -19 19s8 19 19 19s19 -8 19 -19c0 -5 -1 -9 -3 -15zM54 344c-11 0 -19 8 -19 19s8 19 19 19s19 -8 19 -19s-8 -19 -19 -19z" />
    <glyph glyph-name="less" unicode="&#x3c;" horiz-adv-x="397" 
d="M370 180v-12l-344 164v12l344 163v-12l-332 -157z" />
    <glyph glyph-name="equal" unicode="=" horiz-adv-x="429" 
d="M400 393v-10h-371v10h371zM29 272v10h371v-10h-371z" />
    <glyph glyph-name="greater" unicode="&#x3e;" horiz-adv-x="397" 
d="M27 168v12l332 158l-332 157v12l344 -163v-12z" />
    <glyph glyph-name="question" unicode="?" horiz-adv-x="472" 
d="M47 494h-10c-3 68 29 209 196 209c130 0 203 -87 203 -195c0 -106 -75 -192 -203 -195v-184h-10v194c130 0 203 83 203 185s-69 185 -193 185c-158 0 -189 -135 -186 -199zM228 -5c-11 0 -19 8 -19 19s8 19 19 19s19 -8 19 -19s-8 -19 -19 -19z" />
    <glyph glyph-name="at" unicode="@" horiz-adv-x="955" 
d="M258 283c0 128 92 213 209 213c94 0 171 -57 198 -145v138h10v-291c0 -70 25 -116 101 -116s140 83 140 255c0 214 -159 390 -428 390c-266 0 -448 -192 -448 -441c0 -248 167 -438 459 -438c141 0 256 60 312 117l8 -8c-57 -57 -175 -119 -320 -119
c-298 0 -469 194 -469 448c0 256 186 451 458 451c275 0 438 -180 438 -400c0 -178 -68 -265 -150 -265c-83 0 -111 50 -111 126v17c-27 -87 -106 -144 -200 -144c-117 0 -207 84 -207 212zM268 283c0 -122 86 -202 197 -202s200 84 200 202c0 119 -87 203 -198 203
s-199 -81 -199 -203z" />
    <glyph glyph-name="A" unicode="A" 
d="M13 0h-11l293 692h10l292 -692h-11l-130 308h-313zM300 678l-152 -360h304z" />
    <glyph glyph-name="B" unicode="B" horiz-adv-x="423" 
d="M61 692h129c120 0 179 -60 179 -165c0 -89 -44 -148 -124 -166c98 -13 149 -79 149 -175c0 -113 -67 -186 -197 -186h-136v692zM197 355h-126v-345h126c124 0 187 69 187 176c0 105 -61 169 -187 169zM190 682h-119v-317h119c111 0 169 61 169 162c0 99 -55 155 -169 155
z" />
    <glyph glyph-name="C" unicode="C" horiz-adv-x="617" 
d="M597 86l7 -7c-38 -39 -116 -92 -227 -92c-202 0 -348 148 -348 359s145 360 346 360c83 0 162 -27 218 -79l-7 -7c-54 50 -131 76 -211 76c-195 0 -336 -145 -336 -350s142 -349 338 -349c106 0 182 50 220 89z" />
    <glyph glyph-name="D" unicode="D" horiz-adv-x="496" 
d="M123 682h-52v-672h51c211 0 335 137 335 336c0 201 -123 336 -334 336zM61 692h62c217 0 344 -139 344 -346c0 -205 -128 -346 -345 -346h-61v692z" />
    <glyph glyph-name="E" unicode="E" horiz-adv-x="344" 
d="M298 364v-10h-227v-344h235v-10h-245v692h243v-10h-233v-318h227z" />
    <glyph glyph-name="F" unicode="F" horiz-adv-x="338" 
d="M71 0h-10v692h242v-10h-232v-318h226v-10h-226v-354z" />
    <glyph glyph-name="G" unicode="G" horiz-adv-x="699" 
d="M449 330v10h196v-340h-10v100c-62 -71 -152 -113 -259 -113c-201 0 -347 147 -347 359s147 360 348 360c132 0 216 -61 255 -111l-8 -7c-37 48 -119 108 -247 108c-195 0 -338 -144 -338 -350s142 -349 337 -349c108 0 199 44 259 118v215h-186z" />
    <glyph glyph-name="H" unicode="H" horiz-adv-x="584" 
d="M71 0h-10v692h10v-324h442v324h10v-692h-10v358h-442v-358z" />
    <glyph glyph-name="I" unicode="I" horiz-adv-x="132" 
d="M61 692h10v-692h-10v692z" />
    <glyph glyph-name="J" unicode="J" horiz-adv-x="190" 
d="M130 692v-597c0 -60 -10 -95 -81 -95h-31v10h31c64 0 71 29 71 85v597h10z" />
    <glyph glyph-name="K" unicode="K" horiz-adv-x="469" 
d="M443 692h15l-377 -331l391 -361h-14l-387 357v-357h-10v692h10v-327z" />
    <glyph glyph-name="L" unicode="L" horiz-adv-x="312" 
d="M291 10v-10h-230v692h10v-682h220z" />
    <glyph glyph-name="M" unicode="M" horiz-adv-x="802" 
d="M71 0h-10v692h11l329 -680l329 680h11v-692h-10v671l-325 -671h-10l-325 671v-671z" />
    <glyph glyph-name="N" unicode="N" horiz-adv-x="646" 
d="M71 0h-10v692h10l504 -675v675h10v-692h-10l-504 675v-675z" />
    <glyph glyph-name="O" unicode="O" horiz-adv-x="753" 
d="M39 346c0 -206 146 -349 336 -349c191 0 339 148 339 349c0 203 -147 350 -338 350c-189 0 -337 -144 -337 -350zM29 346c0 212 152 360 347 360c197 0 348 -151 348 -360c0 -207 -152 -359 -349 -359c-196 0 -346 147 -346 359z" />
    <glyph glyph-name="P" unicode="P" horiz-adv-x="382" 
d="M71 0h-10v692h98c121 0 195 -54 195 -169c0 -113 -82 -175 -195 -175h-88v-348zM71 682v-324h88c107 0 185 58 185 165c0 109 -70 159 -185 159h-88z" />
    <glyph glyph-name="Q" unicode="Q" horiz-adv-x="753" 
d="M29 346c0 212 152 360 347 360c197 0 348 -151 348 -360c0 -122 -53 -225 -137 -289l67 -65l-7 -7l-69 66c-57 -41 -126 -64 -203 -64c-196 0 -346 147 -346 359zM511 116l7 7l61 -59c83 62 135 162 135 282c0 203 -147 350 -338 350c-189 0 -337 -144 -337 -350
s146 -349 336 -349c74 0 141 22 196 61z" />
    <glyph glyph-name="R" unicode="R" horiz-adv-x="421" 
d="M71 0h-10v692h98c121 0 195 -46 195 -169c0 -99 -54 -152 -136 -169l208 -354h-11l-207 352c-16 -3 -33 -4 -49 -4h-88v-348zM71 682v-324h88c107 0 185 48 185 165c0 119 -70 159 -185 159h-88z" />
    <glyph glyph-name="S" unicode="S" horiz-adv-x="422" 
d="M32 156h10c0 -83 58 -156 163 -156c104 0 175 67 175 164c0 110 -53 156 -167 197c-111 40 -167 82 -167 178c0 88 57 157 165 157c95 0 154 -56 163 -150h-10c-9 88 -64 140 -153 140c-102 0 -155 -65 -155 -147c0 -90 52 -130 161 -169c123 -44 173 -98 173 -206
c0 -102 -75 -174 -185 -174c-112 0 -173 77 -173 166z" />
    <glyph glyph-name="T" unicode="T" horiz-adv-x="347" 
d="M17 682v10h313v-10h-153v-682h-10v682h-150z" />
    <glyph glyph-name="U" unicode="U" horiz-adv-x="574" 
d="M56 692h10v-458c0 -141 71 -237 221 -237c139 0 221 99 221 237v458h10v-458c0 -144 -86 -247 -231 -247c-156 0 -231 100 -231 247v458z" />
    <glyph glyph-name="V" unicode="V" horiz-adv-x="601" 
d="M2 692h12l288 -678l286 678h11l-292 -692h-10z" />
    <glyph glyph-name="W" unicode="W" horiz-adv-x="956" 
d="M940 692h11l-239 -692h-10l-222 673l-222 -673h-10l-243 692h11l237 -673l222 673h10l222 -673z" />
    <glyph glyph-name="X" unicode="X" horiz-adv-x="580" 
d="M22 692h13l254 -324l253 324h13l-260 -332l283 -360h-12l-277 352l-274 -352h-13l281 360z" />
    <glyph glyph-name="Y" unicode="Y" horiz-adv-x="431" 
d="M419 692h12l-209 -315v-377h-10v377l-212 315h12l205 -305z" />
    <glyph glyph-name="Z" unicode="Z" horiz-adv-x="574" 
d="M38 682v10h506v-10l-501 -672h501v-10h-514v10l501 672h-493z" />
    <glyph glyph-name="bracketleft" unicode="[" horiz-adv-x="184" 
d="M164 731v-10h-96v-886h96v-10h-106v906h106z" />
    <glyph glyph-name="backslash" unicode="\" horiz-adv-x="419" 
d="M415 -175h-12l-399 906h12z" />
    <glyph glyph-name="bracketright" unicode="]" horiz-adv-x="184" 
d="M20 721v10h106v-906h-106v10h96v886h-96z" />
    <glyph glyph-name="asciicircum" unicode="^" horiz-adv-x="363" 
d="M20 385h-10l167 307h10l166 -307h-10l-161 297z" />
    <glyph glyph-name="underscore" unicode="_" horiz-adv-x="631" 
d="M595 -59v-10h-559v10h559z" />
    <glyph glyph-name="grave" unicode="`" horiz-adv-x="416" 
d="M216 585h-11l-64 121h11z" />
    <glyph glyph-name="a" unicode="a" horiz-adv-x="422" 
d="M31 158c0 97 70 168 169 168c73 0 137 -43 156 -112v147c0 113 -59 171 -148 171c-100 0 -146 -65 -146 -146h-10c0 87 52 156 156 156c98 0 158 -62 158 -181v-361h-10v101c-21 -68 -81 -111 -156 -111c-98 0 -169 71 -169 168zM41 158c0 -91 67 -158 159 -158
c89 0 156 65 156 158s-67 158 -156 158c-93 0 -159 -67 -159 -158z" />
    <glyph glyph-name="b" unicode="b" horiz-adv-x="621" 
d="M68 0h-10v731h10v-386c30 121 135 199 258 199c149 0 267 -114 267 -277c0 -162 -121 -276 -269 -276c-124 0 -226 77 -256 198v-189zM68 267c0 -161 113 -266 256 -266c142 0 259 110 259 266c0 157 -114 267 -257 267c-139 0 -258 -103 -258 -267z" />
    <glyph glyph-name="c" unicode="c" horiz-adv-x="529" 
d="M501 96l8 -6c-32 -43 -101 -99 -209 -99c-161 0 -272 118 -272 276s116 277 272 277c112 0 178 -54 207 -96l-8 -6c-28 40 -91 92 -199 92c-150 0 -262 -115 -262 -267s107 -266 262 -266c104 0 171 54 201 95z" />
    <glyph glyph-name="d" unicode="d" horiz-adv-x="621" 
d="M28 267c0 166 120 277 268 277c123 0 228 -80 257 -201v388h10v-731h-10v193c-31 -124 -136 -202 -259 -202c-149 0 -266 109 -266 276zM38 267c0 -161 113 -266 256 -266s259 111 259 266c0 162 -118 267 -257 267c-142 0 -258 -107 -258 -267z" />
    <glyph glyph-name="e" unicode="e" horiz-adv-x="567" 
d="M544 270h-506v-3c0 -161 107 -266 256 -266c113 0 198 69 233 159l9 -4c-36 -94 -124 -165 -242 -165c-155 0 -266 109 -266 276c0 164 112 277 258 277c148 0 258 -98 258 -260v-14zM286 534c-136 0 -243 -103 -248 -254h496v4c0 156 -106 250 -248 250z" />
    <glyph glyph-name="f" unicode="f" horiz-adv-x="186" 
d="M73 0h-10v525h-53v10h53v91c0 60 13 105 86 105h27v-10h-27c-65 0 -76 -41 -76 -95v-91h100v-10h-100v-525z" />
    <glyph glyph-name="g" unicode="g" horiz-adv-x="621" 
d="M563 535v-443c0 -202 -126 -274 -274 -274c-100 0 -177 35 -218 66l6 8c41 -31 116 -64 212 -64c142 0 264 70 264 264v101c-31 -124 -136 -202 -259 -202c-149 0 -266 109 -266 276c0 166 120 277 268 277c123 0 228 -80 257 -201v192h10zM38 267
c0 -161 113 -266 256 -266s259 111 259 266c0 162 -118 267 -257 267c-142 0 -258 -107 -258 -267z" />
    <glyph glyph-name="h" unicode="h" horiz-adv-x="430" 
d="M364 0v360c0 100 -46 171 -144 171c-99 0 -152 -73 -152 -182v-349h-10v731h10v-311c17 80 79 121 152 121c107 0 154 -77 154 -180v-361h-10z" />
    <glyph glyph-name="i" unicode="i" horiz-adv-x="126" 
d="M58 535h10v-535h-10v535zM63 631c-10 0 -18 8 -18 18s8 18 18 18s18 -8 18 -18s-8 -18 -18 -18z" />
    <glyph glyph-name="j" unicode="j" horiz-adv-x="126" 
d="M58 535h10v-605c0 -60 -13 -105 -86 -105h-24v10h24c65 0 76 41 76 95v605zM63 631c-10 0 -18 8 -18 18s8 18 18 18s18 -8 18 -18s-8 -18 -18 -18z" />
    <glyph glyph-name="k" unicode="k" horiz-adv-x="410" 
d="M386 535h16l-323 -254l332 -281h-16l-327 277v-277h-10v731h10v-446z" />
    <glyph glyph-name="l" unicode="l" horiz-adv-x="126" 
d="M58 731h10v-731h-10v731z" />
    <glyph glyph-name="m" unicode="m" horiz-adv-x="683" 
d="M347 365v-365h-10v363c0 100 -38 168 -131 168c-91 0 -138 -73 -138 -181v-350h-10v535h10v-110c17 77 71 116 139 116c83 0 125 -53 136 -124c15 80 71 124 142 124c102 0 142 -76 142 -179v-358h-10v359c0 100 -40 168 -131 168c-88 0 -139 -67 -139 -166z" />
    <glyph glyph-name="n" unicode="n" horiz-adv-x="430" 
d="M364 0v360c0 100 -46 171 -144 171c-99 0 -152 -73 -152 -182v-349h-10v535h10v-115c17 80 79 121 152 121c107 0 154 -77 154 -180v-361h-10z" />
    <glyph glyph-name="o" unicode="o" 
d="M38 267c0 -161 113 -266 260 -266c146 0 263 110 263 266c0 157 -114 267 -261 267c-146 0 -262 -107 -262 -267zM28 267c0 166 120 277 272 277c153 0 271 -114 271 -277c0 -162 -121 -276 -273 -276c-153 0 -270 109 -270 276z" />
    <glyph glyph-name="p" unicode="p" horiz-adv-x="621" 
d="M68 -175h-10v710h10v-190c30 121 135 199 258 199c149 0 267 -114 267 -277c0 -162 -121 -276 -269 -276c-124 0 -226 77 -256 198v-364zM68 267c0 -161 113 -266 256 -266c142 0 259 110 259 266c0 157 -114 267 -257 267c-139 0 -258 -103 -258 -267z" />
    <glyph glyph-name="q" unicode="q" horiz-adv-x="621" 
d="M28 267c0 166 120 277 268 277c123 0 228 -80 257 -201v192h10v-710h-10v368c-31 -124 -136 -202 -259 -202c-149 0 -266 109 -266 276zM38 267c0 -161 113 -266 256 -266s259 111 259 266c0 162 -118 267 -257 267c-142 0 -258 -107 -258 -267z" />
    <glyph glyph-name="r" unicode="r" horiz-adv-x="207" 
d="M58 535h10v-72c16 46 53 72 110 72h9v-10h-9c-74 0 -110 -47 -110 -127v-398h-10v535z" />
    <glyph glyph-name="s" unicode="s" horiz-adv-x="335" 
d="M301 412h-10c-1 80 -48 119 -122 119c-78 0 -123 -51 -123 -110c0 -78 55 -113 130 -138c92 -30 138 -72 138 -152c0 -90 -66 -137 -149 -137c-107 0 -145 72 -145 148h10c0 -71 35 -138 135 -138c77 0 139 43 139 126c0 69 -32 110 -132 144c-89 30 -136 69 -136 147
c0 65 49 120 133 120c81 0 132 -45 132 -129z" />
    <glyph glyph-name="t" unicode="t" horiz-adv-x="198" 
d="M182 535v-10h-109v-431c0 -51 10 -84 67 -84h41v-10h-41c-64 0 -77 37 -77 94v431h-53v10h53v81h10v-81h109z" />
    <glyph glyph-name="u" unicode="u" horiz-adv-x="427" 
d="M65 535v-360c0 -100 44 -171 145 -171c97 0 148 73 149 182v349h10v-535h-10v116c-17 -78 -76 -122 -149 -122c-108 0 -155 77 -155 181v360h10z" />
    <glyph glyph-name="v" unicode="v" horiz-adv-x="493" 
d="M-2 535h12l237 -523l236 523h12l-242 -535h-12z" />
    <glyph glyph-name="w" unicode="w" horiz-adv-x="834" 
d="M822 535h12l-202 -535h-14l-201 520l-200 -520h-14l-203 535h12l198 -522l201 522h12l202 -522z" />
    <glyph glyph-name="x" unicode="x" horiz-adv-x="500" 
d="M500 0h-13l-237 268l-236 -268h-14l243 276l-229 259h14l222 -251l222 251h14l-229 -259z" />
    <glyph glyph-name="y" unicode="y" horiz-adv-x="494" 
d="M-2 535h12l241 -529l233 529h12l-313 -710h-12l74 168z" />
    <glyph glyph-name="z" unicode="z" horiz-adv-x="443" 
d="M419 10v-10h-395v10l382 515h-373v10h386v-10l-382 -515h382z" />
    <glyph glyph-name="braceleft" unicode="{" horiz-adv-x="245" 
d="M123 625v-242c0 -48 -3 -84 -44 -96c42 -10 44 -49 44 -96v-260c0 -59 10 -96 81 -96h21v-10h-21c-78 0 -91 43 -91 101v260c0 59 0 96 -66 96h-24v10h24c66 0 66 39 66 96v242c0 58 13 101 91 101h21v-10h-21c-71 0 -81 -37 -81 -96z" />
    <glyph glyph-name="bar" unicode="|" horiz-adv-x="164" 
d="M77 731h10v-906h-10v906z" />
    <glyph glyph-name="braceright" unicode="}" horiz-adv-x="245" 
d="M122 383v242c0 59 -10 96 -81 96h-21v10h21c78 0 91 -43 91 -101v-242c0 -57 0 -96 66 -96h24v-10h-24c-66 0 -66 -37 -66 -96v-260c0 -58 -13 -101 -91 -101h-21v10h21c71 0 81 37 81 96v260c0 47 2 86 44 96c-41 12 -44 48 -44 96z" />
    <glyph glyph-name="asciitilde" unicode="~" horiz-adv-x="434" 
d="M33 260h-10c2 45 27 96 86 96c45 0 75 -20 111 -46c36 -25 63 -44 105 -44c52 0 74 46 76 86h10c-2 -44 -27 -96 -86 -96c-44 0 -72 18 -111 46c-37 26 -64 44 -105 44c-52 0 -74 -46 -76 -86z" />
    <glyph glyph-name="Adieresis" unicode="&#xc4;" 
d="M13 0h-11l293 692h10l292 -692h-11l-130 308h-313zM300 678l-152 -360h304zM232 778c-10 0 -17 7 -17 17s7 17 17 17s17 -7 17 -17s-7 -17 -17 -17zM369 778c-10 0 -17 7 -17 17s7 17 17 17s17 -7 17 -17s-7 -17 -17 -17z" />
    <glyph glyph-name="Aring" unicode="&#xc5;" 
d="M13 0h-11l293 692h10l292 -692h-11l-130 308h-313zM300 678l-152 -360h304zM234 796c0 -36 26 -64 65 -64c42 0 67 28 67 66c0 37 -24 64 -68 64c-38 0 -64 -27 -64 -66zM224 796c0 45 30 76 74 76c50 0 78 -31 78 -74c0 -44 -29 -76 -77 -76c-45 0 -75 32 -75 74z" />
    <glyph glyph-name="Ccedilla" unicode="&#xc7;" horiz-adv-x="617" 
d="M597 86l7 -7c-38 -39 -116 -92 -227 -92c-17 0 -33 1 -48 3v-30c69 -1 98 -35 98 -84c0 -58 -42 -85 -102 -85h-6v10h6c56 0 92 23 92 75c0 44 -26 74 -92 74h-6v42c-172 25 -290 163 -290 354c0 211 145 360 346 360c83 0 162 -27 218 -79l-7 -7c-54 50 -131 76 -211 76
c-195 0 -336 -145 -336 -350s142 -349 338 -349c106 0 182 50 220 89z" />
    <glyph glyph-name="Eacute" unicode="&#xc9;" horiz-adv-x="344" 
d="M298 364v-10h-227v-344h235v-10h-245v692h243v-10h-233v-318h227zM179 733h-12l64 112h12z" />
    <glyph glyph-name="Ntilde" unicode="&#xd1;" horiz-adv-x="646" 
d="M71 0h-10v692h10l504 -675v675h10v-692h-10l-504 675v-675zM447 831h10c-1 -43 -25 -72 -62 -72c-31 0 -53 18 -74 32s-40 29 -67 29c-33 0 -51 -27 -52 -62h-10c1 41 23 72 62 72c31 0 52 -17 73 -31s40 -30 68 -30c31 0 51 25 52 62z" />
    <glyph glyph-name="Odieresis" unicode="&#xd6;" horiz-adv-x="753" 
d="M39 346c0 -206 146 -349 336 -349c191 0 339 148 339 349c0 203 -147 350 -338 350c-189 0 -337 -144 -337 -350zM29 346c0 212 152 360 347 360c197 0 348 -151 348 -360c0 -207 -152 -359 -349 -359c-196 0 -346 147 -346 359zM308 778c-10 0 -17 7 -17 17s7 17 17 17
s17 -7 17 -17s-7 -17 -17 -17zM445 778c-10 0 -17 7 -17 17s7 17 17 17s17 -7 17 -17s-7 -17 -17 -17z" />
    <glyph glyph-name="Udieresis" unicode="&#xdc;" horiz-adv-x="574" 
d="M56 692h10v-458c0 -141 71 -237 221 -237c139 0 221 99 221 237v458h10v-458c0 -144 -86 -247 -231 -247c-156 0 -231 100 -231 247v458zM219 778c-10 0 -17 7 -17 17s7 17 17 17s17 -7 17 -17s-7 -17 -17 -17zM356 778c-10 0 -17 7 -17 17s7 17 17 17s17 -7 17 -17
s-7 -17 -17 -17z" />
    <glyph glyph-name="aacute" unicode="&#xe1;" horiz-adv-x="422" 
d="M31 158c0 97 70 168 169 168c73 0 137 -43 156 -112v147c0 113 -59 171 -148 171c-100 0 -146 -65 -146 -146h-10c0 87 52 156 156 156c98 0 158 -62 158 -181v-361h-10v101c-21 -68 -81 -111 -156 -111c-98 0 -169 71 -169 168zM41 158c0 -91 67 -158 159 -158
c89 0 156 65 156 158s-67 158 -156 158c-93 0 -159 -67 -159 -158zM203 585h-11l66 121h11z" />
    <glyph glyph-name="agrave" unicode="&#xe0;" horiz-adv-x="422" 
d="M31 158c0 97 70 168 169 168c73 0 137 -43 156 -112v147c0 113 -59 171 -148 171c-100 0 -146 -65 -146 -146h-10c0 87 52 156 156 156c98 0 158 -62 158 -181v-361h-10v101c-21 -68 -81 -111 -156 -111c-98 0 -169 71 -169 168zM41 158c0 -91 67 -158 159 -158
c89 0 156 65 156 158s-67 158 -156 158c-93 0 -159 -67 -159 -158zM217 585h-11l-64 121h11z" />
    <glyph glyph-name="acircumflex" unicode="&#xe2;" horiz-adv-x="422" 
d="M31 158c0 97 70 168 169 168c73 0 137 -43 156 -112v147c0 113 -59 171 -148 171c-100 0 -146 -65 -146 -146h-10c0 87 52 156 156 156c98 0 158 -62 158 -181v-361h-10v101c-21 -68 -81 -111 -156 -111c-98 0 -169 71 -169 168zM41 158c0 -91 67 -158 159 -158
c89 0 156 65 156 158s-67 158 -156 158c-93 0 -159 -67 -159 -158zM200 709h12l103 -130h-13l-96 121l-96 -121h-13z" />
    <glyph glyph-name="adieresis" unicode="&#xe4;" horiz-adv-x="422" 
d="M31 158c0 97 70 168 169 168c73 0 137 -43 156 -112v147c0 113 -59 171 -148 171c-100 0 -146 -65 -146 -146h-10c0 87 52 156 156 156c98 0 158 -62 158 -181v-361h-10v101c-21 -68 -81 -111 -156 -111c-98 0 -169 71 -169 168zM41 158c0 -91 67 -158 159 -158
c89 0 156 65 156 158s-67 158 -156 158c-93 0 -159 -67 -159 -158zM149 632c-10 0 -17 7 -17 17s7 17 17 17s17 -7 17 -17s-7 -17 -17 -17zM266 632c-10 0 -17 7 -17 17s7 17 17 17s17 -7 17 -17s-7 -17 -17 -17z" />
    <glyph glyph-name="atilde" unicode="&#xe3;" horiz-adv-x="422" 
d="M31 158c0 97 70 168 169 168c73 0 137 -43 156 -112v147c0 113 -59 171 -148 171c-100 0 -146 -65 -146 -146h-10c0 87 52 156 156 156c98 0 158 -62 158 -181v-361h-10v101c-21 -68 -81 -111 -156 -111c-98 0 -169 71 -169 168zM41 158c0 -91 67 -158 159 -158
c89 0 156 65 156 158s-67 158 -156 158c-93 0 -159 -67 -159 -158zM322 677h10c-1 -43 -23 -72 -60 -72c-31 0 -52 18 -73 32s-39 29 -66 29c-33 0 -49 -27 -50 -62h-10c1 41 21 72 60 72c31 0 51 -17 72 -31s39 -30 67 -30c31 0 49 25 50 62z" />
    <glyph glyph-name="aring" unicode="&#xe5;" horiz-adv-x="422" 
d="M31 158c0 97 70 168 169 168c73 0 137 -43 156 -112v147c0 113 -59 171 -148 171c-100 0 -146 -65 -146 -146h-10c0 87 52 156 156 156c98 0 158 -62 158 -181v-361h-10v101c-21 -68 -81 -111 -156 -111c-98 0 -169 71 -169 168zM41 158c0 -91 67 -158 159 -158
c89 0 156 65 156 158s-67 158 -156 158c-93 0 -159 -67 -159 -158zM143 659c0 -36 26 -64 65 -64c42 0 67 28 67 66c0 37 -24 64 -68 64c-38 0 -64 -27 -64 -66zM133 659c0 45 30 76 74 76c50 0 78 -31 78 -74c0 -44 -29 -76 -77 -76c-45 0 -75 32 -75 74z" />
    <glyph glyph-name="ccedilla" unicode="&#xe7;" horiz-adv-x="529" 
d="M499 96l8 -6c-32 -43 -101 -99 -209 -99c-12 0 -26 1 -38 3v-34c69 -1 98 -35 98 -84c0 -58 -42 -85 -102 -85h-6v10h6c56 0 92 23 92 75c0 44 -26 74 -92 74h-6v45c-135 21 -224 130 -224 272c0 158 116 277 272 277c112 0 178 -54 207 -96l-8 -6c-28 40 -91 92 -199 92
c-150 0 -262 -115 -262 -267s107 -266 262 -266c104 0 171 54 201 95z" />
    <glyph glyph-name="eacute" unicode="&#xe9;" horiz-adv-x="567" 
d="M544 270h-506v-3c0 -161 107 -266 256 -266c113 0 198 69 233 159l9 -4c-36 -94 -124 -165 -242 -165c-155 0 -266 109 -266 276c0 164 112 277 258 277c148 0 258 -98 258 -260v-14zM286 534c-136 0 -243 -103 -248 -254h496v4c0 156 -106 250 -248 250zM287 585h-11
l66 121h11z" />
    <glyph glyph-name="egrave" unicode="&#xe8;" horiz-adv-x="567" 
d="M544 270h-506v-3c0 -161 107 -266 256 -266c113 0 198 69 233 159l9 -4c-36 -94 -124 -165 -242 -165c-155 0 -266 109 -266 276c0 164 112 277 258 277c148 0 258 -98 258 -260v-14zM286 534c-136 0 -243 -103 -248 -254h496v4c0 156 -106 250 -248 250zM296 585h-11
l-64 121h11z" />
    <glyph glyph-name="ecircumflex" unicode="&#xea;" horiz-adv-x="567" 
d="M544 270h-506v-3c0 -161 107 -266 256 -266c113 0 198 69 233 159l9 -4c-36 -94 -124 -165 -242 -165c-155 0 -266 109 -266 276c0 164 112 277 258 277c148 0 258 -98 258 -260v-14zM286 534c-136 0 -243 -103 -248 -254h496v4c0 156 -106 250 -248 250zM283 709h12
l103 -130h-13l-96 121l-96 -121h-13z" />
    <glyph glyph-name="edieresis" unicode="&#xeb;" horiz-adv-x="567" 
d="M544 270h-506v-3c0 -161 107 -266 256 -266c113 0 198 69 233 159l9 -4c-36 -94 -124 -165 -242 -165c-155 0 -266 109 -266 276c0 164 112 277 258 277c148 0 258 -98 258 -260v-14zM286 534c-136 0 -243 -103 -248 -254h496v4c0 156 -106 250 -248 250zM231 632
c-10 0 -17 7 -17 17s7 17 17 17s17 -7 17 -17s-7 -17 -17 -17zM348 632c-10 0 -17 7 -17 17s7 17 17 17s17 -7 17 -17s-7 -17 -17 -17z" />
    <glyph glyph-name="iacute" unicode="&#xed;" horiz-adv-x="126" 
d="M58 535h10v-535h-10v535zM65 585h-11l66 121h11z" />
    <glyph glyph-name="igrave" unicode="&#xec;" horiz-adv-x="126" 
d="M58 535h10v-535h-10v535zM70 585h-11l-64 121h11z" />
    <glyph glyph-name="icircumflex" unicode="&#xee;" horiz-adv-x="126" 
d="M57 709h12l82 -130h-12l-76 120l-76 -120h-12zM58 535h10v-535h-10v535z" />
    <glyph glyph-name="idieresis" unicode="&#xef;" horiz-adv-x="126" 
d="M17 632c-10 0 -17 7 -17 17s7 17 17 17s17 -7 17 -17s-7 -17 -17 -17zM110 632c-10 0 -17 7 -17 17s7 17 17 17s17 -7 17 -17s-7 -17 -17 -17zM58 535h10v-535h-10v535z" />
    <glyph glyph-name="ntilde" unicode="&#xf1;" horiz-adv-x="430" 
d="M364 0v360c0 100 -46 171 -144 171c-99 0 -152 -73 -152 -182v-349h-10v535h10v-115c17 80 79 121 152 121c107 0 154 -77 154 -180v-361h-10zM327 677h10c-1 -43 -23 -72 -60 -72c-31 0 -52 18 -73 32s-39 29 -66 29c-33 0 -49 -27 -50 -62h-10c1 41 21 72 60 72
c31 0 51 -17 72 -31s39 -30 67 -30c31 0 49 25 50 62z" />
    <glyph glyph-name="oacute" unicode="&#xf3;" 
d="M38 267c0 -161 113 -266 260 -266c146 0 263 110 263 266c0 157 -114 267 -261 267c-146 0 -262 -107 -262 -267zM28 267c0 166 120 277 272 277c153 0 271 -114 271 -277c0 -162 -121 -276 -273 -276c-153 0 -270 109 -270 276zM299 585h-11l66 121h11z" />
    <glyph glyph-name="ograve" unicode="&#xf2;" 
d="M38 267c0 -161 113 -266 260 -266c146 0 263 110 263 266c0 157 -114 267 -261 267c-146 0 -262 -107 -262 -267zM28 267c0 166 120 277 272 277c153 0 271 -114 271 -277c0 -162 -121 -276 -273 -276c-153 0 -270 109 -270 276zM308 585h-11l-64 121h11z" />
    <glyph glyph-name="ocircumflex" unicode="&#xf4;" 
d="M38 267c0 -161 113 -266 260 -266c146 0 263 110 263 266c0 157 -114 267 -261 267c-146 0 -262 -107 -262 -267zM28 267c0 166 120 277 272 277c153 0 271 -114 271 -277c0 -162 -121 -276 -273 -276c-153 0 -270 109 -270 276zM295 709h12l103 -130h-13l-96 121
l-96 -121h-13z" />
    <glyph glyph-name="odieresis" unicode="&#xf6;" 
d="M38 267c0 -161 113 -266 260 -266c146 0 263 110 263 266c0 157 -114 267 -261 267c-146 0 -262 -107 -262 -267zM28 267c0 166 120 277 272 277c153 0 271 -114 271 -277c0 -162 -121 -276 -273 -276c-153 0 -270 109 -270 276zM243 632c-10 0 -17 7 -17 17s7 17 17 17
s17 -7 17 -17s-7 -17 -17 -17zM360 632c-10 0 -17 7 -17 17s7 17 17 17s17 -7 17 -17s-7 -17 -17 -17z" />
    <glyph glyph-name="otilde" unicode="&#xf5;" 
d="M38 267c0 -161 113 -266 260 -266c146 0 263 110 263 266c0 157 -114 267 -261 267c-146 0 -262 -107 -262 -267zM28 267c0 166 120 277 272 277c153 0 271 -114 271 -277c0 -162 -121 -276 -273 -276c-153 0 -270 109 -270 276zM421 677h10c-1 -43 -23 -72 -60 -72
c-31 0 -52 18 -73 32s-39 29 -66 29c-33 0 -49 -27 -50 -62h-10c1 41 21 72 60 72c31 0 51 -17 72 -31s39 -30 67 -30c31 0 49 25 50 62z" />
    <glyph glyph-name="uacute" unicode="&#xfa;" horiz-adv-x="427" 
d="M65 535v-360c0 -100 44 -171 145 -171c97 0 148 73 149 182v349h10v-535h-10v116c-17 -78 -76 -122 -149 -122c-108 0 -155 77 -155 181v360h10zM210 585h-11l66 121h11z" />
    <glyph glyph-name="ugrave" unicode="&#xf9;" horiz-adv-x="427" 
d="M65 535v-360c0 -100 44 -171 145 -171c97 0 148 73 149 182v349h10v-535h-10v116c-17 -78 -76 -122 -149 -122c-108 0 -155 77 -155 181v360h10zM221 585h-11l-64 121h11z" />
    <glyph glyph-name="ucircumflex" unicode="&#xfb;" horiz-adv-x="427" 
d="M65 535v-360c0 -100 44 -171 145 -171c97 0 148 73 149 182v349h10v-535h-10v116c-17 -78 -76 -122 -149 -122c-108 0 -155 77 -155 181v360h10zM206 709h12l103 -130h-13l-96 121l-96 -121h-13z" />
    <glyph glyph-name="udieresis" unicode="&#xfc;" horiz-adv-x="427" 
d="M65 535v-360c0 -100 44 -171 145 -171c97 0 148 73 149 182v349h10v-535h-10v116c-17 -78 -76 -122 -149 -122c-108 0 -155 77 -155 181v360h10zM154 632c-10 0 -17 7 -17 17s7 17 17 17s17 -7 17 -17s-7 -17 -17 -17zM271 632c-10 0 -17 7 -17 17s7 17 17 17
s17 -7 17 -17s-7 -17 -17 -17z" />
    <glyph glyph-name="dagger" unicode="&#x2020;" horiz-adv-x="346" 
d="M316 515v-10h-138v-505h-10v505h-138v10h138v177h10v-177h138z" />
    <glyph glyph-name="degree" unicode="&#xb0;" horiz-adv-x="300" 
d="M26 571c0 71 49 127 123 127c78 0 125 -54 125 -125c0 -72 -47 -126 -123 -126c-78 0 -125 54 -125 124zM36 571c0 -64 43 -114 115 -114c70 0 113 50 113 116c0 65 -43 115 -115 115c-68 0 -113 -52 -113 -117z" />
    <glyph glyph-name="cent" unicode="&#xa2;" horiz-adv-x="532" 
d="M502 96l8 -6c-32 -43 -101 -99 -210 -99v-59h-10v59c-155 5 -261 121 -261 276c0 154 110 271 261 277v60h10v-60c113 0 179 -54 208 -96l-8 -6c-28 40 -91 92 -200 92v-533c105 0 172 54 202 95zM39 267c0 -149 102 -261 251 -266v533c-145 -6 -251 -119 -251 -267z" />
    <glyph glyph-name="sterling" unicode="&#xa3;" horiz-adv-x="477" 
d="M24 334v10h77v175c0 110 57 187 174 187c126 0 172 -100 172 -191h-10c0 87 -44 181 -162 181c-111 0 -164 -73 -164 -177v-175h174v-10h-174v-324h336v-10h-423v10h77v324h-77z" />
    <glyph glyph-name="section" unicode="&#xa7;" horiz-adv-x="560" 
d="M320 119l-70 28c-37 15 -75 30 -110 43c-65 25 -104 71 -104 132c0 86 62 136 137 136c5 0 15 -1 21 -2c-52 28 -81 67 -81 125c0 86 56 157 173 157c131 0 173 -97 170 -185h-10c3 84 -37 175 -160 175c-111 0 -163 -67 -163 -147c0 -70 43 -108 129 -141l170 -66
c72 -28 102 -73 102 -133c0 -83 -62 -134 -137 -134c-4 0 -18 1 -25 3c71 -34 97 -83 97 -134c0 -91 -74 -158 -183 -158c-137 0 -188 96 -184 194h10c-4 -92 45 -184 174 -184c103 0 173 63 173 148c0 56 -29 103 -129 143zM418 364l-184 72c-21 8 -40 12 -61 12
c-71 0 -127 -46 -127 -126c0 -55 38 -99 98 -122c34 -14 71 -29 108 -43l73 -28c18 -7 40 -12 62 -12c69 0 127 45 127 124c0 56 -30 98 -96 123z" />
    <glyph glyph-name="bullet" unicode="&#x2022;" horiz-adv-x="158" 
d="M30 297c0 28 21 49 49 49s49 -21 49 -49s-21 -48 -49 -48s-49 20 -49 48z" />
    <glyph glyph-name="paragraph" unicode="&#xb6;" horiz-adv-x="320" 
d="M166 692h10v-692h-10v460c-81 0 -140 41 -140 120c0 71 53 112 140 112zM252 692h10v-692h-10v692z" />
    <glyph glyph-name="germandbls" unicode="&#xdf;" horiz-adv-x="461" 
d="M68 0h-10v558c0 91 32 179 146 179c89 0 148 -59 148 -148c0 -77 -52 -128 -117 -144c112 -14 196 -84 196 -220c0 -152 -110 -225 -242 -225h-11v10h11c126 0 232 69 232 215c0 148 -103 214 -232 214h-11v10h14c79 0 150 53 150 140c0 83 -55 138 -138 138
c-106 0 -136 -84 -136 -169v-558z" />
    <glyph glyph-name="registered" unicode="&#xae;" horiz-adv-x="442" 
d="M23 536c0 121 88 202 199 202s197 -83 197 -202c0 -118 -88 -201 -199 -201s-197 79 -197 201zM33 536c0 -116 82 -191 187 -191s189 79 189 191c0 113 -82 192 -187 192s-189 -77 -189 -192zM283 430l-51 108s-8 -1 -16 -1h-36v-107h-10v220h46c40 0 69 -14 69 -56
c0 -31 -17 -48 -43 -54l52 -110h-11zM180 640v-93h36c34 0 59 10 59 47c0 35 -23 46 -59 46h-36z" />
    <glyph glyph-name="copyright" unicode="&#xa9;" horiz-adv-x="764" 
d="M39 346c0 -211 148 -349 341 -349c192 0 345 144 345 349c0 206 -149 350 -342 350c-192 0 -344 -140 -344 -350zM29 346c0 216 156 360 354 360c199 0 352 -148 352 -360c0 -211 -157 -359 -355 -359c-199 0 -351 142 -351 359zM528 499l-6 -8c-28 26 -71 44 -127 44
c-112 0 -188 -82 -188 -189c0 -105 72 -187 190 -187c51 0 94 16 126 50l7 -7c-32 -36 -81 -53 -133 -53c-124 0 -200 86 -200 197c0 113 80 199 198 199c58 0 103 -18 133 -46z" />
    <glyph glyph-name="trademark" unicode="&#x2122;" horiz-adv-x="518" 
d="M490 410h-10v263l-133 -263h-8l-133 262v-262h-10v282h11l136 -269c45 88 91 182 136 269h11v-282zM97 410h-10v272h-59v10h128v-10h-59v-272z" />
    <glyph glyph-name="acute" unicode="&#xb4;" horiz-adv-x="415" 
d="M227 585h-11l66 121h11z" />
    <glyph glyph-name="dieresis" unicode="&#xa8;" horiz-adv-x="378" 
d="M136 632c-10 0 -17 7 -17 17s7 17 17 17s17 -7 17 -17s-7 -17 -17 -17zM253 632c-10 0 -17 7 -17 17s7 17 17 17s17 -7 17 -17s-7 -17 -17 -17z" />
    <glyph glyph-name="AE" unicode="&#xc6;" horiz-adv-x="721" 
d="M675 364v-10h-227v-344h235v-10h-245v273h-252l-171 -273h-12l435 692h243v-10h-233v-318h227zM193 283h245v390z" />
    <glyph glyph-name="Oslash" unicode="&#xd8;" horiz-adv-x="753" 
d="M29 346c0 212 152 360 347 360c88 0 167 -31 227 -83l69 80l8 -6l-69 -81c70 -64 113 -159 113 -270c0 -207 -152 -359 -349 -359c-90 0 -169 30 -230 84l-69 -81l-8 6l70 81c-68 64 -109 157 -109 269zM714 346c0 108 -42 200 -109 262l-453 -530
c58 -52 136 -81 223 -81c191 0 339 148 339 349zM39 346c0 -108 40 -199 105 -261l453 530c-59 51 -136 81 -221 81c-189 0 -337 -144 -337 -350z" />
    <glyph glyph-name="yen" unicode="&#xa5;" horiz-adv-x="436" 
d="M26 392v10h183l-206 290h12l205 -290l203 290h12l-204 -290h183v-10h-189v-109h189v-10h-189v-273h-10v273h-189v10h189v109h-189z" />
    <glyph glyph-name="ordfeminine" unicode="&#xaa;" horiz-adv-x="326" 
d="M56 579h-10c0 66 39 118 117 118c75 0 120 -47 120 -136v-272h-10v69c-14 -43 -56 -77 -116 -77c-74 0 -127 54 -127 126c0 74 53 128 127 128c54 0 100 -29 116 -80v106c0 83 -41 126 -110 126c-72 0 -107 -48 -107 -108zM40 407c0 -66 49 -116 117 -116
c67 0 114 46 116 114c0 73 -49 120 -116 120c-68 0 -117 -50 -117 -118z" />
    <glyph glyph-name="ordmasculine" unicode="&#xba;" horiz-adv-x="446" 
d="M30 491c0 -119 84 -196 192 -196c107 0 194 81 194 196c0 116 -84 197 -193 197c-107 0 -193 -79 -193 -197zM20 491c0 124 90 207 203 207c115 0 203 -85 203 -207c0 -121 -91 -206 -204 -206c-114 0 -202 81 -202 206z" />
    <glyph glyph-name="ae" unicode="&#xe6;" horiz-adv-x="885" 
d="M602 534c-136 0 -243 -103 -248 -254h496v4c0 156 -106 250 -248 250zM41 158c0 -91 67 -158 159 -158c89 0 153 63 156 154c0 98 -67 162 -156 162c-93 0 -159 -67 -159 -158zM610 1c113 0 198 69 233 159l9 -4c-36 -94 -124 -165 -242 -165c-115 0 -205 60 -245 158
c-5 -94 -72 -159 -165 -159c-98 0 -169 71 -169 168s70 168 169 168c64 0 117 -31 145 -83c-1 8 -1 16 -1 24v94c0 113 -49 171 -140 171c-97 0 -137 -66 -138 -146h-10c1 86 43 156 148 156c97 0 150 -62 150 -181v-13c30 119 127 196 248 196c148 0 258 -98 258 -260v-14
h-506v-3c0 -161 107 -266 256 -266z" />
    <glyph glyph-name="oslash" unicode="&#xf8;" 
d="M28 267c0 166 120 277 272 277c69 0 130 -24 177 -64l55 64l8 -6l-55 -64c53 -49 86 -121 86 -207c0 -162 -121 -276 -273 -276c-68 0 -129 21 -175 59l-52 -60l-8 6l52 61c-54 48 -87 121 -87 210zM38 267c0 -86 32 -156 84 -202l349 408c-46 39 -105 61 -171 61
c-146 0 -262 -107 -262 -267zM561 267c0 82 -32 152 -83 199l-348 -408c45 -37 103 -57 168 -57c146 0 263 110 263 266z" />
    <glyph glyph-name="questiondown" unicode="&#xbf;" horiz-adv-x="472" 
d="M425 97h10c3 -68 -29 -209 -196 -209c-130 0 -203 87 -203 195c0 106 75 192 203 195v156h10v-166c-130 0 -203 -83 -203 -185s69 -185 193 -185c158 0 189 135 186 199zM244 596c11 0 19 -8 19 -19s-8 -19 -19 -19s-19 8 -19 19s8 19 19 19z" />
    <glyph glyph-name="exclamdown" unicode="&#xa1;" horiz-adv-x="142" 
d="M76 -101h-10v563h10v-563zM71 596c11 0 19 -8 19 -19s-8 -19 -19 -19s-19 8 -19 19s8 19 19 19z" />
    <glyph glyph-name="florin" unicode="&#x192;" horiz-adv-x="281" 
d="M52 375v10h52l37 208c11 65 37 99 103 99h27v-10h-28c-61 0 -82 -32 -92 -90l-37 -207h103v-10h-105l-96 -550h-10l96 550h-50z" />
    <glyph glyph-name="guillemotleft" unicode="&#xab;" horiz-adv-x="249" 
d="M119 426h11l-98 -157l98 -157h-11l-98 157zM217 426h11l-98 -157l98 -157h-11l-98 157z" />
    <glyph glyph-name="guillemotright" unicode="&#xbb;" horiz-adv-x="249" 
d="M119 426h11l98 -157l-98 -157h-11l98 157zM21 426h11l98 -157l-98 -157h-11l98 157z" />
    <glyph glyph-name="ellipsis" unicode="&#x2026;" horiz-adv-x="314" 
d="M157 -5c-11 0 -19 8 -19 19s8 19 19 19s19 -8 19 -19s-8 -19 -19 -19zM49 -5c-11 0 -19 8 -19 19s8 19 19 19s19 -8 19 -19s-8 -19 -19 -19zM265 -5c-11 0 -19 8 -19 19s8 19 19 19s19 -8 19 -19s-8 -19 -19 -19z" />
    <glyph glyph-name="uni00A0" unicode="&#xa0;" horiz-adv-x="166" 
 />
    <glyph glyph-name="Agrave" unicode="&#xc0;" 
d="M13 0h-11l293 692h10l292 -692h-11l-130 308h-313zM300 678l-152 -360h304zM305 733h-12l-64 112h12z" />
    <glyph glyph-name="Atilde" unicode="&#xc3;" 
d="M13 0h-11l293 692h10l292 -692h-11l-130 308h-313zM300 678l-152 -360h304zM423 831h10c-1 -43 -25 -72 -62 -72c-31 0 -53 18 -74 32s-40 29 -67 29c-33 0 -51 -27 -52 -62h-10c1 41 23 72 62 72c31 0 52 -17 73 -31s40 -30 68 -30c31 0 51 25 52 62z" />
    <glyph glyph-name="Otilde" unicode="&#xd5;" horiz-adv-x="753" 
d="M39 346c0 -206 146 -349 336 -349c191 0 339 148 339 349c0 203 -147 350 -338 350c-189 0 -337 -144 -337 -350zM29 346c0 212 152 360 347 360c197 0 348 -151 348 -360c0 -207 -152 -359 -349 -359c-196 0 -346 147 -346 359zM499 831h10c-1 -43 -25 -72 -62 -72
c-31 0 -53 18 -74 32s-40 29 -67 29c-33 0 -51 -27 -52 -62h-10c1 41 23 72 62 72c31 0 52 -17 73 -31s40 -30 68 -30c31 0 51 25 52 62z" />
    <glyph glyph-name="OE" unicode="&#x152;" horiz-adv-x="659" 
d="M613 364v-10h-227v-344h235v-10h-244c-217 0 -348 146 -348 346c0 201 130 346 347 346h243v-10h-233v-318h227zM39 346c0 -194 126 -336 337 -336v672c-211 0 -337 -141 -337 -336z" />
    <glyph glyph-name="oe" unicode="&#x153;" horiz-adv-x="1102" 
d="M28 267c0 166 120 277 272 277c134 0 242 -88 266 -220c23 132 124 220 253 220c148 0 258 -98 258 -260v-14h-506v-3c0 -161 107 -266 256 -266c113 0 198 69 233 159l9 -4c-36 -94 -124 -165 -242 -165c-137 0 -239 84 -262 218c-25 -131 -134 -218 -267 -218
c-153 0 -270 109 -270 276zM819 534c-136 0 -243 -103 -248 -254h496v4c0 156 -106 250 -248 250zM38 267c0 -161 113 -266 260 -266c146 0 263 110 263 266c0 157 -114 267 -261 267c-146 0 -262 -107 -262 -267z" />
    <glyph glyph-name="endash" unicode="&#x2013;" horiz-adv-x="595" 
d="M557 290v-10h-519v10h519z" />
    <glyph glyph-name="emdash" unicode="&#x2014;" horiz-adv-x="920" 
d="M882 290v-10h-844v10h844z" />
    <glyph glyph-name="quotedblleft" unicode="&#x201c;" horiz-adv-x="190" 
d="M73 692h10l-34 -99h5c11 0 19 -8 19 -19s-8 -19 -19 -19s-19 8 -19 19c0 5 1 10 3 16zM145 692h10l-34 -99h5c11 0 19 -8 19 -19s-8 -19 -19 -19s-19 8 -19 19c0 5 1 10 3 16z" />
    <glyph glyph-name="quotedblright" unicode="&#x201d;" horiz-adv-x="190" 
d="M45 558h-10l34 99h-5c-11 0 -19 8 -19 19s8 19 19 19s19 -8 19 -19c0 -5 -1 -10 -3 -16zM117 558h-10l34 99h-5c-11 0 -19 8 -19 19s8 19 19 19s19 -8 19 -19c0 -5 -1 -10 -3 -16z" />
    <glyph glyph-name="quoteleft" unicode="&#x2018;" horiz-adv-x="118" 
d="M73 692h10l-34 -99h5c11 0 19 -8 19 -19s-8 -19 -19 -19s-19 8 -19 19c0 5 1 10 3 16z" />
    <glyph glyph-name="quoteright" unicode="&#x2019;" horiz-adv-x="118" 
d="M45 558h-10l34 99h-5c-11 0 -19 8 -19 19s8 19 19 19s19 -8 19 -19c0 -5 -1 -10 -3 -16z" />
    <glyph glyph-name="divide" unicode="&#xf7;" horiz-adv-x="412" 
d="M206 466c-10 0 -18 8 -18 18s8 18 18 18s18 -8 18 -18s-8 -18 -18 -18zM206 166c-10 0 -18 8 -18 18s8 18 18 18s18 -8 18 -18s-8 -18 -18 -18zM20 332v10h372v-10h-372z" />
    <glyph glyph-name="ydieresis" unicode="&#xff;" horiz-adv-x="494" 
d="M0 535h12l241 -529l233 529h12l-313 -710h-12l74 168zM196 632c-10 0 -17 7 -17 17s7 17 17 17s17 -7 17 -17s-7 -17 -17 -17zM313 632c-10 0 -17 7 -17 17s7 17 17 17s17 -7 17 -17s-7 -17 -17 -17z" />
    <glyph glyph-name="Ydieresis" unicode="&#x178;" horiz-adv-x="431" 
d="M419 692h12l-209 -315v-377h-10v377l-212 315h12l205 -305zM151 778c-10 0 -17 7 -17 17s7 17 17 17s17 -7 17 -17s-7 -17 -17 -17zM288 778c-10 0 -17 7 -17 17s7 17 17 17s17 -7 17 -17s-7 -17 -17 -17z" />
    <glyph glyph-name="fraction" unicode="&#x2044;" horiz-adv-x="588" 
d="M536 692h12l-498 -692h-12z" />
    <glyph glyph-name="Euro" unicode="&#x20ac;" horiz-adv-x="634" 
d="M5 403v10h56c28 175 162 293 341 293c83 0 162 -27 218 -79l-7 -7c-54 50 -131 76 -211 76c-173 0 -303 -114 -331 -283h345v-10h-347c-2 -15 -3 -35 -3 -57c0 -18 1 -35 3 -52h347v-10h-346c26 -172 158 -287 334 -287c106 0 182 50 220 89l7 -7
c-38 -39 -116 -92 -227 -92c-182 0 -318 119 -344 297h-55v10h54c-2 17 -3 34 -3 52c0 21 1 39 3 57h-54z" />
    <glyph glyph-name="guilsinglleft" unicode="&#x2039;" horiz-adv-x="151" 
d="M119 426h11l-98 -157l98 -157h-11l-98 157z" />
    <glyph glyph-name="guilsinglright" unicode="&#x203a;" horiz-adv-x="151" 
d="M32 112h-11l98 157l-98 157h11l98 -157z" />
    <glyph glyph-name="daggerdbl" unicode="&#x2021;" horiz-adv-x="346" 
d="M316 195v-10h-138v-185h-10v185h-138v10h138v310h-138v10h138v177h10v-177h138v-10h-138v-310h138z" />
    <glyph glyph-name="periodcentered" unicode="&#xb7;" horiz-adv-x="98" 
d="M49 310c-11 0 -19 8 -19 19s8 19 19 19s19 -8 19 -19s-8 -19 -19 -19z" />
    <glyph glyph-name="quotesinglbase" unicode="&#x201a;" horiz-adv-x="119" 
d="M46 -41h-11l34 99h-4c-11 0 -19 8 -19 19s8 19 19 19s19 -8 19 -19c0 -5 -1 -10 -3 -16z" />
    <glyph glyph-name="quotedblbase" unicode="&#x201e;" horiz-adv-x="193" 
d="M120 -41h-11l34 99h-4c-11 0 -19 8 -19 19s8 19 19 19s19 -8 19 -19c0 -5 -1 -10 -3 -16zM46 -41h-11l34 99h-4c-11 0 -19 8 -19 19s8 19 19 19s19 -8 19 -19c0 -5 -1 -10 -3 -16z" />
    <glyph glyph-name="perthousand" unicode="&#x2030;" horiz-adv-x="1038" 
d="M707 149c0 86 62 154 152 154c95 0 157 -67 157 -154c0 -85 -62 -153 -155 -153c-91 0 -154 67 -154 153zM717 149c0 -80 59 -143 144 -143c87 0 145 64 145 143c0 81 -58 144 -147 144c-84 0 -142 -64 -142 -144zM607 692h12l-542 -692h-12zM22 546c0 86 62 154 152 154
c95 0 157 -67 157 -154c0 -85 -62 -153 -155 -153c-91 0 -154 67 -154 153zM32 546c0 -80 59 -143 144 -143c87 0 145 64 145 143c0 81 -58 144 -147 144c-84 0 -142 -64 -142 -144zM355 149c0 86 62 154 152 154c95 0 157 -67 157 -154c0 -85 -62 -153 -155 -153
c-91 0 -154 67 -154 153zM365 149c0 -80 59 -143 144 -143c87 0 145 64 145 143c0 81 -58 144 -147 144c-84 0 -142 -64 -142 -144z" />
    <glyph glyph-name="Acircumflex" unicode="&#xc2;" 
d="M13 0h-11l293 692h10l292 -692h-11l-130 308h-313zM300 678l-152 -360h304zM294 847h12l104 -114h-13l-97 105l-97 -105h-13z" />
    <glyph glyph-name="Ecircumflex" unicode="&#xca;" horiz-adv-x="344" 
d="M297 364v-10h-227v-344h235v-10h-245v692h243v-10h-233v-318h227zM176 847h12l104 -114h-13l-97 105l-97 -105h-13z" />
    <glyph glyph-name="Aacute" unicode="&#xc1;" 
d="M13 0h-11l293 692h10l292 -692h-11l-130 308h-313zM300 678l-152 -360h304zM305 733h-12l64 112h12z" />
    <glyph glyph-name="Edieresis" unicode="&#xcb;" horiz-adv-x="344" 
d="M298 364v-10h-227v-344h235v-10h-245v692h243v-10h-233v-318h227zM118 778c-10 0 -17 7 -17 17s7 17 17 17s17 -7 17 -17s-7 -17 -17 -17zM255 778c-10 0 -17 7 -17 17s7 17 17 17s17 -7 17 -17s-7 -17 -17 -17z" />
    <glyph glyph-name="Egrave" unicode="&#xc8;" horiz-adv-x="344" 
d="M298 364v-10h-227v-344h235v-10h-245v692h243v-10h-233v-318h227zM200 733h-12l-64 112h12z" />
    <glyph glyph-name="Iacute" unicode="&#xcd;" horiz-adv-x="132" 
d="M61 692h10v-692h-10v692zM71 733h-12l64 112h12z" />
    <glyph glyph-name="Icircumflex" unicode="&#xce;" horiz-adv-x="132" 
d="M61 692h10v-692h-10v692zM61 847h12l104 -114h-13l-97 105l-97 -105h-13z" />
    <glyph glyph-name="Idieresis" unicode="&#xcf;" horiz-adv-x="132" 
d="M61 692h10v-692h-10v692zM0 778c-10 0 -17 7 -17 17s7 17 17 17s17 -7 17 -17s-7 -17 -17 -17zM137 778c-10 0 -17 7 -17 17s7 17 17 17s17 -7 17 -17s-7 -17 -17 -17z" />
    <glyph glyph-name="Igrave" unicode="&#xcc;" horiz-adv-x="132" 
d="M61 692h10v-692h-10v692zM72 733h-12l-64 112h12z" />
    <glyph glyph-name="Oacute" unicode="&#xd3;" horiz-adv-x="753" 
d="M39 346c0 -206 146 -349 336 -349c191 0 339 148 339 349c0 203 -147 350 -338 350c-189 0 -337 -144 -337 -350zM29 346c0 212 152 360 347 360c197 0 348 -151 348 -360c0 -207 -152 -359 -349 -359c-196 0 -346 147 -346 359zM369 733h-12l64 112h12z" />
    <glyph glyph-name="Ocircumflex" unicode="&#xd4;" horiz-adv-x="753" 
d="M39 346c0 -206 146 -349 336 -349c191 0 339 148 339 349c0 203 -147 350 -338 350c-189 0 -337 -144 -337 -350zM29 346c0 212 152 360 347 360c197 0 348 -151 348 -360c0 -207 -152 -359 -349 -359c-196 0 -346 147 -346 359zM370 847h12l104 -114h-13l-97 105
l-97 -105h-13z" />
    <glyph glyph-name="Ograve" unicode="&#xd2;" horiz-adv-x="753" 
d="M39 346c0 -206 146 -349 336 -349c191 0 339 148 339 349c0 203 -147 350 -338 350c-189 0 -337 -144 -337 -350zM29 346c0 212 152 360 347 360c197 0 348 -151 348 -360c0 -207 -152 -359 -349 -359c-196 0 -346 147 -346 359zM390 733h-12l-64 112h12z" />
    <glyph glyph-name="Uacute" unicode="&#xda;" horiz-adv-x="574" 
d="M56 692h10v-458c0 -141 71 -237 221 -237c139 0 221 99 221 237v458h10v-458c0 -144 -86 -247 -231 -247c-156 0 -231 100 -231 247v458zM279 733h-12l64 112h12z" />
    <glyph glyph-name="Ucircumflex" unicode="&#xdb;" horiz-adv-x="574" 
d="M56 692h10v-458c0 -141 71 -237 221 -237c139 0 221 99 221 237v458h10v-458c0 -144 -86 -247 -231 -247c-156 0 -231 100 -231 247v458zM281 847h12l104 -114h-13l-97 105l-97 -105h-13z" />
    <glyph glyph-name="Ugrave" unicode="&#xd9;" horiz-adv-x="574" 
d="M56 692h10v-458c0 -141 71 -237 221 -237c139 0 221 99 221 237v458h10v-458c0 -144 -86 -247 -231 -247c-156 0 -231 100 -231 247v458zM314 733h-12l-64 112h12z" />
    <glyph glyph-name="dotlessi" unicode="&#x131;" horiz-adv-x="126" 
d="M58 535h10v-535h-10v535z" />
    <glyph glyph-name="circumflex" unicode="&#x2c6;" horiz-adv-x="347" 
d="M167 709h12l103 -130h-13l-96 121l-96 -121h-13z" />
    <glyph glyph-name="tilde" unicode="&#x2dc;" horiz-adv-x="369" 
d="M302 677h10c-1 -43 -23 -72 -60 -72c-31 0 -52 18 -73 32s-39 29 -66 29c-33 0 -49 -27 -50 -62h-10c1 41 21 72 60 72c31 0 51 -17 72 -31s39 -30 67 -30c31 0 49 25 50 62z" />
    <glyph glyph-name="macron" unicode="&#xaf;" horiz-adv-x="366" 
d="M90 630v10h186v-10h-186z" />
    <glyph glyph-name="breve" unicode="&#x2d8;" horiz-adv-x="362" 
d="M73 700h10c1 -32 21 -94 99 -94c77 0 98 61 99 94h10c-1 -37 -24 -104 -109 -104c-86 0 -108 68 -109 104z" />
    <glyph glyph-name="dotaccent" unicode="&#x2d9;" horiz-adv-x="342" 
d="M173 631c-10 0 -18 8 -18 18s8 18 18 18s18 -8 18 -18s-8 -18 -18 -18z" />
    <glyph glyph-name="ring" unicode="&#x2da;" horiz-adv-x="357" 
d="M112 659c0 -36 26 -64 65 -64c42 0 67 28 67 66c0 37 -24 64 -68 64c-38 0 -64 -27 -64 -66zM102 659c0 45 30 76 74 76c50 0 78 -31 78 -74c0 -44 -29 -76 -77 -76c-45 0 -75 32 -75 74z" />
    <glyph glyph-name="cedilla" unicode="&#xb8;" horiz-adv-x="371" 
d="M131 0h10v-40c69 -1 98 -35 98 -84c0 -58 -42 -85 -102 -85h-6v10h6c56 0 92 23 92 75c0 44 -26 74 -92 74h-6v50z" />
    <glyph glyph-name="hungarumlaut" unicode="&#x2dd;" horiz-adv-x="294" 
d="M179 585h-11l53 121h11zM95 585h-11l53 121h11z" />
    <glyph glyph-name="ogonek" unicode="&#x2db;" horiz-adv-x="374" 
d="M225 -167v-10c-53 1 -94 27 -94 80c0 40 26 77 84 102v4h10v-9c-58 -24 -84 -59 -84 -97c0 -47 37 -69 84 -70z" />
    <glyph glyph-name="caron" unicode="&#x2c7;" horiz-adv-x="347" 
d="M179 584h-12l-103 130h13l96 -121l96 121h13z" />
    <glyph glyph-name="space_uni0326" horiz-adv-x="352" 
d="M177 -176h-12l37 95h-3c-11 0 -19 8 -19 19s8 19 19 19s19 -8 19 -19c0 -5 -1 -9 -3 -15z" />
    <glyph glyph-name="caron.alt" horiz-adv-x="433" 
d="M282 731h10l-16 -121h-10z" />
    <glyph glyph-name="space_uni0326.alt" horiz-adv-x="352" 
d="M197 743h12l-37 -95h3c11 0 19 -8 19 -19s-8 -19 -19 -19s-19 8 -19 19c0 5 1 9 3 15z" />
    <glyph glyph-name="acute.pl" horiz-adv-x="433" 
d="M226 585h-11l40 121h11z" />
    <glyph glyph-name="grave.uc" horiz-adv-x="417" 
d="M212 733h-12l-64 112h12z" />
    <glyph glyph-name="dieresis.uc" horiz-adv-x="378" 
d="M118 778c-10 0 -17 7 -17 17s7 17 17 17s17 -7 17 -17s-7 -17 -17 -17zM255 778c-10 0 -17 7 -17 17s7 17 17 17s17 -7 17 -17s-7 -17 -17 -17z" />
    <glyph glyph-name="macron.uc" horiz-adv-x="436" 
d="M133 778v10h186v-10h-186z" />
    <glyph glyph-name="acute.uc" horiz-adv-x="416" 
d="M227 733h-12l64 112h12z" />
    <glyph glyph-name="circumflex.uc" horiz-adv-x="336" 
d="M160 847h12l104 -114h-13l-97 105l-97 -105h-13z" />
    <glyph glyph-name="caron.uc" horiz-adv-x="336" 
d="M173 733h-12l-104 114h13l97 -105l97 105h13z" />
    <glyph glyph-name="breve.uc" horiz-adv-x="362" 
d="M73 837h10c1 -28 21 -90 99 -90c77 0 98 61 99 90h10c-1 -33 -24 -100 -109 -100c-86 0 -108 68 -109 100z" />
    <glyph glyph-name="dotaccent.uc" horiz-adv-x="342" 
d="M173 768c-10 0 -18 8 -18 18s8 18 18 18s18 -8 18 -18s-8 -18 -18 -18z" />
    <glyph glyph-name="ring.uc" horiz-adv-x="430" 
d="M149 796c0 -36 26 -64 65 -64c42 0 67 28 67 66c0 37 -24 64 -68 64c-38 0 -64 -27 -64 -66zM139 796c0 45 30 76 74 76c50 0 78 -31 78 -74c0 -44 -29 -76 -77 -76c-45 0 -75 32 -75 74z" />
    <glyph glyph-name="tilde.uc" horiz-adv-x="445" 
d="M348 831h10c-1 -43 -25 -72 -62 -72c-31 0 -53 18 -74 32s-40 29 -67 29c-33 0 -51 -27 -52 -62h-10c1 41 23 72 62 72c31 0 52 -17 73 -31s40 -30 68 -30c31 0 51 25 52 62z" />
    <glyph glyph-name="hungarumlaut.uc" horiz-adv-x="295" 
d="M165 733h-11l52 112h11zM81 733h-11l52 112h11z" />
    <glyph glyph-name="acute.ucpl" horiz-adv-x="432" 
d="M236 733h-11l39 112h11z" />
    <glyph glyph-name="Dcroat" unicode="&#x110;" horiz-adv-x="507" 
d="M71 692h62c217 0 344 -139 344 -346c0 -205 -128 -346 -345 -346h-61v350h-61v10h61v332zM133 682h-52v-322h150v-10h-150v-340h51c211 0 335 137 335 336c0 201 -123 336 -334 336z" />
    <glyph glyph-name="Eng" unicode="&#x14a;" horiz-adv-x="646" 
d="M71 0h-10v692h11l503 -677v677h10v-794c0 -43 -12 -73 -65 -73h-19v10h19c45 0 55 26 55 63v100l-504 679v-677z" />
    <glyph glyph-name="IJ" unicode="&#x132;" horiz-adv-x="323" 
d="M61 692h10v-692h-10v692zM263 692v-597c0 -60 -10 -95 -81 -95h-31v10h31c64 0 71 29 71 85v597h10z" />
    <glyph glyph-name="uni0237" unicode="&#x237;" horiz-adv-x="127" 
d="M59 535h10v-605c0 -60 -13 -105 -86 -105h-27v10h27c65 0 76 41 76 95v605z" />
    <glyph glyph-name="dcroat" unicode="&#x111;" horiz-adv-x="659" 
d="M437 623v10h148v98h10v-98h59v-10h-59v-623h-10v193c-31 -124 -136 -202 -259 -202c-149 0 -266 109 -266 276c0 166 120 277 268 277c123 0 228 -80 257 -201v280h-148zM70 267c0 -161 113 -266 256 -266s259 111 259 266c0 162 -118 267 -257 267
c-142 0 -258 -107 -258 -267z" />
    <glyph glyph-name="eng" unicode="&#x14b;" horiz-adv-x="414" 
d="M374 361v-431c0 -60 -13 -105 -86 -105h-27v10h27c65 0 76 41 76 95v430c0 100 -46 171 -146 171c-99 0 -149 -73 -150 -182v-349h-10v535h10v-115c17 80 77 121 150 121c109 0 156 -77 156 -180z" />
    <glyph glyph-name="ij" unicode="&#x133;" horiz-adv-x="295" 
d="M52 535h10v-535h-10v535zM57 631c-10 0 -18 8 -18 18s8 18 18 18s18 -8 18 -18s-8 -18 -18 -18zM232 535h10v-605c0 -60 -13 -105 -86 -105h-26v10h26c65 0 76 41 76 95v605zM237 631c-10 0 -18 8 -18 18s8 18 18 18s18 -8 18 -18s-8 -18 -18 -18z" />
    <glyph glyph-name="Abreve" unicode="&#x102;" 
d="M13 0h-11l293 692h10l292 -692h-11l-130 308h-313zM300 678l-152 -360h304zM191 837h10c1 -28 21 -90 99 -90c77 0 98 61 99 90h10c-1 -33 -24 -100 -109 -100c-86 0 -108 68 -109 100z" />
    <glyph glyph-name="Amacron" unicode="&#x100;" 
d="M13 0h-11l293 692h10l292 -692h-11l-130 308h-313zM300 678l-152 -360h304zM207 778v10h186v-10h-186z" />
    <glyph glyph-name="Aogonek" unicode="&#x104;" 
d="M13 0h-11l293 692h10l292 -692c-58 -24 -84 -59 -84 -97c0 -47 37 -69 84 -70v-10c-53 1 -94 27 -94 80c0 40 25 76 81 101l-128 304h-313zM300 678l-152 -360h304z" />
    <glyph glyph-name="Aringacute" unicode="&#x1fa;" 
d="M13 0h-11l293 692h10l292 -692h-11l-130 308h-313zM300 678l-152 -360h304zM236 796c0 -36 26 -64 65 -64c42 0 67 28 67 66c0 37 -24 64 -68 64c-38 0 -64 -27 -64 -66zM226 796c0 45 30 76 74 76c50 0 78 -31 78 -74c0 -44 -29 -76 -77 -76c-45 0 -75 32 -75 74z
M304 898h-12l64 112h12z" />
    <glyph glyph-name="AEacute" unicode="&#x1fc;" horiz-adv-x="721" 
d="M675 364v-10h-227v-344h235v-10h-245v273h-252l-171 -273h-12l435 692h243v-10h-233v-318h227zM193 283h245v390zM527 733h-12l64 112h12z" />
    <glyph glyph-name="Cacute" unicode="&#x106;" horiz-adv-x="617" 
d="M597 86l7 -7c-38 -39 -116 -92 -227 -92c-202 0 -348 148 -348 359s145 360 346 360c83 0 162 -27 218 -79l-7 -7c-54 50 -131 76 -211 76c-195 0 -336 -145 -336 -350s142 -349 338 -349c106 0 182 50 220 89zM357 733h-12l64 112h12z" />
    <glyph glyph-name="Ccaron" unicode="&#x10c;" horiz-adv-x="617" 
d="M597 86l7 -7c-38 -39 -116 -92 -227 -92c-202 0 -348 148 -348 359s145 360 346 360c83 0 162 -27 218 -79l-7 -7c-54 50 -131 76 -211 76c-195 0 -336 -145 -336 -350s142 -349 338 -349c106 0 182 50 220 89zM370 733h-12l-104 114h13l97 -105l97 105h13z" />
    <glyph glyph-name="Ccircumflex" unicode="&#x108;" horiz-adv-x="617" 
d="M597 86l7 -7c-38 -39 -116 -92 -227 -92c-202 0 -348 148 -348 359s145 360 346 360c83 0 162 -27 218 -79l-7 -7c-54 50 -131 76 -211 76c-195 0 -336 -145 -336 -350s142 -349 338 -349c106 0 182 50 220 89zM357 847h12l104 -114h-13l-97 105l-97 -105h-13z" />
    <glyph glyph-name="Cdotaccent" unicode="&#x10a;" horiz-adv-x="617" 
d="M597 86l7 -7c-38 -39 -116 -92 -227 -92c-202 0 -348 148 -348 359s145 360 346 360c83 0 162 -27 218 -79l-7 -7c-54 50 -131 76 -211 76c-195 0 -336 -145 -336 -350s142 -349 338 -349c106 0 182 50 220 89zM364 768c-10 0 -18 8 -18 18s8 18 18 18s18 -8 18 -18
s-8 -18 -18 -18z" />
    <glyph glyph-name="Cacute.pl" horiz-adv-x="617" 
d="M353 733h-11l39 112h11zM597 86l7 -7c-38 -39 -116 -92 -227 -92c-202 0 -348 148 -348 359s145 360 346 360c83 0 162 -27 218 -79l-7 -7c-54 50 -131 76 -211 76c-195 0 -336 -145 -336 -350s142 -349 338 -349c106 0 182 50 220 89z" />
    <glyph glyph-name="Dcaron" unicode="&#x10e;" horiz-adv-x="496" 
d="M123 682h-52v-672h51c211 0 335 137 335 336c0 201 -123 336 -334 336zM61 692h62c217 0 344 -139 344 -346c0 -205 -128 -346 -345 -346h-61v692zM231 733h-12l-104 114h13l97 -105l97 105h13z" />
    <glyph glyph-name="Ebreve" unicode="&#x114;" horiz-adv-x="344" 
d="M298 364v-10h-227v-344h235v-10h-245v692h243v-10h-233v-318h227zM69 837h10c1 -28 21 -90 99 -90c77 0 98 61 99 90h10c-1 -33 -24 -100 -109 -100c-86 0 -108 68 -109 100z" />
    <glyph glyph-name="Ecaron" unicode="&#x11a;" horiz-adv-x="344" 
d="M298 364v-10h-227v-344h235v-10h-245v692h243v-10h-233v-318h227zM192 733h-12l-104 114h13l97 -105l97 105h13z" />
    <glyph glyph-name="Edotaccent" unicode="&#x116;" horiz-adv-x="344" 
d="M298 364v-10h-227v-344h235v-10h-245v692h243v-10h-233v-318h227zM186 768c-10 0 -18 8 -18 18s8 18 18 18s18 -8 18 -18s-8 -18 -18 -18z" />
    <glyph glyph-name="Emacron" unicode="&#x112;" horiz-adv-x="344" 
d="M298 364v-10h-227v-344h235v-10h-245v692h243v-10h-233v-318h227zM93 778v10h186v-10h-186z" />
    <glyph glyph-name="Eogonek" unicode="&#x118;" horiz-adv-x="344" 
d="M298 364v-10h-227v-344h235v-10h-56c-53 -8 -84 -43 -84 -89c0 -42 34 -77 84 -78v-10c-56 1 -94 40 -94 88c0 41 22 74 63 89h-158v692h243v-10h-233v-318h227z" />
    <glyph glyph-name="Gbreve" unicode="&#x11e;" horiz-adv-x="699" 
d="M449 330v10h196v-340h-10v100c-62 -71 -152 -113 -259 -113c-201 0 -347 147 -347 359s147 360 348 360c132 0 216 -61 255 -111l-8 -7c-37 48 -119 108 -247 108c-195 0 -338 -144 -338 -350s142 -349 337 -349c108 0 199 44 259 118v215h-186zM258 837h10
c1 -28 21 -90 99 -90c77 0 98 61 99 90h10c-1 -33 -24 -100 -109 -100c-86 0 -108 68 -109 100z" />
    <glyph glyph-name="Gcircumflex" unicode="&#x11c;" horiz-adv-x="699" 
d="M449 330v10h196v-340h-10v100c-62 -71 -152 -113 -259 -113c-201 0 -347 147 -347 359s147 360 348 360c132 0 216 -61 255 -111l-8 -7c-37 48 -119 108 -247 108c-195 0 -338 -144 -338 -350s142 -349 337 -349c108 0 199 44 259 118v215h-186zM361 847h12l104 -114h-13
l-97 105l-97 -105h-13z" />
    <glyph glyph-name="Gcommaaccent" unicode="&#x122;" horiz-adv-x="699" 
d="M449 330v10h196v-340h-10v100c-62 -71 -152 -113 -259 -113c-201 0 -347 147 -347 359s147 360 348 360c132 0 216 -61 255 -111l-8 -7c-37 48 -119 108 -247 108c-195 0 -338 -144 -338 -350s142 -349 337 -349c108 0 199 44 259 118v215h-186zM347 -176h-12l37 95h-3
c-11 0 -19 8 -19 19s8 19 19 19s19 -8 19 -19c0 -5 -1 -9 -3 -15z" />
    <glyph glyph-name="Gdotaccent" unicode="&#x120;" horiz-adv-x="699" 
d="M449 330v10h196v-340h-10v100c-62 -71 -152 -113 -259 -113c-201 0 -347 147 -347 359s147 360 348 360c132 0 216 -61 255 -111l-8 -7c-37 48 -119 108 -247 108c-195 0 -338 -144 -338 -350s142 -349 337 -349c108 0 199 44 259 118v215h-186zM368 768
c-10 0 -18 8 -18 18s8 18 18 18s18 -8 18 -18s-8 -18 -18 -18z" />
    <glyph glyph-name="Hbar" unicode="&#x126;" horiz-adv-x="594" 
d="M76 0h-10v542h-61v10h61v140h10v-140h442v140h10v-140h61v-10h-61v-542h-10v358h-442v-358zM76 368h442v174h-442v-174z" />
    <glyph glyph-name="Hcircumflex" unicode="&#x124;" horiz-adv-x="584" 
d="M71 0h-10v692h10v-324h442v324h10v-692h-10v358h-442v-358zM286 847h12l104 -114h-13l-97 105l-97 -105h-13z" />
    <glyph glyph-name="Idotaccent" unicode="&#x130;" horiz-adv-x="132" 
d="M61 692h10v-692h-10v692zM68 768c-10 0 -18 8 -18 18s8 18 18 18s18 -8 18 -18s-8 -18 -18 -18z" />
    <glyph glyph-name="Ibreve" unicode="&#x12c;" horiz-adv-x="132" 
d="M61 692h10v-692h-10v692zM-42 837h10c1 -28 21 -90 99 -90c77 0 98 61 99 90h10c-1 -33 -24 -100 -109 -100c-86 0 -108 68 -109 100z" />
    <glyph glyph-name="Imacron" unicode="&#x12a;" horiz-adv-x="132" 
d="M61 692h10v-692h-10v692zM-25 778v10h186v-10h-186z" />
    <glyph glyph-name="Iogonek" unicode="&#x12e;" horiz-adv-x="132" 
d="M71 -167v-10c-53 1 -94 27 -94 80c0 40 26 77 84 102v687h10v-692c-58 -24 -84 -59 -84 -97c0 -47 37 -69 84 -70z" />
    <glyph glyph-name="Itilde" unicode="&#x128;" horiz-adv-x="132" 
d="M61 692h10v-692h-10v692zM191 831h10c-1 -43 -25 -72 -62 -72c-31 0 -53 18 -74 32s-40 29 -67 29c-33 0 -51 -27 -52 -62h-10c1 41 23 72 62 72c31 0 52 -17 73 -31s40 -30 68 -30c31 0 51 25 52 62z" />
    <glyph glyph-name="Jcircumflex" unicode="&#x134;" horiz-adv-x="190" 
d="M130 692v-597c0 -60 -10 -95 -81 -95h-31v10h31c64 0 71 29 71 85v597h10zM113 847h12l104 -114h-13l-97 105l-97 -105h-13z" />
    <glyph glyph-name="Kcommaaccent" unicode="&#x136;" horiz-adv-x="469" 
d="M443 692h15l-377 -331l391 -361h-14l-387 357v-357h-10v692h10v-327zM232 -176h-12l37 95h-3c-11 0 -19 8 -19 19s8 19 19 19s19 -8 19 -19c0 -5 -1 -9 -3 -15z" />
    <glyph glyph-name="Lacute" unicode="&#x139;" horiz-adv-x="312" 
d="M291 10v-10h-230v692h10v-682h220zM75 733h-12l64 112h12z" />
    <glyph glyph-name="Lcaron" unicode="&#x13d;" horiz-adv-x="312" 
d="M283 10v-10h-230v692h10v-682h220zM131 692h10l-16 -121h-10z" />
    <glyph glyph-name="Lcommaaccent" unicode="&#x13b;" horiz-adv-x="312" 
d="M291 10v-10h-230v692h10v-682h220zM157 -176h-12l37 95h-3c-11 0 -19 8 -19 19s8 19 19 19s19 -8 19 -19c0 -5 -1 -9 -3 -15z" />
    <glyph glyph-name="Ldot" unicode="&#x13f;" horiz-adv-x="312" 
d="M291 10v-10h-230v692h10v-682h220zM240 335c-11 0 -19 8 -19 19s8 19 19 19s19 -8 19 -19s-8 -19 -19 -19z" />
    <glyph glyph-name="Nacute" unicode="&#x143;" horiz-adv-x="646" 
d="M71 0h-10v692h10l504 -675v675h10v-692h-10l-504 675v-675zM317 733h-12l64 112h12z" />
    <glyph glyph-name="Ncaron" unicode="&#x147;" horiz-adv-x="646" 
d="M71 0h-10v692h10l504 -675v675h10v-692h-10l-504 675v-675zM330 733h-12l-104 114h13l97 -105l97 105h13z" />
    <glyph glyph-name="Ncommaaccent" unicode="&#x145;" horiz-adv-x="646" 
d="M71 0h-10v692h10l504 -675v675h10v-692h-10l-504 675v-675zM303 -176h-12l37 95h-3c-11 0 -19 8 -19 19s8 19 19 19s19 -8 19 -19c0 -5 -1 -9 -3 -15z" />
    <glyph glyph-name="Nacute.pl" horiz-adv-x="646" 
d="M71 0h-10v692h10l504 -675v675h10v-692h-10l-504 675v-675zM331 733h-11l39 112h11z" />
    <glyph glyph-name="Obreve" unicode="&#x14e;" horiz-adv-x="753" 
d="M39 346c0 -206 146 -349 336 -349c191 0 339 148 339 349c0 203 -147 350 -338 350c-189 0 -337 -144 -337 -350zM29 346c0 212 152 360 347 360c197 0 348 -151 348 -360c0 -207 -152 -359 -349 -359c-196 0 -346 147 -346 359zM266 837h10c1 -28 21 -90 99 -90
c77 0 98 61 99 90h10c-1 -33 -24 -100 -109 -100c-86 0 -108 68 -109 100z" />
    <glyph glyph-name="Ohungarumlaut" unicode="&#x150;" horiz-adv-x="753" 
d="M39 346c0 -206 146 -349 336 -349c191 0 339 148 339 349c0 203 -147 350 -338 350c-189 0 -337 -144 -337 -350zM29 346c0 212 152 360 347 360c197 0 348 -151 348 -360c0 -207 -152 -359 -349 -359c-196 0 -346 147 -346 359zM425 733h-11l52 112h11zM341 733h-11
l52 112h11z" />
    <glyph glyph-name="Omacron" unicode="&#x14c;" horiz-adv-x="753" 
d="M39 346c0 -206 146 -349 336 -349c191 0 339 148 339 349c0 203 -147 350 -338 350c-189 0 -337 -144 -337 -350zM29 346c0 212 152 360 347 360c197 0 348 -151 348 -360c0 -207 -152 -359 -349 -359c-196 0 -346 147 -346 359zM283 778v10h186v-10h-186z" />
    <glyph glyph-name="Oslashacute" unicode="&#x1fe;" horiz-adv-x="753" 
d="M27 346c0 212 152 360 347 360c88 0 167 -31 227 -83l69 80l8 -6l-69 -81c70 -64 113 -159 113 -270c0 -207 -152 -359 -349 -359c-90 0 -169 30 -230 84l-69 -81l-8 6l70 81c-68 64 -109 157 -109 269zM712 346c0 108 -42 200 -109 262l-453 -530
c58 -52 136 -81 223 -81c191 0 339 148 339 349zM37 346c0 -108 40 -199 105 -261l453 530c-59 51 -136 81 -221 81c-189 0 -337 -144 -337 -350zM375 733h-12l64 112h12z" />
    <glyph glyph-name="Oacute.pl" horiz-adv-x="753" 
d="M39 346c0 -206 146 -349 336 -349c191 0 339 148 339 349c0 203 -147 350 -338 350c-189 0 -337 -144 -337 -350zM29 346c0 212 152 360 347 360c197 0 348 -151 348 -360c0 -207 -152 -359 -349 -359c-196 0 -346 147 -346 359zM377 733h-11l39 112h11z" />
    <glyph glyph-name="Racute" unicode="&#x154;" horiz-adv-x="421" 
d="M71 0h-10v692h98c121 0 195 -46 195 -169c0 -99 -54 -152 -136 -169l208 -354h-11l-207 352c-16 -3 -33 -4 -49 -4h-88v-348zM71 682v-324h88c107 0 185 48 185 165c0 119 -70 159 -185 159h-88zM185 733h-12l64 112h12z" />
    <glyph glyph-name="Rcaron" unicode="&#x158;" horiz-adv-x="421" 
d="M71 0h-10v692h98c121 0 195 -46 195 -169c0 -99 -54 -152 -136 -169l208 -354h-11l-207 352c-16 -3 -33 -4 -49 -4h-88v-348zM71 682v-324h88c107 0 185 48 185 165c0 119 -70 159 -185 159h-88zM196 733h-12l-104 114h13l97 -105l97 105h13z" />
    <glyph glyph-name="Rcommaaccent" unicode="&#x156;" horiz-adv-x="421" 
d="M71 0h-10v692h98c121 0 195 -46 195 -169c0 -99 -54 -152 -136 -169l208 -354h-11l-207 352c-16 -3 -33 -4 -49 -4h-88v-348zM71 682v-324h88c107 0 185 48 185 165c0 119 -70 159 -185 159h-88zM191 -176h-12l37 95h-3c-11 0 -19 8 -19 19s8 19 19 19s19 -8 19 -19
c0 -5 -1 -9 -3 -15z" />
    <glyph glyph-name="Sacute" unicode="&#x15a;" horiz-adv-x="422" 
d="M32 156h10c0 -83 58 -156 163 -156c104 0 175 67 175 164c0 110 -53 156 -167 197c-111 40 -167 82 -167 178c0 88 57 157 165 157c95 0 154 -56 163 -150h-10c-9 88 -64 140 -153 140c-102 0 -155 -65 -155 -147c0 -90 52 -130 161 -169c123 -44 173 -98 173 -206
c0 -102 -75 -174 -185 -174c-112 0 -173 77 -173 166zM204 733h-12l64 112h12z" />
    <glyph glyph-name="Scedilla" unicode="&#x15e;" horiz-adv-x="422" 
d="M32 156h10c0 -83 58 -156 163 -156c104 0 175 67 175 164c0 110 -53 156 -167 197c-111 40 -167 82 -167 178c0 88 57 157 165 157c95 0 154 -56 163 -150h-10c-9 88 -64 140 -153 140c-102 0 -155 -65 -155 -147c0 -90 52 -130 161 -169c123 -44 173 -98 173 -206
c0 -102 -75 -174 -185 -174c-10 0 -20 1 -29 2v-32c69 -1 98 -35 98 -84c0 -58 -42 -85 -102 -85h-6v10h6c56 0 92 23 92 75c0 44 -26 74 -92 74h-6v44c-87 15 -134 84 -134 162z" />
    <glyph glyph-name="Scircumflex" unicode="&#x15c;" horiz-adv-x="422" 
d="M32 156h10c0 -83 58 -156 163 -156c104 0 175 67 175 164c0 110 -53 156 -167 197c-111 40 -167 82 -167 178c0 88 57 157 165 157c95 0 154 -56 163 -150h-10c-9 88 -64 140 -153 140c-102 0 -155 -65 -155 -147c0 -90 52 -130 161 -169c123 -44 173 -98 173 -206
c0 -102 -75 -174 -185 -174c-112 0 -173 77 -173 166zM204 847h12l104 -114h-13l-97 105l-97 -105h-13z" />
    <glyph glyph-name="Scommaaccent" unicode="&#x218;" horiz-adv-x="422" 
d="M32 156h10c0 -83 58 -156 163 -156c104 0 175 67 175 164c0 110 -53 156 -167 197c-111 40 -167 82 -167 178c0 88 57 157 165 157c95 0 154 -56 163 -150h-10c-9 88 -64 140 -153 140c-102 0 -155 -65 -155 -147c0 -90 52 -130 161 -169c123 -44 173 -98 173 -206
c0 -102 -75 -174 -185 -174c-112 0 -173 77 -173 166zM190 -176h-12l37 95h-3c-11 0 -19 8 -19 19s8 19 19 19s19 -8 19 -19c0 -5 -1 -9 -3 -15z" />
    <glyph glyph-name="Sacute.pl" horiz-adv-x="422" 
d="M32 156h10c0 -83 58 -156 163 -156c104 0 175 67 175 164c0 110 -53 156 -167 197c-111 40 -167 82 -167 178c0 88 57 157 165 157c95 0 154 -56 163 -150h-10c-9 88 -64 140 -153 140c-102 0 -155 -65 -155 -147c0 -90 52 -130 161 -169c123 -44 173 -98 173 -206
c0 -102 -75 -174 -185 -174c-112 0 -173 77 -173 166zM215 733h-11l39 112h11z" />
    <glyph glyph-name="Tcaron" unicode="&#x164;" horiz-adv-x="347" 
d="M17 682v10h313v-10h-153v-682h-10v682h-150zM179 733h-12l-104 114h13l97 -105l97 105h13z" />
    <glyph glyph-name="Tcommaaccent" unicode="&#x162;" horiz-adv-x="347" 
d="M17 682v10h313v-10h-153v-682h-10v682h-150zM151 -176h-12l37 95h-3c-11 0 -19 8 -19 19s8 19 19 19s19 -8 19 -19c0 -5 -1 -9 -3 -15z" />
    <glyph glyph-name="uni021A" unicode="&#x21a;" horiz-adv-x="347" 
d="M17 682v10h313v-10h-153v-682h-10v682h-150zM151 -176h-12l37 95h-3c-11 0 -19 8 -19 19s8 19 19 19s19 -8 19 -19c0 -5 -1 -9 -3 -15z" />
    <glyph glyph-name="Tbar" unicode="&#x166;" horiz-adv-x="347" 
d="M17 682v10h313v-10h-153v-278h110v-10h-110v-394h-10v394h-110v10h110v278h-150z" />
    <glyph glyph-name="Ubreve" unicode="&#x16c;" horiz-adv-x="574" 
d="M56 692h10v-458c0 -141 71 -237 221 -237c139 0 221 99 221 237v458h10v-458c0 -144 -86 -247 -231 -247c-156 0 -231 100 -231 247v458zM178 837h10c1 -28 21 -90 99 -90c77 0 98 61 99 90h10c-1 -33 -24 -100 -109 -100c-86 0 -108 68 -109 100z" />
    <glyph glyph-name="Uhungarumlaut" unicode="&#x170;" horiz-adv-x="574" 
d="M56 692h10v-458c0 -141 71 -237 221 -237c139 0 221 99 221 237v458h10v-458c0 -144 -86 -247 -231 -247c-156 0 -231 100 -231 247v458zM325 733h-11l52 112h11zM241 733h-11l52 112h11z" />
    <glyph glyph-name="Umacron" unicode="&#x16a;" horiz-adv-x="574" 
d="M56 692h10v-458c0 -141 71 -237 221 -237c139 0 221 99 221 237v458h10v-458c0 -144 -86 -247 -231 -247c-156 0 -231 100 -231 247v458zM194 778v10h186v-10h-186z" />
    <glyph glyph-name="Uogonek" unicode="&#x172;" horiz-adv-x="574" 
d="M56 692h10v-458c0 -141 71 -237 221 -237c139 0 221 99 221 237v458h10v-458c0 -120 -57 -205 -158 -238c-52 -17 -85 -51 -85 -93c0 -47 37 -69 84 -70v-10c-53 1 -94 27 -94 80c0 39 26 69 59 87c-12 -2 -24 -3 -37 -3c-156 0 -231 100 -231 247v458z" />
    <glyph glyph-name="Uring" unicode="&#x16e;" horiz-adv-x="574" 
d="M56 692h10v-458c0 -141 71 -237 221 -237c139 0 221 99 221 237v458h10v-458c0 -144 -86 -247 -231 -247c-156 0 -231 100 -231 247v458zM223 796c0 -36 26 -64 65 -64c42 0 67 28 67 66c0 37 -24 64 -68 64c-38 0 -64 -27 -64 -66zM213 796c0 45 30 76 74 76
c50 0 78 -31 78 -74c0 -44 -29 -76 -77 -76c-45 0 -75 32 -75 74z" />
    <glyph glyph-name="Utilde" unicode="&#x168;" horiz-adv-x="574" 
d="M56 692h10v-458c0 -141 71 -237 221 -237c139 0 221 99 221 237v458h10v-458c0 -144 -86 -247 -231 -247c-156 0 -231 100 -231 247v458zM411 831h10c-1 -43 -25 -72 -62 -72c-31 0 -53 18 -74 32s-40 29 -67 29c-33 0 -51 -27 -52 -62h-10c1 41 23 72 62 72
c31 0 52 -17 73 -31s40 -30 68 -30c31 0 51 25 52 62z" />
    <glyph glyph-name="Wacute" unicode="&#x1e82;" horiz-adv-x="956" 
d="M940 692h11l-239 -692h-10l-222 673l-222 -673h-10l-243 692h11l237 -673l222 673h10l222 -673zM483 733h-12l64 112h12z" />
    <glyph glyph-name="Wcircumflex" unicode="&#x174;" horiz-adv-x="956" 
d="M940 692h11l-239 -692h-10l-222 673l-222 -673h-10l-243 692h11l237 -673l222 673h10l222 -673zM474 847h12l104 -114h-13l-97 105l-97 -105h-13z" />
    <glyph glyph-name="Wdieresis" unicode="&#x1e84;" horiz-adv-x="956" 
d="M940 692h11l-239 -692h-10l-222 673l-222 -673h-10l-243 692h11l237 -673l222 673h10l222 -673zM412 778c-10 0 -17 7 -17 17s7 17 17 17s17 -7 17 -17s-7 -17 -17 -17zM549 778c-10 0 -17 7 -17 17s7 17 17 17s17 -7 17 -17s-7 -17 -17 -17z" />
    <glyph glyph-name="Wgrave" unicode="&#x1e80;" horiz-adv-x="956" 
d="M940 692h11l-239 -692h-10l-222 673l-222 -673h-10l-243 692h11l237 -673l222 673h10l222 -673zM494 733h-12l-64 112h12z" />
    <glyph glyph-name="Ycircumflex" unicode="&#x176;" horiz-adv-x="431" 
d="M419 692h12l-209 -315v-377h-10v377l-212 315h12l205 -305zM211 847h12l104 -114h-13l-97 105l-97 -105h-13z" />
    <glyph glyph-name="Ygrave" unicode="&#x1ef2;" horiz-adv-x="431" 
d="M419 692h12l-209 -315v-377h-10v377l-212 315h12l205 -305zM233 733h-12l-64 112h12z" />
    <glyph glyph-name="Zacute" unicode="&#x179;" horiz-adv-x="574" 
d="M38 682v10h506v-10l-501 -672h501v-10h-514v10l501 672h-493zM279 733h-12l64 112h12z" />
    <glyph glyph-name="Zdotaccent" unicode="&#x17b;" horiz-adv-x="574" 
d="M38 682v10h506v-10l-501 -672h501v-10h-514v10l501 672h-493zM286 768c-10 0 -18 8 -18 18s8 18 18 18s18 -8 18 -18s-8 -18 -18 -18z" />
    <glyph glyph-name="Zacute.pl" horiz-adv-x="574" 
d="M38 682v10h506v-10l-501 -672h501v-10h-514v10l501 672h-493zM290 733h-11l39 112h11z" />
    <glyph glyph-name="abreve" unicode="&#x103;" horiz-adv-x="422" 
d="M31 158c0 97 70 168 169 168c73 0 137 -43 156 -112v147c0 113 -59 171 -148 171c-100 0 -146 -65 -146 -146h-10c0 87 52 156 156 156c98 0 158 -62 158 -181v-361h-10v101c-21 -68 -81 -111 -156 -111c-98 0 -169 71 -169 168zM41 158c0 -91 67 -158 159 -158
c89 0 156 65 156 158s-67 158 -156 158c-93 0 -159 -67 -159 -158zM98 700h10c1 -32 21 -94 99 -94c77 0 98 61 99 94h10c-1 -37 -24 -104 -109 -104c-86 0 -108 68 -109 104z" />
    <glyph glyph-name="amacron" unicode="&#x101;" horiz-adv-x="422" 
d="M31 158c0 97 70 168 169 168c73 0 137 -43 156 -112v147c0 113 -59 171 -148 171c-100 0 -146 -65 -146 -146h-10c0 87 52 156 156 156c98 0 158 -62 158 -181v-361h-10v101c-21 -68 -81 -111 -156 -111c-98 0 -169 71 -169 168zM41 158c0 -91 67 -158 159 -158
c89 0 156 65 156 158s-67 158 -156 158c-93 0 -159 -67 -159 -158zM116 630v10h186v-10h-186z" />
    <glyph glyph-name="aogonek" unicode="&#x105;" horiz-adv-x="422" 
d="M366 -167v-10c-53 1 -94 27 -94 80c0 40 26 77 84 102v96c-21 -68 -81 -111 -156 -111c-98 0 -169 71 -169 168s70 168 169 168c73 0 137 -43 156 -112v147c0 113 -59 171 -148 171c-100 0 -146 -65 -146 -146h-10c0 87 52 156 156 156c98 0 158 -62 158 -181v-361
c-58 -24 -84 -59 -84 -97c0 -47 37 -69 84 -70zM41 158c0 -91 67 -158 159 -158c89 0 156 65 156 158s-67 158 -156 158c-93 0 -159 -67 -159 -158z" />
    <glyph glyph-name="aringacute" unicode="&#x1fb;" horiz-adv-x="422" 
d="M31 158c0 97 70 168 169 168c73 0 137 -43 156 -112v147c0 113 -59 171 -148 171c-100 0 -146 -65 -146 -146h-10c0 87 52 156 156 156c98 0 158 -62 158 -181v-361h-10v101c-21 -68 -81 -111 -156 -111c-98 0 -169 71 -169 168zM41 158c0 -91 67 -158 159 -158
c89 0 156 65 156 158s-67 158 -156 158c-93 0 -159 -67 -159 -158zM143 659c0 -36 26 -64 65 -64c42 0 67 28 67 66c0 37 -24 64 -68 64c-38 0 -64 -27 -64 -66zM133 659c0 45 30 76 74 76c50 0 78 -31 78 -74c0 -44 -29 -76 -77 -76c-45 0 -75 32 -75 74zM211 775h-12
l64 112h12z" />
    <glyph glyph-name="aeacute" unicode="&#x1fd;" horiz-adv-x="885" 
d="M614 534c-136 0 -243 -103 -248 -254h496v4c0 156 -106 250 -248 250zM53 158c0 -91 67 -158 159 -158c89 0 153 63 156 154c0 98 -67 162 -156 162c-93 0 -159 -67 -159 -158zM622 1c113 0 198 69 233 159l9 -4c-36 -94 -124 -165 -242 -165c-115 0 -205 60 -245 158
c-5 -94 -72 -159 -165 -159c-98 0 -169 71 -169 168s70 168 169 168c64 0 117 -31 145 -83c-1 8 -1 16 -1 24v94c0 113 -49 171 -140 171c-97 0 -137 -66 -138 -146h-10c1 86 43 156 148 156c97 0 150 -62 150 -181v-13c30 119 127 196 248 196c148 0 258 -98 258 -260v-14
h-506v-3c0 -161 107 -266 256 -266zM402 585h-11l66 121h11z" />
    <glyph glyph-name="cacute" unicode="&#x107;" horiz-adv-x="529" 
d="M499 96l8 -6c-32 -43 -101 -99 -209 -99c-161 0 -272 118 -272 276s116 277 272 277c112 0 178 -54 207 -96l-8 -6c-28 40 -91 92 -199 92c-150 0 -262 -115 -262 -267s107 -266 262 -266c104 0 171 54 201 95zM293 585h-11l66 121h11z" />
    <glyph glyph-name="ccaron" unicode="&#x10d;" horiz-adv-x="529" 
d="M499 96l8 -6c-32 -43 -101 -99 -209 -99c-161 0 -272 118 -272 276s116 277 272 277c112 0 178 -54 207 -96l-8 -6c-28 40 -91 92 -199 92c-150 0 -262 -115 -262 -267s107 -266 262 -266c104 0 171 54 201 95zM301 584h-12l-103 130h13l96 -121l96 121h13z" />
    <glyph glyph-name="ccircumflex" unicode="&#x109;" horiz-adv-x="529" 
d="M499 96l8 -6c-32 -43 -101 -99 -209 -99c-161 0 -272 118 -272 276s116 277 272 277c112 0 178 -54 207 -96l-8 -6c-28 40 -91 92 -199 92c-150 0 -262 -115 -262 -267s107 -266 262 -266c104 0 171 54 201 95zM289 709h12l103 -130h-13l-96 121l-96 -121h-13z" />
    <glyph glyph-name="cdotaccent" unicode="&#x10b;" horiz-adv-x="529" 
d="M499 96l8 -6c-32 -43 -101 -99 -209 -99c-161 0 -272 118 -272 276s116 277 272 277c112 0 178 -54 207 -96l-8 -6c-28 40 -91 92 -199 92c-150 0 -262 -115 -262 -267s107 -266 262 -266c104 0 171 54 201 95zM295 631c-10 0 -18 8 -18 18s8 18 18 18s18 -8 18 -18
s-8 -18 -18 -18z" />
    <glyph glyph-name="cacute.pl" horiz-adv-x="527" 
d="M499 96l8 -6c-32 -43 -101 -99 -209 -99c-161 0 -272 118 -272 276s116 277 272 277c112 0 178 -54 207 -96l-8 -6c-28 40 -91 92 -199 92c-150 0 -262 -115 -262 -267s107 -266 262 -266c104 0 171 54 201 95zM292 585h-11l40 121h11z" />
    <glyph glyph-name="dcaron" unicode="&#x10f;" horiz-adv-x="621" 
d="M28 267c0 166 120 277 268 277c123 0 228 -80 257 -201v388h10v-731h-10v193c-31 -124 -136 -202 -259 -202c-149 0 -266 109 -266 276zM38 267c0 -161 113 -266 256 -266s259 111 259 266c0 162 -118 267 -257 267c-142 0 -258 -107 -258 -267zM631 731h10l-16 -121h-10
z" />
    <glyph glyph-name="ebreve" unicode="&#x115;" horiz-adv-x="567" 
d="M544 270h-506v-3c0 -161 107 -266 256 -266c113 0 198 69 233 159l9 -4c-36 -94 -124 -165 -242 -165c-155 0 -266 109 -266 276c0 164 112 277 258 277c148 0 258 -98 258 -260v-14zM286 534c-136 0 -243 -103 -248 -254h496v4c0 156 -106 250 -248 250zM171 700h10
c1 -32 21 -94 99 -94c77 0 98 61 99 94h10c-1 -37 -24 -104 -109 -104c-86 0 -108 68 -109 104z" />
    <glyph glyph-name="ecaron" unicode="&#x11b;" horiz-adv-x="567" 
d="M544 270h-506v-3c0 -161 107 -266 256 -266c113 0 198 69 233 159l9 -4c-36 -94 -124 -165 -242 -165c-155 0 -266 109 -266 276c0 164 112 277 258 277c148 0 258 -98 258 -260v-14zM286 534c-136 0 -243 -103 -248 -254h496v4c0 156 -106 250 -248 250zM295 584h-12
l-103 130h13l96 -121l96 121h13z" />
    <glyph glyph-name="edotaccent" unicode="&#x117;" horiz-adv-x="567" 
d="M544 270h-506v-3c0 -161 107 -266 256 -266c113 0 198 69 233 159l9 -4c-36 -94 -124 -165 -242 -165c-155 0 -266 109 -266 276c0 164 112 277 258 277c148 0 258 -98 258 -260v-14zM286 534c-136 0 -243 -103 -248 -254h496v4c0 156 -106 250 -248 250zM289 631
c-10 0 -18 8 -18 18s8 18 18 18s18 -8 18 -18s-8 -18 -18 -18z" />
    <glyph glyph-name="emacron" unicode="&#x113;" horiz-adv-x="567" 
d="M544 270h-506v-3c0 -161 107 -266 256 -266c113 0 198 69 233 159l9 -4c-36 -94 -124 -165 -242 -165c-155 0 -266 109 -266 276c0 164 112 277 258 277c148 0 258 -98 258 -260v-14zM286 534c-136 0 -243 -103 -248 -254h496v4c0 156 -106 250 -248 250zM196 630v10h186
v-10h-186z" />
    <glyph glyph-name="eogonek" unicode="&#x119;" horiz-adv-x="567" 
d="M544 270h-506v-3c0 -161 107 -266 256 -266c113 0 198 69 233 159l9 -4c-21 -54 -60 -100 -109 -130c-54 -33 -79 -71 -79 -117c0 -48 42 -80 109 -76v-10c-73 -3 -119 31 -119 86c0 38 17 72 47 97c-28 -9 -58 -15 -91 -15c-155 0 -266 109 -266 276
c0 164 112 277 258 277c148 0 258 -98 258 -260v-14zM286 534c-136 0 -243 -103 -248 -254h496v4c0 156 -106 250 -248 250z" />
    <glyph glyph-name="gbreve" unicode="&#x11f;" horiz-adv-x="621" 
d="M563 535v-443c0 -202 -126 -274 -274 -274c-100 0 -177 35 -218 66l6 8c41 -31 116 -64 212 -64c142 0 264 70 264 264v101c-31 -124 -136 -202 -259 -202c-149 0 -266 109 -266 276c0 166 120 277 268 277c123 0 228 -80 257 -201v192h10zM38 267
c0 -161 113 -266 256 -266s259 111 259 266c0 162 -118 267 -257 267c-142 0 -258 -107 -258 -267zM186 700h10c1 -32 21 -94 99 -94c77 0 98 61 99 94h10c-1 -37 -24 -104 -109 -104c-86 0 -108 68 -109 104z" />
    <glyph glyph-name="gcircumflex" unicode="&#x11d;" horiz-adv-x="621" 
d="M563 535v-443c0 -202 -126 -274 -274 -274c-100 0 -177 35 -218 66l6 8c41 -31 116 -64 212 -64c142 0 264 70 264 264v101c-31 -124 -136 -202 -259 -202c-149 0 -266 109 -266 276c0 166 120 277 268 277c123 0 228 -80 257 -201v192h10zM38 267
c0 -161 113 -266 256 -266s259 111 259 266c0 162 -118 267 -257 267c-142 0 -258 -107 -258 -267zM291 709h12l103 -130h-13l-96 121l-96 -121h-13z" />
    <glyph glyph-name="gcommaaccent" unicode="&#x123;" horiz-adv-x="621" 
d="M563 535v-443c0 -202 -126 -274 -274 -274c-100 0 -177 35 -218 66l6 8c41 -31 116 -64 212 -64c142 0 264 70 264 264v101c-31 -124 -136 -202 -259 -202c-149 0 -266 109 -266 276c0 166 120 277 268 277c123 0 228 -80 257 -201v192h10zM38 267
c0 -161 113 -266 256 -266s259 111 259 266c0 162 -118 267 -257 267c-142 0 -258 -107 -258 -267zM303 743h12l-37 -95h3c11 0 19 -8 19 -19s-8 -19 -19 -19s-19 8 -19 19c0 5 1 9 3 15z" />
    <glyph glyph-name="gdotaccent" unicode="&#x121;" horiz-adv-x="621" 
d="M563 535v-443c0 -202 -126 -274 -274 -274c-100 0 -177 35 -218 66l6 8c41 -31 116 -64 212 -64c142 0 264 70 264 264v101c-31 -124 -136 -202 -259 -202c-149 0 -266 109 -266 276c0 166 120 277 268 277c123 0 228 -80 257 -201v192h10zM38 267
c0 -161 113 -266 256 -266s259 111 259 266c0 162 -118 267 -257 267c-142 0 -258 -107 -258 -267zM287 631c-10 0 -18 8 -18 18s8 18 18 18s18 -8 18 -18s-8 -18 -18 -18z" />
    <glyph glyph-name="hbar" unicode="&#x127;" horiz-adv-x="436" 
d="M5 623v10h59v98h10v-98h142v-10h-142v-203c17 80 79 121 152 121c107 0 154 -77 154 -180v-361h-10v360c0 100 -46 171 -144 171c-99 0 -152 -73 -152 -182v-349h-10v623h-59z" />
    <glyph glyph-name="hcircumflex" unicode="&#x125;" horiz-adv-x="430" 
d="M364 0v360c0 100 -46 171 -144 171c-99 0 -152 -73 -152 -182v-349h-10v731h10v-311c17 80 79 121 152 121c107 0 154 -77 154 -180v-361h-10zM200 881h12l104 -114h-13l-97 105l-97 -105h-13z" />
    <glyph glyph-name="ibreve" unicode="&#x12d;" horiz-adv-x="126" 
d="M58 535h10v-535h-10v535zM-43 700h10c1 -32 20 -94 94 -94c72 0 93 61 94 94h10c-1 -37 -24 -104 -104 -104c-82 0 -103 68 -104 104z" />
    <glyph glyph-name="imacron" unicode="&#x12b;" horiz-adv-x="126" 
d="M-11 630v10h148v-10h-148zM58 535h10v-535h-10v535z" />
    <glyph glyph-name="iogonek" unicode="&#x12f;" horiz-adv-x="126" 
d="M68 -167v-10c-53 1 -94 27 -94 80c0 40 26 77 84 102v530h10v-535c-58 -24 -84 -59 -84 -97c0 -47 37 -69 84 -70zM63 631c-10 0 -18 8 -18 18s8 18 18 18s18 -8 18 -18s-8 -18 -18 -18z" />
    <glyph glyph-name="itilde" unicode="&#x129;" horiz-adv-x="126" 
d="M58 535h10v-535h-10v535zM183 677h10c-1 -43 -23 -72 -60 -72c-31 0 -52 18 -73 32s-39 29 -66 29c-33 0 -49 -27 -50 -62h-10c1 41 21 72 60 72c31 0 51 -17 72 -31s39 -30 67 -30c31 0 49 25 50 62z" />
    <glyph glyph-name="idotaccent" horiz-adv-x="126" 
d="M58 535h10v-535h-10v535zM63 631c-10 0 -18 8 -18 18s8 18 18 18s18 -8 18 -18s-8 -18 -18 -18z" />
    <glyph glyph-name="jcircumflex" unicode="&#x135;" horiz-adv-x="126" 
d="M58 535h10v-605c0 -60 -13 -105 -86 -105h-24v10h24c65 0 76 41 76 95v605zM57 709h12l82 -130h-12l-76 120l-76 -120h-12z" />
    <glyph glyph-name="kcommaaccent" unicode="&#x137;" horiz-adv-x="410" 
d="M386 535h16l-323 -254l332 -281h-16l-327 277v-277h-10v731h10v-446zM198 -176h-12l37 95h-3c-11 0 -19 8 -19 19s8 19 19 19s19 -8 19 -19c0 -5 -1 -9 -3 -15z" />
    <glyph glyph-name="lacute" unicode="&#x13a;" horiz-adv-x="126" 
d="M73 768h-12l64 112h12zM58 731h10v-731h-10v731z" />
    <glyph glyph-name="lcaron" unicode="&#x13e;" horiz-adv-x="126" 
d="M58 731h10v-731h-10v731zM136 731h10l-16 -121h-10z" />
    <glyph glyph-name="lcommaaccent" unicode="&#x13c;" horiz-adv-x="131" 
d="M63 731h10v-731h-10v731zM47 -176h-12l37 95h-3c-11 0 -19 8 -19 19s8 19 19 19s19 -8 19 -19c0 -5 -1 -9 -3 -15z" />
    <glyph glyph-name="ldot" unicode="&#x140;" horiz-adv-x="160" 
d="M58 731h10v-731h-10v731zM143 335c-11 0 -19 8 -19 19s8 19 19 19s19 -8 19 -19s-8 -19 -19 -19z" />
    <glyph glyph-name="nacute" unicode="&#x144;" horiz-adv-x="430" 
d="M364 0v360c0 100 -46 171 -144 171c-99 0 -152 -73 -152 -182v-349h-10v535h10v-115c17 80 79 121 152 121c107 0 154 -77 154 -180v-361h-10zM214 585h-11l66 121h11z" />
    <glyph glyph-name="napostrophe" unicode="&#x149;" horiz-adv-x="432" 
d="M366 0v360c0 100 -46 171 -144 171c-99 0 -152 -73 -152 -182v-349h-10v535h10v-115c17 80 79 121 152 121c107 0 154 -77 154 -180v-361h-10zM0 560h-11l34 99h-4c-11 0 -19 8 -19 19s8 19 19 19s19 -8 19 -19c0 -5 -1 -10 -3 -16z" />
    <glyph glyph-name="ncaron" unicode="&#x148;" horiz-adv-x="430" 
d="M364 0v360c0 100 -46 171 -144 171c-99 0 -152 -73 -152 -182v-349h-10v535h10v-115c17 80 79 121 152 121c107 0 154 -77 154 -180v-361h-10zM222 584h-12l-103 130h13l96 -121l96 121h13z" />
    <glyph glyph-name="ncommaaccent" unicode="&#x146;" horiz-adv-x="430" 
d="M364 0v360c0 100 -46 171 -144 171c-99 0 -152 -73 -152 -182v-349h-10v535h10v-115c17 80 79 121 152 121c107 0 154 -77 154 -180v-361h-10zM195 -176h-12l37 95h-3c-11 0 -19 8 -19 19s8 19 19 19s19 -8 19 -19c0 -5 -1 -9 -3 -15z" />
    <glyph glyph-name="nacute.pl" horiz-adv-x="430" 
d="M364 0v360c0 100 -46 171 -144 171c-99 0 -152 -73 -152 -182v-349h-10v535h10v-115c17 80 79 121 152 121c107 0 154 -77 154 -180v-361h-10zM212 585h-11l40 121h11z" />
    <glyph glyph-name="obreve" unicode="&#x14f;" 
d="M38 267c0 -161 113 -266 260 -266c146 0 263 110 263 266c0 157 -114 267 -261 267c-146 0 -262 -107 -262 -267zM28 267c0 166 120 277 272 277c153 0 271 -114 271 -277c0 -162 -121 -276 -273 -276c-153 0 -270 109 -270 276zM190 700h10c1 -32 21 -94 99 -94
c77 0 98 61 99 94h10c-1 -37 -24 -104 -109 -104c-86 0 -108 68 -109 104z" />
    <glyph glyph-name="ohungarumlaut" unicode="&#x151;" 
d="M38 267c0 -161 113 -266 260 -266c146 0 263 110 263 266c0 157 -114 267 -261 267c-146 0 -262 -107 -262 -267zM28 267c0 166 120 277 272 277c153 0 271 -114 271 -277c0 -162 -121 -276 -273 -276c-153 0 -270 109 -270 276zM347 585h-11l53 121h11zM263 585h-11
l53 121h11z" />
    <glyph glyph-name="omacron" unicode="&#x14d;" 
d="M38 267c0 -161 113 -266 260 -266c146 0 263 110 263 266c0 157 -114 267 -261 267c-146 0 -262 -107 -262 -267zM28 267c0 166 120 277 272 277c153 0 271 -114 271 -277c0 -162 -121 -276 -273 -276c-153 0 -270 109 -270 276zM208 630v10h186v-10h-186z" />
    <glyph glyph-name="oslashacute" unicode="&#x1ff;" 
d="M286 585h-11l66 121h11zM28 267c0 166 120 277 272 277c69 0 130 -24 177 -64l55 64l8 -6l-55 -64c53 -49 86 -121 86 -207c0 -162 -121 -276 -273 -276c-68 0 -129 21 -175 59l-52 -60l-8 6l52 61c-54 48 -87 121 -87 210zM38 267c0 -86 32 -156 84 -202l349 408
c-46 39 -105 61 -171 61c-146 0 -262 -107 -262 -267zM561 267c0 82 -32 152 -83 199l-348 -408c45 -37 103 -57 168 -57c146 0 263 110 263 266z" />
    <glyph glyph-name="oacute.pl" 
d="M38 267c0 -161 113 -266 260 -266c146 0 263 110 263 266c0 157 -114 267 -261 267c-146 0 -262 -107 -262 -267zM28 267c0 166 120 277 272 277c153 0 271 -114 271 -277c0 -162 -121 -276 -273 -276c-153 0 -270 109 -270 276zM294 585h-11l40 121h11z" />
    <glyph glyph-name="racute" unicode="&#x155;" horiz-adv-x="207" 
d="M58 535h10v-72c16 46 53 72 110 72h9v-10h-9c-74 0 -110 -47 -110 -127v-398h-10v535zM121 585h-11l66 121h11z" />
    <glyph glyph-name="rcaron" unicode="&#x159;" horiz-adv-x="207" 
d="M65 535h10v-72c16 46 53 72 110 72h9v-10h-9c-74 0 -110 -47 -110 -127v-398h-10v535zM134 584h-12l-98 130h13l91 -121l91 121h13z" />
    <glyph glyph-name="rcommaaccent" unicode="&#x157;" horiz-adv-x="210" 
d="M61 535h10v-72c16 46 53 72 110 72h9v-10h-9c-74 0 -110 -47 -110 -127v-398h-10v535zM46 -176h-12l37 95h-3c-11 0 -19 8 -19 19s8 19 19 19s19 -8 19 -19c0 -5 -1 -9 -3 -15z" />
    <glyph glyph-name="sacute" unicode="&#x15b;" horiz-adv-x="335" 
d="M301 412h-10c-1 80 -48 119 -122 119c-78 0 -123 -51 -123 -110c0 -78 55 -113 130 -138c92 -30 138 -72 138 -152c0 -90 -66 -137 -149 -137c-107 0 -145 72 -145 148h10c0 -71 35 -138 135 -138c77 0 139 43 139 126c0 69 -32 110 -132 144c-89 30 -136 69 -136 147
c0 65 49 120 133 120c81 0 132 -45 132 -129zM169 585h-11l66 121h11z" />
    <glyph glyph-name="scedilla" unicode="&#x15f;" horiz-adv-x="335" 
d="M301 412h-10c-1 80 -48 119 -122 119c-78 0 -123 -51 -123 -110c0 -78 55 -113 130 -138c92 -30 138 -72 138 -152c0 -90 -66 -137 -149 -137c-10 0 -19 1 -28 2v-36c69 -1 98 -35 98 -84c0 -58 -42 -85 -102 -85h-6v10h6c56 0 92 23 92 75c0 44 -26 74 -92 74h-6v47
c-78 15 -107 79 -107 145h10c0 -71 35 -138 135 -138c77 0 139 43 139 126c0 69 -32 110 -132 144c-89 30 -136 69 -136 147c0 65 49 120 133 120c81 0 132 -45 132 -129z" />
    <glyph glyph-name="scircumflex" unicode="&#x15d;" horiz-adv-x="335" 
d="M301 412h-10c-1 80 -48 119 -122 119c-78 0 -123 -51 -123 -110c0 -78 55 -113 130 -138c92 -30 138 -72 138 -152c0 -90 -66 -137 -149 -137c-107 0 -145 72 -145 148h10c0 -71 35 -138 135 -138c77 0 139 43 139 126c0 69 -32 110 -132 144c-89 30 -136 69 -136 147
c0 65 49 120 133 120c81 0 132 -45 132 -129zM166 709h12l103 -130h-13l-96 121l-96 -121h-13z" />
    <glyph glyph-name="scommaaccent" unicode="&#x219;" horiz-adv-x="335" 
d="M301 412h-10c-1 80 -48 119 -122 119c-78 0 -123 -51 -123 -110c0 -78 55 -113 130 -138c92 -30 138 -72 138 -152c0 -90 -66 -137 -149 -137c-107 0 -145 72 -145 148h10c0 -71 35 -138 135 -138c77 0 139 43 139 126c0 69 -32 110 -132 144c-89 30 -136 69 -136 147
c0 65 49 120 133 120c81 0 132 -45 132 -129zM153 -176h-12l37 95h-3c-11 0 -19 8 -19 19s8 19 19 19s19 -8 19 -19c0 -5 -1 -9 -3 -15z" />
    <glyph glyph-name="sacute.pl" horiz-adv-x="335" 
d="M301 412h-10c-1 80 -48 119 -122 119c-78 0 -123 -51 -123 -110c0 -78 55 -113 130 -138c92 -30 138 -72 138 -152c0 -90 -66 -137 -149 -137c-107 0 -145 72 -145 148h10c0 -71 35 -138 135 -138c77 0 139 43 139 126c0 69 -32 110 -132 144c-89 30 -136 69 -136 147
c0 65 49 120 133 120c81 0 132 -45 132 -129zM168 585h-11l40 121h11z" />
    <glyph glyph-name="tbar" unicode="&#x167;" horiz-adv-x="198" 
d="M182 535v-10h-109v-198h109v-10h-109v-223c0 -51 10 -84 67 -84h41v-10h-41c-64 0 -77 37 -77 94v223h-53v10h53v198h-53v10h53v81h10v-81h109z" />
    <glyph glyph-name="tcaron" unicode="&#x165;" horiz-adv-x="198" 
d="M182 535v-10h-109v-431c0 -51 10 -84 67 -84h41v-10h-41c-64 0 -77 37 -77 94v431h-53v10h53v81h10v-81h109zM139 731h10l-16 -121h-10z" />
    <glyph glyph-name="tcommaaccent" unicode="&#x163;" horiz-adv-x="198" 
d="M182 535v-10h-109v-431c0 -51 10 -84 67 -84h41v-10h-41c-64 0 -77 37 -77 94v431h-53v10h53v81h10v-81h109zM106 -176h-12l37 95h-3c-11 0 -19 8 -19 19s8 19 19 19s19 -8 19 -19c0 -5 -1 -9 -3 -15z" />
    <glyph glyph-name="uni021B" unicode="&#x21b;" horiz-adv-x="198" 
d="M182 535v-10h-109v-431c0 -51 10 -84 67 -84h41v-10h-41c-64 0 -77 37 -77 94v431h-53v10h53v81h10v-81h109zM106 -176h-12l37 95h-3c-11 0 -19 8 -19 19s8 19 19 19s19 -8 19 -19c0 -5 -1 -9 -3 -15z" />
    <glyph glyph-name="ubreve" unicode="&#x16d;" horiz-adv-x="427" 
d="M65 535v-360c0 -100 44 -171 145 -171c97 0 148 73 149 182v349h10v-535h-10v116c-17 -78 -76 -122 -149 -122c-108 0 -155 77 -155 181v360h10zM101 700h10c1 -32 21 -94 99 -94c77 0 98 61 99 94h10c-1 -37 -24 -104 -109 -104c-86 0 -108 68 -109 104z" />
    <glyph glyph-name="uhungarumlaut" unicode="&#x171;" horiz-adv-x="427" 
d="M65 535v-360c0 -100 44 -171 145 -171c97 0 148 73 149 182v349h10v-535h-10v116c-17 -78 -76 -122 -149 -122c-108 0 -155 77 -155 181v360h10zM258 585h-11l53 121h11zM174 585h-11l53 121h11z" />
    <glyph glyph-name="umacron" unicode="&#x16b;" horiz-adv-x="427" 
d="M65 535v-360c0 -100 44 -171 145 -171c97 0 148 73 149 182v349h10v-535h-10v116c-17 -78 -76 -122 -149 -122c-108 0 -155 77 -155 181v360h10zM122 630v10h186v-10h-186z" />
    <glyph glyph-name="uogonek" unicode="&#x173;" horiz-adv-x="427" 
d="M369 -167v-10c-53 1 -94 27 -94 80c0 40 26 77 84 102v111c-17 -78 -76 -122 -149 -122c-108 0 -155 77 -155 181v360h10v-360c0 -100 44 -171 145 -171c97 0 148 73 149 182v349h10v-535c-58 -24 -84 -59 -84 -97c0 -47 37 -69 84 -70z" />
    <glyph glyph-name="uring" unicode="&#x16f;" horiz-adv-x="427" 
d="M65 535v-360c0 -100 44 -171 145 -171c97 0 148 73 149 182v349h10v-535h-10v116c-17 -78 -76 -122 -149 -122c-108 0 -155 77 -155 181v360h10zM146 659c0 -36 26 -64 65 -64c42 0 67 28 67 66c0 37 -24 64 -68 64c-38 0 -64 -27 -64 -66zM136 659c0 45 30 76 74 76
c50 0 78 -31 78 -74c0 -44 -29 -76 -77 -76c-45 0 -75 32 -75 74z" />
    <glyph glyph-name="utilde" unicode="&#x169;" horiz-adv-x="427" 
d="M65 535v-360c0 -100 44 -171 145 -171c97 0 148 73 149 182v349h10v-535h-10v116c-17 -78 -76 -122 -149 -122c-108 0 -155 77 -155 181v360h10zM332 677h10c-1 -43 -23 -72 -60 -72c-31 0 -52 18 -73 32s-39 29 -66 29c-33 0 -49 -27 -50 -62h-10c1 41 21 72 60 72
c31 0 51 -17 72 -31s39 -30 67 -30c31 0 49 25 50 62z" />
    <glyph glyph-name="wacute" unicode="&#x1e83;" horiz-adv-x="834" 
d="M822 535h12l-202 -535h-14l-201 520l-200 -520h-14l-203 535h12l198 -522l201 522h12l202 -522zM426 585h-11l66 121h11z" />
    <glyph glyph-name="wcircumflex" unicode="&#x175;" horiz-adv-x="834" 
d="M822 535h12l-202 -535h-14l-201 520l-200 -520h-14l-203 535h12l198 -522l201 522h12l202 -522zM411 709h12l103 -130h-13l-96 121l-96 -121h-13z" />
    <glyph glyph-name="wdieresis" unicode="&#x1e85;" horiz-adv-x="834" 
d="M822 535h12l-202 -535h-14l-201 520l-200 -520h-14l-203 535h12l198 -522l201 522h12l202 -522zM359 632c-10 0 -17 7 -17 17s7 17 17 17s17 -7 17 -17s-7 -17 -17 -17zM476 632c-10 0 -17 7 -17 17s7 17 17 17s17 -7 17 -17s-7 -17 -17 -17z" />
    <glyph glyph-name="wgrave" unicode="&#x1e81;" horiz-adv-x="834" 
d="M822 535h12l-202 -535h-14l-201 520l-200 -520h-14l-203 535h12l198 -522l201 522h12l202 -522zM417 585h-11l-64 121h11z" />
    <glyph glyph-name="ycircumflex" unicode="&#x177;" horiz-adv-x="494" 
d="M-2 535h12l241 -529l233 529h12l-313 -710h-12l74 168zM246 709h12l103 -130h-13l-96 121l-96 -121h-13z" />
    <glyph glyph-name="ygrave" unicode="&#x1ef3;" horiz-adv-x="494" 
d="M-2 535h12l241 -529l233 529h12l-313 -710h-12l74 168zM272 585h-11l-64 121h11z" />
    <glyph glyph-name="zacute" unicode="&#x17a;" horiz-adv-x="443" 
d="M419 10v-10h-395v10l382 515h-373v10h386v-10l-382 -515h382zM220 585h-11l66 121h11z" />
    <glyph glyph-name="zdotaccent" unicode="&#x17c;" horiz-adv-x="443" 
d="M419 10v-10h-395v10l382 515h-373v10h386v-10l-382 -515h382zM222 631c-10 0 -18 8 -18 18s8 18 18 18s18 -8 18 -18s-8 -18 -18 -18z" />
    <glyph glyph-name="zacute.pl" horiz-adv-x="443" 
d="M419 10v-10h-395v10l382 515h-373v10h386v-10l-382 -515h382zM225 585h-11l40 121h11z" />
    <glyph glyph-name="f_i" unicode="&#xfb01;" horiz-adv-x="305" 
d="M237 535h10v-535h-10v535zM242 631c-10 0 -18 8 -18 18s8 18 18 18s18 -8 18 -18s-8 -18 -18 -18zM73 0h-10v525h-53v10h53v91c0 60 13 105 86 105h20v-10h-20c-65 0 -76 -41 -76 -95v-91h93v-10h-93v-525z" />
    <glyph glyph-name="f_l" unicode="&#xfb02;" horiz-adv-x="305" 
d="M237 731h10v-731h-10v731zM73 0h-10v525h-53v10h53v91c0 60 13 105 86 105h20v-10h-20c-65 0 -76 -41 -76 -95v-91h93v-10h-93v-525z" />
    <glyph glyph-name="oneeighth" unicode="&#x215b;" horiz-adv-x="590" 
d="M450 -5c-59 0 -106 43 -106 99c0 46 31 84 76 96c-39 10 -64 42 -64 84c0 53 41 89 94 89s94 -36 94 -89c0 -42 -25 -73 -65 -84c47 -11 77 -50 77 -96c0 -56 -45 -99 -106 -99zM450 5c55 0 96 39 96 89s-40 91 -96 91c-55 0 -96 -41 -96 -91s43 -89 96 -89zM366 274
c0 -47 34 -79 84 -79c49 0 84 32 84 79s-37 79 -84 79s-84 -32 -84 -79zM504 692h12l-498 -692h-12zM89 659v11l41 22h10v-357h-10v345z" />
    <glyph glyph-name="onethird" unicode="&#x2153;" horiz-adv-x="596" 
d="M355 102h10c0 -51 30 -97 93 -97c54 0 93 39 93 97c0 66 -48 91 -107 92h-17v10l108 143h-163v10h175v-10l-107 -143h4c64 -1 117 -30 117 -102c0 -64 -43 -107 -103 -107c-69 0 -103 50 -103 107zM504 692h12l-498 -692h-12zM89 659v11l41 22h10v-357h-10v345z" />
    <glyph glyph-name="threeeighths" unicode="&#x215c;" horiz-adv-x="641" 
d="M501 -5c-59 0 -106 43 -106 99c0 46 31 84 76 96c-39 10 -64 42 -64 84c0 53 41 89 94 89s94 -36 94 -89c0 -42 -25 -73 -65 -84c47 -11 77 -50 77 -96c0 -56 -45 -99 -106 -99zM501 5c55 0 96 39 96 89s-40 91 -96 91c-55 0 -96 -41 -96 -91s43 -89 96 -89zM417 274
c0 -47 34 -79 84 -79c49 0 84 32 84 79s-37 79 -84 79s-84 -32 -84 -79zM30 437h10c0 -51 30 -97 93 -97c54 0 93 39 93 97c0 66 -48 91 -107 92h-17v10l108 143h-163v10h175v-10l-107 -143h4c64 -1 117 -30 117 -102c0 -64 -43 -107 -103 -107c-69 0 -103 50 -103 107z
M555 692h12l-498 -692h-12z" />
    <glyph glyph-name="fiveeighths" unicode="&#x215d;" horiz-adv-x="652" 
d="M512 -5c-59 0 -106 43 -106 99c0 46 31 84 76 96c-39 10 -64 42 -64 84c0 53 41 89 94 89s94 -36 94 -89c0 -42 -25 -73 -65 -84c47 -11 77 -50 77 -96c0 -56 -45 -99 -106 -99zM512 5c55 0 96 39 96 89s-40 91 -96 91c-55 0 -96 -41 -96 -91s43 -89 96 -89zM428 274
c0 -47 34 -79 84 -79c49 0 84 32 84 79s-37 79 -84 79s-84 -32 -84 -79zM226 693v-10h-160v-164c13 24 42 45 83 45c60 0 94 -41 94 -102v-30c0 -57 -35 -102 -96 -102c-65 0 -95 41 -95 102h10c0 -55 26 -92 85 -92c55 0 86 39 86 92v29c0 55 -28 93 -84 93
c-46 0 -74 -26 -83 -59h-10v198h170zM566 692h12l-498 -692h-12z" />
    <glyph glyph-name="twothirds" unicode="&#x2154;" horiz-adv-x="664" 
d="M571 692h12l-498 -692h-12zM40 598h-10c0 48 24 100 92 100c63 0 93 -40 93 -98c0 -45 -25 -80 -53 -113l-118 -142h178v-10h-191v10l123 148c28 33 51 64 51 107c0 52 -26 88 -83 88c-60 0 -82 -46 -82 -90zM423 102h10c0 -51 30 -97 93 -97c54 0 93 39 93 97
c0 66 -48 91 -107 92h-17v10l108 143h-163v10h175v-10l-107 -143h4c64 -1 117 -30 117 -102c0 -64 -43 -107 -103 -107c-69 0 -103 50 -103 107z" />
    <glyph glyph-name="seveneighths" unicode="&#x215e;" horiz-adv-x="604" 
d="M464 -5c-59 0 -106 43 -106 99c0 46 31 84 76 96c-39 10 -64 42 -64 84c0 53 41 89 94 89s94 -36 94 -89c0 -42 -25 -73 -65 -84c47 -11 77 -50 77 -96c0 -56 -45 -99 -106 -99zM464 5c55 0 96 39 96 89s-40 91 -96 91c-55 0 -96 -41 -96 -91s43 -89 96 -89zM380 274
c0 -47 34 -79 84 -79c49 0 84 32 84 79s-37 79 -84 79s-84 -32 -84 -79zM116 335h-12l157 347h-197v10h208v-10zM518 692h12l-498 -692h-12z" />
    <glyph glyph-name="uni24C5" unicode="&#x24c5;" horiz-adv-x="764" 
d="M29 346c0 216 156 360 354 360c199 0 352 -148 352 -360c0 -211 -157 -359 -355 -359c-199 0 -351 142 -351 359zM39 346c0 -211 148 -349 341 -349c192 0 345 144 345 349c0 206 -149 350 -342 350c-192 0 -344 -140 -344 -350zM379 339h-54v-185h-10v386h64
c72 0 115 -30 115 -99c0 -68 -49 -102 -115 -102zM325 530v-181h54c60 0 105 29 105 92c0 64 -39 89 -105 89h-54z" />
    <glyph glyph-name="zero.num" horiz-adv-x="253" 
d="M32 432v163c0 61 30 103 96 103c60 0 93 -44 93 -103v-163c0 -59 -33 -103 -93 -103c-66 0 -96 42 -96 103zM42 595v-163c0 -55 26 -93 86 -93c54 0 83 40 83 93v163c0 53 -29 93 -83 93c-60 0 -86 -38 -86 -93z" />
    <glyph glyph-name="one.num" horiz-adv-x="98" 
d="M9 659v11l41 22h10v-357h-10v345z" />
    <glyph glyph-name="two.num" horiz-adv-x="229" 
d="M30 598h-10c0 48 24 100 92 100c63 0 93 -40 93 -98c0 -45 -25 -80 -53 -113l-118 -142h178v-10h-191v10l123 148c28 33 51 64 51 107c0 52 -26 88 -83 88c-60 0 -82 -46 -82 -90z" />
    <glyph glyph-name="three.num" horiz-adv-x="245" 
d="M17 436h10c0 -51 30 -97 93 -97c54 0 93 39 93 97c0 66 -48 92 -107 93h-17v10l108 143h-163v10h175v-10l-107 -143h4c64 -1 117 -31 117 -103c0 -64 -43 -107 -103 -107c-69 0 -103 50 -103 107z" />
    <glyph glyph-name="four.num" horiz-adv-x="253" 
d="M192 335h-10v133h-165v10l166 214h9v-214h48v-10h-48v-133zM182 674c-53 -67 -99 -128 -152 -196h152v196z" />
    <glyph glyph-name="five.num" horiz-adv-x="241" 
d="M202 692v-10h-160v-161c13 24 42 42 82 42c61 0 93 -43 93 -101v-30c0 -60 -33 -103 -95 -103c-64 0 -94 41 -94 103h10c0 -56 26 -93 84 -93c56 0 85 39 85 93v30c0 52 -28 91 -83 91c-46 0 -72 -23 -82 -57h-10v196h170z" />
    <glyph glyph-name="six.num" horiz-adv-x="246" 
d="M32 432v163c0 61 30 103 96 103c38 0 67 -18 82 -47l-8 -4c-13 25 -39 41 -74 41c-60 0 -86 -38 -86 -93v-83c14 31 42 50 87 50c59 0 93 -43 93 -102v-28c0 -60 -35 -103 -94 -103c-66 0 -96 42 -96 103zM42 460v-28c0 -55 26 -93 86 -93c53 0 84 39 84 93v28
c0 53 -30 92 -83 92c-61 0 -87 -38 -87 -92z" />
    <glyph glyph-name="seven.num" horiz-adv-x="214" 
d="M12 682v10h188v-10l-136 -347h-12l137 347h-177z" />
    <glyph glyph-name="eight.num" horiz-adv-x="264" 
d="M132 329c-59 0 -106 44 -106 100c0 46 31 84 76 96c-39 10 -64 42 -64 84c0 53 41 89 94 89s94 -36 94 -89c0 -42 -25 -73 -65 -84c47 -11 77 -50 77 -96c0 -56 -45 -100 -106 -100zM132 339c55 0 96 40 96 90s-40 91 -96 91c-55 0 -96 -41 -96 -91s43 -90 96 -90z
M48 609c0 -47 34 -79 84 -79c49 0 84 32 84 79s-37 79 -84 79s-84 -32 -84 -79z" />
    <glyph glyph-name="nine.num" horiz-adv-x="247" 
d="M215 595v-163c0 -62 -31 -103 -95 -103c-39 0 -68 18 -83 47l8 4c13 -25 39 -41 75 -41c58 0 85 37 85 93v83c-13 -30 -41 -50 -86 -50c-61 0 -95 43 -95 102v28c0 60 35 103 96 103c64 0 95 -41 95 -103zM205 567v28c0 56 -27 93 -85 93c-55 0 -86 -39 -86 -93v-28
c0 -53 30 -92 85 -92c59 0 86 37 86 92z" />
    <glyph glyph-name="zero.den" horiz-adv-x="253" 
d="M32 97v163c0 61 30 103 96 103c60 0 93 -44 93 -103v-163c0 -59 -33 -103 -93 -103c-66 0 -96 42 -96 103zM42 260v-163c0 -55 26 -93 86 -93c54 0 83 40 83 93v163c0 53 -29 93 -83 93c-60 0 -86 -38 -86 -93z" />
    <glyph glyph-name="one.den" horiz-adv-x="99" 
d="M10 324v11l41 22h10v-357h-10v345z" />
    <glyph glyph-name="two.den" horiz-adv-x="225" 
d="M26 263h-10c0 48 24 100 92 100c63 0 93 -40 93 -98c0 -45 -25 -80 -53 -113l-118 -142h178v-10h-191v10l123 148c28 33 51 64 51 107c0 52 -26 88 -83 88c-60 0 -82 -46 -82 -90z" />
    <glyph glyph-name="three.den" horiz-adv-x="236" 
d="M13 101h10c0 -51 30 -97 93 -97c54 0 93 39 93 97c0 66 -48 92 -107 93h-17v10l108 143h-163v10h175v-10l-107 -143h4c64 -1 117 -31 117 -103c0 -64 -43 -107 -103 -107c-69 0 -103 50 -103 107z" />
    <glyph glyph-name="four.den" horiz-adv-x="245" 
d="M188 0h-10v133h-165v10l166 214h9v-214h48v-10h-48v-133zM178 339c-53 -67 -99 -128 -152 -196h152v196z" />
    <glyph glyph-name="five.den" horiz-adv-x="236" 
d="M200 357v-10h-160v-161c13 24 42 42 82 42c61 0 93 -43 93 -101v-30c0 -60 -33 -103 -95 -103c-64 0 -94 41 -94 103h10c0 -56 26 -93 84 -93c56 0 85 39 85 93v30c0 52 -28 91 -83 91c-46 0 -72 -23 -82 -57h-10v196h170z" />
    <glyph glyph-name="six.den" horiz-adv-x="242" 
d="M32 97v163c0 61 30 103 96 103c38 0 67 -18 82 -47l-8 -4c-13 25 -39 41 -74 41c-60 0 -86 -38 -86 -93v-83c14 31 42 50 87 50c59 0 93 -43 93 -102v-28c0 -60 -35 -103 -94 -103c-66 0 -96 42 -96 103zM42 125v-28c0 -55 26 -93 86 -93c53 0 84 39 84 93v28
c0 53 -30 92 -83 92c-61 0 -87 -38 -87 -92z" />
    <glyph glyph-name="seven.den" horiz-adv-x="206" 
d="M8 347v10h188v-10l-136 -347h-12l136 347h-176z" />
    <glyph glyph-name="eight.den" horiz-adv-x="252" 
d="M126 -6c-59 0 -106 44 -106 100c0 46 31 84 76 96c-39 10 -64 42 -64 84c0 53 41 89 94 89s94 -36 94 -89c0 -42 -25 -73 -65 -84c47 -11 77 -50 77 -96c0 -56 -45 -100 -106 -100zM126 4c55 0 96 40 96 90s-40 91 -96 91c-55 0 -96 -41 -96 -91s43 -90 96 -90zM42 274
c0 -47 34 -79 84 -79c49 0 84 32 84 79s-37 79 -84 79s-84 -32 -84 -79z" />
    <glyph glyph-name="nine.den" horiz-adv-x="245" 
d="M213 260v-163c0 -62 -31 -103 -95 -103c-39 0 -68 18 -83 47l8 4c13 -25 39 -41 75 -41c58 0 85 37 85 93v83c-13 -30 -41 -50 -86 -50c-61 0 -95 43 -95 102v28c0 60 35 103 96 103c64 0 95 -41 95 -103zM203 232v28c0 56 -27 93 -85 93c-55 0 -86 -39 -86 -93v-28
c0 -53 30 -92 85 -92c59 0 86 37 86 92z" />
    <glyph glyph-name="a.alt" horiz-adv-x="621" 
d="M28 267c0 166 120 277 268 277c123 0 228 -80 257 -201v192h10v-535h-10v193c-31 -124 -136 -202 -259 -202c-149 0 -266 109 -266 276zM38 267c0 -161 113 -266 256 -266s259 111 259 266c0 162 -118 267 -257 267c-142 0 -258 -107 -258 -267z" />
    <glyph glyph-name="k.alt" horiz-adv-x="408" 
d="M60 731h10v-293c22 63 81 103 151 103c90 0 160 -67 160 -163s-72 -164 -161 -164c-28 0 -55 7 -70 16l233 -230h-14l-253 248c-22 22 -37 43 -46 71v-319h-10v731zM70 378c0 -93 65 -154 150 -154c83 0 151 64 151 154s-66 153 -150 153c-82 0 -148 -59 -151 -146v-7z
" />
    <glyph glyph-name="u.alt" horiz-adv-x="426" 
d="M56 535h10v-371c0 -88 42 -160 147 -160c97 0 147 72 147 160v371h10v-371c0 -94 -54 -170 -157 -170c-113 0 -157 76 -157 170v371z" />
    <glyph glyph-name="w.alt" horiz-adv-x="730" 
d="M360 535h10v-371c0 -88 42 -160 147 -160c97 0 147 72 147 160v371h10v-371c0 -94 -54 -170 -157 -170c-93 0 -141 54 -152 125c-15 -75 -68 -125 -152 -125c-113 0 -157 76 -157 170v371h10v-371c0 -88 42 -160 147 -160c97 0 147 72 147 160v371z" />
    <glyph glyph-name="y.alt" horiz-adv-x="427" 
d="M71 -140l5 9c28 -20 67 -41 135 -41c96 0 147 61 148 167v121c-17 -78 -76 -122 -149 -122c-108 0 -155 77 -155 181v360h10v-360c0 -100 44 -171 145 -171c97 0 148 73 149 182v349h10v-540c-1 -112 -56 -177 -158 -177c-72 0 -115 24 -140 42z" />
    <glyph glyph-name="aacute.alt" horiz-adv-x="621" 
d="M293 585h-11l66 121h11zM28 267c0 166 120 277 268 277c123 0 228 -80 257 -201v192h10v-535h-10v193c-31 -124 -136 -202 -259 -202c-149 0 -266 109 -266 276zM38 267c0 -161 113 -266 256 -266s259 111 259 266c0 162 -118 267 -257 267c-142 0 -258 -107 -258 -267z
" />
    <glyph glyph-name="abreve.alt" horiz-adv-x="621" 
d="M186 700h10c1 -32 21 -94 99 -94c77 0 98 61 99 94h10c-1 -37 -24 -104 -109 -104c-86 0 -108 68 -109 104zM28 267c0 166 120 277 268 277c123 0 228 -80 257 -201v192h10v-535h-10v193c-31 -124 -136 -202 -259 -202c-149 0 -266 109 -266 276zM38 267
c0 -161 113 -266 256 -266s259 111 259 266c0 162 -118 267 -257 267c-142 0 -258 -107 -258 -267z" />
    <glyph glyph-name="acircumflex.alt" horiz-adv-x="621" 
d="M292 709h12l103 -130h-13l-96 121l-96 -121h-13zM28 267c0 166 120 277 268 277c123 0 228 -80 257 -201v192h10v-535h-10v193c-31 -124 -136 -202 -259 -202c-149 0 -266 109 -266 276zM38 267c0 -161 113 -266 256 -266s259 111 259 266c0 162 -118 267 -257 267
c-142 0 -258 -107 -258 -267z" />
    <glyph glyph-name="adieresis.alt" horiz-adv-x="621" 
d="M238 632c-10 0 -17 7 -17 17s7 17 17 17s17 -7 17 -17s-7 -17 -17 -17zM355 632c-10 0 -17 7 -17 17s7 17 17 17s17 -7 17 -17s-7 -17 -17 -17zM28 267c0 166 120 277 268 277c123 0 228 -80 257 -201v192h10v-535h-10v193c-31 -124 -136 -202 -259 -202
c-149 0 -266 109 -266 276zM38 267c0 -161 113 -266 256 -266s259 111 259 266c0 162 -118 267 -257 267c-142 0 -258 -107 -258 -267z" />
    <glyph glyph-name="agrave.alt" horiz-adv-x="621" 
d="M314 585h-11l-64 121h11zM28 267c0 166 120 277 268 277c123 0 228 -80 257 -201v192h10v-535h-10v193c-31 -124 -136 -202 -259 -202c-149 0 -266 109 -266 276zM38 267c0 -161 113 -266 256 -266s259 111 259 266c0 162 -118 267 -257 267c-142 0 -258 -107 -258 -267z
" />
    <glyph glyph-name="amacron.alt" horiz-adv-x="621" 
d="M203 630v10h186v-10h-186zM28 267c0 166 120 277 268 277c123 0 228 -80 257 -201v192h10v-535h-10v193c-31 -124 -136 -202 -259 -202c-149 0 -266 109 -266 276zM38 267c0 -161 113 -266 256 -266s259 111 259 266c0 162 -118 267 -257 267c-142 0 -258 -107 -258 -267
z" />
    <glyph glyph-name="aogonek.alt" horiz-adv-x="621" 
d="M28 267c0 166 120 277 268 277c123 0 228 -80 257 -201v192h10v-535c-58 -24 -84 -59 -84 -97c0 -47 37 -69 84 -70v-10c-53 1 -94 27 -94 80c0 40 26 77 84 102v188c-31 -124 -136 -202 -259 -202c-149 0 -266 109 -266 276zM38 267c0 -161 113 -266 256 -266
s259 111 259 266c0 162 -118 267 -257 267c-142 0 -258 -107 -258 -267z" />
    <glyph glyph-name="aring.alt" horiz-adv-x="621" 
d="M231 659c0 -36 26 -64 65 -64c42 0 67 28 67 66c0 37 -24 64 -68 64c-38 0 -64 -27 -64 -66zM221 659c0 45 30 76 74 76c50 0 78 -31 78 -74c0 -44 -29 -76 -77 -76c-45 0 -75 32 -75 74zM28 267c0 166 120 277 268 277c123 0 228 -80 257 -201v192h10v-535h-10v193
c-31 -124 -136 -202 -259 -202c-149 0 -266 109 -266 276zM38 267c0 -161 113 -266 256 -266s259 111 259 266c0 162 -118 267 -257 267c-142 0 -258 -107 -258 -267z" />
    <glyph glyph-name="aringacute.alt" horiz-adv-x="621" 
d="M28 267c0 166 120 277 268 277c123 0 228 -80 257 -201v192h10v-535h-10v193c-31 -124 -136 -202 -259 -202c-149 0 -266 109 -266 276zM38 267c0 -161 113 -266 256 -266s259 111 259 266c0 162 -118 267 -257 267c-142 0 -258 -107 -258 -267zM231 659
c0 -36 26 -64 65 -64c42 0 67 28 67 66c0 37 -24 64 -68 64c-38 0 -64 -27 -64 -66zM221 659c0 45 30 76 74 76c50 0 78 -31 78 -74c0 -44 -29 -76 -77 -76c-45 0 -75 32 -75 74zM295 775h-12l64 112h12z" />
    <glyph glyph-name="atilde.alt" horiz-adv-x="621" 
d="M416 677h10c-1 -43 -23 -72 -60 -72c-31 0 -52 18 -73 32s-39 29 -66 29c-33 0 -49 -27 -50 -62h-10c1 41 21 72 60 72c31 0 51 -17 72 -31s39 -30 67 -30c31 0 49 25 50 62zM28 267c0 166 120 277 268 277c123 0 228 -80 257 -201v192h10v-535h-10v193
c-31 -124 -136 -202 -259 -202c-149 0 -266 109 -266 276zM38 267c0 -161 113 -266 256 -266s259 111 259 266c0 162 -118 267 -257 267c-142 0 -258 -107 -258 -267z" />
    <glyph glyph-name="kcommaaccent.alt" horiz-adv-x="408" 
d="M192 -176h-12l37 95h-3c-11 0 -19 8 -19 19s8 19 19 19s19 -8 19 -19c0 -5 -1 -9 -3 -15zM60 731h10v-293c22 63 81 103 151 103c90 0 160 -67 160 -163s-72 -164 -161 -164c-28 0 -55 7 -70 16l233 -230h-14l-253 248c-22 22 -37 43 -46 71v-319h-10v731zM70 378
c0 -93 65 -154 150 -154c83 0 151 64 151 154s-66 153 -150 153c-82 0 -148 -59 -151 -146v-7z" />
    <glyph glyph-name="uacute.alt" horiz-adv-x="426" 
d="M211 585h-11l66 121h11zM56 535h10v-371c0 -88 42 -160 147 -160c97 0 147 72 147 160v371h10v-371c0 -94 -54 -170 -157 -170c-113 0 -157 76 -157 170v371z" />
    <glyph glyph-name="ugrave.alt" horiz-adv-x="426" 
d="M225 585h-11l-64 121h11zM56 535h10v-371c0 -88 42 -160 147 -160c97 0 147 72 147 160v371h10v-371c0 -94 -54 -170 -157 -170c-113 0 -157 76 -157 170v371z" />
    <glyph glyph-name="ucircumflex.alt" horiz-adv-x="426" 
d="M207 709h12l103 -130h-13l-96 121l-96 -121h-13zM56 535h10v-371c0 -88 42 -160 147 -160c97 0 147 72 147 160v371h10v-371c0 -94 -54 -170 -157 -170c-113 0 -157 76 -157 170v371z" />
    <glyph glyph-name="udieresis.alt" horiz-adv-x="426" 
d="M155 632c-10 0 -17 7 -17 17s7 17 17 17s17 -7 17 -17s-7 -17 -17 -17zM272 632c-10 0 -17 7 -17 17s7 17 17 17s17 -7 17 -17s-7 -17 -17 -17zM56 535h10v-371c0 -88 42 -160 147 -160c97 0 147 72 147 160v371h10v-371c0 -94 -54 -170 -157 -170
c-113 0 -157 76 -157 170v371z" />
    <glyph glyph-name="ubreve.alt" horiz-adv-x="426" 
d="M104 700h10c1 -32 21 -94 99 -94c77 0 98 61 99 94h10c-1 -37 -24 -104 -109 -104c-86 0 -108 68 -109 104zM56 535h10v-371c0 -88 42 -160 147 -160c97 0 147 72 147 160v371h10v-371c0 -94 -54 -170 -157 -170c-113 0 -157 76 -157 170v371z" />
    <glyph glyph-name="uhungarumlaut.alt" horiz-adv-x="426" 
d="M249 585h-11l53 121h11zM165 585h-11l53 121h11zM56 535h10v-371c0 -88 42 -160 147 -160c97 0 147 72 147 160v371h10v-371c0 -94 -54 -170 -157 -170c-113 0 -157 76 -157 170v371z" />
    <glyph glyph-name="umacron.alt" horiz-adv-x="426" 
d="M120 630v10h186v-10h-186zM56 535h10v-371c0 -88 42 -160 147 -160c97 0 147 72 147 160v371h10v-371c0 -94 -54 -170 -157 -170c-113 0 -157 76 -157 170v371z" />
    <glyph glyph-name="uogonek.alt" horiz-adv-x="426" 
d="M297 -167v-10c-53 1 -94 30 -94 85c0 33 17 66 53 91c-16 -4 -37 -5 -43 -5c-113 0 -157 76 -157 170v371h10v-371c0 -88 42 -160 147 -160c97 0 147 72 147 160v371h10v-371c0 -64 -26 -119 -73 -148c-40 -24 -84 -53 -84 -108c0 -49 37 -74 84 -75z" />
    <glyph glyph-name="uring.alt" horiz-adv-x="426" 
d="M144 659c0 -36 26 -64 65 -64c42 0 67 28 67 66c0 37 -24 64 -68 64c-38 0 -64 -27 -64 -66zM134 659c0 45 30 76 74 76c50 0 78 -31 78 -74c0 -44 -29 -76 -77 -76c-45 0 -75 32 -75 74zM56 535h10v-371c0 -88 42 -160 147 -160c97 0 147 72 147 160v371h10v-371
c0 -94 -54 -170 -157 -170c-113 0 -157 76 -157 170v371z" />
    <glyph glyph-name="utilde.alt" horiz-adv-x="426" 
d="M331 677h10c-1 -43 -23 -72 -60 -72c-31 0 -52 18 -73 32s-39 29 -66 29c-33 0 -49 -27 -50 -62h-10c1 41 21 72 60 72c31 0 51 -17 72 -31s39 -30 67 -30c31 0 49 25 50 62zM56 535h10v-371c0 -88 42 -160 147 -160c97 0 147 72 147 160v371h10v-371
c0 -94 -54 -170 -157 -170c-113 0 -157 76 -157 170v371z" />
    <glyph glyph-name="wacute.alt" horiz-adv-x="730" 
d="M370 585h-11l66 121h11zM360 535h10v-371c0 -88 42 -160 147 -160c97 0 147 72 147 160v371h10v-371c0 -94 -54 -170 -157 -170c-93 0 -141 54 -152 125c-15 -75 -68 -125 -152 -125c-113 0 -157 76 -157 170v371h10v-371c0 -88 42 -160 147 -160c97 0 147 72 147 160
v371z" />
    <glyph glyph-name="wcircumflex.alt" horiz-adv-x="730" 
d="M359 709h12l103 -130h-13l-96 121l-96 -121h-13zM360 535h10v-371c0 -88 42 -160 147 -160c97 0 147 72 147 160v371h10v-371c0 -94 -54 -170 -157 -170c-93 0 -141 54 -152 125c-15 -75 -68 -125 -152 -125c-113 0 -157 76 -157 170v371h10v-371c0 -88 42 -160 147 -160
c97 0 147 72 147 160v371z" />
    <glyph glyph-name="wdieresis.alt" horiz-adv-x="730" 
d="M307 632c-10 0 -17 7 -17 17s7 17 17 17s17 -7 17 -17s-7 -17 -17 -17zM424 632c-10 0 -17 7 -17 17s7 17 17 17s17 -7 17 -17s-7 -17 -17 -17zM360 535h10v-371c0 -88 42 -160 147 -160c97 0 147 72 147 160v371h10v-371c0 -94 -54 -170 -157 -170
c-93 0 -141 54 -152 125c-15 -75 -68 -125 -152 -125c-113 0 -157 76 -157 170v371h10v-371c0 -88 42 -160 147 -160c97 0 147 72 147 160v371z" />
    <glyph glyph-name="wgrave.alt" horiz-adv-x="730" 
d="M371 585h-11l-64 121h11zM360 535h10v-371c0 -88 42 -160 147 -160c97 0 147 72 147 160v371h10v-371c0 -94 -54 -170 -157 -170c-93 0 -141 54 -152 125c-15 -75 -68 -125 -152 -125c-113 0 -157 76 -157 170v371h10v-371c0 -88 42 -160 147 -160c97 0 147 72 147 160
v371z" />
    <glyph glyph-name="yacute.alt" horiz-adv-x="427" 
d="M65 535v-360c0 -100 44 -171 145 -171c97 0 148 73 149 182v349h10v-535h-10v116c-17 -78 -76 -122 -149 -122c-108 0 -155 77 -155 181v360h10zM210 585h-11l66 121h11z" />
    <glyph glyph-name="ydieresis.alt" horiz-adv-x="427" 
d="M154 632c-10 0 -17 7 -17 17s7 17 17 17s17 -7 17 -17s-7 -17 -17 -17zM271 632c-10 0 -17 7 -17 17s7 17 17 17s17 -7 17 -17s-7 -17 -17 -17zM71 -140l5 9c28 -20 67 -41 135 -41c96 0 147 61 148 167v121c-17 -78 -76 -122 -149 -122c-108 0 -155 77 -155 181v360h10
v-360c0 -100 44 -171 145 -171c97 0 148 73 149 182v349h10v-540c-1 -112 -56 -177 -158 -177c-72 0 -115 24 -140 42z" />
    <glyph glyph-name="ycircumflex.alt" horiz-adv-x="427" 
d="M71 -140l5 9c28 -20 67 -41 135 -41c96 0 147 61 148 167v121c-17 -78 -76 -122 -149 -122c-108 0 -155 77 -155 181v360h10v-360c0 -100 44 -171 145 -171c97 0 148 73 149 182v349h10v-540c-1 -112 -56 -177 -158 -177c-72 0 -115 24 -140 42zM206 709h12l103 -130h-13
l-96 121l-96 -121h-13z" />
    <glyph glyph-name="ygrave.alt" horiz-adv-x="427" 
d="M71 -140l5 9c28 -20 67 -41 135 -41c96 0 147 61 148 167v121c-17 -78 -76 -122 -149 -122c-108 0 -155 77 -155 181v360h10v-360c0 -100 44 -171 145 -171c97 0 148 73 149 182v349h10v-540c-1 -112 -56 -177 -158 -177c-72 0 -115 24 -140 42zM225 585h-11l-64 121h11z
" />
    <glyph glyph-name="f.short" horiz-adv-x="179" 
d="M73 0h-10v525h-53v10h53v91c0 60 13 105 86 105h20v-10h-20c-65 0 -76 -41 -76 -95v-91h93v-10h-93v-525z" />
    <glyph glyph-name="f_f.short" horiz-adv-x="353" 
d="M247 0h-10v525h-164v-525h-10v525h-53v10h53v91c0 60 13 105 86 105h27v-10h-27c-65 0 -76 -41 -76 -95v-91h164v91c0 60 13 105 86 105h20v-10h-20c-65 0 -76 -41 -76 -95v-91h93v-10h-93v-525z" />
    <glyph glyph-name="questiondown.uc" horiz-adv-x="472" 
d="M425 196h10c3 -68 -29 -209 -196 -209c-130 0 -203 87 -203 195c0 106 75 192 203 195v186h10v-196c-130 0 -203 -83 -203 -185s69 -185 193 -185c158 0 189 135 186 199zM244 697c11 0 19 -8 19 -19s-8 -19 -19 -19s-19 8 -19 19s8 19 19 19z" />
    <glyph glyph-name="exclamdown.uc" horiz-adv-x="142" 
d="M76 0h-10v563h10v-563zM71 697c11 0 19 -8 19 -19s-8 -19 -19 -19s-19 8 -19 19s8 19 19 19z" />
    <glyph glyph-name="hyphen.uc" horiz-adv-x="229" 
d="M40 308v10h149v-10h-149z" />
    <glyph glyph-name="endash.uc" 
d="M559 316v-10h-519v10h519z" />
    <glyph glyph-name="emdash.uc" horiz-adv-x="924" 
d="M884 316v-10h-844v10h844z" />
    <glyph glyph-name="guilsinglleft.uc" horiz-adv-x="151" 
d="M119 426h11l-98 -157l98 -157h-11l-98 157z" />
    <glyph glyph-name="guilsinglright.uc" horiz-adv-x="151" 
d="M32 112h-11l98 157l-98 157h11l98 -157z" />
    <glyph glyph-name="guillemotleft.uc" horiz-adv-x="249" 
d="M119 426h11l-98 -157l98 -157h-11l-98 157zM217 426h11l-98 -157l98 -157h-11l-98 157z" />
    <glyph glyph-name="guillemotright.uc" horiz-adv-x="249" 
d="M119 426h11l98 -157l-98 -157h-11l98 157zM21 426h11l98 -157l-98 -157h-11l98 157z" />
    <glyph glyph-name="parenleft.uc" horiz-adv-x="185" 
d="M170 731v-10h-21c-71 0 -81 -37 -81 -96v-694c0 -59 10 -96 81 -96h21v-10h-21c-78 0 -91 42 -91 101v704c0 58 13 101 91 101h21z" />
    <glyph glyph-name="parenright.uc" horiz-adv-x="185" 
d="M15 721v10h21c78 0 91 -43 91 -101v-704c0 -59 -13 -101 -91 -101h-21v10h21c71 0 81 37 81 96v694c0 59 -10 96 -81 96h-21z" />
    <glyph glyph-name="bracketleft.uc" horiz-adv-x="179" 
d="M164 731v-10h-96v-886h96v-10h-106v906h106z" />
    <glyph glyph-name="bracketright.uc" horiz-adv-x="179" 
d="M15 721v10h106v-906h-106v10h96v886h-96z" />
    <glyph glyph-name="braceleft.uc" horiz-adv-x="240" 
d="M123 625v-242c0 -48 -3 -84 -44 -96c42 -10 44 -49 44 -96v-260c0 -59 10 -96 81 -96h21v-10h-21c-78 0 -91 43 -91 101v260c0 59 0 96 -66 96h-24v10h24c66 0 66 39 66 96v242c0 58 13 101 91 101h21v-10h-21c-71 0 -81 -37 -81 -96z" />
    <glyph glyph-name="braceright.uc" horiz-adv-x="240" 
d="M117 383v242c0 59 -10 96 -81 96h-21v10h21c78 0 91 -43 91 -101v-242c0 -57 0 -96 66 -96h24v-10h-24c-66 0 -66 -37 -66 -96v-260c0 -58 -13 -101 -91 -101h-21v10h21c71 0 81 37 81 96v260c0 47 2 86 44 96c-41 12 -44 48 -44 96z" />
    <glyph glyph-name="slash.uc" horiz-adv-x="419" 
d="M69 -55h-12l346 786h12z" />
    <glyph glyph-name="backslash.uc" horiz-adv-x="419" 
d="M362 -55h-12l-346 786h12z" />
    <glyph glyph-name="bar.uc" horiz-adv-x="164" 
d="M77 731h10v-786h-10v786z" />
    <glyph glyph-name="at.uc" horiz-adv-x="955" 
d="M258 313c0 128 92 213 209 213c94 0 171 -57 198 -145v138h10v-291c0 -70 25 -116 101 -116s140 83 140 255c0 214 -159 390 -428 390c-266 0 -448 -192 -448 -441c0 -248 167 -438 459 -438c141 0 256 60 312 117l8 -8c-57 -57 -175 -119 -320 -119
c-298 0 -469 194 -469 448c0 256 186 451 458 451c275 0 438 -180 438 -400c0 -178 -68 -265 -150 -265c-83 0 -111 50 -111 126v17c-27 -87 -106 -144 -200 -144c-117 0 -207 84 -207 212zM268 313c0 -122 86 -202 197 -202s200 84 200 202c0 119 -87 203 -198 203
s-199 -81 -199 -203z" />
    <glyph glyph-name="uni2009" unicode="&#x2009;" horiz-adv-x="15" 
 />
    </font>
</defs>
</svg>
