<?xml version="1.0" encoding="utf-8"?>
<!-- Generator: Adobe Illustrator 18.0.0, SVG Export Plug-In . SVG Version: 6.00 Build 0)  -->
<!DOCTYPE svg PUBLIC "-//W3C//DTD SVG 1.1//EN" "http://www.w3.org/Graphics/SVG/1.1/DTD/svg11.dtd">
<svg version="1.1" id="Layer_1" xmlns="http://www.w3.org/2000/svg" xmlns:xlink="http://www.w3.org/1999/xlink" x="0px" y="0px"
	 viewBox="0 0 100 100" enable-background="new 0 0 100 100" xml:space="preserve">
<path fill="#231F20" d="M80.8,86.8c-1.6,0-3.1-0.6-4.2-1.8L50,58.5L23.4,85c-1.1,1.1-2.6,1.8-4.2,1.8c-1.6,0-3.1-0.6-4.2-1.8
	c-1.1-1.1-1.8-2.6-1.8-4.2c0-1.6,0.6-3.1,1.8-4.2L41.5,50L15,23.4c-1.1-1.1-1.8-2.6-1.8-4.2c0-1.6,0.6-3.1,1.8-4.2
	c1.1-1.1,2.6-1.8,4.2-1.8c1.6,0,3.1,0.6,4.2,1.8L50,41.5L76.6,15c1.1-1.1,2.6-1.8,4.2-1.8l0,0c1.6,0,3.1,0.6,4.2,1.8
	c2.3,2.3,2.3,6.1,0,8.5L58.5,50L85,76.6c2.3,2.3,2.3,6.1,0,8.5C83.9,86.2,82.4,86.8,80.8,86.8z"/>
</svg>
