<?xml version="1.0" encoding="utf-8"?>
<!-- Generator: Adobe Illustrator 18.0.0, SVG Export Plug-In . SVG Version: 6.00 Build 0)  -->
<!DOCTYPE svg PUBLIC "-//W3C//DTD SVG 1.1//EN" "http://www.w3.org/Graphics/SVG/1.1/DTD/svg11.dtd">
<svg version="1.1" id="Layer_1" xmlns="http://www.w3.org/2000/svg" xmlns:xlink="http://www.w3.org/1999/xlink" x="0px" y="0px"
	 viewBox="0 0 100 100" enable-background="new 0 0 100 100" xml:space="preserve">
<g id="XMLID_34_">
	<path id="XMLID_32_" fill="#231F20" d="M62.7,57l6.2-6.2v31.5c0,1,0.8,1.9,1.9,1.9c1,0,1.9-0.8,1.9-1.9v-36c0-0.8-0.5-1.5-1.2-1.8
		c-0.7-0.3-1.5-0.1-2.1,0.4L60,54.3c-0.7,0.7-0.7,1.9,0,2.7C60.8,57.8,62,57.8,62.7,57z"/>
	<path id="XMLID_31_" fill="#231F20" d="M35.2,84.1c8.3,0,14.8-5.4,14.8-12.4c0-5-2.8-8.9-7.4-10.9c2.2-1.7,3.6-4.2,3.6-6.9
		c0-6.1-4-9.6-11.1-9.6c-4.8,0-9.8,2.8-11.1,6.3c-0.4,1,0.1,2.1,1.1,2.5c1,0.4,2.1-0.1,2.5-1.1c0.7-1.8,4.1-3.8,7.6-3.8
		c4.9,0,7.3,1.9,7.3,5.8c0,3.4-3.6,5.5-7.2,5.5c-1,0-1.9,0.8-1.9,1.9c0,1,0.8,1.9,1.9,1.9c5.5,0,11,2.6,11,8.6c0,4.8-4.8,8.6-11,8.6
		c-4.4,0-8.4-2-10.1-5c-0.5-0.9-1.7-1.2-2.6-0.7c-0.9,0.5-1.2,1.7-0.7,2.6C24.2,81.4,29.4,84.1,35.2,84.1z"/>
	<path id="XMLID_35_" fill="#231F20" d="M89.8,12.1H74.7V6.4c0-1-0.8-1.9-1.9-1.9c-1,0-1.9,0.8-1.9,1.9v5.7H29.1V6.4
		c0-1-0.8-1.9-1.9-1.9c-1,0-1.9,0.8-1.9,1.9v5.7H10.2c-4.2,0-7.6,3.4-7.6,7.6v68.3c0,4.2,3.4,7.6,7.6,7.6h79.7
		c4.2,0,7.6-3.4,7.6-7.6V19.7C97.4,15.5,94,12.1,89.8,12.1z M93.6,87.9c0,2.1-1.7,3.8-3.8,3.8H10.2c-2.1,0-3.8-1.7-3.8-3.8V36.7
		h87.3V87.9z M93.6,32.9H6.4V19.7c0-2.1,1.7-3.8,3.8-3.8h15.2v6.2c-1.1,0.7-1.9,1.9-1.9,3.3c0,2.1,1.7,3.8,3.8,3.8
		c2.1,0,3.8-1.7,3.8-3.8c0-1.4-0.8-2.6-1.9-3.3v-6.2h41.7v6.2c-1.1,0.7-1.9,1.9-1.9,3.3c0,2.1,1.7,3.8,3.8,3.8
		c2.1,0,3.8-1.7,3.8-3.8c0-1.4-0.8-2.6-1.9-3.3v-6.2h15.2c2.1,0,3.8,1.7,3.8,3.8V32.9z"/>
</g>
</svg>
