<?xml version="1.0" encoding="utf-8"?>
<!-- Generator: Adobe Illustrator 18.0.0, SVG Export Plug-In . SVG Version: 6.00 Build 0)  -->
<!DOCTYPE svg PUBLIC "-//W3C//DTD SVG 1.1//EN" "http://www.w3.org/Graphics/SVG/1.1/DTD/svg11.dtd">
<svg version="1.1" id="Layer_1" xmlns="http://www.w3.org/2000/svg" xmlns:xlink="http://www.w3.org/1999/xlink" x="0px" y="0px"
	 viewBox="0 0 100 100" enable-background="new 0 0 100 100" xml:space="preserve">
<path fill="#231F20" d="M42.8,69.4l-4.7-3.4h23.8l-4.7,3.4H42.8z M97.4,42.2L65.3,67.1l32.9,24.5v-50C97.9,41.9,97.6,42.1,97.4,42.2
	z M3.1,40.1l0.3,0.2L18,51.1l0,0l2.7,2V20.8c0-1.4,1.1-2.5,2.5-2.5h53.4c1.4,0,2.5,1.1,2.5,2.5v32.4l1.4-1v0l15.7-11.6
	c0.2-0.1,0.4-0.3,0.6-0.5c0.1-0.1,0.3-0.1,0.4-0.2c0,0,0,0,0,0c0,0,0,0,0,0c-0.1-0.1-0.2-0.2-0.4-0.2c-0.2-0.2-0.4-0.3-0.6-0.5
	L82,28.5v-7.7c0-2.9-2.4-5.2-5.2-5.2H64.3L51.8,6.3C51.4,6,50.7,5.8,50,5.8c-0.7,0-1.4,0.2-1.8,0.6l-12.5,9.2H23.3
	c-2.9,0-5.2,2.4-5.2,5.2v7.7L3.3,39.4l-0.3,0.2c-0.1,0.1-0.3,0.1-0.4,0.2l0,0l0,0C2.8,39.9,2.9,40,3.1,40.1z M71.5,46.6H28.5V50
	h42.9V46.6z M71.5,58.9v-2.6H28.5v2.6l1.1,0.8h40.7L71.5,58.9z M52.1,77.4C51.5,77.8,50.8,78,50,78c-0.8,0-1.5-0.2-2.1-0.7
	l-11.4-8.8L2.7,93.8c0.4,0.3,0.8,0.4,1.3,0.4H96c0.5,0,0.9-0.2,1.3-0.4L63.4,68.6L52.1,77.4z M2.6,42.3c-0.2-0.2-0.5-0.4-0.8-0.6v50
	l32.9-24.5L2.6,42.3z M71.5,36.7H28.5v3.4h42.9V36.7z M71.5,26.9H28.5v3.4h42.9V26.9z"/>
</svg>
