<?xml version="1.0" encoding="utf-8"?>
<!-- Generator: Adobe Illustrator 18.0.0, SVG Export Plug-In . SVG Version: 6.00 Build 0)  -->
<!DOCTYPE svg PUBLIC "-//W3C//DTD SVG 1.1//EN" "http://www.w3.org/Graphics/SVG/1.1/DTD/svg11.dtd">
<svg version="1.1" id="Layer_1" xmlns="http://www.w3.org/2000/svg" xmlns:xlink="http://www.w3.org/1999/xlink" x="0px" y="0px"
	 viewBox="0 0 100 100" enable-background="new 0 0 100 100" xml:space="preserve">
<path fill="#231F20" d="M80.2,9.6H19.7c-1.9,0-3.4,1.5-3.4,3.4v79.3c0,1.9,1.5,3.4,3.4,3.4h60.5c1.9,0,3.4-1.5,3.4-3.4V13
	C83.6,11.1,82.1,9.6,80.2,9.6z M26.3,60.3h47.1v4.3H26.3V60.3z M57.7,50h15.7v4.3H57.7V50z M57.7,39.7h15.7v4.3H57.7V39.7z
	 M57.7,29.4h15.7v4.3H57.7V29.4z M63.6,83.6H26.1v-4.3h37.5V83.6z M73.9,74H26.1v-4.3h47.7V74z M38.9,56.4
	c-6.7,0-12.2-5.6-12.2-12.5V7c0-2.2,1.8-4,4-4h12.6c1.6,0,2.9,1.3,2.9,2.9v32.2c0,4.2-3.3,7.6-7.4,7.6c-4.1,0-7.4-3.4-7.4-7.6v-23
	h3.3v23c0,2.4,1.9,4.3,4.1,4.3s4.1-1.9,4.1-4.3V6.2H30.7c-0.4,0-0.8,0.4-0.8,0.8v36.9c0,5.1,4,9.2,8.9,9.2c4.9,0,8.9-4.1,8.9-9.2
	V15.5H51v28.5C51,50.8,45.6,56.4,38.9,56.4z"/>
</svg>
