<?xml version="1.0" encoding="utf-8"?>
<!-- Generator: Adobe Illustrator 18.0.0, SVG Export Plug-In . SVG Version: 6.00 Build 0)  -->
<!DOCTYPE svg PUBLIC "-//W3C//DTD SVG 1.1//EN" "http://www.w3.org/Graphics/SVG/1.1/DTD/svg11.dtd">
<svg version="1.1" id="Layer_1" xmlns="http://www.w3.org/2000/svg" xmlns:xlink="http://www.w3.org/1999/xlink" x="0px" y="0px"
	 viewBox="0 0 100 100" enable-background="new 0 0 100 100" xml:space="preserve">
<g>
	<path fill="#231F20" d="M12.7,42.3c-4.3,0-7.8,3.5-7.8,7.8c0,4.3,3.5,7.8,7.8,7.8c4.3,0,7.8-3.5,7.8-7.8
		C20.5,45.8,17,42.3,12.7,42.3 M12.7,61.7c-6.4,0-11.6-5.2-11.6-11.6c0-6.4,5.2-11.6,11.6-11.6c6.4,0,11.6,5.2,11.6,11.6
		C24.3,56.5,19.1,61.7,12.7,61.7"/>
	<path fill="#231F20" d="M50.7,42.1c-4.3,0-7.8,3.5-7.8,7.8c0,4.3,3.5,7.8,7.8,7.8c4.3,0,7.8-3.5,7.8-7.8
		C58.6,45.6,55.1,42.1,50.7,42.1 M50.7,61.5c-6.4,0-11.6-5.2-11.6-11.6s5.2-11.6,11.6-11.6c6.4,0,11.6,5.2,11.6,11.6
		S57.1,61.5,50.7,61.5"/>
	<path fill="#231F20" d="M87.3,42.3c-4.3,0-7.8,3.5-7.8,7.8c0,4.3,3.5,7.8,7.8,7.8c4.3,0,7.8-3.5,7.8-7.8
		C95.1,45.8,91.6,42.3,87.3,42.3 M87.3,61.7c-6.4,0-11.6-5.2-11.6-11.6c0-6.4,5.2-11.6,11.6-11.6c6.4,0,11.6,5.2,11.6,11.6
		C98.9,56.5,93.7,61.7,87.3,61.7"/>
</g>
</svg>
