<?xml version="1.0" encoding="utf-8"?>
<!-- Generator: Adobe Illustrator 18.0.0, SVG Export Plug-In . SVG Version: 6.00 Build 0)  -->
<!DOCTYPE svg PUBLIC "-//W3C//DTD SVG 1.1//EN" "http://www.w3.org/Graphics/SVG/1.1/DTD/svg11.dtd">
<svg version="1.1" id="Layer_1" xmlns="http://www.w3.org/2000/svg" xmlns:xlink="http://www.w3.org/1999/xlink" x="0px" y="0px"
	 viewBox="0 0 100 100" enable-background="new 0 0 100 100" xml:space="preserve">
<path fill="#231F20" d="M88,5.3H56.1c-2.2,0-4.3,0.6-6.1,1.8c-1.8-1.2-3.9-1.8-6.1-1.8H12c-6.2,0-11.2,5-11.2,11.2v60.8
	c0,6.2,5,11.2,11.2,11.2h31.9c0.4,0,0.9,0.7,0.9,0.9c0,2.8,2.3,5.1,5.1,5.1c2.8,0,5.1-2.3,5.1-5.1c0-0.3,0.5-1,0.9-1H88
	c6.2,0,11.2-5,11.2-11.2V16.5C99.2,10.3,94.2,5.3,88,5.3z M44.9,78.4c-0.3,0-0.6,0-0.9,0H12c-0.5,0-0.9-0.4-0.9-0.9V16.5
	c0-0.5,0.4-0.9,0.9-0.9h31.9c0.5,0,0.9,0.4,0.9,0.9V78.4z M89,77.4c0,0.5-0.4,0.9-0.9,0.9H56.1c-0.3,0-0.6,0-0.9,0V16.5
	c0-0.5,0.4-0.9,0.9-0.9H88c0.5,0,0.9,0.4,0.9,0.9V77.4z"/>
</svg>
