<?xml version="1.0" encoding="utf-8"?>
<!-- Generator: Adobe Illustrator 18.0.0, SVG Export Plug-In . SVG Version: 6.00 Build 0)  -->
<!DOCTYPE svg PUBLIC "-//W3C//DTD SVG 1.1//EN" "http://www.w3.org/Graphics/SVG/1.1/DTD/svg11.dtd">
<svg version="1.1" id="Layer_1" xmlns="http://www.w3.org/2000/svg" xmlns:xlink="http://www.w3.org/1999/xlink" x="0px" y="0px"
	 viewBox="0 0 100 100" enable-background="new 0 0 100 100" xml:space="preserve">
<path fill="#202020" d="M53.4,8.3c0.8-0.9,2.1-0.9,3-0.1l19.8,18.2l8.9,8.2l2.3,2.1c0.9,0.8,0.9,2.1,0.1,3L38.9,92.7
	c-0.8,0.9-2.1,0.9-3,0.1l-2.3-2.1l-8.9-8.2L4.9,64.4c-0.8-0.8-0.9-2.1-0.1-3L53.4,8.3L53.4,8.3z M51,6.1L2.4,59.2
	c-2,2.2-1.8,5.5,0.3,7.5l19.8,18.2l8.9,8.2l2.3,2.1c2.2,2,5.5,1.8,7.5-0.3l48.6-53.1c2-2.2,1.8-5.5-0.3-7.5l-2.3-2.1L78.3,24
	L58.5,5.8C56.4,3.8,53,4,51,6.1L51,6.1z"/>
<g>
	
		<rect x="24.5" y="71.4" transform="matrix(0.6752 -0.7376 0.7376 0.6752 -44.6653 43.2619)" fill="#202020" width="4.6" height="1.9"/>
	<path fill="#202020" d="M32.3,67.7l-1.4-1.3l-0.8-0.7l-1.4-1.3l-0.8-0.7h0l0.7-0.8l0,0l3.1-3.4l-0.3-0.3c-0.9-0.8-2.2-0.7-3,0.1
		l-4.9,5.4l1.9,1.7l0.8,0.7l1.4,1.3l0.8,0.7l1.4,1.3l0.8,0.7l1.9,1.7l2.6-2.8l-1.9-1.7L32.3,67.7z"/>
	<path fill="#202020" d="M26.7,75.4l0.3,0.3c0.9,0.8,2.2,0.7,3-0.1l1.6-1.8L29.8,72L26.7,75.4z"/>
	<path fill="#202020" d="M22.8,65.6l-1.6,1.8c-0.8,0.9-0.7,2.2,0.1,3l0.3,0.3l3.1-3.4L22.8,65.6z"/>
	
		<rect x="22.3" y="69.4" transform="matrix(0.6755 -0.7374 0.7374 0.6755 -43.8803 40.9519)" fill="#202020" width="4.6" height="1.9"/>
	
		<rect x="31.6" y="63.6" transform="matrix(-0.6753 0.7375 -0.7375 -0.6753 104.4225 83.2171)" fill="#202020" width="4.6" height="1.9"/>
	
		<rect x="30.7" y="60.3" transform="matrix(-0.7379 -0.6749 0.6749 -0.7379 12.8374 130.1273)" fill="#202020" width="1.9" height="4.6"/>
	<path fill="#202020" d="M35.7,69.3l1.6-1.8c0.8-0.9,0.7-2.2-0.1-3l-0.3-0.3l-3.1,3.4L35.7,69.3z"/>
</g>
<path fill="#202020" d="M91.9,40.1h-1.1c0.8-2,0.3-4.4-1.3-5.9l-2.3-2.1L78.3,24L58.5,5.8C56.4,3.8,53,4,51,6.1L19.9,40.1h0
	c-2.9,0-5.3,2.4-5.3,5.3v0.5L2.4,59.2c-2,2.2-1.8,5.5,0.3,7.5l11.9,10.9l0,6.7l0,3.1c0,2.9,2.4,5.3,5.3,5.3l11.2,0l0.3,0.3l2.3,2.1
	c2.2,2,5.5,1.8,7.5-0.3l1.9-2.1l48.8,0c2.9,0,5.3-2.4,5.3-5.3l0-3.1l0-12.1l0-26.9C97.2,42.5,94.8,40.1,91.9,40.1z M91.9,43.3
	c1.2,0,2.1,0.9,2.1,2.1l0,26.9l0,1.1l-33.2,0l27.6-30.1L91.9,43.3z M19.9,89.6c-1.2,0-2.1-0.9-2.1-2.1l0-3.1l0-0.9l3.2,0l1.6,1.5
	l5.1,4.7L19.9,89.6z M35.9,92.8L35.9,92.8l-2.3-2.1l-1.2-1.1l-6.7-6.1l-1-0.9l-6.9-6.3l-2.1-1.9l-1.1-1l-9.7-8.9
	c-0.8-0.8-0.9-2.1-0.1-3l9.9-10.8l3.2-3.5l3.5-3.9l2.9-3.2L53.4,8.3c0.8-0.9,2.1-0.9,3-0.1l19.8,18.2l8.9,8.2l2.3,2.1
	c0.9,0.8,0.9,2.1,0.1,3L87,40.1l-2.9,3.2L56.5,73.4l-9.2,10l-5.6,6.1l-2.8,3.1c0,0-0.1,0.1-0.1,0.1C38,93.5,36.7,93.5,35.9,92.8z
	 M94,84.4l0,3.1c0,1.2-0.9,2.1-2.1,2.1l-45.9,0l5.6-6.1l42.4,0V84.4z"/>
</svg>
