<?xml version="1.0" encoding="utf-8"?>
<!-- Generator: Adobe Illustrator 18.0.0, SVG Export Plug-In . SVG Version: 6.00 Build 0)  -->
<!DOCTYPE svg PUBLIC "-//W3C//DTD SVG 1.1//EN" "http://www.w3.org/Graphics/SVG/1.1/DTD/svg11.dtd">
<svg version="1.1" id="Layer_1" xmlns="http://www.w3.org/2000/svg" xmlns:xlink="http://www.w3.org/1999/xlink" x="0px" y="0px"
	 viewBox="0 0 100 100" enable-background="new 0 0 100 100" xml:space="preserve">
<g>
	<path fill="#231F20" d="M29.3,70.7c0.8,0.8,1.8,1.2,2.8,1.2c1,0,2-0.4,2.8-1.2L69.6,36c1.6-1.6,1.6-4.1,0-5.6
		c-1.6-1.6-4.1-1.6-5.6,0L29.3,65.1C27.8,66.6,27.8,69.1,29.3,70.7z"/>
	<path fill="#231F20" d="M91.2,10L90,8.9c-8.3-8.3-21.8-8.3-30.1,0l-9.9,9.9c-4.4,4.4-6.7,10.6-6.1,16.9c0.2,2.2,2.1,3.8,4.3,3.6
		c2.2-0.2,3.8-2.1,3.6-4.3c-0.3-3.9,1-7.8,3.8-10.6l9.9-9.9c5.2-5.2,13.7-5.2,18.9,0l1.1,1.1c5.2,5.2,5.2,13.7,0,18.9l-9.9,9.9
		c-2.8,2.8-6.6,4.2-10.6,3.8C63,48,61,49.5,60.8,51.7c-0.2,2.2,1.4,4.1,3.6,4.3c0.7,0.1,1.3,0.1,1.9,0.1c5.6,0,11-2.2,14.9-6.2
		l9.9-9.9C99.4,31.8,99.5,18.3,91.2,10z"/>
	<path fill="#231F20" d="M51.7,60.8c-2.2,0.2-3.8,2.1-3.6,4.3c0.4,3.9-1,7.8-3.8,10.5l-9.9,9.9c-5.2,5.2-13.7,5.2-18.9,0l-1.1-1.1
		c-2.5-2.5-3.9-5.9-3.9-9.4c0-3.6,1.4-6.9,3.9-9.4l9.9-9.9c2.8-2.8,6.6-4.1,10.6-3.8c2.2,0.2,4.1-1.4,4.3-3.6
		c0.2-2.2-1.4-4.1-3.6-4.3c-6.3-0.5-12.5,1.7-16.9,6.1l-9.9,9.9c-4,4-6.2,9.4-6.2,15.1c0,5.7,2.2,11,6.2,15l1.1,1.1
		c4.2,4.1,9.6,6.2,15.1,6.2s10.9-2.1,15-6.2l9.9-9.9c4.4-4.4,6.6-10.6,6.1-16.9C55.8,62.2,53.9,60.6,51.7,60.8z"/>
</g>
</svg>
