<?xml version="1.0" encoding="utf-8"?>
<!-- Generator: Adobe Illustrator 18.0.0, SVG Export Plug-In . SVG Version: 6.00 Build 0)  -->
<!DOCTYPE svg PUBLIC "-//W3C//DTD SVG 1.1//EN" "http://www.w3.org/Graphics/SVG/1.1/DTD/svg11.dtd">
<svg version="1.1" id="Layer_1" xmlns="http://www.w3.org/2000/svg" xmlns:xlink="http://www.w3.org/1999/xlink" x="0px" y="0px"
	 viewBox="0 0 100 100" enable-background="new 0 0 100 100" xml:space="preserve">
<g>
	<path fill="#231F20" d="M38.9,23.7c0,3.5-2.8,6.3-6.3,6.3H12.4L38.9,3.5V23.7z"/>
	<path fill="#231F20" d="M81.2,3.5H41.6v19.4c0,6-3.1,9.3-9.2,9.3H12.1v57.2c0,3.8,3.8,7.1,7.7,7.1h61.4c3.9,0,6.7-3.3,6.7-7.1V10.5
		C87.9,6.7,85.1,3.5,81.2,3.5z M50.5,20.8h25.7v4.7H50.5V20.8z M50.5,31.8h25.7v4.7H50.5V31.8z M23.1,54.4h53.1v4.2H23.1V54.4z
		 M76.4,82.7H23.3v-4.9h53.1V82.7z M76.4,70.6H23.3v-4.4h53.1V70.6z M76.4,47.4H23.3V43h53.1V47.4z"/>
</g>
</svg>
