<?xml version="1.0" encoding="utf-8"?>
<!-- Generator: Adobe Illustrator 18.0.0, SVG Export Plug-In . SVG Version: 6.00 Build 0)  -->
<!DOCTYPE svg PUBLIC "-//W3C//DTD SVG 1.1//EN" "http://www.w3.org/Graphics/SVG/1.1/DTD/svg11.dtd">
<svg version="1.1" id="Layer_1" xmlns="http://www.w3.org/2000/svg" xmlns:xlink="http://www.w3.org/1999/xlink" x="0px" y="0px"
	 viewBox="0 0 100 100" enable-background="new 0 0 100 100" xml:space="preserve">
<path fill="#231F20" d="M50,3.9C24.5,3.9,3.9,24.5,3.9,50S24.5,96.1,50,96.1S96.1,75.5,96.1,50S75.5,3.9,50,3.9z M50,89.2
	c-21.7,0-39.2-17.6-39.2-39.2S28.3,10.8,50,10.8S89.2,28.3,89.2,50S71.7,89.2,50,89.2z M50,13.4c-20.2,0-36.6,16.4-36.6,36.6
	c0,20.2,16.4,36.6,36.6,36.6S86.6,70.2,86.6,50C86.6,29.8,70.2,13.4,50,13.4z M68.3,77.6c0-0.1-0.1-0.2-0.1-0.3
	c-0.6-1-1.8-1.3-2.8-0.7c-1,0.6-1.3,1.8-0.7,2.8c0.1,0.1,0.1,0.2,0.2,0.2c-3.5,1.7-7.3,2.9-11.3,3.3c0-0.1,0-0.1,0-0.2
	c0-1.9-1.6-3.5-3.5-3.5s-3.5,1.6-3.5,3.5c0,0.1,0,0.1,0,0.2c-4-0.4-7.8-1.6-11.3-3.3c0.1-0.1,0.1-0.2,0.2-0.2c0.6-1,0.2-2.2-0.7-2.8
	c-1-0.6-2.2-0.2-2.8,0.7c-0.1,0.1-0.1,0.2-0.1,0.3c-3.7-2.5-6.9-5.6-9.4-9.3c0.1,0,0.2-0.1,0.3-0.1c1-0.6,1.3-1.8,0.7-2.8
	c-0.6-1-1.8-1.3-2.8-0.7c-0.1,0.1-0.2,0.1-0.2,0.2c-1.7-3.5-2.9-7.3-3.3-11.3c0.1,0,0.1,0,0.2,0c1.9,0,3.5-1.6,3.5-3.5
	s-1.6-3.5-3.5-3.5c-0.1,0-0.1,0-0.2,0c0.4-4,1.6-7.8,3.3-11.3c0.1,0.1,0.2,0.1,0.2,0.2c1,0.6,2.2,0.2,2.8-0.7c0.6-1,0.2-2.2-0.7-2.8
	c-0.1-0.1-0.2-0.1-0.3-0.1c2.5-3.7,5.6-6.9,9.4-9.3c0,0.1,0.1,0.2,0.1,0.3c0.6,1,1.8,1.3,2.8,0.7c1-0.6,1.3-1.8,0.7-2.8
	c-0.1-0.1-0.1-0.2-0.2-0.2c3.5-1.7,7.3-2.9,11.3-3.3c0,0.1,0,0.1,0,0.2c0,1.9,1.6,3.5,3.5,3.5s3.5-1.6,3.5-3.5c0-0.1,0-0.1,0-0.2
	c4,0.4,7.8,1.6,11.3,3.3c-0.1,0.1-0.1,0.2-0.2,0.2c-0.6,1-0.2,2.2,0.7,2.8c1,0.6,2.2,0.2,2.8-0.7c0.1-0.1,0.1-0.2,0.1-0.3
	c3.7,2.5,6.9,5.6,9.4,9.4c-0.1,0-0.2,0.1-0.3,0.1c-1,0.6-1.3,1.8-0.7,2.8c0.6,1,1.8,1.3,2.8,0.7c0.1-0.1,0.2-0.1,0.2-0.2
	c1.7,3.5,2.9,7.3,3.3,11.3c-0.1,0-0.1,0-0.2,0c-1.9,0-3.5,1.6-3.5,3.5s1.6,3.5,3.5,3.5c0.1,0,0.1,0,0.2,0c-0.4,4-1.6,7.8-3.3,11.3
	c-0.1-0.1-0.2-0.1-0.2-0.2c-1-0.6-2.2-0.2-2.8,0.7c-0.6,1-0.2,2.2,0.7,2.8c0.1,0.1,0.2,0.1,0.3,0.1C75.1,72,72,75.1,68.3,77.6z
	 M47.3,43.3C47.3,43.2,47.3,43.2,47.3,43.3l0-15.6c0-1.6,1.2-2.8,2.7-2.8s2.7,1.3,2.7,2.8v15.5c0,0,0,0.1,0,0.1
	c-0.8-0.3-1.8-0.5-2.7-0.5S48.1,42.9,47.3,43.3z M43.3,47.3c-0.3,0.8-0.5,1.8-0.5,2.7s0.2,1.9,0.5,2.7H31.8c-1.5,0-2.8-1.2-2.8-2.7
	s1.3-2.7,2.8-2.7H43.3z M54.7,50c0,2.6-2.1,4.7-4.7,4.7s-4.7-2.1-4.7-4.7c0-2.6,2.1-4.7,4.7-4.7S54.7,47.4,54.7,50z"/>
</svg>
