<?xml version="1.0" encoding="utf-8"?>
<!-- Generator: Adobe Illustrator 18.0.0, SVG Export Plug-In . SVG Version: 6.00 Build 0)  -->
<!DOCTYPE svg PUBLIC "-//W3C//DTD SVG 1.1//EN" "http://www.w3.org/Graphics/SVG/1.1/DTD/svg11.dtd">
<svg version="1.1" id="Layer_1" xmlns="http://www.w3.org/2000/svg" xmlns:xlink="http://www.w3.org/1999/xlink" x="0px" y="0px"
	 viewBox="0 0 100 100" enable-background="new 0 0 100 100" xml:space="preserve">
<g>
	<path fill="#231F20" d="M50,16c-2.3,0-4,1.9-4,4.1v28.2L34.6,59.6c-1.6,1.6-1.7,4.2,0,5.9c0.8,0.8,1.9,1.2,2.9,1.2
		c1.1,0,2.1-0.4,2.9-1.2l12-12c0.1-0.1,0.1-0.2,0.1-0.3c0.9-0.8,1.4-1.9,1.4-3.2V20.1C54,17.8,52.3,16,50,16z"/>
	<path fill="#231F20" d="M98,50C98,50,98,50,98,50C98,23.3,76.7,1.7,50,1.7C23.4,1.7,2,23.3,2,50c0,0,0,0,0,0v0c0,0,0,0,0,0
		c0,26.7,21.4,48.3,48,48.3C76.7,98.3,98,76.7,98,50C98,50,98,50,98,50L98,50z M71.8,83.6l-1.1-2c-0.6-1-1.9-1.3-2.8-0.7
		c-1,0.6-1.3,1.8-0.8,2.8l1.1,2c-4.4,2.3-9.3,3.7-14.4,4.2c-0.6-1.5-2.1-2.5-3.8-2.5c-1.7,0-3.2,1-3.8,2.5c-5.1-0.5-10-2-14.4-4.2
		l1.1-2c0.6-1,0.2-2.3-0.8-2.8c-1-0.6-2.3-0.2-2.8,0.8l-1.1,2c-4.7-3.1-8.7-7.1-11.8-11.8l2-1.1c1-0.6,1.3-1.8,0.8-2.8
		c-0.6-1-1.8-1.3-2.8-0.8l-2,1.1c-2.3-4.4-3.7-9.3-4.2-14.4c1.5-0.6,2.5-2.1,2.5-3.8c0-1.7-1-3.2-2.5-3.8c0.5-5.1,2-10,4.2-14.4
		l2,1.1c0.3,0.2,0.7,0.3,1,0.3c0.7,0,1.4-0.4,1.8-1c0.6-1,0.2-2.3-0.8-2.8l-2-1.1c3.1-4.7,7.1-8.7,11.8-11.8l1.1,2
		c0.4,0.7,1.1,1,1.8,1c0.4,0,0.7-0.1,1-0.3c1-0.6,1.3-1.8,0.8-2.8l-1.1-2c4.4-2.3,9.2-3.7,14.4-4.2c0.6,1.5,2.1,2.5,3.8,2.5
		c1.7,0,3.2-1,3.8-2.5c5.1,0.5,10,2,14.4,4.2l-1.1,2c-0.6,1-0.2,2.3,0.8,2.8c0.3,0.2,0.7,0.3,1,0.3c0.7,0,1.4-0.4,1.8-1l1.1-2
		c4.7,3.1,8.7,7.1,11.8,11.8l-2,1.1c-1,0.6-1.3,1.8-0.8,2.8c0.4,0.7,1.1,1,1.8,1c0.4,0,0.7-0.1,1-0.3l2-1.1
		c2.2,4.4,3.7,9.2,4.2,14.4c-1.5,0.6-2.5,2.1-2.5,3.8c0,1.7,1,3.2,2.5,3.8c-0.5,5.1-2,10-4.2,14.4l-2-1.1c-1-0.6-2.3-0.2-2.8,0.8
		c-0.6,1-0.2,2.3,0.8,2.8l2,1.1C80.5,76.5,76.5,80.5,71.8,83.6z"/>
</g>
</svg>
