<?xml version="1.0" encoding="utf-8"?>
<!-- Generator: Adobe Illustrator 18.0.0, SVG Export Plug-In . SVG Version: 6.00 Build 0)  -->
<!DOCTYPE svg PUBLIC "-//W3C//DTD SVG 1.1//EN" "http://www.w3.org/Graphics/SVG/1.1/DTD/svg11.dtd">
<svg version="1.1" id="Layer_1" xmlns="http://www.w3.org/2000/svg" xmlns:xlink="http://www.w3.org/1999/xlink" x="0px" y="0px"
	 viewBox="0 0 100 100" enable-background="new 0 0 100 100" xml:space="preserve">
<g id="XMLID_826_">
	<polygon id="XMLID_834_" fill="#231F20" points="74.9,60.9 57.4,44.9 57.4,91.7 69.5,79.7 74.9,90.2 78.2,96.5 84.6,93.2 76.2,77 
		92.4,77 	"/>
	<path id="XMLID_827_" fill="#231F20" d="M93.7,43.2c-0.1-0.7-0.2-1.4-0.3-2.1c-0.1-0.5-0.1-1-0.2-1.5c0,0,0,0,0,0
		c-2.1-11.7-8.8-21.8-18.3-28.3c-5-3.5-10.8-5.9-17.1-7.1c0,0,0,0,0,0c-0.6-0.1-1.2-0.2-1.7-0.2c-0.6-0.1-1.3-0.2-1.9-0.3
		c-1.4-0.1-2.8-0.2-4.2-0.2h0c-1.4,0-2.8,0.1-4.2,0.2c-0.6,0.1-1.3,0.2-1.9,0.3c-0.6,0.1-1.2,0.1-1.7,0.2c0,0,0,0,0,0
		C36,5.3,30.3,7.7,25.3,11.1C15.8,17.6,8.9,27.8,6.8,39.6c0,0,0,0,0,0c-0.1,0.5-0.1,1.1-0.2,1.6c-0.1,0.7-0.2,1.3-0.3,2
		c-0.1,1.4-0.2,2.8-0.2,4.2c0,1.4,0.1,2.8,0.2,4.1c0.1,0.7,0.2,1.4,0.3,2.1c0.1,0.5,0.1,1,0.2,1.5c0,0,0,0,0,0
		C8.9,67,15.8,77.2,25.3,83.7c5,3.4,10.7,5.8,16.9,6.9c0,0,0,0,0,0c0.5,0.1,1.1,0.1,1.6,0.2c0.7,0.1,1.3,0.2,2,0.3
		c1.4,0.1,2.7,0.2,4.1,0.2h0c0,0,0.1,0,0.1,0v-0.4v-9.8c0,0-0.1,0-0.1,0h0c-2,0-3.9-0.2-5.7-0.5c-1.4-4.4-2.8-10.2-3.6-17.4
		c3,0.2,6.1,0.3,9.3,0.3h0c0,0,0.1,0,0.1,0v-5.8c0,0-0.1,0-0.1,0h0c-3.5,0-6.8-0.1-9.9-0.3c-0.2-3.1-0.3-6.4-0.3-9.9
		c0-3.5,0.1-6.8,0.3-9.9c3.1-0.2,6.4-0.3,9.9-0.3h0c3.5,0,6.8,0.1,9.9,0.3c0,0.2,0,0.3,0,0.5c0.9,0.3,1.7,0.8,2.5,1.5l3.6,3.3
		c0-1.6-0.1-3.2-0.2-4.8c3.4,0.4,6.4,0.9,9.2,1.4c3.1,0.6,5.9,1.4,8.2,2.1c0.3,1.9,0.5,3.8,0.5,5.7c0,2-0.2,3.9-0.5,5.7
		c-1.4,0.5-2.9,0.9-4.5,1.3l3.4,3.2l8.1,7.4c1.4-3.1,2.3-6.4,3-9.8c0,0,0,0,0,0c0.1-0.6,0.2-1.1,0.2-1.7c0.1-0.6,0.2-1.2,0.3-1.8
		c0.1-1.4,0.2-2.8,0.2-4.3C93.9,46,93.8,44.6,93.7,43.2z M16.8,53.2c-0.3-1.9-0.5-3.8-0.5-5.8c0-2,0.2-3.9,0.5-5.7
		c2.4-0.8,5.2-1.5,8.4-2.2c2.7-0.5,5.7-1,9-1.4c-0.2,3-0.3,6.1-0.3,9.3c0,3.2,0.1,6.3,0.3,9.3c-3.3-0.4-6.3-0.9-9-1.4
		C22.1,54.7,19.2,53.9,16.8,53.2z M25.3,70.2c-2.8-3-5-6.5-6.6-10.4c2.1,0.5,4.2,1,6.6,1.5c3,0.6,6.1,1,9.5,1.4
		c0.6,5.9,1.6,11.3,2.8,16C32.9,76.8,28.7,73.9,25.3,70.2z M34.7,32.1c-3.3,0.3-6.5,0.8-9.5,1.4c-2.3,0.4-4.5,0.9-6.6,1.5
		c1.5-3.9,3.8-7.4,6.6-10.4c3.4-3.7,7.6-6.6,12.3-8.5C36.3,20.8,35.4,26.2,34.7,32.1z M50,31.3L50,31.3c-3.2,0-6.3,0.1-9.3,0.3
		c0.8-7.2,2.1-13,3.6-17.4c1.9-0.3,3.8-0.5,5.7-0.5h0c2,0,3.9,0.2,5.7,0.5c1.4,4.4,2.8,10.2,3.6,17.4C56.3,31.4,53.2,31.3,50,31.3z
		 M74.9,33.5c-3-0.6-6.3-1.1-9.7-1.4c-0.6-5.9-1.6-11.3-2.8-16c4.8,1.9,9.1,4.9,12.5,8.7c2.7,3,4.9,6.4,6.4,10.2
		C79.3,34.4,77.2,34,74.9,33.5z"/>
</g>
</svg>
