<?xml version="1.0" encoding="utf-8"?>
<!-- Generator: Adobe Illustrator 18.0.0, SVG Export Plug-In . SVG Version: 6.00 Build 0)  -->
<!DOCTYPE svg PUBLIC "-//W3C//DTD SVG 1.1//EN" "http://www.w3.org/Graphics/SVG/1.1/DTD/svg11.dtd">
<svg version="1.1" id="Layer_1" xmlns="http://www.w3.org/2000/svg" xmlns:xlink="http://www.w3.org/1999/xlink" x="0px" y="0px"
	 viewBox="0 0 100 100" enable-background="new 0 0 100 100" xml:space="preserve">
<path fill="#231F20" d="M34.6,70L7.5,85.5c-0.2-0.4-0.5-0.7-0.7-1.1l-1.5-2.6c-0.3-0.5-0.4-1-0.3-1.5c0-0.9,0.5-1.7,1.3-2.2
	l22.6-12.9c0.8-0.5,1.8-0.5,2.5,0c0.4,0.2,0.8,0.6,1.1,1l1.5,2.6C34.2,69.3,34.4,69.6,34.6,70z M66.2,36l2.4,1.8
	c0.3,0.2,0.7,0.5,1,0.7l18.5-25.2c-0.3-0.3-0.7-0.5-1-0.8l-2.4-1.8c-0.4-0.3-0.9-0.5-1.4-0.5c-0.9,0-1.8,0.3-2.3,1.1l-15.3,21
	C65.1,33,65,34,65.3,34.8C65.5,35.2,65.8,35.7,66.2,36z M95.4,31.9c-2.5,9.3-13.4,24.2-29,38.2C52.2,82.9,37.6,91.5,27.9,94.1
	c-1.9,0.7-4,1-6.1,0.8c-0.5,0-1-0.1-1.4-0.2c-2-0.4-4.1-1.2-6-2.3C12.1,91,9.9,89,8.2,86.5l26.9-15.4c0.3,0.7,0.6,1.4,0.8,2.2
	c3.3,3.4,14-1.1,24.2-10.2c10.2-9.1,15.8-19.4,12.7-23l0,0c-0.7-0.3-1.4-0.7-2.1-1.1l18.4-25c2.2,2,4,4.4,5.1,6.9
	c0.9,1.9,1.4,3.9,1.6,5.8C96.1,28.2,95.9,29.9,95.4,31.9C95.4,31.9,95.4,31.9,95.4,31.9z M75.2,49.1c1.6-2.8,2.4-5.3,2.6-7.4
	c-1-0.2-2-0.4-3-0.8c1.1,2.2,0.4,5.6-1.9,9.7c-2.5,4.5-6.6,9.4-11.6,13.9c-7.1,6.3-14.7,10.7-20,11.5c-0.6,0.1-1.1,0.1-1.6,0.1
	c-1.3,0-2.4-0.3-3.3-0.8l0,0c0.2,1,0.4,2,0.4,3c0.1,0,0.2,0,0.3,0c0.6,0,1.1,0,1.8-0.1C45,77.3,53.8,72.3,61.9,65
	C67.6,59.9,72.3,54.2,75.2,49.1z M34.1,51.1c-0.9,0-1.6-0.3-2.1-0.9c-1-1.1-1.2-2.9-1.1-3.8c0.3-5.3,3.2-10,7.8-12.6
	c2.4-1.4,5.2-2.2,8-2.2c0.3,0,0.6,0,0.9,0c0.9,0,2.6,0.6,3.5,1.6c0.5,0.6,0.8,1.3,0.7,2.1c-0.1,0.4-0.3,0.8-0.6,1.1
	c-0.8,0.6-2.1,0.7-2.4,0.7c-0.2,0-0.4,0-0.6,0c-0.5-0.1-0.9-0.1-1.4-0.1c-1.9,0-3.6,0.5-5.3,1.4c-3.5,2-5.5,6-5.2,10
	c0,0.6-0.4,1.5-0.9,2.1C34.9,50.9,34.5,51.1,34.1,51.1L34.1,51.1z M20.7,51c-0.1,0-0.1,0-0.2,0l-0.1,0c-0.8-0.1-1.5-0.4-2.1-1.1
	c-0.5-0.5-0.8-1.2-0.8-1.9l0,0l0-0.2c0-0.2,0-0.8,0.1-1.8c0.8-9.8,6.3-18.6,14.8-23.5c4.6-2.7,9.8-4.1,15.1-4.1c0.5,0,1,0,1.5,0
	l1.7,0.1l0,0c0.4,0.1,1,0.4,1.4,0.9c0.6,0.6,0.9,1.5,0.9,2.3l0,0.2c0,0.7-0.3,1.3-0.8,1.7c-0.3,0.2-0.6,0.3-1,0.3
	c-0.1,0-0.2,0-0.4,0l-1.8-0.1c-0.5,0-1.1-0.1-1.6-0.1c-4.4,0-8.7,1.2-12.5,3.4c-7.2,4.2-11.8,11.8-12.2,20.2l-0.1,1.6
	c0.1,0.7-0.1,1.2-0.5,1.6C21.9,50.8,21.3,51,20.7,51z M7.1,50.8c-0.1,0-0.1,0-0.2,0c-0.8-0.1-1.5-0.4-2-1c-0.5-0.5-0.8-1.2-0.8-1.9
	v0l0-0.1c0-0.1,0-0.6,0.1-1.8C5.4,31.5,13.5,18.4,26,11.1c6.8-4,14.5-6.1,22.3-6.1c0.7,0,1.4,0,2.1,0.1l1.6,0.1
	c0.5,0.1,1,0.4,1.4,0.8c0.5,0.6,0.8,1.4,0.8,2.2c0,0.9-0.3,1.6-0.8,2c-0.3,0.2-0.6,0.3-0.9,0.3c-0.1,0-0.1,0-0.2,0l-1.5-0.1
	c-0.8-0.1-1.7-0.1-2.5-0.1c-6.9,0-13.7,1.8-19.6,5.3c-11.1,6.5-18.3,18.1-19.2,31l-0.1,1.7c0,0.7-0.2,1.3-0.7,1.8
	C8.3,50.6,7.7,50.8,7.1,50.8z"/>
</svg>
