<?xml version="1.0" encoding="utf-8"?>
<!-- Generator: Adobe Illustrator 18.0.0, SVG Export Plug-In . SVG Version: 6.00 Build 0)  -->
<!DOCTYPE svg PUBLIC "-//W3C//DTD SVG 1.1//EN" "http://www.w3.org/Graphics/SVG/1.1/DTD/svg11.dtd">
<svg version="1.1" id="Layer_1" xmlns="http://www.w3.org/2000/svg" xmlns:xlink="http://www.w3.org/1999/xlink" x="0px" y="0px"
	 viewBox="0 0 100 100" enable-background="new 0 0 100 100" xml:space="preserve">
<g>
	<path fill="#231F20" d="M83.2,66.6v-0.9h0.7c0.5,0,0.6,0.1,0.6,0.4c0,0.3-0.1,0.5-0.7,0.5 M83.7,67.2c0.2,0,0.4,0,0.5,0.2
		c0.2,0.2,0.2,0.5,0.2,0.8c0,0.2,0.1,0.5,0.1,0.7h0.7c-0.1-0.3-0.2-0.7-0.2-1.1C85,67.3,85,67.1,84.4,67v0c0.5-0.1,0.8-0.4,0.8-0.9
		c0-0.8-0.7-1-1.4-1h-1.2v3.7h0.6v-1.6H83.7z M83.9,70.2c1.7,0,3.1-1.4,3.1-3.1c0-1.7-1.4-3.1-3.1-3.1c-1.7,0-3.1,1.4-3.1,3.1
		C80.7,68.8,82.1,70.2,83.9,70.2z M83.9,69.6c-1.4,0-2.6-1.2-2.6-2.6c0-1.4,1.2-2.6,2.6-2.6c1.4,0,2.6,1.2,2.6,2.6
		C86.4,68.4,85.3,69.6,83.9,69.6z"/>
	<path fill="#231F20" d="M78.6,38.5h-5v5h5c1.2,0,2.2,1,2.2,2.2c0,1.2-1,2.2-2.2,2.2h-5v5h5c4,0,7.2-3.2,7.2-7.2
		C85.8,41.7,82.5,38.5,78.6,38.5 M49.8,65.1c6,0,11.2-3.5,13.7-8.6h6.4v8.6h3.6v-8.6h5c6,0,10.8-4.8,10.8-10.8
		c0-6-4.8-10.8-10.8-10.8h-8.6v13h-5.1c-1-7.3-7.3-13-15-13H32.1L14.5,65.1h4.2l5-8.6h18.1v8.6H49.8z M94.4,45.7
		c0,8.7-7.1,15.8-15.8,15.8v8.6H64.9v-6.7c-3.7,4.1-9.1,6.7-15,6.7h-13v-8.6H26.6l-5,8.6h-16l23.5-40.3h20.7c6,0,11.3,2.6,15,6.7
		v-6.7h13.7C87.3,29.8,94.4,36.9,94.4,45.7z M36.8,38.5v9.4h-8l-2.9,5h16V38.5H36.8z M61.4,50c0,6.4-5.2,11.5-11.5,11.5h-4.4v-5h4.4
		c3.6,0,6.5-2.9,6.5-6.5c0-3.6-2.9-6.5-6.5-6.5h-4.4v-5h4.4C56.2,38.5,61.4,43.6,61.4,50z"/>
</g>
</svg>
