<?xml version="1.0" encoding="utf-8"?>
<!-- Generator: Adobe Illustrator 18.0.0, SVG Export Plug-In . SVG Version: 6.00 Build 0)  -->
<!DOCTYPE svg PUBLIC "-//W3C//DTD SVG 1.1//EN" "http://www.w3.org/Graphics/SVG/1.1/DTD/svg11.dtd">
<svg version="1.1" id="Layer_1" xmlns="http://www.w3.org/2000/svg" xmlns:xlink="http://www.w3.org/1999/xlink" x="0px" y="0px"
	 viewBox="0 0 100 100" enable-background="new 0 0 100 100" xml:space="preserve">
<g>
	<path id="XMLID_392_" fill="#231F20" d="M40,45c-0.7,0-1.2,0.3-1.6,0.8c-0.2,0.3-0.4,0.8-0.4,1.3l3.9,0c0-0.5-0.1-1-0.4-1.3
		C41.2,45.3,40.8,45,40,45z"/>
	<path id="XMLID_391_" fill="#231F20" d="M84,45c-0.7,0-1.2,0.3-1.6,0.8c-0.2,0.3-0.4,0.8-0.4,1.3l3.9,0c0-0.5-0.1-1-0.4-1.3
		C85.2,45.3,84.7,45,84,45z"/>
	<path id="XMLID_390_" fill="#231F20" d="M62.1,45c-0.7,0-1.2,0.2-1.6,0.8C60.2,46.3,60,47,60,48c0,0.9,0.2,1.7,0.5,2.2
		c0.3,0.5,0.9,0.8,1.6,0.8c0.7,0,1.2-0.3,1.6-0.8c0.3-0.5,0.5-1.3,0.5-2.2c0-0.9-0.2-1.7-0.5-2.2C63.4,45.3,62.8,45,62.1,45z"/>
	<path id="XMLID_389_" fill="#231F20" d="M26.2,48.6c-0.3,0.2-0.5,0.6-0.5,1.1c0,0.3,0.1,0.5,0.2,0.7c0.1,0.1,0.1,0.2,0.3,0.3
		c0,0,0.5,0.4,1.6,0.3c0.8,0,1.5-0.2,1.5-0.2v-2.5c0,0-0.7-0.1-1.5-0.1C26.7,48.2,26.2,48.6,26.2,48.6z"/>
	<path fill="#231F20" d="M76.9,25.8c-2.9,0-5.7,0.6-8.3,1.8c-2.9-5.2-8.4-8.7-14.6-8.7c-4.7,0-9,2-12,5.2c-3.4-4.4-8.7-7.2-14.6-7.2
		c-10.2,0-18.4,8.2-18.4,18.4c0,2.6,0.5,5.1,1.5,7.3c-4.7,2.8-7.9,7.9-7.9,13.8c0,8.8,7.1,16,15.8,16c1.1,0,2.2-0.1,3.2-0.3
		c2.4,6.5,8.6,11.1,16,11.1c7,0,13.1-4.3,15.7-10.4c2,1,4.2,1.5,6.5,1.5c5.6,0,10.5-3.1,13-7.6c1.3,0.3,2.6,0.4,4,0.4
		c11.3,0,20.4-9.2,20.4-20.6C97.3,35.1,88.2,25.8,76.9,25.8z M22.9,49.7c0,1.7-1.2,2.7-3.1,2.7c-1,0-1.9-0.1-2.8-0.7
		c-0.2-0.1-0.4-0.2-0.5-0.3c0,0-0.1-0.1,0-0.2l0.4-1.1C16.8,50,17,50,17,50.1c0.1,0.1,0.2,0.1,0.3,0.2c1.1,0.7,2.2,0.7,2.5,0.7
		c0.8,0,1.4-0.4,1.4-1v0c0-0.7-0.8-0.9-1.7-1.2l-0.2-0.1c-1.3-0.4-2.7-0.9-2.7-2.5v0c0-1.5,1.2-2.6,3-2.6l0.2,0c1,0,2.1,0.3,2.8,0.7
		c0.1,0,0.1,0.1,0.1,0.2c0,0.1-0.4,1-0.4,1.1c-0.1,0.2-0.3,0.1-0.3,0.1c-0.6-0.4-1.6-0.6-2.5-0.6c-0.8,0-1.2,0.4-1.2,0.9v0
		c0,0.6,0.8,0.9,1.8,1.2l0.2,0.1C21.6,47.6,22.9,48.2,22.9,49.7L22.9,49.7z M30.9,51.9c0,0-0.2,0.1-0.4,0.1c-0.2,0-0.8,0.2-1.4,0.3
		c-0.5,0.1-1.1,0.1-1.7,0.1c-0.5,0-1-0.1-1.5-0.1c-0.4-0.1-0.8-0.3-1.1-0.5c-0.3-0.2-0.5-0.5-0.7-0.9c-0.2-0.3-0.3-0.8-0.3-1.3
		c0-0.5,0.1-0.9,0.3-1.3c0.2-0.4,0.5-0.7,0.8-0.9c0.3-0.2,0.7-0.4,1.1-0.5c0.4-0.1,0.9-0.2,1.4-0.2c0.3,0,0.6,0,0.9,0
		c0,0,0.4,0,0.9,0.1v-0.2c0-0.7-0.2-1.1-0.5-1.3C28.5,45.1,28,45,27.5,45c0,0-1.3,0-2.4,0.6c0,0-0.1,0-0.1,0s-0.1,0-0.2-0.1l-0.4-1
		c-0.1-0.2,0.1-0.2,0.1-0.2c0.5-0.4,1.7-0.6,1.7-0.6c0.4-0.1,1.1-0.1,1.5-0.1c1.1,0,1.9,0.3,2.5,0.8c0.6,0.5,0.9,1.3,0.9,2.4l0,5
		C31,51.7,31,51.9,30.9,51.9z M34.6,52.1c0,0.1-0.1,0.2-0.2,0.2H33c-0.1,0-0.2-0.1-0.2-0.2V40.3c0-0.1,0.1-0.2,0.2-0.2h1.5
		c0.1,0,0.2,0.1,0.2,0.2V52.1z M43.7,48.3c0,0.1-0.2,0.1-0.2,0.1l-5.5,0c0,0.8,0.2,1.4,0.6,1.8c0.4,0.4,1,0.6,1.9,0.6
		c1.3,0,1.9-0.3,2.3-0.4c0,0,0.2-0.1,0.2,0.1l0.4,1c0.1,0.2,0,0.2,0,0.3c-0.3,0.2-1.2,0.5-2.8,0.5c-0.8,0-1.4-0.1-2-0.3
		c-0.6-0.2-1-0.5-1.4-0.9c-0.4-0.4-0.6-0.9-0.8-1.4c-0.2-0.5-0.2-1.1-0.2-1.8c0-0.6,0.1-1.2,0.2-1.8c0.2-0.5,0.4-1,0.7-1.4
		c0.3-0.4,0.8-0.7,1.3-1c0.5-0.2,1.1-0.4,1.8-0.4c0.6,0,1.1,0.1,1.6,0.3c0.3,0.1,0.7,0.4,1,0.8c0.2,0.2,0.6,0.8,0.7,1.3
		C43.8,47.2,43.7,48.2,43.7,48.3z M48.2,52.4c-1,0-1.9-0.1-2.8-0.7c-0.2-0.1-0.4-0.2-0.5-0.3c0,0-0.1-0.1,0-0.2l0.4-1.1
		c0.1-0.2,0.2-0.1,0.3-0.1c0.1,0.1,0.2,0.1,0.3,0.2c1.1,0.7,2.2,0.7,2.5,0.7c0.8,0,1.4-0.4,1.4-1v0c0-0.7-0.8-0.9-1.7-1.2l-0.2-0.1
		c-1.3-0.4-2.7-0.9-2.7-2.5v0c0-1.5,1.2-2.6,3-2.6l0.2,0c1,0,2.1,0.3,2.8,0.7c0.1,0,0.1,0.1,0.1,0.2c0,0.1-0.4,1-0.4,1.1
		c-0.1,0.2-0.3,0.1-0.3,0.1C49.8,45.2,48.8,45,48,45c-0.8,0-1.2,0.4-1.2,0.9v0c0,0.6,0.8,0.9,1.8,1.2l0.2,0.1c1.3,0.4,2.6,1,2.6,2.5
		v0C51.4,51.4,50.2,52.4,48.2,52.4z M57.8,45c0,0.2-0.2,0.2-0.2,0.2h-1.8l-1.2,7c-0.1,0.7-0.3,1.3-0.5,1.8c-0.2,0.5-0.4,0.9-0.7,1.2
		c-0.3,0.3-0.6,0.6-1,0.7c-0.4,0.1-0.8,0.2-1.3,0.2c-0.2,0-0.5,0-0.8-0.1C50,56,49.9,56,49.7,55.9c-0.1,0-0.1-0.1-0.1-0.2
		c0-0.1,0.4-1,0.4-1.1c0.1-0.1,0.2-0.1,0.2-0.1c0.1,0,0.2,0.1,0.3,0.1c0.1,0,0.3,0,0.4,0c0.2,0,0.5,0,0.6-0.1
		c0.2-0.1,0.4-0.2,0.5-0.4c0.1-0.2,0.3-0.4,0.4-0.8c0.1-0.3,0.2-0.8,0.3-1.4l1.2-6.9h-1.2c-0.1,0-0.2-0.1-0.2-0.2l0.2-1.1
		c0-0.2,0.2-0.2,0.2-0.2h1.2l0.1-0.4c0.2-1.1,0.6-1.9,1.1-2.5c0.5-0.6,1.3-0.8,2.3-0.8c0.3,0,0.5,0,0.7,0.1c0.2,0,0.4,0.1,0.5,0.1
		c0,0,0.1,0.1,0.1,0.2l-0.4,1.2c0,0.1-0.1,0.1-0.2,0.1c0,0-0.1,0-0.3-0.1c-0.1,0-0.3,0-0.5,0c-0.2,0-0.4,0-0.6,0.1
		c-0.2,0.1-0.3,0.2-0.5,0.3c-0.1,0.1-0.3,0.3-0.4,0.6c-0.2,0.6-0.3,1.2-0.3,1.2h1.8c0.1,0,0.2,0.1,0.2,0.2L57.8,45z M65.8,49.7
		c-0.2,0.5-0.4,1-0.7,1.4c-0.3,0.4-0.7,0.7-1.2,0.9c-0.5,0.2-1.1,0.3-1.7,0.3c-0.7,0-1.2-0.1-1.7-0.3c-0.5-0.2-0.9-0.5-1.2-0.9
		c-0.3-0.4-0.6-0.9-0.7-1.4c-0.2-0.5-0.2-1.1-0.2-1.7c0-0.6,0.1-1.2,0.2-1.7c0.2-0.5,0.4-1,0.7-1.4c0.3-0.4,0.7-0.7,1.2-0.9
		c0.5-0.2,1.1-0.3,1.7-0.3c0.7,0,1.2,0.1,1.7,0.3c0.5,0.2,0.9,0.5,1.2,0.9c0.3,0.4,0.6,0.9,0.7,1.4c0.2,0.5,0.2,1.1,0.2,1.7
		C66.1,48.6,66,49.2,65.8,49.7z M72.6,44c-0.1,0.1-0.3,0.9-0.4,1.2c0,0.1-0.1,0.2-0.2,0.1c0,0-0.3-0.1-0.6-0.1c-0.2,0-0.5,0-0.7,0.1
		c-0.3,0.1-0.5,0.2-0.7,0.4c-0.2,0.2-0.4,0.5-0.5,0.8c-0.1,0.3-0.2,0.9-0.2,1.4v4.1c0,0.1-0.1,0.2-0.2,0.2h-1.4
		c-0.1,0-0.2-0.1-0.2-0.2v-8.2c0-0.1,0.1-0.2,0.2-0.2h1.4c0.1,0,0.2,0.1,0.2,0.2l0,0.7c0.2-0.3,0.6-0.5,0.9-0.7
		c0.3-0.2,0.7-0.3,1.4-0.2c0.4,0,0.8,0.1,0.9,0.2C72.6,43.8,72.7,43.9,72.6,44z M79.5,52c-0.6,0.2-1.5,0.4-2.3,0.4
		c-1.4,0-2.5-0.4-3.2-1.2c-0.7-0.8-1.1-1.9-1.1-3.2c0-0.6,0.1-1.2,0.3-1.7c0.2-0.5,0.4-1,0.8-1.4c0.3-0.4,0.8-0.7,1.3-0.9
		c0.5-0.2,1.1-0.3,1.8-0.3c0.5,0,0.9,0,1.2,0.1c0.4,0.1,0.9,0.2,1.1,0.3c0,0,0.1,0.1,0.1,0.2c-0.2,0.4-0.3,0.7-0.4,1.1
		c-0.1,0.2-0.2,0.1-0.2,0.1c-0.5-0.2-1-0.2-1.7-0.2c-0.8,0-1.4,0.3-1.8,0.8C75,46.4,74.7,47,74.7,48c0,1,0.2,1.8,0.7,2.2
		c0.4,0.5,1.1,0.7,1.9,0.7c0.3,0,0.6,0,0.9-0.1c0.3,0,0.5-0.1,0.8-0.2c0,0,0.2-0.1,0.2,0.1l0.4,1.1C79.6,51.9,79.5,52,79.5,52z
		 M87.6,48.3c0,0.1-0.2,0.1-0.2,0.1l-5.5,0c0,0.8,0.2,1.4,0.6,1.8c0.4,0.4,1,0.6,1.9,0.6c1.3,0,1.9-0.3,2.3-0.4c0,0,0.2-0.1,0.2,0.1
		l0.4,1c0.1,0.2,0,0.2,0,0.3c-0.3,0.2-1.2,0.5-2.8,0.5c-0.8,0-1.4-0.1-2-0.3c-0.6-0.2-1-0.5-1.4-0.9c-0.4-0.4-0.6-0.9-0.8-1.4
		c-0.2-0.5-0.2-1.1-0.2-1.8c0-0.6,0.1-1.2,0.2-1.8c0.2-0.5,0.4-1,0.7-1.4c0.3-0.4,0.8-0.7,1.3-1c0.5-0.2,1.1-0.4,1.8-0.4
		c0.6,0,1.1,0.1,1.6,0.3c0.3,0.1,0.7,0.4,1,0.8c0.2,0.2,0.6,0.8,0.7,1.3C87.8,47.2,87.6,48.2,87.6,48.3z"/>
</g>
</svg>
