<?xml version="1.0" encoding="utf-8"?>
<!-- Generator: Adobe Illustrator 18.0.0, SVG Export Plug-In . SVG Version: 6.00 Build 0)  -->
<!DOCTYPE svg PUBLIC "-//W3C//DTD SVG 1.1//EN" "http://www.w3.org/Graphics/SVG/1.1/DTD/svg11.dtd">
<svg version="1.1" id="Layer_1" xmlns="http://www.w3.org/2000/svg" xmlns:xlink="http://www.w3.org/1999/xlink" x="0px" y="0px"
	 viewBox="0 0 100 100" enable-background="new 0 0 100 100" xml:space="preserve">
<path fill="#202020" d="M45.4,5L12.6,37.7c-2.6,2.6-2.8,6.5-0.2,9.1c2.6,2.6,6.5,2.4,9.1-0.2l21.8-21.8l0,66.1
	c0,3.6,2.9,6.6,6.5,6.6c3.6,0,6.5-2.9,6.5-6.5l0-66.1l21.8,21.8c2.6,2.6,6.5,2.8,9.1,0.2c2.6-2.6,2.4-6.5-0.2-9.1l-33-33
	c0,0-2.2-2.3-4.2-2.3C47.9,2.5,45.4,5,45.4,5L45.4,5z"/>
</svg>
