<?xml version="1.0" encoding="utf-8"?>
<!-- Generator: Adobe Illustrator 18.0.0, SVG Export Plug-In . SVG Version: 6.00 Build 0)  -->
<!DOCTYPE svg PUBLIC "-//W3C//DTD SVG 1.1//EN" "http://www.w3.org/Graphics/SVG/1.1/DTD/svg11.dtd">
<svg version="1.1" id="Layer_1" xmlns="http://www.w3.org/2000/svg" xmlns:xlink="http://www.w3.org/1999/xlink" x="0px" y="0px"
	 viewBox="0 0 100 100" enable-background="new 0 0 100 100" xml:space="preserve">
<path fill="#231F20" d="M21.4,97.5c-1.7,0-3.3-1.2-3.8-2.8L3.8,47.6c-0.3-1-0.2-2.1,0.3-3c0.5-0.9,1.3-1.6,2.3-1.9l23.6-7
	c0.4-0.1,0.7-0.2,1.1-0.2c0.7,0,1.3,0.2,1.9,0.5c0.7,0.4,1.3,1,1.6,1.7l0,0c4.2-4.1,9.8-10.5,12.2-14.6l0,0c1.5-5.4,1-11.6,0.9-12.8
	c-0.2-1.7,0.3-3.4,1.5-4.7c2.7-3,7.9-3.1,8.5-3.1c2,0,4,1,5.6,2.7c3.3,3.6,4.8,10,4.2,17.6c-0.1,0.9-0.2,1.8-0.3,2.8l0,0.3
	c-0.1,0.6-0.2,1.2-0.3,1.9c-0.1,0.8-0.1,1.5-0.1,2.3v0c1.9,0.7,7,1.6,15.1,1.6l1.6,0c7.2,0,13.1,5.8,13.1,13c0,2.8-0.9,5.4-2.5,7.7
	c0.2,0.9,0.2,1.8,0.2,2.7c-0.2,2.9-1.5,5.7-3.7,7.7l0,0.2c-0.2,3.7-2.3,7.2-5.6,9.2l0,0c-0.1,0.3-0.2,0.6-0.3,0.8
	c-1.4,3.8-5.4,5.9-11.2,5.9c-1,0-2-0.1-3.2-0.2c-2.3-0.3-5.9-0.6-10-0.9l-6.2-0.5c-1.9-0.2-3.8-0.3-5.5-0.3c-0.8,0-1.5,0-2.2,0.1
	l2.5,8.6c0.3,1,0.2,2.1-0.3,3c-0.5,0.9-1.3,1.6-2.3,1.9l-23.6,7C22.1,97.4,21.8,97.5,21.4,97.5z M12.4,49.3l11.6,39.4L40.1,84
	l-2.4-8c-0.3-0.4-0.5-0.8-0.6-1.2l-8.5-28.7c-0.1-0.4-0.2-0.9-0.1-1.3l-0.1-0.4l-16.1,4.7L12.4,49.3z M48.4,69
	c1.8,0,3.9,0.1,6.2,0.3l6.3,0.5c4.2,0.4,7.8,0.7,10.2,1c0.8,0.1,1.5,0.1,2.2,0.1c2.7,0,3.7-0.7,3.8-0.8l0,0c0.1-0.4,0.2-0.8,0.3-1.2
	c0.2-1.5,1.2-2.8,2.6-3.3c1.5-0.5,2.5-1.8,2.6-3.3c0-0.3,0-0.5-0.1-0.9c-0.3-1.6,0.5-3.3,1.9-4.1c1.1-0.6,1.8-1.7,1.8-2.9
	c0-0.6-0.1-1.1-0.3-1.7c-0.7-1.5-0.3-3.3,1-4.5c1.1-1,1.7-2.3,1.7-3.8c0-2.8-2.3-5.1-5.1-5.1c-0.2,0-0.8,0-1.7,0
	c-11.6,0-18.6-1.4-21.3-4.2c-1.1-1.1-1.7-2.6-1.7-4.1c0-1.3,0.1-2.7,0.2-4.2c0.1-0.8,0.2-1.4,0.3-2l0.1-0.4c0.1-0.8,0.2-1.6,0.3-2.3
	c0.6-7.1-1.3-11-2.3-11.8c-0.5,0-1.2,0.2-1.8,0.3v0c0.2,2.6,0.4,9.3-1.4,15.2c-0.1,0.2-0.2,0.5-0.3,0.7c-3,5.5-11,14.5-16.7,19.6
	L44,69.2C45.4,69.1,46.9,69,48.4,69z"/>
</svg>
