<?xml version="1.0" encoding="utf-8"?>
<!-- Generator: Adobe Illustrator 18.0.0, SVG Export Plug-In . SVG Version: 6.00 Build 0)  -->
<!DOCTYPE svg PUBLIC "-//W3C//DTD SVG 1.1//EN" "http://www.w3.org/Graphics/SVG/1.1/DTD/svg11.dtd">
<svg version="1.1" id="Layer_1" xmlns="http://www.w3.org/2000/svg" xmlns:xlink="http://www.w3.org/1999/xlink" x="0px" y="0px"
	 viewBox="0 0 100 100" enable-background="new 0 0 100 100" xml:space="preserve">
<path fill="#202020" d="M88.9,0H61.1C56.6,0,52.7,2.5,50,5.7C47.4,2.5,43.6,0,38.9,0H11.1C5,0,0,5,0,11.1v68.5
	c0,6.1,5,11.1,11.1,11.1H37c5.3,0,9.2,4.2,9.3,5.6v0c0,2,1.7,3.7,3.7,3.7c2,0,3.7-1.6,3.7-3.6c0,0,0-0.1,0-0.1
	c0-1.3,4.1-5.6,9.3-5.6h25.9c6.1,0,11.1-5,11.1-11.1V11.1C100,5,95,0,88.9,0z M37,83.3H11.1c-2,0-3.7-1.7-3.7-3.7V11.1
	c0-2,1.7-3.7,3.7-3.7h27.8c4.5,0,9.2,5.5,9.2,7.6c0,1.4,0.1,1.8,0.1,2.9v69.2C45.2,84.9,41.3,83.3,37,83.3z M92.6,79.6
	c0,2-1.7,3.7-3.7,3.7H63c-4.2,0-8.1,1.6-11.1,3.9V18c0-0.9,0-1.8,0-3.2c0-2.1,5.1-7.4,9.2-7.4h27.8c2,0,3.7,1.7,3.7,3.7V79.6z"/>
</svg>
