<?xml version="1.0" encoding="utf-8"?>
<!-- Generator: Adobe Illustrator 18.0.0, SVG Export Plug-In . SVG Version: 6.00 Build 0)  -->
<!DOCTYPE svg PUBLIC "-//W3C//DTD SVG 1.1//EN" "http://www.w3.org/Graphics/SVG/1.1/DTD/svg11.dtd">
<svg version="1.1" id="Layer_1" xmlns="http://www.w3.org/2000/svg" xmlns:xlink="http://www.w3.org/1999/xlink" x="0px" y="0px"
	 viewBox="0 0 100 100" enable-background="new 0 0 100 100" xml:space="preserve">
<g>
	<path fill="#231F20" d="M50,8.2C24.6,8.2,3.9,24.9,3.9,45.4c0,13.1,8.6,25.2,22.4,31.9c-2.2,2.9-5.1,5.2-8.6,6.9
		c-1.6,0.8-2.5,2.6-2.1,4.3c0.3,1.8,1.8,3.1,3.6,3.2c1.1,0.1,2.3,0.1,3.4,0.1c10.1,0,19.2-3.3,25.7-9.3c0.6,0,1.2,0,1.8,0
		c25.4,0,46.1-16.7,46.1-37.2C96.1,24.9,75.4,8.2,50,8.2z M50,74.7c-1,0-2.1-0.1-3.1-0.1c-1.2,0-2.3,0.4-3.1,1.2
		c-3.1,3.2-7.1,5.5-11.7,6.8c0.9-1.1,1.7-2.2,2.4-3.4c0.3-0.5,0.5-1,0.8-1.5l0.2-0.5c0.5-1,0.6-2.2,0.1-3.2c-0.4-1-1.2-1.9-2.3-2.3
		c-13.1-4.9-21.6-15.2-21.6-26.3c0-16.1,17.1-29.3,38.2-29.3c21.1,0,38.2,13.1,38.2,29.3S71.1,74.7,50,74.7z"/>
	<path fill="#231F20" d="M32.3,41c-3.2,0-5.8,2.6-5.8,5.8c0,3.2,2.6,5.8,5.8,5.8c3.2,0,5.8-2.6,5.8-5.8C38,43.6,35.4,41,32.3,41z"/>
	<path fill="#231F20" d="M50,41c-3.2,0-5.8,2.6-5.8,5.8c0,3.2,2.6,5.8,5.8,5.8c3.2,0,5.8-2.6,5.8-5.8C55.8,43.6,53.2,41,50,41z"/>
	<path fill="#231F20" d="M67.7,41c-3.2,0-5.8,2.6-5.8,5.8c0,3.2,2.6,5.8,5.8,5.8c3.2,0,5.8-2.6,5.8-5.8C73.5,43.6,70.9,41,67.7,41z"
		/>
</g>
</svg>
