<?xml version="1.0" encoding="utf-8"?>
<!-- Generator: Adobe Illustrator 18.0.0, SVG Export Plug-In . SVG Version: 6.00 Build 0)  -->
<!DOCTYPE svg PUBLIC "-//W3C//DTD SVG 1.1//EN" "http://www.w3.org/Graphics/SVG/1.1/DTD/svg11.dtd">
<svg version="1.1" id="Layer_1" xmlns="http://www.w3.org/2000/svg" xmlns:xlink="http://www.w3.org/1999/xlink" x="0px" y="0px"
	 viewBox="0 0 100 100" enable-background="new 0 0 100 100" xml:space="preserve">
<path fill="#231f20" d="M74.9,60.4c0,1.2-0.5,2.3-1.3,3.2c-1.7,1.7-4.6,1.8-6.3,0L50,46.3L32.7,63.6c-1.8,1.7-4.6,1.7-6.3,0
	c-0.8-0.8-1.3-2-1.3-3.2c0-1.2,0.5-2.3,1.3-3.2l20.5-20.4c0.8-0.8,2-1.3,3.2-1.3c1.2,0,2.3,0.5,3.2,1.3l20.5,20.4
	C74.5,58.1,74.9,59.2,74.9,60.4z"/>
</svg>
