<?xml version="1.0" encoding="utf-8"?>
<!-- Generator: Adobe Illustrator 18.0.0, SVG Export Plug-In . SVG Version: 6.00 Build 0)  -->
<!DOCTYPE svg PUBLIC "-//W3C//DTD SVG 1.1//EN" "http://www.w3.org/Graphics/SVG/1.1/DTD/svg11.dtd">
<svg version="1.1" id="Layer_1" xmlns="http://www.w3.org/2000/svg" xmlns:xlink="http://www.w3.org/1999/xlink" x="0px" y="0px"
	 viewBox="0 0 100 100" enable-background="new 0 0 100 100" xml:space="preserve">
<path fill="#231F20" d="M91.6,13.6c-1.1-0.9-2.4-1.4-3.8-1.4c-1.8,0-3.5,0.8-4.7,2.2L35.4,72.6L16.6,52.8c-1.1-1.2-2.7-1.9-4.4-1.9
	c-1.6,0-3,0.6-4.2,1.7c-1.2,1.1-1.8,2.6-1.9,4.2c0,1.6,0.6,3.1,1.7,4.3l23.6,24.7c1.1,1.2,2.7,1.9,4.4,1.9c0.1,0,0.2,0,0.2,0
	c1.7-0.1,3.3-0.9,4.4-2.2l52-63.4C94.5,19.6,94.2,15.7,91.6,13.6z"/>
</svg>
