<?xml version="1.0" encoding="utf-8"?>
<!-- Generator: Adobe Illustrator 18.0.0, SVG Export Plug-In . SVG Version: 6.00 Build 0)  -->
<!DOCTYPE svg PUBLIC "-//W3C//DTD SVG 1.1//EN" "http://www.w3.org/Graphics/SVG/1.1/DTD/svg11.dtd">
<svg version="1.1" id="Layer_1" xmlns="http://www.w3.org/2000/svg" xmlns:xlink="http://www.w3.org/1999/xlink" x="0px" y="0px"
	 viewBox="0 0 100 100" enable-background="new 0 0 100 100" xml:space="preserve">
<path fill="#231F20" d="M50,0.7C22.8,0.7,0.7,22.8,0.7,50S22.8,99.3,50,99.3c27.2,0,49.3-22.1,49.3-49.3S77.2,0.7,50,0.7z M50,78
	c-2.4,0-4.3-2-4.3-4.3c0-2.4,1.9-4.3,4.3-4.3c2.4,0,4.3,1.9,4.3,4.3C54.3,76.1,52.4,78,50,78z M60,51.9c-3,2.5-5.6,4.6-5.6,7.9
	c0,2.4-1.9,4.3-4.3,4.3c-2.4,0-4.3-1.9-4.3-4.3c0-5.8,4.2-8.8,8.4-11.8c3.8-2.7,7.4-5.3,7.4-9.9c0-5.9-4.3-9.5-11.4-9.5
	c-10.3,0-11.4,7.3-11.4,10.5c0,1.8-1.5,3.4-3.4,3.4c-1.9,0-3.4-1.5-3.4-3.4C31.8,30.9,37.5,22,50,22c11.9,0,18.2,8.1,18.2,16.2
	C68.2,45.2,63.8,48.8,60,51.9z"/>
</svg>
