<?xml version="1.0" encoding="utf-8"?>
<!-- Generator: Adobe Illustrator 18.0.0, SVG Export Plug-In . SVG Version: 6.00 Build 0)  -->
<!DOCTYPE svg PUBLIC "-//W3C//DTD SVG 1.1//EN" "http://www.w3.org/Graphics/SVG/1.1/DTD/svg11.dtd">
<svg version="1.1" id="Layer_1" xmlns="http://www.w3.org/2000/svg" xmlns:xlink="http://www.w3.org/1999/xlink" x="0px" y="0px"
	 viewBox="0 0 100 100" enable-background="new 0 0 100 100" xml:space="preserve">
<path fill="#231F20" d="M93.5,90H10V6.5c0-2.2-1.3-4-3.5-4C4.3,2.5,3,4.3,3,6.5v87C3,95.7,4.3,97,6.5,97h87c2.2,0,4-1.3,4-3.5
	C97.5,91.3,95.7,90,93.5,90z"/>
<path fill="#231F20" d="M37,60.1c0-1.9-1.5-3.1-3.3-3.1H20.2c-1.9,0-3.2,1.2-3.2,3.1v18.8c0,1.9,1.3,3.1,3.2,3.1h13.5
	c1.9,0,3.3-1.3,3.3-3.1V60.1z M23,63h8v13h-8V63z"/>
<path fill="#231F20" d="M90,11.6C90,9.7,88.5,8,86.6,8H73.1C71.3,8,70,9.7,70,11.6v67.3c0,1.9,1.3,3.1,3.1,3.1h13.5
	c1.9,0,3.4-1.3,3.4-3.1V11.6z M77,15h7v61h-7V15z"/>
<path fill="#231F20" d="M63,36.3c0-1.9-1-3.3-2.9-3.3H46.7c-1.9,0-3.7,1.4-3.7,3.3v42.6c0,1.9,1.8,3.1,3.7,3.1h13.5
	c1.9,0,2.9-1.3,2.9-3.1V36.3z M50,40h8v36h-8V40z"/>
</svg>
