<?xml version="1.0" encoding="utf-8"?>
<!-- Generator: Adobe Illustrator 18.0.0, SVG Export Plug-In . SVG Version: 6.00 Build 0)  -->
<!DOCTYPE svg PUBLIC "-//W3C//DTD SVG 1.1//EN" "http://www.w3.org/Graphics/SVG/1.1/DTD/svg11.dtd">
<svg version="1.1" id="Layer_1" xmlns="http://www.w3.org/2000/svg" xmlns:xlink="http://www.w3.org/1999/xlink" x="0px" y="0px"
	 viewBox="0 0 100 100" enable-background="new 0 0 100 100" xml:space="preserve">
<path fill="#231F20" d="M80.8,11.5h-6.1c0.1,0.2,0.2,0.4,0.3,0.6l2.5,7c0.6,1.7,0.4,3.4-0.5,4.8c-1,1.4-2.5,2.1-4.3,2.1H27.4
	c-1.8,0-3.4-0.8-4.3-2.1c-0.9-1.4-1.1-3.1-0.5-4.8l2.5-7c0.1-0.2,0.2-0.4,0.3-0.6h-6.1c-1.9,0-3.4,1.5-3.4,3.4v80.8
	c0,1.9,1.5,3.4,3.4,3.4h61.6c1.9,0,3.4-1.5,3.4-3.4V14.9C84.2,13,82.7,11.5,80.8,11.5z M25.7,43.7h38.2v4.4H25.7V43.7z M25.7,63.1
	h38.2v4.4H25.7V63.1z M63.9,86.8H25.7v-4.4h38.2V86.8z M74.3,77.1H25.7v-4.4h48.6V77.1z M74.3,57.8H25.7v-4.4h48.6V57.8z M74.3,38.4
	H25.7v-4.4h48.6V38.4z M75.1,20l-2.5-7C72,11.1,69.9,9.7,68,9.7h-7.6c-1.5,0-3-0.8-3.1-1.8c-0.1-0.7-1.3-7-7.2-7
	c-5.9,0-7.1,6.3-7.2,7c-0.1,1-1.6,1.8-3.1,1.8H32c-1.9,0-4,1.5-4.7,3.3l-2.5,7c-0.3,0.9-0.3,1.8,0.2,2.5c0.5,0.7,1.3,1.1,2.3,1.1
	h45.3c1,0,1.8-0.4,2.3-1.1C75.4,21.8,75.5,20.9,75.1,20z M50,8.1c-1.2,0-2.2-1-2.2-2.2c0-1.2,1-2.2,2.2-2.2c1.2,0,2.2,1,2.2,2.2
	C52.2,7.1,51.2,8.1,50,8.1z"/>
</svg>
