<?xml version="1.0" encoding="utf-8"?>
<!-- Generator: Adobe Illustrator 18.0.0, SVG Export Plug-In . SVG Version: 6.00 Build 0)  -->
<!DOCTYPE svg PUBLIC "-//W3C//DTD SVG 1.1//EN" "http://www.w3.org/Graphics/SVG/1.1/DTD/svg11.dtd">
<svg version="1.1" id="Layer_1" xmlns="http://www.w3.org/2000/svg" xmlns:xlink="http://www.w3.org/1999/xlink" x="0px" y="0px"
	 viewBox="0 0 100 100" enable-background="new 0 0 100 100" xml:space="preserve">
<g>
	<g id="_x35_">
		<g>
			<path fill="#202020" d="M73.2,30.4h-46c-4.8,0-8.8,3.9-8.8,8.8l4.7,50.4c0,4.8,3.9,8.8,8.8,8.8h37.2c4.8,0,8.8-3.9,8.8-8.8
				l4-50.4C81.9,34.4,78,30.4,73.2,30.4z M38.5,83c0,2.4-2,4.4-4.4,4.4c-2.4,0-4.4-2-4.4-4.4V43.6c0-2.4,2-4.4,4.4-4.4
				c2.4,0,4.4,2,4.4,4.4V83L38.5,83z M53.8,83c0,2.4-2,4.4-4.4,4.4s-4.4-2-4.4-4.4V43.6c0-2.4,2-4.4,4.4-4.4c2.4,0,4.4,2,4.4,4.4V83
				z M69.2,83c0,2.4-2,4.4-4.4,4.4c-2.4,0-4.4-2-4.4-4.4V43.6c0-2.4,2-4.4,4.4-4.4c2.4,0,4.4,2,4.4,4.4V83z M24.8,26.1l53-13.6
				c2.9-0.8,4.7-3.7,3.9-6.7c-0.8-2.9-3.7-4.7-6.7-3.9L58.9,6c-1.5-2.2-4.3-3.4-7.1-2.7l-6.4,1.6c-2.8,0.7-4.6,3.1-4.9,5.8
				l-18.4,4.7c-2.9,0.8-4.7,3.7-3.9,6.7C18.9,25.1,21.9,26.8,24.8,26.1z"/>
		</g>
	</g>
</g>
</svg>
