<?xml version="1.0" encoding="utf-8"?>
<!-- Generator: Adobe Illustrator 18.0.0, SVG Export Plug-In . SVG Version: 6.00 Build 0)  -->
<!DOCTYPE svg PUBLIC "-//W3C//DTD SVG 1.1//EN" "http://www.w3.org/Graphics/SVG/1.1/DTD/svg11.dtd">
<svg version="1.1" id="Layer_1" xmlns="http://www.w3.org/2000/svg" xmlns:xlink="http://www.w3.org/1999/xlink" x="0px" y="0px"
	 viewBox="0 0 100 100" enable-background="new 0 0 100 100" xml:space="preserve">
<g>
	<g>
		<path fill="#231F20" d="M74.5,79H18c-1.5,0-2.9-0.4-4.2-1.1c-7-2.5-11.7-9.2-11.7-16.7c0-8.9,6.4-16.2,15-17.5
			c1.7-9.1,9.7-15.9,19.1-15.9c7,0,13.3,3.7,16.8,9.6c1.1-0.2,2.3-0.3,3.4-0.3c8.5,0,15.7,6,17.3,14.1c8-0.4,14.5,6,14.5,13.8
			C88.4,72.8,82.1,79,74.5,79z M36.3,33c-7.5,0-13.8,5.8-14.3,13.3l-0.2,2.3l-2.3,0.1c-6.9,0.2-12.3,5.7-12.3,12.6
			c0,5.4,3.4,10.1,8.5,11.9l0.4,0.2c0.6,0.3,1.2,0.5,1.9,0.5h56.5c4.8,0,8.7-3.9,8.7-8.7c0-5.5-5.1-10-10.9-8.4l-3.1,0.8l-0.1-3.2
			c-0.3-6.8-5.8-12-12.6-12c-1.3,0-2.7,0.2-4,0.6l-2.2,0.7l-0.9-2.1C47.1,36.4,42,33,36.3,33z"/>
	</g>
	<g>
		<path fill="#231F20" d="M87.2,38c-1.5-5.9-6.8-10.2-13.1-10.2c-0.7,0-1.4,0.1-2.1,0.2c-2.7-4.3-7.4-6.9-12.5-6.9
			c-4.5,0-8.6,2.1-11.3,5.3c1.6,0.7,3,1.8,4.1,3.1c1.8-2,4.4-3.3,7.2-3.3c3.8,0,7.3,2.3,8.9,5.8l0.9,2.1l2.2-0.7
			c0.9-0.3,1.8-0.4,2.7-0.4c4.5,0,8.2,3.5,8.4,8.1l0.1,3.2l3.1-0.8c3.8-1,7.1,1.9,7.1,5.4c0,2.5-1.7,4.7-4,5.4
			c1.2,1.3,2,2.8,2.5,4.5c3.9-1.6,6.6-5.4,6.6-9.9C97.9,42.8,93.1,38,87.2,38z"/>
	</g>
</g>
</svg>
