<?xml version="1.0" encoding="utf-8"?>
<!-- Generator: Adobe Illustrator 18.0.0, SVG Export Plug-In . SVG Version: 6.00 Build 0)  -->
<!DOCTYPE svg PUBLIC "-//W3C//DTD SVG 1.1//EN" "http://www.w3.org/Graphics/SVG/1.1/DTD/svg11.dtd">
<svg version="1.1" id="Layer_1" xmlns="http://www.w3.org/2000/svg" xmlns:xlink="http://www.w3.org/1999/xlink" x="0px" y="0px"
	 viewBox="0 0 100 100" enable-background="new 0 0 100 100" xml:space="preserve">
<path fill="#202020" d="M54.2,95L87,62.3c2.6-2.6,2.8-6.5,0.2-9.1c-2.6-2.6-6.5-2.4-9.1,0.2L56.3,75.2l0-66.1c0-3.6-2.9-6.6-6.5-6.6
	c-3.6,0-6.5,2.9-6.5,6.5l0,66.1L21.4,53.4c-2.6-2.6-6.5-2.8-9.1-0.2c-2.6,2.6-2.4,6.5,0.2,9.1l33,33c0,0,2.2,2.3,4.2,2.3
	C51.7,97.5,54.2,95,54.2,95L54.2,95z"/>
</svg>
