<?xml version="1.0" encoding="utf-8"?>
<!-- Generator: Adobe Illustrator 18.0.0, SVG Export Plug-In . SVG Version: 6.00 Build 0)  -->
<!DOCTYPE svg PUBLIC "-//W3C//DTD SVG 1.1//EN" "http://www.w3.org/Graphics/SVG/1.1/DTD/svg11.dtd">
<svg version="1.1" id="Layer_1" xmlns="http://www.w3.org/2000/svg" xmlns:xlink="http://www.w3.org/1999/xlink" x="0px" y="0px"
	 viewBox="0 0 100 100" enable-background="new 0 0 100 100" xml:space="preserve">
<g id="XMLID_210_">
	<path id="XMLID_212_" fill="#202020" d="M82.4,92.6c0,0.8-0.4,1.1-0.5,1.2H18.1c-0.1,0-0.5-0.4-0.5-1.2V7.4c0-0.8,0.4-1.1,0.5-1.2
		h36.6c3.5,0,6.4,2.8,6.5,6.3l0.5,14.4l18.6,3.2c1,0.1,2.1,1.4,2.1,2.4V92.6z M69.3,8.9c-4-4.5-9.8-7.1-15.8-7.1H18.1
		c-2.7,0-5,2.5-5,5.6v85.2c0,3.1,2.2,5.6,5,5.6h63.8c2.7,0,5-2.5,5-5.6V31.2c0-1.6-0.6-3.1-1.6-4.3L69.3,8.9z"/>
	<rect id="XMLID_209_" x="25.1" y="36.8" fill="#202020" width="50.8" height="6"/>
	<rect id="XMLID_208_" x="25.1" y="22.9" fill="#202020" width="22.2" height="6"/>
	<rect id="XMLID_207_" x="24.1" y="64.9" fill="#202020" width="51.9" height="6"/>
	<rect id="XMLID_206_" x="24.1" y="51" fill="#202020" width="51.9" height="6"/>
	<rect id="XMLID_205_" x="24.1" y="79.1" fill="#202020" width="25.9" height="6"/>
</g>
</svg>
