<?xml version="1.0" encoding="utf-8"?>
<!-- Generator: Adobe Illustrator 18.0.0, SVG Export Plug-In . SVG Version: 6.00 Build 0)  -->
<!DOCTYPE svg PUBLIC "-//W3C//DTD SVG 1.1//EN" "http://www.w3.org/Graphics/SVG/1.1/DTD/svg11.dtd">
<svg version="1.1" id="Layer_1" xmlns="http://www.w3.org/2000/svg" xmlns:xlink="http://www.w3.org/1999/xlink" x="0px" y="0px"
	 viewBox="0 0 100 100" enable-background="new 0 0 100 100" xml:space="preserve">
<g id="XMLID_861_">
	<path id="XMLID_867_" fill="#202020" d="M91.7,57.4c-1.4,0-2.8-0.5-3.9-1.6L49.8,18L12.3,55.8c-2.2,2.2-5.7,2.2-7.9,0
		c-2.2-2.2-2.2-5.7,0-7.9L45.9,6.2c1-1,2.5-1.6,3.9-1.6c0,0,0,0,0,0c1.5,0,2.9,0.6,3.9,1.6l41.9,41.8c2.2,2.2,2.2,5.7,0,7.9
		C94.6,56.9,93.1,57.4,91.7,57.4z"/>
	<path id="XMLID_866_" fill="#202020" d="M78.4,28.1c0.1-0.2,0.1-0.5,0.1-0.7V12.1c0-1.2-0.9-2.1-2.1-2.1h-9.8
		c-1.2,0-2.1,0.9-2.1,2.1v2.3L78.4,28.1z"/>
	<path id="XMLID_863_" fill="#202020" d="M78.4,28.2L78.4,28.2L64.5,14.4v-2.3c0-1.2,1-2.2,2.2-2.2h9.8c1.2,0,2.2,1,2.2,2.2v15.3
		c0,0.2,0,0.5-0.1,0.7L78.4,28.2z M64.7,14.3L78.4,28c0.1-0.2,0.1-0.4,0.1-0.6V12.1c0-1.1-0.9-2-2-2h-9.8c-1.1,0-2,0.9-2,2V14.3z"/>
	<path id="XMLID_862_" fill="#202020" d="M50,20.8L16.4,54.4v41.1h23.4v-32c0-1.2,0.9-2.1,2.1-2.1H58c1.2,0,2.1,0.9,2.1,2.1v32h23.4
		V54.4L50,20.8z"/>
</g>
</svg>
