<?xml version="1.0" encoding="utf-8"?>
<!-- Generator: Adobe Illustrator 18.0.0, SVG Export Plug-In . SVG Version: 6.00 Build 0)  -->
<!DOCTYPE svg PUBLIC "-//W3C//DTD SVG 1.1//EN" "http://www.w3.org/Graphics/SVG/1.1/DTD/svg11.dtd">
<svg version="1.1" id="Layer_1" xmlns="http://www.w3.org/2000/svg" xmlns:xlink="http://www.w3.org/1999/xlink" x="0px" y="0px"
	 viewBox="0 0 100 100" enable-background="new 0 0 100 100" xml:space="preserve">
<path id="XMLID_894_" fill="#231F20" d="M59.6,13.7c0-3.2,2.6-5.8,5.8-5.8c3.2,0,5.8,2.6,5.8,5.8c0,3.2-2.6,5.8-5.8,5.8
	C62.2,19.5,59.6,16.9,59.6,13.7z M61.2,28.7l0.1,0.1c2.1-3,5.3-5.2,9.1-5.8c-0.2-0.8-0.4-1.6-0.4-2.5c-0.6-0.1-1.2-0.2-1.9-0.3
	c-0.8,0.4-1.8,0.7-2.8,0.7c-1,0-2-0.2-2.8-0.7c-0.8,0.1-1.5,0.2-2.2,0.3c-0.1,2.7-1.2,5.1-3,6.9C58.8,27.8,60.1,28.2,61.2,28.7z
	 M29.6,23c0.2-0.8,0.4-1.6,0.4-2.4c0.6-0.1,1.3-0.3,2.1-0.3c0.8,0.4,1.8,0.7,2.8,0.7c1,0,2-0.2,2.8-0.7c0.7,0.1,1.3,0.2,1.8,0.3
	c0.1,2.7,1.2,5.2,3,7c-1.4,0.3-2.6,0.7-3.7,1.2l-0.2,0.1C36.6,25.8,33.3,23.6,29.6,23z M34.9,19.5c3.2,0,5.8-2.6,5.8-5.8
	c0-3.2-2.6-5.8-5.8-5.8c-3.2,0-5.8,2.6-5.8,5.8C29.1,16.9,31.7,19.5,34.9,19.5z M71.5,79.4v7.4c-1.9,1.3-4.3,2.4-7.1,3.2v-8.8
	L63,90.4c-3.8,1-8.2,1.6-12.9,1.6c-4.7,0-9.2-0.6-13-1.6l-1.5-9.3V90c-3-0.9-5.6-2.2-7.6-3.6v-7c0-7.4,2.5-14.2,16.4-15.6
	c1.7,0.9,3.6,1.4,5.6,1.4c2,0,3.9-0.5,5.6-1.4C69.7,65.2,71.5,72,71.5,79.4z M50,39.2c-6.4,0-11.6,5.2-11.6,11.6
	c0,6.4,5.2,11.6,11.6,11.6c6.4,0,11.6-5.2,11.6-11.6C61.6,44.4,56.4,39.2,50,39.2z M15.6,36.7c0-6.4,5.2-11.6,11.6-11.6
	c6.4,0,11.6,5.2,11.6,11.6c0,6.4-5.2,11.6-11.6,11.6C20.8,48.3,15.6,43.1,15.6,36.7z M39.8,61.4c-2.8-2.7-4.5-6.4-4.5-10.6
	c0-0.3,0-0.5,0-0.8c-0.8-0.1-1.6-0.2-2.5-0.3c-1.7,0.9-3.6,1.4-5.6,1.4c-2,0-3.9-0.5-5.6-1.4C7.7,51.1,5.2,57.9,5.2,65.3v7
	c1.9,1.4,4.5,2.6,7.6,3.6v-8.8l1.5,9.3c3.2,0.8,6.8,1.4,10.6,1.5C25.4,68.8,30.3,63.4,39.8,61.4z M41.8,20.1c0-4.5,3.6-8.1,8.1-8.1
	c4.5,0,8.1,3.6,8.1,8.1s-3.6,8.1-8.1,8.1C45.5,28.2,41.8,24.6,41.8,20.1z M60.2,30.8c-1.6-0.8-3.6-1.3-6.3-1.6c-1.2,0.6-2.5,1-3.9,1
	c-1.4,0-2.8-0.3-3.9-0.9c-2.6,0.3-4.6,0.8-6.2,1.5c0.8,1.8,1.3,3.8,1.3,5.9c0,1.4-0.2,2.7-0.6,4c2.5-2.3,5.8-3.7,9.5-3.7
	c3.7,0,7,1.4,9.5,3.7c-0.4-1.3-0.6-2.6-0.6-3.9C58.9,34.6,59.4,32.6,60.2,30.8z M84.5,29.3c9.7,1,11,5.8,11,10.9v5.2
	c-1.3,0.9-3,1.6-4.9,2.2v-6.2l-1.1,6.5c-1.3,0.3-2.7,0.6-4.2,0.8c-1.2-0.4-2.6-0.7-4.1-1c3.3-2.5,5.5-6.6,5.5-11.1
	C86.7,34,85.9,31.4,84.5,29.3z M83.4,27.7c3-1.2,5.2-4.1,5.2-7.5c0-4.5-3.6-8.1-8.1-8.1c-4.5,0-8.1,3.6-8.1,8.1
	c0,0.9,0.2,1.8,0.4,2.6C77,22.8,80.8,24.7,83.4,27.7z M13.3,36.7c0,4.5,2.2,8.5,5.5,11.1c-1.5,0.2-2.9,0.6-4.1,1
	c-1.5-0.2-2.9-0.5-4.2-0.8l-1.1-6.5v6.2c-1.9-0.6-3.6-1.4-4.9-2.2v-5.2c0-5.2,1.2-9.9,11-10.9C14.1,31.4,13.3,34,13.3,36.7z
	 M27.2,22.8c0.3-0.8,0.4-1.7,0.4-2.6c0-4.5-3.6-8.1-8.1-8.1c-4.5,0-8.1,3.6-8.1,8.1c0,3.4,2.1,6.4,5.2,7.5
	C19.2,24.7,23,22.8,27.2,22.8z M94.8,65.3v7c-1.9,1.4-4.5,2.6-7.6,3.6v-8.8l-1.5,9.3c-3.3,0.9-7.1,1.4-11.1,1.6
	c-0.3-6.7-2.6-14-14.4-16.5c2.8-2.7,4.5-6.4,4.5-10.6c0-0.3,0-0.5,0-0.8c0.8-0.1,1.6-0.2,2.5-0.3c1.7,0.9,3.6,1.4,5.6,1.4
	c2,0,3.9-0.5,5.6-1.4C92.3,51.1,94.8,57.9,94.8,65.3z M72.8,48.3c6.4,0,11.6-5.2,11.6-11.6c0-6.4-5.2-11.6-11.6-11.6
	c-6.4,0-11.6,5.2-11.6,11.6C61.2,43.1,66.4,48.3,72.8,48.3z"/>
</svg>
