<?xml version="1.0" encoding="utf-8"?>
<!-- Generator: Adobe Illustrator 18.0.0, SVG Export Plug-In . SVG Version: 6.00 Build 0)  -->
<!DOCTYPE svg PUBLIC "-//W3C//DTD SVG 1.1//EN" "http://www.w3.org/Graphics/SVG/1.1/DTD/svg11.dtd">
<svg version="1.1" id="Layer_1" xmlns="http://www.w3.org/2000/svg" xmlns:xlink="http://www.w3.org/1999/xlink" x="0px" y="0px"
	 viewBox="0 0 100 100" enable-background="new 0 0 100 100" xml:space="preserve">
<g id="XMLID_1219_">
	<path id="XMLID_1258_" fill="#231F20" d="M80.3,29.4c3.3,5.3,5.3,11.3,5.8,17.6h-13c0-0.2,0-0.4,0-0.6l0-0.2c0-0.7-0.1-1.4-0.2-2
		c0-0.3-0.1-0.6-0.1-1c-0.1-0.7-0.2-1.4-0.3-2.1l0-0.3c0-0.1,0-0.3-0.1-0.4c-0.2-1-0.3-1.9-0.5-2.8c0-0.1,0-0.1-0.1-0.2l0-0.2
		c-0.1-0.3-0.2-0.7-0.3-1c0,0-0.1,0-0.1,0.1c-1.9,1.6-3.6,3-5.1,4.3c0,0.3,0.1,0.5,0.1,0.8c0,0.2,0.1,0.5,0.1,0.7l0,0.1
		c0.1,0.6,0.2,1.1,0.2,1.8c0,0.3,0.1,0.6,0.1,0.9c0.1,0.6,0.1,1.2,0.1,1.8l0,0.3c0,0,0,0.1,0,0.1h-8.2c-0.8,0.7-1.7,1.5-2.6,2.3
		c-1.5,1.4-2.8,2.6-4,3.7h14.7c0,0.8-0.1,1.7-0.2,2.8c0,0.2,0,0.4-0.1,0.5l0,0.3c-0.2,1.2-0.3,2.2-0.5,3.2l0,0.1
		c-0.2,0.9-0.4,1.9-0.7,3.1c-0.1,0.3-0.1,0.5-0.2,0.8c-0.3,0.9-0.5,1.8-0.8,2.5c-0.8-0.3-1.7-0.5-2.8-0.8c-0.3-0.1-0.5-0.1-0.8-0.2
		c-1.3-0.3-2.3-0.5-3.3-0.7c0,0-0.1,0-0.2,0c-1-0.2-2-0.3-3.3-0.5c-0.3,0-0.6-0.1-0.9-0.1c-1.1-0.1-2.1-0.2-3-0.2V63l-6-0.6v1.3
		c-1,0-2,0.1-3,0.2c-0.3,0-0.6,0.1-0.9,0.1c-1.3,0.1-2.3,0.3-3.3,0.5c-0.1,0-0.1,0-0.2,0c-1,0.2-2.1,0.4-3.3,0.7
		c-0.3,0.1-0.6,0.1-0.8,0.2c-1.1,0.3-1.9,0.5-2.8,0.8c-0.3-0.7-0.5-1.6-0.8-2.5c-0.1-0.3-0.1-0.5-0.2-0.8c-0.3-1.2-0.5-2.2-0.7-3.1
		l0-0.1c-0.2-0.9-0.3-1.9-0.5-3.2c0-0.3-0.1-0.5-0.1-0.8c-0.1-1-0.2-1.9-0.2-2.8h2.2l0.6-6h-2.8c0,0,0-0.1,0-0.1l0-0.3
		c0-0.6,0.1-1.2,0.1-1.8c0-0.3,0.1-0.5,0.1-0.8l0-0.1c0.1-0.6,0.1-1.1,0.2-1.7c0-0.3,0.1-0.6,0.1-0.8c0.1-0.7,0.3-1.5,0.4-2.1
		c0-0.1,0-0.1,0-0.2l0-0.1c0.2-0.8,0.4-1.6,0.6-2.4c0-0.1,0.1-0.3,0.1-0.4l0.1-0.3c0.2-0.6,0.3-1.1,0.5-1.7c0.1-0.3,0.2-0.5,0.3-0.8
		c0.2-0.5,0.4-1.1,0.6-1.6l0.1-0.3c0-0.1,0.1-0.2,0.1-0.3c0.8,0.2,1.6,0.5,2.6,0.7c0.3,0.1,0.5,0.1,0.8,0.2c1.2,0.3,2.1,0.5,3.1,0.6
		l0.1,0c0.9,0.2,1.9,0.3,3.2,0.4c0.3,0,0.5,0.1,0.8,0.1c1,0.1,1.9,0.2,2.7,0.2v3.8c0.6-0.4,1.1-0.8,1.8-1.2c4.2-2.7,7.7-5,11.2-7.1
		c1.9-1.2,4-2.4,6.5-3.9c0.8-0.5,1.8-1,2.8-1.6c-0.1-0.2-0.2-0.3-0.3-0.5l-0.1-0.1c-0.3-0.5-0.6-1-0.9-1.4c-0.2-0.3-0.4-0.6-0.6-0.9
		c-0.3-0.4-0.6-0.9-0.9-1.3L63.7,19c-0.1-0.2-0.3-0.4-0.4-0.6c-0.3-0.4-0.6-0.8-0.9-1.2l-0.2-0.2c-0.1-0.2-0.2-0.3-0.4-0.5
		c-0.4-0.4-0.7-0.9-1.1-1.3L60.6,15c-0.1-0.1-0.2-0.2-0.3-0.3c-0.5-0.6-1-1.1-1.5-1.6l-0.3-0.3c0,0-0.1-0.1-0.1-0.1
		c5.1,1.5,9.8,4.1,13.9,7.5c2.3-1.2,4.7-2.4,7.3-3.5C71.3,8.6,59.9,3.6,47.3,3.6C21.7,3.6,0.9,24.4,0.9,50
		c0,25.6,20.8,46.4,46.4,46.4c25.6,0,46.4-20.8,46.4-46.4c0-9.1-2.6-17.6-7.2-24.7C84.4,26.5,82.2,28,80.3,29.4z M50.3,13.3
		c0.1,0.1,0.3,0.2,0.4,0.3c0,0,0.1,0.1,0.1,0.1l0.1,0.1c0.4,0.3,0.7,0.6,1.1,1c0.1,0.1,0.2,0.2,0.3,0.3l0.2,0.1
		c0.3,0.3,0.6,0.6,0.9,0.9c0.1,0.1,0.2,0.2,0.3,0.3l0.3,0.3c0.3,0.3,0.6,0.6,0.9,0.9c0.2,0.2,0.3,0.4,0.5,0.5l0.1,0.1
		c0.3,0.3,0.6,0.7,0.9,1c0.2,0.2,0.4,0.5,0.6,0.7c0.3,0.4,0.6,0.7,0.9,1.1l0.1,0.2c0.2,0.2,0.3,0.4,0.5,0.6c0.3,0.4,0.6,0.8,0.9,1.3
		l0.2,0.3c0.1,0.2,0.2,0.3,0.3,0.5c0.3,0.5,0.7,1.1,1,1.6c-0.6,0.2-1.2,0.3-1.8,0.5c-0.2,0.1-0.4,0.1-0.6,0.1
		c-0.9,0.2-1.8,0.4-2.6,0.5c-0.1,0-0.1,0-0.2,0c-0.1,0-0.2,0-0.2,0c-0.7,0.1-1.5,0.2-2.3,0.3c-0.3,0-0.5,0.1-0.8,0.1
		c-0.7,0.1-1.4,0.1-2.1,0.2V13.3z M31.2,80.5L31.2,80.5L31.2,80.5L31.2,80.5z M36.7,21.2L36.7,21.2c0.4-0.5,0.7-0.9,1-1.2
		c0.2-0.2,0.4-0.5,0.6-0.7c0.3-0.4,0.6-0.7,0.9-1c0.2-0.2,0.4-0.4,0.6-0.6c0.3-0.3,0.6-0.6,0.9-0.9c0.2-0.2,0.4-0.4,0.5-0.5
		c0.3-0.3,0.6-0.6,1-0.9l0.2-0.1c0.1-0.1,0.2-0.2,0.3-0.3c0.4-0.4,0.8-0.7,1.2-1.1l-0.3-0.5h0l0.4,0.4c0.1-0.1,0.3-0.2,0.4-0.3v14
		c-0.7,0-1.4-0.1-2.1-0.2c-0.3,0-0.5-0.1-0.8-0.1c-0.8-0.1-1.5-0.2-2.2-0.3l-0.2,0c-0.1,0-0.2,0-0.2,0c-0.9-0.1-1.7-0.3-2.6-0.5
		c-0.1,0-0.3-0.1-0.4-0.1l-0.2-0.1c-0.6-0.1-1.2-0.3-1.7-0.4c0.3-0.5,0.6-1.1,1-1.6c0.1-0.2,0.2-0.3,0.3-0.5l0.2-0.3
		c0.3-0.5,0.6-0.9,0.9-1.3C36.4,21.7,36.5,21.5,36.7,21.2z M36.1,12.7c0,0-0.1,0.1-0.1,0.1l-0.1,0.1c-0.1,0.1-0.1,0.1-0.2,0.2
		c-0.5,0.5-1,1-1.5,1.6c-0.1,0.1-0.2,0.2-0.3,0.3l-0.1,0.2c-0.4,0.4-0.7,0.8-1.1,1.3c-0.1,0.2-0.3,0.3-0.4,0.5l-0.2,0.2
		c-0.3,0.4-0.6,0.8-0.9,1.2c-0.2,0.3-0.4,0.5-0.6,0.8c-0.3,0.4-0.6,0.9-0.9,1.3l-0.1,0.1c-0.2,0.2-0.3,0.5-0.5,0.7
		c-0.3,0.5-0.6,0.9-0.9,1.4L28.3,23c-0.1,0.2-0.2,0.4-0.3,0.6c-0.1,0-0.2-0.1-0.4-0.2l-0.2-0.1c-0.2-0.1-0.3-0.1-0.5-0.2
		c-1-0.4-1.8-0.9-2.6-1.3c-0.1,0-0.2-0.1-0.2-0.1L24,21.7c-0.7-0.4-1.3-0.8-2-1.2C26.1,16.9,30.9,14.3,36.1,12.7z M17.6,24.8
		C17.7,24.9,17.7,24.9,17.6,24.8l0.2,0.1c0.2,0.1,0.4,0.3,0.6,0.4c1.1,0.7,2,1.2,2.9,1.7c0.1,0,0.1,0.1,0.2,0.1
		c0.1,0,0.1,0.1,0.2,0.1c0.8,0.5,1.7,0.9,2.7,1.3c0.3,0.1,0.5,0.2,0.8,0.4c0.1,0,0.1,0.1,0.2,0.1c0,0,0,0,0,0.1
		c0,0.1-0.1,0.2-0.1,0.2c-0.3,0.8-0.5,1.4-0.8,2c-0.1,0.2-0.2,0.5-0.2,0.7l-0.1,0.2c-0.2,0.6-0.4,1.2-0.6,1.9l0,0.2
		c-0.1,0.2-0.1,0.5-0.2,0.7c-0.2,0.7-0.4,1.5-0.6,2.3c0,0.1,0,0.1,0,0.2l0,0.2c-0.2,0.8-0.4,1.7-0.5,2.8c0,0.1,0,0.3-0.1,0.4
		l-0.1,0.3c-0.1,0.8-0.2,1.5-0.3,2.1c0,0.3-0.1,0.6-0.1,1c-0.1,0.7-0.1,1.4-0.2,2l0,0.2c0,0.2,0,0.4,0,0.6h-13
		C9.1,38.8,12.3,31.1,17.6,24.8z M17.4,72.3l-0.2,0.1c-0.4,0.3-0.7,0.5-1.1,0.8c-4.4-5.9-7-12.9-7.6-20.2h13c0,0,0,0,0,0l0,0.2
		c0,0.7,0.1,1.4,0.1,2c0,0.3,0,0.5,0.1,0.8c0.1,0.6,0.1,1.2,0.2,1.8c0,0.2,0.1,0.5,0.1,0.7c0.1,0.9,0.3,1.7,0.4,2.4l0,0.2
		c0.1,0.7,0.3,1.5,0.5,2.2c0,0.2,0.1,0.3,0.1,0.5l0.1,0.3c0.1,0.6,0.3,1.1,0.5,1.7c0.1,0.2,0.1,0.5,0.2,0.7c0.2,0.6,0.4,1.3,0.6,1.9
		l0,0c-0.6,0.3-1.2,0.6-1.7,0.8l-0.6,0.3c-1.5,0.8-2.9,1.6-4.3,2.5C17.6,72.1,17.5,72.2,17.4,72.3z M20,77.8l0.2-0.2
		c0.9-0.6,1.7-1.1,2.5-1.6c0.1,0,0.1-0.1,0.2-0.1c0.8-0.5,1.7-1,2.8-1.5c0.2-0.1,0.4-0.2,0.6-0.3l0.1,0c0.1,0,0.2-0.1,0.3-0.1
		c0.3,0.7,0.7,1.4,1,2l0.2,0.3c0.4,0.8,0.9,1.5,1.3,2.2l0.1,0.2c0.5,0.7,0.9,1.4,1.4,2.1c0,0,0,0.1,0.1,0.1c0.5,0.7,0.9,1.3,1.5,2
		l0,0.1c0.4,0.6,0.9,1.1,1.4,1.7l0.1,0.1c0,0,0.1,0.1,0.1,0.1c0.4,0.5,0.8,0.9,1.4,1.6l0.2,0.2c0.2,0.2,0.4,0.5,0.7,0.7
		C30.1,85.5,24.6,82.2,20,77.8z M44.3,86.6c-0.1,0-0.1-0.1-0.2-0.1L44,86.4c-0.1-0.1-0.2-0.2-0.4-0.3c-0.4-0.3-0.8-0.7-1.2-1
		l-0.1-0.1c-0.1-0.1-0.1-0.1-0.2-0.2c-0.5-0.5-1-1-1.6-1.5c-0.1-0.1-0.2-0.2-0.3-0.3l-0.2-0.2c-0.4-0.4-0.8-0.8-1.2-1.3
		c-0.1-0.2-0.3-0.3-0.4-0.5l-0.2-0.2c-0.3-0.4-0.7-0.8-1.1-1.3c-0.2-0.3-0.4-0.5-0.6-0.8c-0.4-0.5-0.7-0.9-1-1.4l-0.1-0.1
		c-0.2-0.2-0.3-0.5-0.5-0.7c-0.4-0.5-0.7-1.2-1.2-1.9l-0.2-0.2c-0.1-0.1-0.1-0.2-0.2-0.4c-0.4-0.7-0.8-1.5-1.2-2.2
		c0.7-0.2,1.4-0.4,2.1-0.6c0.2-0.1,0.5-0.1,0.7-0.2c1-0.3,2-0.5,2.9-0.6l0.1,0c0.1,0,0.1,0,0.2,0c0.8-0.1,1.7-0.3,2.7-0.4
		c0.3,0,0.5-0.1,0.8-0.1c0.9-0.1,1.7-0.2,2.5-0.2V86.6z M57.3,79.6c-0.4,0.4-0.7,0.9-1.1,1.3l-0.1,0.1c-0.2,0.2-0.4,0.4-0.5,0.6
		c-0.4,0.4-0.8,0.9-1.2,1.3L54.3,83c-0.1,0.1-0.2,0.2-0.3,0.3c-0.5,0.5-1,1-1.6,1.5c-0.1,0.1-0.1,0.1-0.2,0.2L52.2,85
		c-0.4,0.4-0.8,0.7-1.2,1c-0.1,0.1-0.2,0.2-0.4,0.3l-0.1,0.1c-0.1,0.1-0.1,0.1-0.2,0.2v-17c0.8,0,1.6,0.1,2.5,0.2
		c0.3,0,0.5,0.1,0.8,0.1c1,0.1,1.9,0.2,2.7,0.4c0.1,0,0.1,0,0.2,0l0.1,0c0.9,0.2,1.8,0.4,2.9,0.6c0.3,0.1,0.5,0.1,0.8,0.2
		c0.7,0.2,1.4,0.4,2.1,0.6c-0.4,0.8-0.8,1.5-1.2,2.2c-0.1,0.1-0.1,0.2-0.2,0.3c-0.1,0.1-0.1,0.2-0.2,0.3c-0.4,0.7-0.8,1.3-1.2,1.9
		c-0.2,0.2-0.3,0.5-0.5,0.7l-0.1,0.1c-0.4,0.5-0.7,1-1,1.4C57.7,79,57.5,79.3,57.3,79.6z M58.5,87.3c0.2-0.2,0.5-0.5,0.7-0.7
		l0.2-0.2c0.4-0.5,0.9-1,1.3-1.5l0.2-0.2c0.5-0.6,0.9-1.1,1.4-1.8l0.1-0.1c0.5-0.6,1-1.3,1.4-1.9l0.1-0.1c0.4-0.6,0.9-1.3,1.4-2.1
		l0.1-0.2c0.4-0.6,0.8-1.3,1.3-2.2l0.2-0.3c0.3-0.6,0.7-1.3,1-2c0.1,0,0.2,0.1,0.3,0.1l0.7,0.3c1,0.5,1.9,1,2.8,1.5l0.1,0
		c0.1,0,0.1,0.1,0.2,0.1c0.8,0.5,1.6,1,2.5,1.6l0.1,0c0.1,0,0.1,0.1,0.2,0.1C70,82.2,64.5,85.5,58.5,87.3z M78.5,73.2
		c-0.4-0.3-0.7-0.5-1.1-0.8L76.8,72c-0.8-0.5-1.4-0.9-2-1.3c0,0-0.1,0-0.1-0.1c-0.6-0.4-1.3-0.8-2.1-1.2c-0.2-0.1-0.3-0.2-0.5-0.3
		l-0.2-0.1c-0.6-0.3-1.1-0.5-1.7-0.8l0,0c0.2-0.6,0.4-1.2,0.6-1.9c0.1-0.2,0.1-0.5,0.2-0.7c0.2-0.6,0.3-1.1,0.5-1.7l0.1-0.3
		c0-0.1,0.1-0.3,0.1-0.4c0.2-0.8,0.3-1.5,0.5-2.2l0-0.1c0.1-0.7,0.3-1.5,0.4-2.4c0-0.2,0-0.3,0.1-0.5l0-0.2c0.1-0.6,0.2-1.2,0.2-1.8
		c0-0.3,0.1-0.5,0.1-0.8c0.1-0.7,0.1-1.3,0.1-2l0-0.2c0,0,0,0,0,0h13C85.5,60.3,82.9,67.3,78.5,73.2z"/>
	<path id="XMLID_1269_" fill="#231F20" d="M99,20.2c-0.1-0.6-0.3-1.1-0.6-1.7c-0.3-0.6-0.8-1.1-1.4-1.5c-0.6-0.4-1.2-0.6-1.9-0.7
		c-0.6-0.1-1.2-0.2-1.8-0.2c0,0-0.1,0-0.1,0c-2.5,0-4.9,0.7-7.3,1.5c-4.7,1.6-9.4,3.9-14,6.3c-2.3,1.2-4.5,2.5-6.7,3.8
		c-2.2,1.3-4.3,2.6-6.4,3.8c-4.1,2.5-7.9,5-11.1,7.1c-3.2,2.1-5.9,3.9-7.7,5.2c-0.5,0.4-1,0.7-1.4,1L34,39.1l-2,19l19,2l-4.6-5.6
		c0.3-0.3,0.7-0.7,1.2-1.1c1.6-1.5,3.9-3.7,6.7-6.2c2.8-2.5,6.1-5.5,9.6-8.5c1.8-1.5,3.6-3.1,5.5-4.7c1.9-1.6,3.9-3.1,5.8-4.6
		c4-3,8-5.9,12.1-8c2-1,4-1.9,5.9-2.2c0.4-0.1,0.9-0.1,1.3-0.1c0,0,0,0,0,0c0.4,0,0.8,0.1,1.1,0.2c0.3,0.1,0.6,0.3,0.8,0.5
		c0.2,0.3,0.4,0.6,0.5,0.9c0.5,1.5,0.3,3.3,0.1,4.7c-0.2,1.5-0.6,2.8-0.9,3.8c-0.6,2.1-1.1,3.3-1.1,3.3s0.7-1.1,1.7-3.1
		c0.5-1,1-2.3,1.5-3.8c0.2-0.8,0.5-1.6,0.6-2.5C99.1,22.3,99.2,21.3,99,20.2z"/>
</g>
</svg>
