<?xml version="1.0" encoding="utf-8"?>
<!-- Generator: Adobe Illustrator 18.0.0, SVG Export Plug-In . SVG Version: 6.00 Build 0)  -->
<!DOCTYPE svg PUBLIC "-//W3C//DTD SVG 1.1//EN" "http://www.w3.org/Graphics/SVG/1.1/DTD/svg11.dtd">
<svg version="1.1" id="Layer_1" xmlns="http://www.w3.org/2000/svg" xmlns:xlink="http://www.w3.org/1999/xlink" x="0px" y="0px"
	 viewBox="0 0 100 100" enable-background="new 0 0 100 100" xml:space="preserve">
<g id="XMLID_964_">
	<path id="XMLID_971_" fill="#231F20" d="M25.5,55H10.5c-3.3,0-5.9-2-5.9-4.5v-1.2c0-2.5,2.7-4.5,5.9-4.5h15.1c3.3,0,5.9,2,5.9,4.5
		v1.2C31.5,53.1,28.8,55,25.5,55z"/>
	<path id="XMLID_970_" fill="#231F20" d="M25.5,78.6H10.5c-3.3,0-5.9-2-5.9-4.5V73c0-2.5,2.7-4.5,5.9-4.5h15.1c3.3,0,5.9,2,5.9,4.5
		v1.2C31.5,76.6,28.8,78.6,25.5,78.6z"/>
	<path id="XMLID_969_" fill="#231F20" d="M25.5,31.5H10.5c-3.3,0-5.9-2-5.9-4.5v-1.2c0-2.5,2.7-4.5,5.9-4.5h15.1
		c3.3,0,5.9,2,5.9,4.5V27C31.5,29.5,28.8,31.5,25.5,31.5z"/>
	<path id="XMLID_965_" fill="#231F20" d="M95.4,27.2v-1.6c0-3.3-2.7-5.9-5.9-5.9h-0.8v-3.3c0-6.6-5.3-11.9-11.9-11.9H26.5
		c-6.6,0-11.9,5.3-11.9,11.9V18h10.9c5.2,0,9.3,3.4,9.3,7.8V27c0,4.4-4.1,7.8-9.3,7.8H14.7v6.7h10.9c5.2,0,9.3,3.4,9.3,7.8v1.2
		c0,4.4-4.1,7.8-9.3,7.8H14.7v6.7h10.9c5.2,0,9.3,3.4,9.3,7.8v1.2c0,4.4-4.1,7.8-9.3,7.8H14.7v1.6c0,6.6,5.3,11.9,11.9,11.9h50.3
		c6.6,0,11.9-5.3,11.9-11.9V60.1h0.8c3.3,0,5.9-2.7,5.9-5.9v-1.6c0-3.3-2.7-5.9-5.9-5.9c3.3,0,5.9-2.7,5.9-5.9v-1.6
		c0-3.3-2.7-5.9-5.9-5.9C92.8,33.2,95.4,30.5,95.4,27.2z M50.3,36.6c0.2-0.1,0.4,0,0.6,0.1c0,0,0,0,0-0.1c0-5.3,3.4-8.5,7.6-8.5
		c4.2,0,7.6,3.2,7.6,8.5c0,0,0,0,0,0.1c0.2-0.1,0.4-0.1,0.6-0.1c0.6,0.2,1,1,0.5,2.5c-0.4,1.5-1.1,2.1-1.8,1.9c0,0-0.1,0-0.1-0.1
		c-1.2,3.5-3.8,6.3-6.8,6.3c-3,0-5.6-2.8-6.8-6.3c0,0-0.1,0-0.1,0.1c-0.6,0.2-1.3-0.4-1.8-1.9C49.3,37.6,49.6,36.8,50.3,36.6z
		 M58.4,71.9C48,71.9,40,69.4,40,66.4c0-2.5,0-12.7,10.2-14.1c2.3-0.3,0.9-2.9,5.4-3.6c0.6-0.1,5-0.1,5.7,0c4.5,0.7,3.1,3.2,5.4,3.6
		c10.2,1.4,10.2,11.7,10.2,14.1C76.9,69.4,68.8,71.9,58.4,71.9z"/>
</g>
</svg>
