<?xml version="1.0" encoding="utf-8"?>
<!-- Generator: Adobe Illustrator 18.0.0, SVG Export Plug-In . SVG Version: 6.00 Build 0)  -->
<!DOCTYPE svg PUBLIC "-//W3C//DTD SVG 1.1//EN" "http://www.w3.org/Graphics/SVG/1.1/DTD/svg11.dtd">
<svg version="1.1" id="Layer_1" xmlns="http://www.w3.org/2000/svg" xmlns:xlink="http://www.w3.org/1999/xlink" x="0px" y="0px"
	 viewBox="0 0 100 100" enable-background="new 0 0 100 100" xml:space="preserve">
<path fill="#202020" d="M29.3,69.8c-0.9,0-1.8-0.4-2.5-1L10.7,52.7c-1.4-1.4-1.4-3.6,0-5l16.1-16.1c0.7-0.7,1.5-1,2.5-1
	c0.9,0,1.8,0.4,2.5,1c0.7,0.7,1,1.5,1,2.5c0,0.9-0.4,1.8-1,2.5L18.2,50.2l13.6,13.6c0.7,0.7,1,1.6,1,2.5c0,0.9-0.4,1.8-1,2.5
	C31.1,69.4,30.2,69.8,29.3,69.8z"/>
<path fill="#202020" d="M70.7,69.8c-0.9,0-1.8-0.4-2.5-1c-1.4-1.4-1.4-3.6,0-5l13.6-13.6L68.2,36.6c-1.4-1.4-1.4-3.6,0-5
	c0.7-0.7,1.6-1,2.5-1c0.9,0,1.8,0.4,2.5,1l16.1,16.1c0.7,0.7,1,1.6,1,2.5c0,0.9-0.4,1.8-1,2.5L73.2,68.7
	C72.6,69.4,71.7,69.8,70.7,69.8z"/>
<path fill="#202020" d="M40.9,85.7C40.9,85.7,40.9,85.7,40.9,85.7c-0.3,0-0.6,0-0.9-0.1c-1.9-0.5-3-2.4-2.5-4.3l17.3-64
	c0.4-1.5,1.8-2.6,3.4-2.6c0.3,0,0.6,0,0.9,0.1c1.9,0.5,3,2.4,2.5,4.3l-17.3,64C43.9,84.6,42.5,85.7,40.9,85.7z"/>
</svg>
