<?xml version="1.0" encoding="utf-8"?>
<!-- Generator: Adobe Illustrator 18.0.0, SVG Export Plug-In . SVG Version: 6.00 Build 0)  -->
<!DOCTYPE svg PUBLIC "-//W3C//DTD SVG 1.1//EN" "http://www.w3.org/Graphics/SVG/1.1/DTD/svg11.dtd">
<svg version="1.1" id="Layer_1" xmlns="http://www.w3.org/2000/svg" xmlns:xlink="http://www.w3.org/1999/xlink" x="0px" y="0px"
	 viewBox="0 0 100 100" enable-background="new 0 0 100 100" xml:space="preserve">
<path fill="#231F20" d="M44.8,13.4C21.8,13.4,3,32.1,3,55.2C3,78.2,21.8,97,44.8,97c23.1,0,41.8-18.8,41.8-41.8
	C86.6,32.1,67.9,13.4,44.8,13.4z M13.9,36.6v0.3c0-0.1,0-0.1-0.1-0.2C13.9,36.7,13.9,36.6,13.9,36.6z M38.8,90.7
	c-1.9-2,1-7.1,0.4-9.3c-0.3-1.4-2.3-2.7-3.2-3.9c-1-1.3-2.4-2.6-3.1-4.1c-0.9-1.8-0.5-2.5,0.4-4c0.6-1.1,0.6-2,1-3.1
	c0.1-0.3,1.6-1.8,1.4-2.1c0,0,0-0.1,0-0.1c-1-0.1-2,0.1-2.9-0.5c-0.7-0.5-0.9-2.1-1.5-2.7c-1.5-1.4-4.1-0.6-5.9-1.8
	c-1.6-1.1-3.4-2.2-4.4-3.8c-0.9-1.5-1.3-5.3-3.2-5.6c0,1.8-0.3,2.4,0.5,4.2c0.5,1.1,1.5,3.7-0.9,3c-0.1-1.8-0.1-3.3-0.6-5.1
	c-0.4-1.7-1.8-3.3-2.1-5.2c-0.3-1.7-0.2-3.4-0.2-5.1c0-1.7-0.6-3.3-0.7-4.9c1.1-1.9,2.4-3.6,3.9-5.2c1.1-1.1,2.1-2.2,3.6-2.8
	c1.4-0.5,3-1.3,4.5-1.7c1.6-0.4,3.5-0.3,5.1-0.5c-0.4-1.1-1.6-2.1,0.5-1.9c1.3,0.1,1.6,1.3,3,0.7c-0.6-0.6-2.6-1.9-0.6-2.2
	c0-0.7,0-1.4,0.1-2.1c0.4-0.2,0.9-0.4,1.3-0.6c2.2-0.6,4.4-1,6.7-1.1c0.3,0.1,0.6,0.2,0.9,0.3c0.2-0.1,0.4-0.2,0.5-0.3
	c0.4,0,0.8,0,1.2,0c5,0,9.8,1,14.1,2.9c0.2,0.3,0.4,0.6,0.8,0.9c0.6,0.4,1.9,0.8,0.6,1c-0.4,0.1-0.8-0.2-1,0.2
	c-0.4,0.4,0.2,0.8-0.6,1.2c-0.7,0.3-1.7-0.3-2.1,0.5c-0.4,0.8,0.3,1.9,0.1,2.7c-0.3,1-1.5,0.8-2.3,0.7c-1.8-0.1-3.7-1.3-4.7-2.7
	c-0.4-0.5-1.1-1.7-0.8-2.4c0.3-0.5,0.8-0.2,1.1-0.5c0.2-0.4-0.2-0.9-0.5-1.1c-0.1,0.7-0.5,0.9-1.1,0.6c-0.8-0.4-0.4-1.3-0.8-1.9
	c-0.6-1-2.2-0.6-3.1-0.9c-0.5-0.2-0.9-0.4-1.3-0.5c-0.3,0.2-0.6,0.4-1,0.6c-0.8,0.3-1.7,0.3-2.4,0.8c-2.1,1.6,0.3,1.6,1.5,1.9
	c1.5,0.4,2.3,1.8,3.5,2.3c1.7,0.7,2.3-0.3,2.1,2.3c-1,0.3-1.8-0.2-2.4-1c0.5,0.7,0.7,1.5,0.7,2.6c-1.6,0.6-2.3-0.2-3.7-0.7
	c-1-0.4-2.4-0.3-3.4-0.9c0-0.3-0.1-0.5,0-0.8c1.1,0,2.4-0.1,1.9-1.6c-2.1-0.2-2.6,0.8-3.8,2c3.2,1.1,0.3,2.1-1.4,2
	c-1.5-0.1-3.8-0.4-4.6,1.5c-0.8,1.8,1.8,2.2,3.3,2.7c0.9,0.3,1.2,0.1,1.9,0.8c0.6,0.7,0.3,1.6,1.3,2.1c0.4-0.8-0.4-1.7-0.2-2.1
	c0.4-1.1,1.1-0.5,2.1-0.9c-0.5-1.2-2.1-1.5-1.8-2.8c0.3-1.3,2.2-1.3,3.4-1.3c1.8,0.1,1.8,1,3,1.4c1.9,0.6,2-0.7,3.3,1.4
	c1.4,2.2,2.8,3.3,4.6,5c3.3,3.1-2.7,3-3.3,0.7c0.3-0.1,0.7-0.5,0.9-0.5c-1.3-0.5-4-0.5-5.4-0.2c-0.1,0.3-0.1,0.5,0,0.8
	c1.3,0.1,1.7,0.1,2.4,0.6c0.2,0.2-0.1,0.9,0.3,1.2c0.3,0.2,1.4-0.1,1.7-0.1c0.3,2-4.3,1.3-5.4,1.9c0,0.4-0.2,0.8-0.2,1.2
	c-2.6-0.4-2.5,2.2-3.4,3.7c-0.7,1.2-2,1.9-2.8,3c-0.4,0.5-1,0.9-1,1.7c0.1,1.2,1.5,0.6,1.5,1.7c0,2.2-2.9-0.1-3.3-1.2
	c-2.6-0.6-6.1-0.9-7,2.1c-0.4,1.3,0.1,3,1.6,3.1c1.4,0.1,0.8-0.8,1.8-1.2c0.5-0.2,1.5,0,2,0c0.5,1.3,0.3,1.9,0.9,2.8
	c0.8,1,0.8,0.8,1.2,2.2c0.3,1,0.6,2,1.8,2.4c1.1,0.4,2.5-0.5,2.6,1.2c2.2,0.1,3.9,0,5.6,1.3c1.3,1,1.9,2.1,3.4,2.6
	c2.4,0.8,3.1,0.6,3.7,3c0.3,1.1-0.6,1.5,1,1.8c0.9,0.2,2.2-0.4,3.2-0.4c1.7,0.1,3.4,1.1,3.4,3c0,1.1-0.5,1.3-0.9,2.1
	c-0.5,1-0.6,2.3-1.2,3.2c-1.2,1.9-3.3,1-4.6,2.7c-0.5,0.6-0.3,1.5-0.9,2.2c-0.5,0.5-2,0.5-2.4,0.9c-0.8,0.7-0.4,1.3-1.3,2.1
	c-0.5,0.5-2,0.3-2.6,0.5c-1.1,0.5-1.7,1.6-2.5,2.1C40.7,91,39.7,90.9,38.8,90.7z M74.8,69.9c0.2-1.3,0.4-2.7,0.7-3.9
	c0.3-1.3,0.5-2.6,0.5-4c0-0.7,0-1.7-0.4-2.1c-0.1-0.1-1.5-0.8-1.7-0.8c-0.8,0-1.6,1.2-2.4,1.4c-1,0.2-1.8-0.3-2.4-1
	c-0.8-0.8-1.7-1.4-2.5-2.3c-0.9-1-1.2-2.3-1.2-3.6c0-1.3,0.1-2.3,0.5-3.5c0.2-0.5,0.3-1.1,0.5-1.6c0.3-1.2,0.3-0.5,0.9-1.1
	c0.6-0.6,0.8-1.7,1.3-2.5c0.5-0.8,0.9-1.4,1.5-2c-1.5-0.6-1.5-3.1-1-4.6c0.7-0.1,2.9,0.3,1.8-1.3c-0.4-0.5-1.5-0.4-0.9-1.4
	c0.3-0.5,1.1-0.5,1.6-0.5c0.1-0.6,0.4-0.9,0.9-1l-0.2-0.1c-0.5-0.4-1.2-1.1-1.7-1.6c-0.5-0.6-0.9-2.1-0.1-2.4
	c2.2,2.3,4.1,4.8,5.7,7.6c0.1,0.2,0.1,0.4,0.2,0.6c0.3,0.7,0.7,1.4,1,2.1c0.1,0.3,0.3,0.6,0.6,0.8c0.5,1.3,1,2.6,1.4,4
	c0,0.1,0,0.2,0,0.4c-1-0.4-1.5-2.1-2.1-2.9c0,0.3,0,0.7,0,1c-0.2,0-0.4,0-0.6-0.2c-0.3-0.5-0.6-1.1-1-1.6c0.1,0.2,0.1,0.4,0,0.6
	c-1,0-0.8-1.2-1-1.9c-0.3-0.8-1.1-1.3-1.9-0.6c-0.5,0.4-0.6,1.5-1,1.9c-0.2,0.3-0.5,0.4-0.7,0.6c-0.2,0.2-0.5,0.2-0.4,0.8
	c0.9-0.3,1.6-0.4,2.7-0.3c0.7,0.1,1.9-0.1,2.4,0.3c0.3,0.3,0.2,0.7,0.4,1c0.2,0.3,0.4,0.6,0.6,0.9c0.4,0.5,0.9,2,1.6,1.8
	c0-0.2,0.1-0.4,0-0.6c1.3,0.4,1.7,2.7,1.8,3.9c0.2,2.3,0.5,4.8,0.5,7.3c-0.4,6.2-2.3,11.9-5.4,16.9C75,73.1,74.7,70.8,74.8,69.9z"/>
<path fill="#231F20" d="M96.6,32c-0.7,0-1-0.8-1.1-1.6C94.3,20.9,89,17.8,84,17.1v4.6c0,0.6-0.7,1.1-1.2,1.3
	c-0.2,0.1-0.6,0.1-0.8,0.1c-0.3,0-0.7-0.1-1-0.3l-12.4-9.7c-0.4-0.3-0.6-0.7-0.6-1.2c0-0.5,0.2-0.9,0.6-1.2l12.4-9.7
	c0.3-0.2,0.6-0.3,0.9-0.3c0.2,0,0.8,0.1,1,0.1C83.3,1.1,84,1.7,84,2.2v4c5,1,9.6,3.3,12.2,7.1c3,4.2,3.6,10.2,2.1,16.8l-0.1,0.4
	C98,31.2,97.3,32,96.6,32L96.6,32L96.6,32z M82,13.9c3,0.2,10.1,1.4,13.8,8.4c-0.2-2.8-1-5.3-2.4-7.3c-2.3-3.3-5.9-5.3-11.4-6
	c-0.7-0.1-1-0.7-1-1.5V5.3l-8.5,6.7l8.5,6.7v-3.2c0-0.4-0.1-0.8,0.2-1.1C81.4,14.1,81.6,13.9,82,13.9L82,13.9z"/>
</svg>
