<?xml version="1.0" encoding="utf-8"?>
<!-- Generator: Adobe Illustrator 18.0.0, SVG Export Plug-In . SVG Version: 6.00 Build 0)  -->
<!DOCTYPE svg PUBLIC "-//W3C//DTD SVG 1.1//EN" "http://www.w3.org/Graphics/SVG/1.1/DTD/svg11.dtd">
<svg version="1.1" id="Layer_1" xmlns="http://www.w3.org/2000/svg" xmlns:xlink="http://www.w3.org/1999/xlink" x="0px" y="0px"
	 viewBox="0 0 100 100" enable-background="new 0 0 100 100" xml:space="preserve">
<g>
	<path id="XMLID_458_" fill="#231F20" d="M5,54c-0.1,0.2,0,0.2,0.1,0.3c0.2,0.2,0.5,0.3,0.7,0.4c1.2,0.6,2.4,0.8,3.6,0.8
		c2.5,0,4-1.3,4-3.4v0c0-1.9-1.7-2.7-3.3-3.2l-0.2-0.1c-1.2-0.4-2.3-0.7-2.3-1.5v0c0-0.7,0.6-1.2,1.6-1.2c1.1,0,2.3,0.4,3.1,0.8
		c0,0,0.2,0.2,0.3-0.1c0-0.1,0.5-1.2,0.5-1.3c0-0.1,0-0.2-0.1-0.3c-0.9-0.6-2.2-0.9-3.5-0.9l-0.2,0c-2.2,0-3.8,1.4-3.8,3.3v0
		c0,2,1.7,2.7,3.4,3.2l0.3,0.1c1.2,0.4,2.2,0.7,2.2,1.5v0c0,0.8-0.7,1.3-1.7,1.3c-0.4,0-1.7,0-3.2-0.9c-0.2-0.1-0.3-0.2-0.4-0.3
		c-0.1,0-0.2-0.1-0.3,0.1L5,54z"/>
	<path id="XMLID_457_" fill="#231F20" d="M40.9,54c-0.1,0.2,0,0.2,0.1,0.3c0.2,0.2,0.5,0.3,0.7,0.4c1.2,0.6,2.4,0.8,3.6,0.8
		c2.5,0,4-1.3,4-3.4v0c0-1.9-1.7-2.7-3.3-3.2l-0.2-0.1c-1.2-0.4-2.3-0.7-2.3-1.5v0c0-0.7,0.6-1.2,1.6-1.2c1.1,0,2.3,0.4,3.1,0.8
		c0,0,0.2,0.2,0.3-0.1c0-0.1,0.5-1.2,0.5-1.3c0-0.1,0-0.2-0.1-0.3c-0.9-0.6-2.2-0.9-3.5-0.9l-0.2,0c-2.2,0-3.8,1.4-3.8,3.3v0
		c0,2,1.7,2.7,3.4,3.2l0.3,0.1c1.2,0.4,2.2,0.7,2.2,1.5v0c0,0.8-0.7,1.3-1.7,1.3c-0.4,0-1.7,0-3.2-0.9c-0.2-0.1-0.3-0.2-0.4-0.3
		c0,0-0.3-0.1-0.3,0.1L40.9,54z"/>
	<path fill="#231F20" d="M67.5,47.7c-0.2-0.7-0.5-1.3-0.9-1.8c-0.4-0.5-0.9-0.9-1.6-1.2c-0.6-0.3-1.4-0.4-2.2-0.4
		c-0.8,0-1.6,0.1-2.2,0.4C60,45,59.4,45.4,59,45.9c-0.4,0.5-0.7,1.1-0.9,1.8c-0.2,0.7-0.3,1.4-0.3,2.2c0,0.8,0.1,1.5,0.3,2.2
		c0.2,0.7,0.5,1.3,0.9,1.8c0.4,0.5,0.9,0.9,1.6,1.2c0.6,0.3,1.4,0.4,2.2,0.4c0.8,0,1.6-0.1,2.2-0.4c0.6-0.3,1.2-0.7,1.6-1.2
		c0.4-0.5,0.7-1.1,0.9-1.8c0.2-0.7,0.3-1.4,0.3-2.2C67.8,49.1,67.7,48.3,67.5,47.7 M65.4,49.9c0,1.2-0.2,2.1-0.7,2.8
		c-0.4,0.7-1.1,1-2,1c-0.9,0-1.6-0.3-2-1c-0.4-0.7-0.6-1.6-0.6-2.8c0-1.2,0.2-2.1,0.6-2.8c0.4-0.6,1.1-1,2-1c0.9,0,1.6,0.3,2,1
		C65.2,47.7,65.4,48.7,65.4,49.9"/>
	<path id="XMLID_454_" fill-rule="evenodd" clip-rule="evenodd" fill="#231F20" d="M84.3,53.3c-0.1-0.2-0.3-0.1-0.3-0.1
		c-0.3,0.1-0.6,0.2-1,0.3c-0.3,0.1-0.7,0.1-1.1,0.1c-1,0-1.8-0.3-2.3-0.9c-0.6-0.6-0.9-1.5-0.9-2.8c0-1.2,0.3-2,0.8-2.7
		c0.5-0.7,1.3-1,2.3-1c0.8,0,1.5,0.1,2.2,0.3c0,0,0.2,0.1,0.2-0.1c0.2-0.5,0.3-0.9,0.5-1.4c0.1-0.2-0.1-0.2-0.1-0.2
		c-0.3-0.1-0.9-0.3-1.4-0.3c-0.4-0.1-1-0.1-1.5-0.1c-0.9,0-1.6,0.1-2.3,0.4c-0.7,0.3-1.2,0.7-1.7,1.2c-0.4,0.5-0.8,1.1-1,1.8
		c-0.2,0.7-0.3,1.4-0.3,2.2c0,1.7,0.5,3.1,1.4,4.1c0.9,1,2.3,1.5,4,1.5c1.1,0,2.1-0.2,2.9-0.5c0,0,0.1-0.1,0.1-0.2L84.3,53.3z"/>
	<path fill-rule="evenodd" clip-rule="evenodd" fill="#231F20" d="M94.8,47.3c-0.2-0.7-0.6-1.3-0.9-1.6c-0.4-0.5-0.9-0.8-1.3-1
		c-0.6-0.2-1.2-0.4-2-0.4c-0.9,0-1.7,0.1-2.3,0.4c-0.6,0.3-1.2,0.7-1.6,1.2c-0.4,0.5-0.7,1.1-0.9,1.8c-0.2,0.7-0.3,1.4-0.3,2.2
		c0,0.8,0.1,1.5,0.3,2.2c0.2,0.7,0.5,1.3,1,1.8c0.5,0.5,1,0.9,1.7,1.2c0.7,0.3,1.5,0.4,2.5,0.4c2,0,3.1-0.5,3.5-0.7
		c0.1,0,0.1-0.1,0.1-0.3l-0.5-1.3c-0.1-0.2-0.3-0.1-0.3-0.1c-0.5,0.2-1.2,0.5-2.8,0.5c-1.1,0-1.9-0.3-2.4-0.8
		c-0.5-0.5-0.8-1.3-0.8-2.3l6.9,0c0,0,0.2,0,0.2-0.2C95,50.2,95.2,48.8,94.8,47.3 M87.9,48.7c0.1-0.7,0.3-1.2,0.6-1.6
		c0.4-0.6,1.1-1,2-1s1.5,0.4,1.9,1c0.3,0.4,0.4,1,0.5,1.6L87.9,48.7z"/>
	<path fill-rule="evenodd" clip-rule="evenodd" fill="#231F20" d="M39.2,47.3c-0.2-0.7-0.6-1.3-0.9-1.6c-0.4-0.5-0.9-0.8-1.3-1
		c-0.6-0.2-1.2-0.4-2-0.4c-0.9,0-1.7,0.1-2.3,0.4c-0.6,0.3-1.2,0.7-1.6,1.2c-0.4,0.5-0.7,1.1-0.9,1.8c-0.2,0.7-0.3,1.4-0.3,2.2
		c0,0.8,0.1,1.5,0.3,2.2c0.2,0.7,0.5,1.3,1,1.8c0.5,0.5,1,0.9,1.7,1.2c0.7,0.3,1.5,0.4,2.5,0.4c2,0,3.1-0.5,3.5-0.7
		c0.1,0,0.1-0.1,0.1-0.3l-0.5-1.3c-0.1-0.2-0.3-0.1-0.3-0.1c-0.5,0.2-1.2,0.5-2.8,0.5c-1.1,0-1.9-0.3-2.4-0.8
		c-0.5-0.5-0.8-1.3-0.8-2.3l6.9,0c0,0,0.2,0,0.2-0.2C39.5,50.2,39.7,48.8,39.2,47.3 M32.3,48.7c0.1-0.7,0.3-1.2,0.6-1.6
		c0.4-0.6,1.1-1,2-1c0.9,0,1.5,0.4,1.9,1c0.3,0.4,0.4,1,0.5,1.6L32.3,48.7z"/>
	<path fill="#231F20" d="M20.1,48.4c-0.3,0-0.6,0-1.1,0c-0.6,0-1.2,0.1-1.7,0.2c-0.5,0.1-1,0.4-1.4,0.7c-0.4,0.3-0.8,0.7-1,1.1
		c-0.2,0.5-0.4,1-0.4,1.6c0,0.6,0.1,1.1,0.3,1.6c0.2,0.4,0.5,0.8,0.9,1.1c0.4,0.3,0.9,0.5,1.4,0.6c0.5,0.1,1.2,0.2,1.8,0.2
		c0.7,0,1.4-0.1,2.1-0.2c0.7-0.1,1.5-0.3,1.7-0.3c0.2-0.1,0.5-0.1,0.5-0.1c0.2,0,0.2-0.2,0.2-0.2l0-6.3c0-1.4-0.4-2.4-1.1-3.1
		c-0.7-0.6-1.8-1-3.2-1c-0.5,0-1.4,0.1-1.9,0.2c0,0-1.5,0.3-2.1,0.8c0,0-0.1,0.1-0.1,0.3l0.5,1.3c0.1,0.2,0.2,0.1,0.2,0.1
		s0.1,0,0.1-0.1c1.3-0.7,3-0.7,3-0.7c0.7,0,1.3,0.2,1.7,0.4c0.4,0.3,0.6,0.7,0.6,1.7v0.3C20.7,48.4,20.1,48.4,20.1,48.4 M17.3,53.3
		c-0.3-0.2-0.3-0.3-0.4-0.4c-0.1-0.2-0.2-0.5-0.2-0.9c0-0.6,0.2-1,0.6-1.3c0,0,0.6-0.5,2-0.5c1,0,1.9,0.2,1.9,0.2v3.2
		c0,0-0.9,0.2-1.9,0.2C18,53.8,17.3,53.3,17.3,53.3"/>
	<path id="XMLID_447_" fill-rule="evenodd" clip-rule="evenodd" fill="#231F20" d="M76.1,44.8c0.1-0.2-0.1-0.2-0.1-0.2
		c-0.1,0-0.7-0.2-1.2-0.2c-0.9-0.1-1.4,0.1-1.8,0.3c-0.4,0.2-0.9,0.5-1.2,0.9l0-0.8c0-0.1-0.1-0.2-0.2-0.2h-1.8
		c-0.1,0-0.2,0.1-0.2,0.2V55c0,0.1,0.1,0.2,0.2,0.2h1.8c0.1,0,0.2-0.1,0.2-0.2v-5.2c0-0.7,0.1-1.4,0.2-1.8c0.1-0.4,0.4-0.8,0.6-1
		c0.3-0.2,0.5-0.4,0.9-0.5c0.3-0.1,0.7-0.1,0.9-0.1c0.4,0,0.8,0.1,0.8,0.1c0.1,0,0.2-0.1,0.3-0.2C75.7,46,76,45,76.1,44.8"/>
	<path id="XMLID_446_" fill-rule="evenodd" clip-rule="evenodd" fill="#231F20" d="M59,40c-0.2-0.1-0.4-0.1-0.7-0.2
		c-0.3,0-0.6-0.1-0.9-0.1c-1.3,0-2.2,0.4-2.9,1.1c-0.7,0.7-1.2,1.8-1.4,3.1l-0.1,0.5h-1.6c0,0-0.2,0-0.2,0.2l-0.3,1.4
		c0,0.1,0,0.2,0.2,0.2h1.5L51,55c-0.1,0.7-0.3,1.3-0.4,1.7c-0.2,0.4-0.3,0.8-0.5,1c-0.2,0.2-0.3,0.4-0.6,0.5
		c-0.2,0.1-0.5,0.1-0.8,0.1c-0.2,0-0.4,0-0.6-0.1c-0.2,0-0.3-0.1-0.4-0.1c0,0-0.2-0.1-0.3,0.1c-0.1,0.1-0.5,1.3-0.5,1.4
		c0,0.1,0,0.2,0.1,0.3c0.2,0.1,0.4,0.1,0.6,0.2c0.4,0.1,0.7,0.1,1,0.1c0.6,0,1.2-0.1,1.7-0.3c0.5-0.2,0.9-0.5,1.3-0.9
		c0.4-0.4,0.7-0.9,0.9-1.6c0.2-0.6,0.4-1.4,0.6-2.3l1.6-8.8h2.3c0,0,0.2,0,0.2-0.2l0.3-1.4c0-0.1,0-0.2-0.2-0.2h-2.2
		c0,0,0.1-0.8,0.4-1.6c0.1-0.3,0.3-0.6,0.5-0.7c0.2-0.2,0.4-0.3,0.6-0.4c0.2-0.1,0.5-0.1,0.7-0.1c0.2,0,0.4,0,0.6,0.1
		c0.2,0,0.3,0.1,0.4,0.1c0.2,0.1,0.3,0,0.3-0.1l0.5-1.5C59.1,40.1,59,40,59,40"/>
	<path id="XMLID_445_" fill-rule="evenodd" clip-rule="evenodd" fill="#231F20" d="M28,55c0,0.1-0.1,0.2-0.2,0.2h-1.8
		c-0.1,0-0.2-0.1-0.2-0.2V40.2c0-0.1,0.1-0.2,0.2-0.2h1.8c0.1,0,0.2,0.1,0.2,0.2V55z"/>
</g>
</svg>
