<?xml version="1.0" encoding="utf-8"?>
<!-- Generator: Adobe Illustrator 18.0.0, SVG Export Plug-In . SVG Version: 6.00 Build 0)  -->
<!DOCTYPE svg PUBLIC "-//W3C//DTD SVG 1.1//EN" "http://www.w3.org/Graphics/SVG/1.1/DTD/svg11.dtd">
<svg version="1.1" id="Layer_1" xmlns="http://www.w3.org/2000/svg" xmlns:xlink="http://www.w3.org/1999/xlink" x="0px" y="0px"
	 viewBox="0 0 100 100" enable-background="new 0 0 100 100" xml:space="preserve">
<path fill="#202020" d="M97.7,20.4c-3.5,1.6-7.3,2.6-11.2,3.1c4-2.4,7.1-6.3,8.6-10.8c-3.8,2.2-8,3.9-12.4,4.8
	c-3.6-3.8-8.7-6.2-14.3-6.2c-10.8,0-19.6,8.8-19.6,19.6c0,1.5,0.2,3,0.5,4.5C33,34.4,18.6,26.6,8.9,14.8c-1.7,2.9-2.7,6.3-2.7,9.8
	c0,6.8,3.5,12.8,8.7,16.3c-3.2-0.1-6.2-1-8.9-2.4c0,0.1,0,0.2,0,0.2c0,9.5,6.8,17.4,15.7,19.2c-1.6,0.4-3.4,0.7-5.2,0.7
	c-1.3,0-2.5-0.1-3.7-0.4c2.5,7.8,9.7,13.4,18.3,13.6c-6.7,5.3-15.1,8.4-24.3,8.4c-1.6,0-3.1-0.1-4.7-0.3c8.7,5.6,19,8.8,30,8.8
	c36,0,55.7-29.8,55.7-55.7c0-0.8,0-1.7-0.1-2.5C91.8,27.8,95.1,24.3,97.7,20.4L97.7,20.4z"/>
</svg>
