<?xml version="1.0" encoding="utf-8"?>
<!-- Generator: Adobe Illustrator 18.0.0, SVG Export Plug-In . SVG Version: 6.00 Build 0)  -->
<!DOCTYPE svg PUBLIC "-//W3C//DTD SVG 1.1//EN" "http://www.w3.org/Graphics/SVG/1.1/DTD/svg11.dtd">
<svg version="1.1" id="Layer_1" xmlns="http://www.w3.org/2000/svg" xmlns:xlink="http://www.w3.org/1999/xlink" x="0px" y="0px"
	 viewBox="0 0 100 100" enable-background="new 0 0 100 100" xml:space="preserve">
<path fill="#202020" d="M50,1C22.9,1,1,22.9,1,50c0,27.1,21.9,49,49,49c27.1,0,49-21.9,49-49C99,22.9,77.1,1,50,1z M49.5,75.8
	c-2.3,0-4.5-1.6-4.5-4.1v-8.5v-6.4v-8.4c0-2.4,2.2-4.1,4.5-4.1c2.4,0,4.5,1.7,4.5,4.1v8.4v6.4v8.5C54,74.1,51.9,75.8,49.5,75.8z
	 M54.5,33.8c0,2.7-2.2,5-5,5c-2.7,0-5-2.2-5-5c0-2.7,2.2-5,5-5C52.3,28.9,54.5,31.1,54.5,33.8z"/>
</svg>
