<?xml version="1.0" encoding="utf-8"?>
<!-- Generator: Adobe Illustrator 18.0.0, SVG Export Plug-In . SVG Version: 6.00 Build 0)  -->
<!DOCTYPE svg PUBLIC "-//W3C//DTD SVG 1.1//EN" "http://www.w3.org/Graphics/SVG/1.1/DTD/svg11.dtd">
<svg version="1.1" id="Layer_1" xmlns="http://www.w3.org/2000/svg" xmlns:xlink="http://www.w3.org/1999/xlink" x="0px" y="0px"
	 viewBox="0 0 100 100" enable-background="new 0 0 100 100" xml:space="preserve">
<path fill="#202020" d="M95.2,45.2L62.4,12.4c-2.6-2.6-6.5-2.8-9.1-0.2c-2.6,2.6-2.4,6.5,0.2,9.1l21.8,21.8l-66.1,0
	c-3.6,0-6.6,2.9-6.6,6.5c0,3.6,2.9,6.5,6.5,6.5l66.1,0L53.5,78c-2.6,2.6-2.8,6.5-0.2,9.1c2.6,2.6,6.5,2.4,9.1-0.2l33-33
	c0,0,2.3-2.2,2.3-4.2C97.7,47.7,95.2,45.2,95.2,45.2L95.2,45.2z"/>
</svg>
