<?xml version="1.0" encoding="utf-8"?>
<!-- Generator: Adobe Illustrator 18.0.0, SVG Export Plug-In . SVG Version: 6.00 Build 0)  -->
<!DOCTYPE svg PUBLIC "-//W3C//DTD SVG 1.1//EN" "http://www.w3.org/Graphics/SVG/1.1/DTD/svg11.dtd">
<svg version="1.1" id="Layer_1" xmlns="http://www.w3.org/2000/svg" xmlns:xlink="http://www.w3.org/1999/xlink" x="0px" y="0px"
	 viewBox="0 0 100 100" enable-background="new 0 0 100 100" xml:space="preserve">
<path fill="#202020" d="M50,21.2c-0.8,0-1.6,0-2.4,0c-12-0.3-22.4-2.4-29-4.1c-4.2-1.1-4.2-3.5-0.1-4.7c6.8-1.8,17.8-4,31.5-4
	c14,0,24.8,2.2,31.5,4c4.2,1.1,4.1,3.6-0.1,4.7c-6.6,1.7-17,3.9-29,4.1C51.6,21.2,50.8,21.2,50,21.2 M6,14C6,14.2,6,14.5,6,14.8
	c0,0.6,0.1,1.1,0.2,1.6c0.2,0.7,0.5,1.4,1,2.1l29.1,40.3c1.6,2.2,3.3,6.1,3.3,8.8v27.6c0,3.4,2.1,4.3,4.6,2.1l14-11.9
	c1.3-1.1,2.3-3.3,2.3-5V67.6c0-2.7,1.6-6.7,3.2-8.8l29-40.3c0.5-0.7,0.8-1.4,1-2.2c0.1-0.5,0.2-1,0.2-1.5c0-0.3,0-0.6-0.1-0.9
	C92.2,1.8,54.4,1.5,50,1.5C45.6,1.5,7.6,1.8,6,14"/>
</svg>
