<?xml version="1.0" encoding="utf-8"?>
<!-- Generator: Adobe Illustrator 18.0.0, SVG Export Plug-In . SVG Version: 6.00 Build 0)  -->
<!DOCTYPE svg PUBLIC "-//W3C//DTD SVG 1.1//EN" "http://www.w3.org/Graphics/SVG/1.1/DTD/svg11.dtd">
<svg version="1.1" id="Layer_1" xmlns="http://www.w3.org/2000/svg" xmlns:xlink="http://www.w3.org/1999/xlink" x="0px" y="0px"
	 viewBox="0 0 100 100" enable-background="new 0 0 100 100" xml:space="preserve">
<path fill="#202020" d="M50,90c-0.2,0-0.3,0-0.5-0.1L21.4,73c-0.3-0.2-0.4-0.5-0.4-0.8V56.4L4.1,46.7c-0.3-0.2-0.5-0.5-0.5-0.8
	c0-0.3,0.2-0.6,0.5-0.8l13.4-7.8L4.1,29.5c-0.3-0.2-0.5-0.5-0.5-0.8c0-0.3,0.2-0.6,0.5-0.8l30.7-17.7c0.1-0.1,0.3-0.1,0.5-0.1
	c0.2,0,0.3,0,0.5,0.1L50,18.5l14.3-8.3c0.1-0.1,0.3-0.1,0.5-0.1c0.2,0,0.3,0,0.5,0.1l30.7,17.7c0.3,0.2,0.5,0.5,0.5,0.8
	c0,0.3-0.2,0.6-0.5,0.8l-13.4,7.8L95.9,45c0.3,0.2,0.5,0.5,0.5,0.8c0,0.3-0.1,0.6-0.4,0.8L79,56.6v15.7c0,0.3-0.3,0.6-0.6,0.8
	L50.5,89.8C50.4,89.9,50.2,90,50,90z M47,82.6v-25l-11.6,6.8c-0.1,0.1-0.2,0.1-0.4,0.1c-0.2,0-0.3,0-0.5-0.1l-8.6-5v10.4L47,82.6z
	 M53,82.5l20-12.7V59.6l-8,4.8c-0.1,0.1-0.2,0.1-0.3,0.1c-0.2,0,0,0-0.2-0.1L53,57.5V82.5z M64.8,58.7L87,45.8l-9.7-5.6L55.2,53.1
	L64.8,58.7z M35.2,58.7l9.7-5.6L22.6,40.2L13,45.8L35.2,58.7z M50,50.1l22.2-12.8L50,24.4L27.8,37.3L50,50.1z M77.4,34.3l9.7-5.6
	L64.8,15.8l-9.7,5.6L77.4,34.3z M22.6,34.3l22.2-12.8l-9.7-5.6L13,28.7L22.6,34.3z"/>
</svg>
