<?xml version="1.0" encoding="utf-8"?>
<!-- Generator: Adobe Illustrator 18.0.0, SVG Export Plug-In . SVG Version: 6.00 Build 0)  -->
<!DOCTYPE svg PUBLIC "-//W3C//DTD SVG 1.1//EN" "http://www.w3.org/Graphics/SVG/1.1/DTD/svg11.dtd">
<svg version="1.1" id="Layer_1" xmlns="http://www.w3.org/2000/svg" xmlns:xlink="http://www.w3.org/1999/xlink" x="0px" y="0px"
	 viewBox="0 0 100 100" enable-background="new 0 0 100 100" xml:space="preserve">
<path fill="#231F20" d="M51.6,68.3c0,0.1,0.1,0.1,0.2,0.1c0-0.1,0-0.2,0-0.3C51.6,68.2,51.6,68.2,51.6,68.3 M59.2,67.2
	c0.2,0.1,0.6,0.1,0.7-0.1C59.7,66.7,59.2,66.7,59.2,67.2 M82.8,54.8c0.1,0.1,0.3,0.1,0.5,0C83.3,54.5,82.8,54.6,82.8,54.8
	 M82.4,49.3c0.1-0.2,0-0.5-0.1-0.6C82.3,48.9,82.2,49.3,82.4,49.3 M67.3,31.4c-0.2,0-0.2,0.2-0.4,0.3c-0.3,0.1-0.5,0.1-0.8,0.1
	c-0.2,0.1-0.2,0.3-0.3,0.4c-0.1,0.1-0.2,0.1-0.3,0.2c-0.1,0.1-0.1,0.3-0.3,0.3c-0.1,0-0.1-0.3-0.2-0.3c-0.2,0-0.4,0.1-0.5,0.1
	c-0.3,0.4-0.4,0.9-0.7,1.3c0,0.6-0.7,0.6-0.6,1.2c0.2-0.1,0.3-0.3,0.4-0.5c0.1-0.1,0.3-0.1,0.4-0.3c0.1-0.1,0.1-0.3,0.1-0.5
	c0.4-0.1,0.5-0.6,0.8-0.6c0.1,0.2-0.1,0.3-0.2,0.5c-0.1,0.1,0,0.2-0.1,0.4c-0.2,0.5-0.8,1.2-0.8,1.9c0,0.1,0.1,0.2,0,0.3
	c0,0.2-0.2,0.2-0.2,0.4c-0.1,0.3,0,0.6-0.1,0.9c0,0.3-0.3,0.6-0.3,1c-0.1,0.5,0.2,0.9,0.2,1.3c0,0.1-0.1,0.2-0.1,0.4
	c0,0.3,0,0.6,0,0.8c0,0.1,0.2,0.3,0.3,0.5c0.1,0.2,0.1,0.4,0.2,0.6c0.3,0.7,1.3,0,1.5-0.3c0.1-0.1,0.1-0.3,0.2-0.5
	c0.1-0.2,0.2-0.3,0.3-0.5c0.1-0.4,0.2-1,0.2-1.5c0-0.3-0.2-0.5-0.3-0.8c-0.1-0.2-0.2-0.6-0.2-0.8c0-0.1,0.2-0.3,0.2-0.5
	c0-0.2-0.1-0.4-0.1-0.6c0-0.2,0.3-0.4,0.3-0.6c0.1-0.3,0-0.6,0.1-0.8c0-0.1,0.2-0.2,0.2-0.3c0.1-0.2,0-0.3,0.2-0.4
	c0.1,0,0.2-0.1,0.3-0.1c0.2-0.1,0.2-0.4,0.5-0.4c0.2,0.1-0.1,0.3,0.1,0.4c0.1-0.1,0-0.2,0-0.4c0-0.3,0.5-0.3,0.5-0.6
	c0-0.1,0-0.3,0-0.3c0-0.3,0.3-0.4,0.4-0.7C68.2,31.7,67.7,31.3,67.3,31.4 M55.8,25.4c0.2,0,0.2-0.1,0.4-0.1c0.2,0,0.2,0.2,0.4,0.3
	c0.1,0.1,0.2,0.1,0.3,0.2c0.2,0.2,0.2,0.3,0.6,0.3c0.2,0,0.5-0.4,0.7-0.4c0.2,0,0.3,0.3,0.4,0.3c0.2,0.1,0.6,0,0.9,0
	c0.2,0,0.2,0.2,0.4,0.3c0.2,0,0.5,0,0.6,0.1c0,0.2-0.2,0.3-0.3,0.3c-0.4,0.2-0.9,0.3-1.3,0.5c-0.3,0.1-0.5,0.3-0.7,0.5
	c-0.2,0.2-0.4,0.4-0.6,0.7c-0.2,0.2-0.4,0.4-0.6,0.6c-0.2,0.2-0.5,0.3-0.6,0.6c0.2,0.2,0.5,0,0.7-0.1c0.2-0.1,0.5-0.2,0.7-0.3
	c0.3-0.2,0.7-0.6,1.2-0.4c0,0.4-0.3,0.6-0.5,0.8c0.2,0.4,0.6,0.3,1,0.1c0.2-0.1,0.3-0.3,0.5-0.4c0.2-0.1,0.4,0,0.6-0.1
	c0.1,0,0.2-0.1,0.3-0.2c0.1-0.1,0.2-0.1,0.3-0.2c0.1-0.1,0.2-0.2,0.3-0.3c0.1-0.1,0.3-0.2,0.4-0.3c0.3-0.3,1-0.8,1.4-0.3
	c-0.2,0.2-0.5,0.3-0.7,0.6c-0.2,0.2-0.3,0.4-0.3,0.7c0.4,0,0.8,0,1.1,0.2c0.3,0.2,0.4,0.7,0.7,0.9c0.3-0.2,0.6,0.1,1,0.1
	c0.2,0,0.5-0.3,0.8-0.4c0.3-0.1,0.7,0,1.1-0.1c0.3,0,0.6-0.3,0.9-0.2c0.1,0.1-0.1,0.4,0,0.6c0.4,0.4,1,0,1.4,0c0.1,0.3,0,0.9,0.3,1
	c0.5-0.1,1,0.1,0.8,0.5c-0.3,0.2-0.8-0.1-1.1-0.1c-0.1,0-0.2,0.1-0.3,0.1c-0.1,0-0.3-0.1-0.4,0c0,0.2,0.3,0.1,0.3,0.3
	c0,0.3,0.2,0.3,0.4,0.4c0.1,0.1,0.1,0.2,0.2,0.3c0.1,0,0.2,0,0.3,0.1c0.1,0,0.2,0.1,0.2,0.1c0.2,0.1,0.4,0.1,0.5,0.2
	c0.1,0.1,0.3,0.5,0.3,0.7c0,0.2-0.1,0.1-0.2,0.3c0.2,0.4,0.2,1,0.1,1.5c-0.1,0.3-0.4,0.5-0.4,0.8c-0.1,0.1-0.7,0.3-0.6,0.7
	c0,0.1,0.1,0.2,0.3,0.2c0.4,0,0.3-0.4,0.5-0.6c0.1-0.1,0.7-0.5,0.9-0.4c0.6,0.1,0.6,1.6,0.7,2.2c0,0.1,0.1,0.3,0.1,0.5
	c0,0.3-0.1,0.8-0.2,1c0,0.1-0.2,0.2-0.3,0.3c-0.2,0.2-0.4,0.4-0.7,0.5c-0.1,0.2,0,0.3-0.1,0.5c-0.1,0.3-0.4,0.4-0.4,0.6
	c0,0.3,0.4,0.3,0.6,0.5c0.2,0,0.2-0.2,0.4-0.1c0.1,0.1,0.2,0.4,0.4,0.5c0.2,0,0.4-0.2,0.8-0.3c0.2,0,0.3,0,0.4,0
	c0.2-0.1,0.6-0.4,0.9-0.6c0.5-0.3,1-0.4,1.5-0.6c0.1-0.1,0.2-0.2,0.3-0.3c0.1-0.1,0.3-0.1,0.4-0.2c0.3-0.1,0.5-0.3,0.7-0.5
	c0.2-0.2,0.4-0.3,0.6-0.6c0.1-0.2,0.2-0.2,0.3-0.3c0-0.3-0.4-0.6-0.2-1.1c0.4-0.2,1.4-0.5,2.1-0.2c0.2,0.1,0.3,0.2,0.4,0.2
	c0.1,0,0.2,0,0.4-0.1c0.3,0,0.6,0,0.7-0.1c0.2-0.1,0.3-0.3,0.5-0.4s0.5-0.1,0.5-0.3c0.1-0.3-0.1-0.4-0.2-0.6c0.1-0.2-0.1-0.4,0-0.6
	c0-0.1,0.3-0.4,0.5-0.6c0.1-0.1,0.3-0.1,0.3-0.2c0.1-0.1,0.1-0.3,0.2-0.4c0.1-0.2,0.6-0.7,0.8-0.8c0.1-0.1,0.2-0.1,0.3-0.2
	c0.1-0.1,0.2-0.2,0.3-0.2c0.4-0.1,0.9,0,1.4,0H89c0.4,0,1.1,0.1,1.4,0c0.2-0.1,0.2-0.5,0.4-0.6c0.3,0,0.5-0.1,0.8-0.2
	c0.3-0.2,0.3-0.5,0.5-0.8c0.2-0.2,0.3-0.4,0.4-0.7c0-0.2,0-0.7,0.1-0.9c0.1-0.1,0.2-0.3,0.3-0.4c0.1-0.1,0-0.4,0.1-0.5
	c0.1-0.2,0.2-0.4,0.3-0.6c0.1-0.2,0.2-0.4,0.3-0.5c0.2-0.3,0.5-1,0.8-0.9c0.3,0.1,0.2,0.4,0.3,0.6c0.6,0.1,0.7-0.3,1.2-0.3
	c0.3,0,0.5,0.3,0.7,0.5c0.1,0.1,0.2,0.3,0.2,0.3c0.1,0.3,0,0.9,0,1.4c0,0.5,0,1,0,1.4c0,0.1-0.1,0.3,0,0.4c0.1,0.3,0.4,0.3,0.6,0.4
	v0.8c0.1,0.2,0.3,0.1,0.5,0.3c0.1,0.1,0.1,0.3,0.2,0.4c0.1,0.2,0.2,0.2,0.2,0.4c0,0.2-0.3,0.5-0.5,0.6c-0.2,0.1-0.5,0.1-0.6,0.3
	c-0.3-0.1-0.4,0.1-0.6,0.2c-0.2,0.1-0.3,0.1-0.4,0.2c-0.1,0.1-0.2,0.3-0.3,0.4c-0.2,0-0.4,0.1-0.5,0.2c-0.2-0.1-0.4,0.1-0.5,0
	c-0.2,0.1-0.3,0.3-0.4,0.4c-0.4-0.1-0.6,0.4-0.9,0.4c-0.1,0-0.3,0-0.4,0c-0.1,0-0.2,0.1-0.3,0.2c-0.1,0.1-0.2,0.2-0.2,0.2
	c-0.1,0.1-0.1,0.2-0.1,0.3c-0.1,0.1-0.2,0.2-0.3,0.3c0,0.1-0.1,0.2-0.1,0.3c-0.1,0.3-0.3,0.5-0.3,0.7c0,0.2,0.2,0.3,0.3,0.4
	c0,0.3-0.5,0.3-0.5,0.6c0,0.1,0.3,0.3,0.4,0.4c0.2,0.3,0.2,0.9,0.5,1c0.2,0.1,0.4-0.1,0.5-0.2c0-0.3-0.2-0.3-0.2-0.5
	c0.4-0.1,0.6,0.7,0.4,1.1c-0.3,0-0.7,0-0.9,0.2c0,0.2,0.1,0.2,0.1,0.4c-0.2,0.1-0.4,0.2-0.5,0.1c-0.2-0.1-0.2-0.3-0.3-0.4
	c-0.6-0.1-1,0.4-1.6,0.5c-0.1,0-0.3,0-0.4,0c-0.1,0-0.2,0.1-0.3,0.1c-0.3,0-0.7,0-1,0c-0.2,0-0.3,0.1-0.5,0.2
	c-0.2,0.1-0.4,0.1-0.4,0.3c0.1,0.2,0.3,0,0.5,0c0.2,0,0.4,0,0.7,0c0.2-0.1,0.4-0.4,0.6-0.4c0.2,0,0.4,0.3,0.6,0.3
	c-0.1,0.2-0.4,0.3-0.6,0.4c-0.4,0.2-0.9,0.4-1.4,0.5c-0.4,0.1-0.9,0.2-1.4,0.3c0.1,0.4,0,0.7-0.1,1.1c-0.1,0.5-0.1,0.7-0.3,1.1
	c-0.1,0.1-0.1,0.3-0.2,0.4c-0.1,0.2-0.4,0.3-0.5,0.4c-0.2,0.2-0.2,0.7-0.6,0.6c-0.1-0.1,0-0.3-0.1-0.5c-0.2-0.1-0.4-0.2-0.5-0.3
	c-0.1,0.3,0,0.5,0.1,0.7c0.1,0.2,0.3,0.2,0.3,0.4c0.1,0.2,0.1,0.7,0,1c0,0.1-0.2,0.3-0.2,0.5c-0.1,0.2-0.2,0.3-0.2,0.4
	c-0.1,0.2-0.3,0.2-0.3,0.4c-0.1,0.1-0.1,0.3-0.1,0.5c0,0.1-0.1,0.2-0.2,0.3c-0.1,0.2-0.2,0.8-0.5,0.7c-0.1,0-0.2-0.2-0.2-0.3
	c-0.1-0.4,0.3-1,0.4-1.4c0-0.2-0.3-0.1-0.3-0.2c-0.1-0.3-0.1-0.6-0.4-0.7c-0.1,0.2,0.1,0.4-0.1,0.5c0,0.1,0.2,0.2,0.2,0.4
	c0,0.1-0.1,0.3-0.1,0.5c0,0.2,0.1,0.4,0.1,0.5c0,0.2-0.1,0.3-0.2,0.4c0,0.2,0.1,0.3,0.2,0.5c0.1,0.1,0.3,0.1,0.4,0.2
	c0.2,0.5,0.2,1.2,0.4,1.7c0.1,0.2,0.3,0.4,0.3,0.6c0,0.2-0.2,0.1-0.2,0.2c-0.1,0.2-0.2,0.4-0.4,0.5c-0.1,0.3-0.4,0.5-0.8,0.5
	c-0.1,0.1-0.2,0.2-0.1,0.3c0.1,0.2,0.4,0.1,0.5,0.3c-0.1,0.3-0.4,0.5-0.6,0.8c-0.3-0.1-0.6-0.1-1,0c-0.4,0.2-0.9,0.6-1.1,0.9
	C80,59,80,59.3,79.8,59.5c-0.5-0.1-1,0-1.3,0.2c-0.2,0.2-0.5,0.5-0.6,0.8c0,0.1,0,0.3-0.1,0.4c-0.1,0.2-0.3,0.4-0.5,0.5
	c-0.3,0.3-0.5,0.6-0.8,0.8c-0.2,0.1-0.4,0.1-0.6,0.3c-0.1,0.1-0.1,0.2-0.2,0.3c-0.1,0.2-0.4,0.3-0.5,0.4c-0.1,0.1-0.1,0.3-0.2,0.4
	c-0.1,0.2-0.3,0.3-0.3,0.4c-0.1,0.1,0,0.3-0.1,0.4c0,0.1-0.2,0.2-0.2,0.3c0,0.1,0,0.2,0,0.3c-0.1,0.1-0.2,0.2-0.2,0.3
	c-0.1,0.3-0.1,0.7,0,1c0.1,0.7,0.3,1.5,0.5,2.2c0.2,0.5,0.4,1,0.7,1.4c0.1,0.2,0.2,0.3,0.3,0.4c0,0.2-0.1,0.4-0.1,0.6
	c0,0.2,0.1,0.5,0.2,0.7c0.1,0.2,0.2,0.4,0.3,0.7c0.1,0.5,0.4,0.9,0.5,1.4c0.1,0.5-0.1,1-0.1,1.5c0,0.5,0,0.7-0.3,1
	c0.2,0.5-0.1,0.9-0.4,1.1c-0.1-0.1-0.2-0.2-0.4-0.2c-0.2,0-0.5,0.1-0.6,0c-0.1-0.2-0.1-0.4-0.1-0.5c-0.1-0.5-0.4-0.8-0.9-0.9
	c-0.2-0.2-0.1-0.7-0.3-0.9c-0.1-0.2-0.3-0.1-0.5-0.2c-0.3-0.7-0.6-1.4-0.9-2c0.1-0.3-0.2-0.5-0.2-0.8c-0.1-0.5,0.3-1,0.3-1.5
	c0-0.4-0.1-0.6-0.3-1c-0.1-0.1-0.3,0-0.3-0.1c-0.1-0.1-0.2-0.2-0.3-0.3c-0.1-0.1-0.2-0.2-0.3-0.3c-0.2-0.3-0.4-0.7-0.6-0.8
	c-0.2-0.1-0.4-0.3-0.6-0.3c-0.2,0-0.2,0.2-0.3,0.3c-0.4,0.1-0.7,0.6-1.2,0.6c-0.2,0-0.4-0.1-0.6-0.2c0-0.5-0.5-0.7-0.8-1
	c-0.4-0.3-0.8-0.4-1.4-0.4c-0.3,0-0.6,0.1-0.8,0.2c-0.3,0.1-0.7,0.2-0.9,0.1c-0.2-0.1-0.2-0.3-0.3-0.4c-0.2,0-0.1,0.3-0.2,0.3
	c-0.2,0-0.2-0.1-0.4-0.1c-0.1,0-0.2,0.1-0.4,0.1c-0.3,0-0.7-0.5-0.9,0c-0.2,0-0.3,0-0.3,0.1c0,0.2,0.2,0,0.3,0.1
	c0,0.3,0,0.5-0.1,0.8c-0.1,0.3-0.4,0.3-0.4,0.5c0,0.2,0.2,0.2,0.5,0.3c0.1,0.2,0.3,0.2,0.3,0.4c0,0.3-0.3,0.4-0.6,0.3
	c-0.2-0.1-0.1-0.3-0.3-0.4c-0.4-0.4-0.8,0-1.1,0.2c-0.2,0-0.5,0-0.6-0.1c-0.2,0.1-0.2,0.2-0.4,0.2c-0.2,0-0.2-0.1-0.4-0.3
	c-0.2-0.1-0.3-0.1-0.4-0.2c-0.1-0.3-0.3-0.6-0.5-0.7c-0.1,0-0.1,0.2-0.3,0.3c-0.2,0-0.3-0.1-0.5-0.2c-0.1,0-0.3,0.1-0.4,0.1
	c-0.6,0-0.9-0.4-1.4-0.5c-0.3,0-0.5,0-0.8,0c-0.1,0-0.3,0.1-0.4,0.2c-0.1,0-0.2,0-0.2,0c-0.2,0-0.3,0.1-0.5,0.2
	c-0.1,0.1-0.3,0.1-0.5,0.2c-0.2,0.1-0.2,0.3-0.3,0.4c-0.1,0.1-0.3,0.2-0.4,0.3c-0.5,0.4-1.2,0.9-1.9,1.1c-0.2,0-0.1-0.1-0.3-0.1
	c-0.2,0.1,0.1,0.2,0,0.3c-0.3,0.5-0.8,0.6-1.1,1c0,0.1-0.1,0.2-0.1,0.3c-0.2,0.3-0.6,1.1-0.6,1.7c0,0.1,0.1,0.3,0.1,0.4
	c0,0.1,0,0.3,0,0.4c0,0.1,0.1,0.2,0.2,0.3c0,0.1,0.2,0.6,0.2,0.8c0,0.1-0.3,0.3-0.5,0.3c-0.2,0-0.4-0.3-0.5-0.3
	c-0.2-0.1-0.5,0-0.8,0c-0.2,0-0.3-0.2-0.5-0.3c-0.1,0-0.2,0-0.3-0.1c-0.2-0.1-0.4-0.3-0.7-0.3c-0.2-0.2-0.2-0.5-0.3-0.7
	c-0.1-0.2-0.3-0.4-0.3-0.6c0-0.1,0-0.2,0-0.3c0-0.1-0.1-0.1-0.1-0.2c0-0.1,0-0.3,0-0.4c-0.1-0.2-0.4-0.3-0.6-0.5
	c-0.1-0.1-0.1-0.4-0.3-0.5c-0.1-0.2-0.3-0.3-0.4-0.4c-0.1-0.1-0.1-0.3-0.2-0.4c-0.1-0.3-0.2-0.5-0.3-0.8c-0.1-0.3-0.2-0.5-0.4-0.7
	c-0.3-0.4-0.8-0.6-1.1-1c-0.5,0-0.9-0.1-1.3-0.2c-0.3,0.2-0.5,0.1-0.7,0.3c-0.2,0.2-0.2,0.6-0.3,0.9c-0.1,0.1-0.4,0.5-0.6,0.5
	c-0.3,0.1-0.8-0.4-1.1-0.6c-0.1,0-0.3-0.1-0.3-0.1c-0.1-0.1-0.2-0.2-0.4-0.4c-0.3-0.3-0.4-0.3-0.6-0.7c0-0.1-0.1-0.2-0.2-0.3
	c0-0.2,0-0.3,0-0.5c0-0.1-0.2-0.2-0.2-0.4c-0.1-0.1-0.1-0.3-0.2-0.4c-0.2-0.3-0.4-0.3-0.7-0.5c-0.3-0.2-0.6-0.7-0.9-1
	c-0.2-0.1-0.4-0.2-0.5-0.3c-0.1-0.2-0.2-0.4-0.4-0.5c-0.3-0.2-1-0.1-1.4-0.1c-0.5,0-0.9,0-1.4,0c-0.1,0.2,0,0.6-0.1,0.8
	c-0.3,0.2-0.7,0.1-1.1,0.1h-1.2c-0.8,0-1.6,0.1-2.4,0c-0.1,0-0.1,0-0.2,0c-0.5-0.1-1-0.4-1.5-0.6c-0.5-0.2-1-0.4-1.5-0.6
	c-1.1-0.4-2.1-0.8-3-1.2c-0.1-0.1,0-0.3-0.1-0.4c-1.3,0.1-2.4,0.3-3.7,0.3c-0.4-0.2-0.3-0.6-0.4-1c-0.2-0.8-0.9-1.1-1.4-1.5
	c-0.1-0.1-0.3,0.1-0.4,0c-0.2-0.1-0.1-0.4-0.3-0.6c-0.5-0.1-0.7,0-1-0.2c-0.3-0.2-0.4-0.5-0.6-0.6c-0.1,0-0.3,0-0.5,0
	c-0.2,0-0.3-0.1-0.5-0.1c-0.1,0-0.3,0.1-0.5,0c-0.2,0-0.4-0.2-0.4-0.3c-0.1-0.3,0-0.7-0.1-1c-0.1-0.2-0.2-0.2-0.3-0.3
	c-0.1-0.1,0-0.2,0-0.3C8.1,56.1,8,56,7.9,55.9c-0.3-0.3-0.4-0.5-0.7-0.8c-0.1-0.2-0.2-0.3-0.3-0.5c-0.2-0.2-0.6-0.5-0.5-0.9
	c0-0.2,0.5-0.6,0.1-0.8c-0.1-0.1-0.2,0-0.3-0.1c-0.1-0.1-0.4-0.4-0.5-0.5c0-0.1,0-0.3-0.1-0.4c0-0.1-0.1-0.2-0.1-0.3
	c0-0.2,0-0.4,0-0.5c-0.1-0.3-0.5-0.4-0.7-0.6c0-0.4-0.1-0.6-0.3-0.9c-0.1-0.1-0.2-0.2-0.3-0.3C4,49.1,4,49,3.8,48.8
	c-0.1-0.2-0.3-0.3-0.3-0.4c0-0.1,0-0.3,0-0.4c0-0.2-0.2-0.5-0.2-0.7c0-0.1,0.1-0.3,0.1-0.5c0-0.4-0.3-0.8-0.5-1
	c-0.2-0.3-0.5-0.4-0.5-0.9c0-0.4,0.4-0.8,0.4-1.1c0-0.2,0-0.4,0-0.5c0-0.4,0.2-0.7,0-1.1c0-0.1-0.1-0.2-0.2-0.3c0-0.1,0-0.3,0-0.4
	c0-0.2-0.2-0.3-0.2-0.4c-0.1-0.2-0.1-0.4-0.1-0.6c0-0.1,0.1-0.3,0-0.5c0-0.2-0.2-0.4-0.2-0.6c0-0.1,0.1-0.4,0.2-0.6
	c0-0.2,0-0.4,0.1-0.6c0-0.2,0.2-0.3,0.2-0.4c0.2-0.6,0.2-1.2,0.2-1.8c0-0.3,0.1-0.5,0.1-0.8c0-0.2,0-0.4,0-0.5
	c0-0.3,0.1-0.6,0.2-0.9c0.1-0.6-0.1-1.3,0-1.9c0-0.1,0.1-0.2,0.1-0.3c0-0.3-0.2-0.4-0.2-0.7c0-0.3,0.1-0.6,0.1-0.9
	c0-0.1-0.1-0.2-0.1-0.3c-0.1-0.3-0.1-0.7-0.2-1c-0.1-0.2-0.2-0.4-0.2-0.5c-0.1-0.3-0.1-0.6-0.2-0.8c-0.1-0.2-0.3-0.4-0.4-0.6
	c-0.1-0.4-0.1-0.8,0-1.2c0.2-0.1,0.4,0.1,0.6,0.2c0.2,0.1,0.4,0.3,0.6,0.3c0.3,0.1,0.7,0,1,0.1c0.1,0,0.2-0.1,0.3-0.1
	C4.7,26,4.8,26,5,26c0.2-0.1,0.2-0.4,0.2-0.6c-0.4-0.1-0.9-0.2-0.8-0.6c0.1-0.2,0.4-0.4,0.7-0.3c0.1-0.2-0.2-0.4-0.1-0.6
	c0.1-0.2,0.5-0.2,0.7-0.2c1.8,0,3.7,0,5.5,0c2.4,0,4.9,0.1,7.1,0c0.5,0,0.9,0,1.4,0c2,0.1,4.1-0.1,6.2,0c0.9,0,1.7,0,2.5,0
	c1.9,0.1,3.8,0,5.7,0c5.6,0,11.3,0,16.9,0c0.1-0.2,0-0.7,0.1-0.9c0.9-0.4,0.7,1,0.9,1.5c0.1,0,0.1,0.1,0.2,0.2
	c0.3,0,0.5,0.1,0.7,0.2c0.1,0,0.3,0,0.4,0.1c0.2,0.1,0.3,0.2,0.4,0.2c0.2,0,0.4-0.2,0.6-0.3c0.1,0,0.4,0,0.5,0.1
	c0.2,0,0.4,0.1,0.5,0.2c0,0,0,0.1,0.1,0.2C55.5,25.2,55.7,25.2,55.8,25.4"/>
</svg>
