<?xml version="1.0" encoding="utf-8"?>
<!-- Generator: Adobe Illustrator 18.0.0, SVG Export Plug-In . SVG Version: 6.00 Build 0)  -->
<!DOCTYPE svg PUBLIC "-//W3C//DTD SVG 1.1//EN" "http://www.w3.org/Graphics/SVG/1.1/DTD/svg11.dtd">
<svg version="1.1" id="Layer_1" xmlns="http://www.w3.org/2000/svg" xmlns:xlink="http://www.w3.org/1999/xlink" x="0px" y="0px"
	 viewBox="0 0 100 100" enable-background="new 0 0 100 100" xml:space="preserve">
<g>
	<path fill-rule="evenodd" clip-rule="evenodd" fill="#231F20" d="M88,26.2c0-1.5,1.4-2.9,2.9-2.9l1.6,0l1.3-1.3
		c0.7-0.7,1-1.6,1-2.4c0,0,0,0,0,0l-0.1-9.2c-0.1-3.6-1.9-6.2-5.6-5.6L81,5.9c-0.2,0-0.5,0-0.7,0.1l-0.1,0c0,0,0,0-0.1,0
		c-0.5,0.2-1,0.4-1.4,0.8L44.3,41.4C34,37,21.8,39,13.4,47.4c-11,11-11,28.8,0,39.7c11,11,28.8,11,39.7,0
		c8.3-8.3,10.3-20.4,6.1-30.6l2.5-2.5l3,0.1c1.5,0,2.7-1.2,2.7-2.7l0-2.8l-0.1-2.5c0-1.5,1.7-2.7,3.2-2.7l4.4,0.1
		c1.5,0,2.7-1.2,2.7-2.7l-0.1-2.6l0,0l-0.1-1.8c0-1.5,1.8-2.9,3.3-2.9h1.3c0,0,0.1,0,0.1,0l3.2,0.1c1.5,0,2.7-1.2,2.7-2.7l0-1.5
		L88,26.2z M31.5,79.5c-1.1,1.1-2.6,1.4-3.9,1c-1.5-0.3-3.2-1.2-4.7-2.7c-1.8-1.8-2.8-3.8-2.8-5.4c-0.1-1.1,0.3-2.3,1.1-3.2
		c1.6-1.6,2.6-2.3,4.2-0.8l6.9,7C33.9,76.9,33.1,78,31.5,79.5z"/>
</g>
</svg>
