<?xml version="1.0" encoding="utf-8"?>
<!-- Generator: Adobe Illustrator 18.0.0, SVG Export Plug-In . SVG Version: 6.00 Build 0)  -->
<!DOCTYPE svg PUBLIC "-//W3C//DTD SVG 1.1//EN" "http://www.w3.org/Graphics/SVG/1.1/DTD/svg11.dtd">
<svg version="1.1" id="Layer_1" xmlns="http://www.w3.org/2000/svg" xmlns:xlink="http://www.w3.org/1999/xlink" x="0px" y="0px"
	 viewBox="0 0 100 100" enable-background="new 0 0 100 100" xml:space="preserve">
<g>
	<g>
		<path fill="#231F20" d="M87.2,30.1H30.6c-3.5,0-6.3-2.8-6.3-6.3c0-3.5,2.8-6.3,6.3-6.3h56.6c3.5,0,6.3,2.8,6.3,6.3
			C93.5,27.3,90.7,30.1,87.2,30.1L87.2,30.1z"/>
	</g>
	<circle fill="#231F20" cx="12.8" cy="23.8" r="6.3"/>
	<g>
		<path fill="#231F20" d="M87.2,56.8H30.6c-3.5,0-6.3-2.8-6.3-6.3c0-3.5,2.8-6.3,6.3-6.3h56.6c3.5,0,6.3,2.8,6.3,6.3
			C93.5,54,90.7,56.8,87.2,56.8L87.2,56.8z"/>
	</g>
	<circle fill="#231F20" cx="12.8" cy="50.5" r="6.3"/>
	<g>
		<path fill="#231F20" d="M87.2,83.6H30.6c-3.5,0-6.3-2.8-6.3-6.3c0-3.5,2.8-6.3,6.3-6.3h56.6c3.5,0,6.3,2.8,6.3,6.3
			C93.5,80.8,90.7,83.6,87.2,83.6L87.2,83.6z"/>
	</g>
	<circle fill="#231F20" cx="12.8" cy="77.3" r="6.3"/>
</g>
</svg>
