<?xml version="1.0" encoding="utf-8"?>
<!-- Generator: Adobe Illustrator 18.0.0, SVG Export Plug-In . SVG Version: 6.00 Build 0)  -->
<!DOCTYPE svg PUBLIC "-//W3C//DTD SVG 1.1//EN" "http://www.w3.org/Graphics/SVG/1.1/DTD/svg11.dtd">
<svg version="1.1" id="Layer_1" xmlns="http://www.w3.org/2000/svg" xmlns:xlink="http://www.w3.org/1999/xlink" x="0px" y="0px"
	 viewBox="0 0 100 100" enable-background="new 0 0 100 100" xml:space="preserve">
<g>
	<path fill="#202020" d="M50,73.9c-4.4,0-8,3.6-8,8c0,1,0.2,1.9,0.5,2.8c0.5,1.4,1.5,2.7,2.7,3.6c1.3,1,3,1.6,4.8,1.6
		c1.8,0,3.4-0.6,4.8-1.6c1.3-0.9,2.2-2.2,2.8-3.8c0.3-0.8,0.5-1.7,0.5-2.7C58,77.5,54.4,73.9,50,73.9z"/>
	<path fill="#202020" d="M50,53.3c-9.2,0-17.3,4.3-22.6,11l6.2,8.4C36.9,67,43,63.2,50,63.2c7,0,13.1,3.9,16.4,9.6l6.2-8.4
		C67.3,57.6,59.2,53.3,50,53.3z"/>
	<path fill="#202020" d="M14.1,46.4l5.9,8c7.4-8.1,18.1-13.1,29.9-13.1c11.8,0,22.5,5.1,29.9,13.1l5.9-8C76.7,37.1,64,31.4,50,31.4
		C36,31.4,23.3,37.1,14.1,46.4z"/>
	<path fill="#202020" d="M50,10c-18.8,0-35.8,7.2-48.7,19l5.9,8C18.4,26.4,33.5,19.9,50,19.9c16.5,0,31.6,6.5,42.7,17.1l5.9-8
		C85.8,17.2,68.8,10,50,10z"/>
</g>
</svg>
