<?xml version="1.0" encoding="utf-8"?>
<!-- Generator: Adobe Illustrator 18.0.0, SVG Export Plug-In . SVG Version: 6.00 Build 0)  -->
<!DOCTYPE svg PUBLIC "-//W3C//DTD SVG 1.1//EN" "http://www.w3.org/Graphics/SVG/1.1/DTD/svg11.dtd">
<svg version="1.1" id="Layer_1" xmlns="http://www.w3.org/2000/svg" xmlns:xlink="http://www.w3.org/1999/xlink" x="0px" y="0px"
	 viewBox="0 0 100 100" enable-background="new 0 0 100 100" xml:space="preserve">
<path fill="#231F20" d="M96.1,96.2c-0.7,0.8-1.6,1.4-2.5,1.7c-0.5,0.1-1,0.2-1.5,0.2c-1.5,0-3.1-0.6-4.3-1.9L38.9,46.4
	c-0.2,0.1-0.4,0.1-0.6,0.2c-1.5,0.4-3.2,0.7-4.9,0.7c-6.9,0-14.8-3.4-19.7-8.4C6,31,1.2,14.1,7.9,6.3c1.5-1.8,3.5-2.9,5.7-3.6
	C15.1,2.2,16.7,2,18.4,2c6.9,0,14.8,3.5,19.7,8.4c6.2,6.3,10.5,18.3,8.6,26.9L95.5,87C98,89.6,98.3,93.7,96.1,96.2z M60.9,45.4
	c4.8,2.2,10.9,1.1,15-3.2l18-19l0,0L94,23c1.1-1.2,1.2-3.2,0.1-4.5c-1.1-1.2-2.9-1.3-4.1-0.1l-0.1,0.1l0,0L72.2,37.3
	c-1.1,1.1-2.6,1.3-3.6,0.2c-1-1.2-0.8-2.8,0.3-3.9c0,0,0,0,0,0l17.8-18.8c1.1-1.2,1.2-3.2,0.1-4.5C85.7,9,83.8,9,82.7,10.2l-0.1,0.1
	l0,0L64.8,29c-1.1,1.1-2.6,1.4-3.6,0.2c-1-1.2-0.8-2.8,0.3-4L79.2,6.6h0l0.1-0.1c1.1-1.2,1.2-3.2,0.1-4.5c-1.1-1.3-2.9-1.3-4.1-0.1
	L57.2,21c-4.3,4.3-6.5,10.1-5,15C53.5,40.2,56,43.2,60.9,45.4z M38.6,52.4l-34,35.9c-2.4,2.6-3,6.3-0.6,8.9c2.3,2.7,5.8,2.2,8.2-0.4
	l34.5-36.4L38.6,52.4z"/>
</svg>
