<?xml version="1.0" encoding="utf-8"?>
<!-- Generator: Adobe Illustrator 18.0.0, SVG Export Plug-In . SVG Version: 6.00 Build 0)  -->
<!DOCTYPE svg PUBLIC "-//W3C//DTD SVG 1.1//EN" "http://www.w3.org/Graphics/SVG/1.1/DTD/svg11.dtd">
<svg version="1.1" id="Layer_1" xmlns="http://www.w3.org/2000/svg" xmlns:xlink="http://www.w3.org/1999/xlink" x="0px" y="0px"
	 viewBox="0 0 100 100" enable-background="new 0 0 100 100" xml:space="preserve">
<g id="XMLID_1188_">
	<path id="XMLID_1189_" fill="#231F20" d="M1.2,74.2c0,4.4,2.4,8.2,5.4,8.7h86.8c3-0.5,5.4-4.2,5.4-8.7H1.2z"/>
	<path id="XMLID_1194_" fill="#231F20" d="M85.8,17.1H14.2c-2.1,0-3.9,1.7-3.9,3.9v47.6c0,2.1,1.7,3.9,3.9,3.9h71.7
		c2.1,0,3.9-1.7,3.9-3.9V21C89.7,18.9,88,17.1,85.8,17.1z M80.6,61.3c0,1.7-1.4,3-3.2,3H22.6c-1.8,0-3.2-1.4-3.2-3V27.7
		c0-1.7,1.4-3,3.2-3h54.7c1.8,0,3.2,1.4,3.2,3V61.3z"/>
	<rect id="XMLID_1187_" x="73.7" y="77.1" fill="#231F20" width="6.4" height="2.3"/>
	<rect id="XMLID_1186_" x="82.2" y="77.1" fill="#231F20" width="6.4" height="2.3"/>
	<polygon id="XMLID_1185_" fill="#231F20" points="71.5,49.5 57.3,44.1 62.7,58.3 66.2,54.8 70.4,58.9 72.1,57.2 67.9,53.1 	"/>
</g>
</svg>
