<?xml version="1.0" encoding="utf-8"?>
<!-- Generator: Adobe Illustrator 18.0.0, SVG Export Plug-In . SVG Version: 6.00 Build 0)  -->
<!DOCTYPE svg PUBLIC "-//W3C//DTD SVG 1.1//EN" "http://www.w3.org/Graphics/SVG/1.1/DTD/svg11.dtd">
<svg version="1.1" id="Layer_1" xmlns="http://www.w3.org/2000/svg" xmlns:xlink="http://www.w3.org/1999/xlink" x="0px" y="0px"
	 viewBox="0 0 100 100" enable-background="new 0 0 100 100" xml:space="preserve">
<path fill="#231F20" d="M97.5,87.9L74.8,48.6L52.2,9.4c-0.2-0.5-0.6-0.9-1.1-1.2c-1.4-0.8-3.1-0.3-3.9,1L24.4,48.6l0,0l0,0L1.8,87.7
	c-0.3,0.5-0.5,0.9-0.5,1.6c0,1.6,1.3,2.8,2.9,2.8h45.4H95v0.2c1,0,1-0.1,1.4-0.4C97.8,91,98.3,89.3,97.5,87.9z M53,79h-6v-8h6V79z
	 M52.8,65h-6.5l-0.4-26h7.4L52.8,65z"/>
</svg>
