<?xml version="1.0" encoding="utf-8"?>
<!-- Generator: Adobe Illustrator 18.0.0, SVG Export Plug-In . SVG Version: 6.00 Build 0)  -->
<!DOCTYPE svg PUBLIC "-//W3C//DTD SVG 1.1//EN" "http://www.w3.org/Graphics/SVG/1.1/DTD/svg11.dtd">
<svg version="1.1" id="Layer_1" xmlns="http://www.w3.org/2000/svg" xmlns:xlink="http://www.w3.org/1999/xlink" x="0px" y="0px"
	 viewBox="0 0 100 100" enable-background="new 0 0 100 100" xml:space="preserve">
<g>
	<path fill="#202020" d="M82.8,36.4L82.8,36.4l15.8-9.2L65.9,8.2L50,17.4L34.2,8.2L1.3,27.2l15.9,9.2l0,0l0,0L1.3,45.6l18.6,10.7
		v17.5l30.1,18l29.8-18V56.5l18.9-10.9L82.8,36.4L82.8,36.4z M65.9,12.3l25.8,14.9l-12.3,7.2L53.5,19.5L65.9,12.3z M8.4,27.2
		l25.8-14.9l12.3,7.2L20.7,34.3L8.4,27.2z M8.4,45.6l12.3-7.2l25.8,14.9l-12.3,7.2L8.4,45.6z M48.2,86.6L23.4,71.8V58.3l10.7,6.2
		l14.1-8.2V86.6z M50,51.2L24.2,36.4L50,21.5l25.8,14.9L50,51.2z M76.3,71.8L51.8,86.6V56.3l14.1,8.2l10.4-6V71.8z M91.6,45.6
		L65.9,60.4l-12.3-7.2l25.8-14.9L91.6,45.6z"/>
</g>
</svg>
