<?xml version="1.0" encoding="utf-8"?>
<!-- Generator: Adobe Illustrator 18.0.0, SVG Export Plug-In . SVG Version: 6.00 Build 0)  -->
<!DOCTYPE svg PUBLIC "-//W3C//DTD SVG 1.1//EN" "http://www.w3.org/Graphics/SVG/1.1/DTD/svg11.dtd">
<svg version="1.1" id="Layer_1" xmlns="http://www.w3.org/2000/svg" xmlns:xlink="http://www.w3.org/1999/xlink" x="0px" y="0px"
	 viewBox="0 0 100 100" enable-background="new 0 0 100 100" xml:space="preserve">
<path fill="#231F20" d="M84.3,29.6c2.5,0,4.8-1,6.6-2.7l6.4-6.4c0.7-0.7,1.1-1.7,1.1-2.7c0-1-0.4-2-1.1-2.7l-7.7-7.7
	c-1.4-1.4-4-1.4-5.4,0l-6.4,6.4c-2.7,2.6-3.4,6.5-2.1,9.8L58.5,40.6l-6.9-6.9c1.3-7.9-1.3-16.1-7-21.8c-4.7-4.7-11.1-7.4-17.8-7.4
	c-3,0-6,0.5-8.8,1.6c-1.2,0.5-2.1,1.5-2.4,2.8c-0.3,1.3,0.1,2.6,1,3.5l10.3,10.3l-1.5,5.6l-5.6,1.5L9.5,19.5c-0.9-0.9-2.2-1.3-3.5-1
	c-1.3,0.3-2.3,1.2-2.8,2.4C-0.2,30.1,2.1,40.6,9,47.5c5.7,5.7,13.8,8.3,21.8,7l1.1,1.1L15.7,71.9C9.9,77.7,9,86,13.8,90.8
	c2,2,4.7,3.1,7.7,3.1c4,0,8-1.8,11.2-5l16.2-16.2l18.5,18.5c2.8,2.8,6.5,4.3,10.4,4.3c3.9,0,7.6-1.5,10.4-4.3
	c2.8-2.8,4.3-6.5,4.3-10.4c0-3.9-1.5-7.6-4.3-10.4L63.9,46L81,29C82,29.3,83.1,29.6,84.3,29.6z M27.3,83.4c-1.7,1.7-3.9,2.7-5.8,2.7
	c-0.7,0-1.6-0.1-2.3-0.8c-1.5-1.5-1-5.1,1.9-8.1l16.1-16.1l6.2,6.2L27.3,83.4z M84.9,80.7c0,1.9-0.7,3.7-2.1,5
	c-2.7,2.7-7.3,2.7-10,0l-38-38c-0.7-0.7-1.7-1.1-2.7-1.1c-0.3,0-0.6,0-0.9,0.1c-6,1.5-12.4-0.2-16.7-4.6c-3.2-3.2-5-7.6-5.1-12
	l6.7,6.7c1,1,2.4,1.3,3.7,1l9.8-2.6c1.3-0.4,2.4-1.4,2.7-2.7l2.6-9.9c0.4-1.3,0-2.7-1-3.7l-6.7-6.7c4.5,0.1,8.8,1.9,12,5.1
	c4.4,4.4,6.1,10.6,4.6,16.7c-0.3,1.3,0.1,2.7,1,3.6l38,38C84.1,77.1,84.9,78.8,84.9,80.7z M83.1,19.1l3.7-3.7l2.3,2.3l-3.7,3.7
	c-0.8,0.8-1.5,0.8-2.3,0c0,0,0,0,0,0c0,0,0,0,0,0C82.5,20.8,82.5,19.8,83.1,19.1z"/>
<circle fill="#231F20" cx="77.2" cy="79.9" r="3.2"/>
</svg>
