<?xml version="1.0" encoding="utf-8"?>
<!-- Generator: Adobe Illustrator 18.0.0, SVG Export Plug-In . SVG Version: 6.00 Build 0)  -->
<!DOCTYPE svg PUBLIC "-//W3C//DTD SVG 1.1//EN" "http://www.w3.org/Graphics/SVG/1.1/DTD/svg11.dtd">
<svg version="1.1" id="Layer_1" xmlns="http://www.w3.org/2000/svg" xmlns:xlink="http://www.w3.org/1999/xlink" x="0px" y="0px"
	 viewBox="0 0 100 100" enable-background="new 0 0 100 100" xml:space="preserve">
<path fill="#231F20" d="M83.8,6.8H16.2c-5.2,0-9.4,4.2-9.4,9.4v52.6c0,5.2,4.2,9.4,9.4,9.4h21.6l10.7,14.3c0.4,0.5,0.9,0.8,1.5,0.8
	c0.6,0,1.1-0.3,1.5-0.8l10.7-14.3h21.6c5.2,0,9.4-4.2,9.4-9.4V16.2C93.2,11,89,6.8,83.8,6.8z M74.4,57.9H25.6c-1.2,0-2.3-1-2.3-2.3
	c0-1.2,1-2.3,2.3-2.3h48.9c1.2,0,2.3,1,2.3,2.3C76.7,56.9,75.7,57.9,74.4,57.9z M74.4,44.7H25.6c-1.2,0-2.3-1-2.3-2.3
	c0-1.2,1-2.3,2.3-2.3h48.9c1.2,0,2.3,1,2.3,2.3C76.7,43.7,75.7,44.7,74.4,44.7z M74.4,31.6H25.6c-1.2,0-2.3-1-2.3-2.3s1-2.3,2.3-2.3
	h48.9c1.2,0,2.3,1,2.3,2.3S75.7,31.6,74.4,31.6z"/>
</svg>
