<?xml version="1.0" encoding="utf-8"?>
<!-- Generator: Adobe Illustrator 18.0.0, SVG Export Plug-In . SVG Version: 6.00 Build 0)  -->
<!DOCTYPE svg PUBLIC "-//W3C//DTD SVG 1.1//EN" "http://www.w3.org/Graphics/SVG/1.1/DTD/svg11.dtd">
<svg version="1.1" id="Layer_1" xmlns="http://www.w3.org/2000/svg" xmlns:xlink="http://www.w3.org/1999/xlink" x="0px" y="0px"
	 viewBox="0 0 100 100" enable-background="new 0 0 100 100" xml:space="preserve">
<g>
	<g>
		<path fill="#231F20" d="M48.1,52c-0.3,0.5-0.7,0.9-1.1,1.4c-4.5,5.5-9.9,8.2-14.5,8.2s-10-2.7-14.5-8.2c-0.4-0.4-0.7-0.9-1.1-1.4
			C9.7,57,4.9,61.2,3.4,69.6C1.1,81.8,6.1,81.9,30.7,81.9c0.6,0,1.2,0,1.8,0h0c0.6,0,1.2,0,1.7,0c24.6,0,29.4-0.1,27.4-12.3
			C60.4,61.1,55.4,57,48.1,52z"/>
		<path fill="#231F20" d="M32.6,54.3c7.5,0,15.3-10,15.3-20S41,18.1,32.6,18.1c-8.4,0-15.3,6.2-15.3,16.2S24.6,54.3,32.6,54.3z"/>
	</g>
	<g>
		<path fill="#231F20" d="M75.3,68.1h-2.8c-2.7,0-5,0-7.1,0c-1.5-7.8-5.9-12.5-11.4-16.6c1.9-2.5,4.5-4.6,7.7-6.8
			c0.3,0.4,0.5,0.7,0.8,1.1c3.5,4.3,7.8,6.4,11.4,6.4c3.6,0,7.8-2.1,11.4-6.4c0.3-0.4,0.6-0.7,0.8-1.1c5.7,3.9,9.6,7.2,10.7,13.8
			C98.3,68,94.6,68.1,75.3,68.1z"/>
		<path fill="#231F20" d="M73.9,46.4c5.9,0,12-7.8,12-15.7c0-7.8-5.4-12.7-12-12.7c-6.6,0-12,4.8-12,12.7
			C62,38.6,67.7,46.4,73.9,46.4z"/>
	</g>
</g>
</svg>
