<?xml version="1.0" encoding="utf-8"?>
<!-- Generator: Adobe Illustrator 18.0.0, SVG Export Plug-In . SVG Version: 6.00 Build 0)  -->
<!DOCTYPE svg PUBLIC "-//W3C//DTD SVG 1.1//EN" "http://www.w3.org/Graphics/SVG/1.1/DTD/svg11.dtd">
<svg version="1.1" id="Layer_1" xmlns="http://www.w3.org/2000/svg" xmlns:xlink="http://www.w3.org/1999/xlink" x="0px" y="0px"
	 viewBox="0 0 100 100" enable-background="new 0 0 100 100" xml:space="preserve">
<path id="XMLID_1036_" fill="#202020" d="M45.8,65.8V52.9h8.9v12.9H45.8z M95.5,52.9L87.4,61H57v7H43.6v-7H9.8l-5.4-5.4v30.8
	l2.1,2.1h86.8l2.1-2.1V52.9z M2.5,50.4V26.7L5.2,24h27.9c0.1-0.1,0.1-0.3,0.1-0.5v-9c0-1.7,1.4-3.1,3.1-3.1h27.4
	c1.7,0,3.1,1.4,3.1,3.1v9c0,0.2,0,0.3,0.1,0.5h27.9l2.7,2.7v20.8l-11.1,9.9H57.1v-6.7H43.5v6.7H10.7L2.5,50.4z M38.5,23.5
	c0,0.2,0,0.3,0.1,0.5h22.8c0.1-0.1,0.1-0.3,0.1-0.5v-5.1c0-0.6-0.5-1.1-1.1-1.1H39.5c-0.6,0-1.1,0.5-1.1,1.1V23.5z"/>
</svg>
