<?xml version="1.0" encoding="utf-8"?>
<!-- Generator: Adobe Illustrator 18.0.0, SVG Export Plug-In . SVG Version: 6.00 Build 0)  -->
<!DOCTYPE svg PUBLIC "-//W3C//DTD SVG 1.1//EN" "http://www.w3.org/Graphics/SVG/1.1/DTD/svg11.dtd">
<svg version="1.1" id="Layer_1" xmlns="http://www.w3.org/2000/svg" xmlns:xlink="http://www.w3.org/1999/xlink" x="0px" y="0px"
	 viewBox="0 0 100 100" enable-background="new 0 0 100 100" xml:space="preserve">
<g id="XMLID_562_">
	<polygon id="XMLID_563_" fill="#202020" points="1.6,65.7 15.3,90.8 48.4,33.7 34.4,9.1 	"/>
	<polygon id="XMLID_570_" fill="#202020" points="83.6,92.4 98.4,67 32.7,67.2 29.9,71.9 18,92.5 	"/>
	<polygon id="XMLID_575_" fill="#202020" points="32.2,66.5 32.2,66.5 32.2,66.5 	"/>
	<polygon id="XMLID_582_" fill="#202020" points="86.2,63.9 91,63.9 91,63.9 98.4,63.8 65.4,7.6 37.2,7.5 51.9,33.4 51.9,33.4 
		69.3,63.9 	"/>
	<polygon id="XMLID_588_" fill="#202020" points="51.2,33.7 51.2,33.7 51.2,33.7 	"/>
	<rect id="XMLID_596_" x="68.8" y="64.7" fill="#202020" width="0" height="0"/>
	<polygon id="XMLID_597_" fill="#202020" points="91,64.6 91,64.6 91,64.6 	"/>
</g>
</svg>
