<?xml version="1.0" encoding="utf-8"?>
<!-- Generator: Adobe Illustrator 18.0.0, SVG Export Plug-In . SVG Version: 6.00 Build 0)  -->
<!DOCTYPE svg PUBLIC "-//W3C//DTD SVG 1.1//EN" "http://www.w3.org/Graphics/SVG/1.1/DTD/svg11.dtd">
<svg version="1.1" id="Layer_1" xmlns="http://www.w3.org/2000/svg" xmlns:xlink="http://www.w3.org/1999/xlink" x="0px" y="0px"
	 viewBox="0 0 100 100" enable-background="new 0 0 100 100" xml:space="preserve">
<path id="XMLID_767_" fill-rule="evenodd" clip-rule="evenodd" fill="#202020" d="M47,13.5l18.5,10.7l-3,5.1L44,18.7L47,13.5z
	 M16.4,91.5h67.3v7.3H16.4V91.5z M16.4,87.9l6.4-3.9l-6.2-3.6L16.4,87.9z M25.2,82.5l0.8-0.5l9.6-5.9l-9.3-5.3L17,65.4l-0.3,11.2
	l0,0.9L25.2,82.5z M63,2.3l4.2,2.4c3.9,2.3,5.3,7.3,3,11.3l-3.5,6.1L48.2,11.4l3.5-6.1C54,1.4,59.1,0,63,2.3L63,2.3z M61.3,31.5
	L36.7,74L18.3,63.3l24.5-42.5L61.3,31.5z"/>
</svg>
