<?xml version="1.0" encoding="utf-8"?>
<!-- Generator: Adobe Illustrator 18.0.0, SVG Export Plug-In . SVG Version: 6.00 Build 0)  -->
<!DOCTYPE svg PUBLIC "-//W3C//DTD SVG 1.1//EN" "http://www.w3.org/Graphics/SVG/1.1/DTD/svg11.dtd">
<svg version="1.1" id="Layer_1" xmlns="http://www.w3.org/2000/svg" xmlns:xlink="http://www.w3.org/1999/xlink" x="0px" y="0px"
	 viewBox="0 0 100 100" enable-background="new 0 0 100 100" xml:space="preserve">
<path fill-rule="evenodd" clip-rule="evenodd" fill="#202020" d="M19.1,52.7v7.9h61.8v-7.8c0-0.6,0.3-1.2,0.8-1.6
	c0.5-0.4,1.1-0.6,1.7-0.4c6.1,1.2,14,6.5,14,16.2c0,2.8,0,11.6,0,16.6c0,3.7-3,6.6-6.6,6.6H9.3c-3.6,0-6.6-3-6.6-6.6
	c0-5,0-13.8,0-16.6c0-8.8,6.7-15.1,14-16.2c0.6-0.1,1.2,0.1,1.7,0.5C18.8,51.5,19.1,52.1,19.1,52.7L19.1,52.7z M76.9,56.6V31.8v-3.3
	L58.2,9.8h-3.3H28.5c-2.9,0-5.3,2.4-5.3,5.3v41.5h7.1V17.7c0-0.4,0.4-0.8,0.8-0.8h23.9v5.2v2c0,4.2,3.5,7.7,7.7,7.7h7.2v24.8H76.9
	L76.9,56.6z M63.3,17.8l-0.9-0.9h0L63.3,17.8L63.3,17.8z M19.1,84.3h61.8v-3.9H19.1V84.3z"/>
</svg>
