<?xml version="1.0" encoding="utf-8"?>
<!-- Generator: Adobe Illustrator 18.0.0, SVG Export Plug-In . SVG Version: 6.00 Build 0)  -->
<!DOCTYPE svg PUBLIC "-//W3C//DTD SVG 1.1//EN" "http://www.w3.org/Graphics/SVG/1.1/DTD/svg11.dtd">
<svg version="1.1" id="Layer_1" xmlns="http://www.w3.org/2000/svg" xmlns:xlink="http://www.w3.org/1999/xlink" x="0px" y="0px"
	 viewBox="0 0 100 100" enable-background="new 0 0 100 100" xml:space="preserve">
<path fill="#202020" d="M19.6,50.7c-0.8,0-1.6-0.4-2-1.2c-2.1-3.6-3.2-7.8-3.2-12c0-10.9,7.2-20.4,17.6-23.2
	c0.2-0.1,0.4-0.1,0.6-0.1c1,0,1.9,0.7,2.2,1.7c0.3,1.2-0.4,2.5-1.6,2.8c-8.4,2.2-14.2,10-14.2,18.8c0,3.4,0.9,6.8,2.6,9.7
	c0.3,0.5,0.4,1.1,0.2,1.7c-0.2,0.6-0.5,1.1-1.1,1.4C20.4,50.6,20,50.7,19.6,50.7z"/>
<path fill="#202020" d="M32.2,14.9C22.1,17.6,15,26.9,15,37.6c0,4.1,1.1,8.2,3.1,11.7c0.3,0.6,0.9,0.9,1.5,0.9
	c0.3,0,0.6-0.1,0.9-0.2c0.9-0.5,1.2-1.6,0.7-2.4c-1.7-3-2.6-6.5-2.6-10c0-9,6-17,14.6-19.3c0.9-0.3,1.5-1.2,1.3-2.2
	C34.2,15.2,33.2,14.6,32.2,14.9z"/>
<path fill="#202020" d="M93,98.4c-1.2,0-2.4-0.5-3.3-1.4L68.8,76.1l-9.5-9.5c-6.3,4.7-13.7,7.2-21.6,7.2
	c-19.9,0-36.1-16.2-36.1-36.1c0-19.9,16.2-36.1,36.1-36.1c19.9,0,36.1,16.2,36.1,36.1c0,8.2-2.8,16.1-7.9,22.5l9.6,9.5l20.7,20.7
	c0.9,0.9,1.4,2,1.4,3.3c0,1.2-0.5,2.4-1.4,3.3C95.3,97.9,94.2,98.4,93,98.4z M37.7,9.7c-15.4,0-28,12.6-28,28s12.6,28,28,28
	c15.4,0,28-12.6,28-28S53.1,9.7,37.7,9.7z"/>
</svg>
