<?xml version="1.0" encoding="utf-8"?>
<!-- Generator: Adobe Illustrator 18.0.0, SVG Export Plug-In . SVG Version: 6.00 Build 0)  -->
<!DOCTYPE svg PUBLIC "-//W3C//DTD SVG 1.1//EN" "http://www.w3.org/Graphics/SVG/1.1/DTD/svg11.dtd">
<svg version="1.1" id="Layer_1" xmlns="http://www.w3.org/2000/svg" xmlns:xlink="http://www.w3.org/1999/xlink" x="0px" y="0px"
	 viewBox="0 0 100 100" enable-background="new 0 0 100 100" xml:space="preserve">
<path fill="#231F20" d="M97,32c-0.7,0-1.3-0.8-1.4-1.6C94.5,20.9,89,17.8,84,17.1v4.6c0,0.6-0.4,1.1-0.9,1.3
	c-0.2,0.1-0.5,0.1-0.7,0.1c-0.3,0-0.7-0.1-0.9-0.3L69,13.1c-0.4-0.3-0.6-0.7-0.6-1.2c0-0.5,0.2-0.9,0.6-1.2l12.4-9.7
	c0.3-0.2,0.6-0.3,0.9-0.3c0.2,0,0.6,0.1,0.8,0.1C83.6,1.1,84,1.7,84,2.2v4c5,1,9.8,3.3,12.4,7.1c3,4.2,3.7,10.2,2.2,16.8l-0.1,0.4
	C98.4,31.2,97.8,32,97,32L97,32L97,32z M82.4,13.9c3,0.2,10.1,1.4,13.8,8.4c-0.2-2.8-1-5.3-2.4-7.3c-2.3-3.3-6.2-5.3-11.6-6
	C81.5,8.9,81,8.3,81,7.5V5.3l-8.5,6.7l8.5,6.7v-3.2c0-0.4,0.1-0.8,0.4-1.1C81.7,14.1,82,13.9,82.4,13.9L82.4,13.9z"/>
<g>
	<rect x="3" y="25" fill="#231F20" width="20.5" height="20.5"/>
	<rect x="28.7" y="25" fill="#231F20" width="20.5" height="20.5"/>
	<rect x="54.5" y="25" fill="#231F20" width="20.5" height="20.5"/>
	<rect x="3" y="50.7" fill="#231F20" width="20.5" height="20.5"/>
	<rect x="28.7" y="50.7" fill="#231F20" width="20.5" height="20.5"/>
	<rect x="54.5" y="50.7" fill="#231F20" width="20.5" height="20.5"/>
	<rect x="3" y="76.5" fill="#231F20" width="20.5" height="20.5"/>
	<rect x="28.7" y="76.5" fill="#231F20" width="20.5" height="20.5"/>
	<rect x="54.5" y="76.5" fill="#231F20" width="20.5" height="20.5"/>
</g>
</svg>
