<?xml version="1.0" encoding="utf-8"?>
<!-- Generator: Adobe Illustrator 18.0.0, SVG Export Plug-In . SVG Version: 6.00 Build 0)  -->
<!DOCTYPE svg PUBLIC "-//W3C//DTD SVG 1.1//EN" "http://www.w3.org/Graphics/SVG/1.1/DTD/svg11.dtd">
<svg version="1.1" id="Layer_1" xmlns="http://www.w3.org/2000/svg" xmlns:xlink="http://www.w3.org/1999/xlink" x="0px" y="0px"
	 viewBox="0 0 100 100" enable-background="new 0 0 100 100" xml:space="preserve">
<g>
	<path fill="#202020" d="M94.9,44.5l-2.6-1.4L60.1,60.6c-5.5,3-14.6,3-20.2,0L7.7,43.1l-2.6,1.4c-5.5,3-5.5,7.9,0,10.9l34.9,18.9
		c5.5,3,14.6,3,20.2,0l34.9-18.9C100.5,52.5,100.5,47.5,94.9,44.5"/>
	<path fill="#202020" d="M94.9,65.2l-2.6-1.4L60.1,81.2c-5.5,3-14.6,3-20.2,0L7.7,63.8l-2.6,1.4c-5.5,3-5.5,7.9,0,10.9L39.9,95
		c5.5,3,14.6,3,20.2,0l34.9-18.9C100.5,73.1,100.5,68.2,94.9,65.2"/>
	<path fill="#202020" d="M60.1,53.7c-5.5,3-14.6,3-20.2,0L5.1,34.8c-5.5-3-5.5-7.9,0-10.9L39.9,5c5.5-3,14.6-3,20.2,0l34.9,18.9
		c5.5,3,5.5,7.9,0,10.9L60.1,53.7z"/>
</g>
</svg>
