<?xml version="1.0" encoding="utf-8"?>
<!-- Generator: Adobe Illustrator 18.0.0, SVG Export Plug-In . SVG Version: 6.00 Build 0)  -->
<!DOCTYPE svg PUBLIC "-//W3C//DTD SVG 1.1//EN" "http://www.w3.org/Graphics/SVG/1.1/DTD/svg11.dtd">
<svg version="1.1" id="Layer_1" xmlns="http://www.w3.org/2000/svg" xmlns:xlink="http://www.w3.org/1999/xlink" x="0px" y="0px"
	 viewBox="0 0 100 100" enable-background="new 0 0 100 100" xml:space="preserve">
<g id="XMLID_123_">
	<path id="XMLID_149_" fill="#202020" d="M89.2,72.8H73.4c-5.8,0-6.9,3.8-6.9,8.3v14.1H15.2c-2.4,0-4.4-2-4.4-4.4v-62h78.3V72.8z
		 M22.3,13.1h8.5v8c0,2.3-1.9,4.2-4.3,4.2c-2.3,0-4.2-1.9-4.2-4.2V13.1z M70,13.1h8.5v8c0,2.3-1.9,4.2-4.2,4.2
		c-2.3,0-4.2-1.9-4.2-4.2V13.1z M84.8,12.8h-6.2V4.9c0-2.3-1.9-4.2-4.2-4.2C72,0.7,70,2.6,70,4.9v7.9H30.8V4.9
		c0-2.3-1.9-4.2-4.3-4.2c-2.3,0-4.2,1.9-4.2,4.2v7.9h-7.1c-4.7,0-8.5,3.8-8.5,8.5v69.6c0,4.7,3.8,8.5,8.5,8.5h51.4h0.2l4.1-4.1
		l18.3-18.3l4.1-4.1V21.3C93.3,16.6,89.5,12.8,84.8,12.8"/>
	<rect id="XMLID_148_" x="17.2" y="37.6" fill="#202020" width="14" height="14"/>
	<rect id="XMLID_147_" x="34.5" y="37.6" fill="#202020" width="14" height="14"/>
	<rect id="XMLID_146_" x="51.7" y="37.6" fill="#202020" width="14" height="14"/>
	<rect id="XMLID_145_" x="68.9" y="37.6" fill="#202020" width="14" height="14"/>
	<rect id="XMLID_144_" x="17.2" y="54.8" fill="#202020" width="14" height="14"/>
	<rect id="XMLID_143_" x="34.5" y="54.8" fill="#202020" width="14" height="14"/>
	<rect id="XMLID_142_" x="51.7" y="54.8" fill="#202020" width="14" height="14"/>
	<rect id="XMLID_141_" x="68.9" y="54.8" fill="#202020" width="14" height="14"/>
	<rect id="XMLID_140_" x="17.2" y="72.1" fill="#202020" width="14" height="14"/>
	<rect id="XMLID_139_" x="34.5" y="72.1" fill="#202020" width="14" height="14"/>
</g>
</svg>
