<?xml version="1.0" encoding="utf-8"?>
<!-- Generator: Adobe Illustrator 18.0.0, SVG Export Plug-In . SVG Version: 6.00 Build 0)  -->
<!DOCTYPE svg PUBLIC "-//W3C//DTD SVG 1.1//EN" "http://www.w3.org/Graphics/SVG/1.1/DTD/svg11.dtd">
<svg version="1.1" id="Layer_1" xmlns="http://www.w3.org/2000/svg" xmlns:xlink="http://www.w3.org/1999/xlink" x="0px" y="0px"
	 viewBox="0 0 100 100" enable-background="new 0 0 100 100" xml:space="preserve">
<g>
	<path fill="#202020" d="M90.7,38.1l-6.9-0.2l-1.5-3.1l4.6-4.7c1.3-1.3,2-3,2-4.8c0-1.8-0.7-3.5-2-4.8l-7.3-7.3c-1.3-1.3-3-2-4.8-2
		c-1.8,0-3.5,0.7-4.8,2l-5.3,4.6L61,16.5V9.9C61,6.2,58.9,2,55.1,2H44.9c-3.7,0-6.8,3.6-6.8,7.3l-0.2,6.9l-3.1,1.5l-4.7-4.6
		c-2.6-2.6-7.1-2.5-9.6,0l-7.2,7.3c-1.3,1.3-2,3-2,4.8c0,1.8,0.7,3.5,2,4.8l4.6,5.3L16.5,39H9.9C6.2,39,2,41.1,2,44.9v10.3
		c0,3.7,3.6,6.8,7.3,6.8l6.9,0.2l1.5,3.1l-4.6,4.7c-1.3,1.3-2,3-2,4.8c0,1.8,0.7,3.5,2,4.8l7.3,7.3c2.6,2.6,7,2.6,9.6,0l4.8-4.6
		l3.1,1.2v6.6c0,3.7,3.1,7.9,6.9,7.9h10.3c3.7,0,6.8-3.6,6.8-7.3l0.2-6.9l3.1-1.5l4.7,4.6c2.6,2.5,7,2.5,9.6,0l7.2-7.3
		c1.3-1.3,2-3,2-4.8c0-1.8-0.7-3.5-2-4.8l-4.6-4.8l1.2-3.1h6.6c3.7,0,7.9-3.1,7.9-6.9V44.9C98,41.1,94.4,38.1,90.7,38.1z M90,54
		h-6.5c-3.2,0-6.5,2.3-7.4,5.1L75,61.8c-1.4,2.9-0.8,6.8,1.5,9.1l3.8,3.8l-5.6,5.6l-3.8-3.8c-1.4-1.4-3.5-2.3-5.7-2.3
		c-1.2,0-2.4,0.3-3.2,0.7L59.3,76c-3.1,1-5.3,4.2-5.3,7.5V90h-8v-6.5c0-3.3-2.2-6.4-5.1-7.4L38.2,75c-2.9-1.4-6.9-0.8-9.1,1.5
		l-3.8,3.8l-5.6-5.6l3.9-3.8c2.3-2.3,2.9-6.2,1.6-8.8L24,59.3c-1-3.1-4.2-5.3-7.5-5.3H10v-8h6.5c3.2,0,6.4-2.3,7.4-5.1l1.1-2.7
		c1.4-2.9,0.8-6.8-1.5-9.1l-3.8-3.8l5.6-5.6l3.8,3.8c1.4,1.4,3.5,2.3,5.7,2.3c1.2,0,2.4-0.3,3.2-0.7l2.7-1.1c3.1-1,5.4-4.2,5.4-7.5
		V10h8v6.5c0,3.2,2.3,6.4,5.1,7.4l2.7,1.1c2.9,1.4,6.8,0.8,9.1-1.5l3.8-3.8l5.6,5.6l-3.9,3.9c-2.3,2.3-2.9,6.2-1.6,8.8l1.1,2.7
		c1,3.1,4.2,5.4,7.5,5.4H90V54z"/>
	<path fill="#202020" d="M50,32.5c-9.6,0-17.5,7.9-17.5,17.5S40.4,67.5,50,67.5c9.7,0,17.5-7.9,17.5-17.5S59.7,32.5,50,32.5z
		 M50,59.5c-5.3,0-9.5-4.3-9.5-9.5s4.3-9.5,9.5-9.5c5.3,0,9.5,4.3,9.5,9.5S55.3,59.5,50,59.5z"/>
</g>
</svg>
